<mxfile host="app.diagrams.net" modified="2021-04-12T07:38:27.768Z" agent="5.0 (Windows NT 10.0; Win64; x64) AppleWebKit/537.36 (KHTML, like Gecko) Chrome/89.0.4389.114 Safari/537.36" etag="5qZmovtK8g9p3iq9kdky" version="14.5.4" type="github">
  <diagram id="LhAbZpeS9GkicWkWqHAB" name="Page-1">
    <mxGraphModel dx="1056" dy="567" grid="1" gridSize="10" guides="1" tooltips="1" connect="1" arrows="1" fold="1" page="1" pageScale="1" pageWidth="1169" pageHeight="827" math="0" shadow="0">
      <root>
        <mxCell id="0" />
        <mxCell id="1" parent="0" />
        <mxCell id="6ULDxKy6Y6hXR02FpAX_-1" value="" style="shape=image;verticalLabelPosition=bottom;labelBackgroundColor=#ffffff;verticalAlign=top;aspect=fixed;imageAspect=0;image=data:image/png,iVBORw0KGgoAAAANSUhEUgAAAbsAAAJTCAYAAACRlrhsAAAgAElEQVR4AeydBZhUBffGjc/+9PsbgKAIBiogktLSDSLS3S0hDUpLigiSUgoiCIqghIlKSZc0S8d2d+/5P++5c+/cjollV3ee5zqxs8Owi/c373vec85dWVlZlHf8e34GmZlZlJmZ6bMjIzOTpCMjkzJsHxmUnqE60jMo3eBIS88gxZGWQWlp6dKRmpZOiiM1nVJlR0pqOrmPNEpJEY7klDTSHMlplMRHKiUla4/EpFRSHimUkJRCCYnaIz4hhdxHMsUnJFOceMQnU5zsiI1PIj7ikig2Loli5EdsEsW4jujYRJKOmESKjkmkKOlIoKho4YiMTiDNEZVAEXzEU0SU7IiMp3DNEUdhEdojNCKO+AiPo1A+Yik0XDhCwmNJOsJiKUR2BIfFUnBYjHCExlCw7AgKjSHNERJDQa4jMCSaNEdwNAUGR9NtsyMoim7ZPG4GRpHyiKSbgcrjRmAk8XE7km5YHNdvR9L12xHa41YEXbc4rt2KoOw4rN6H9v3j72Txdxd/RqqfnfJnK/yszX43t4Oi6HYwDv3fMX73fOj923A9Jv77wfVdeaD794AOv2tfwk6CHIBnG3J4rgpyuG8AOTyugJx4XwY7BeRE6OmCLo1SUl2HHuTEx8xgpwFdqjHoErWgk2AngxyAF8uHADkN6AA9W6AD9ExAF+0QdJFa0AF+lrCTAU6EnQA6F+xkkAPwNJDDYzZB5yvY6Z2IDUGHk7nVCZ9B5xnssgNy8j/DFHgaWGcf7ABCAXYWwMuD3b8LYnY+tGQy7Hyj6jwHXaYPFJ19VedWc1B2btBB2WkUHR5LFg6NoktKpSQd0EHh6Sk6PBYvwU5QdEagk2DnUnTGsJMpOqg7japL9EjVaRVdPIUZgI5hJyk6pbJjRacDOgBPgp0KdBrYySAH4AXykcNUnQ3YCapOB3YWig7gkYMoO26bwg7vVwG8PNjlWaE53A4WQOcbC1MBOkeqzktFx2oOoHPDzr6qsw87PQtTaVvKbUytdakEHdSdOezUqk4DOxNVp7QwBdhprEvYmVHCobAuYWNqrEvBztSzLyVVp4CdysLUgZ0EOkBPBTuNqpPBzhB0+CRvYG0pLC+P7UtYbAb2pWjRWSi7PNgJdq/656hW0GY2Jis7Sd2ZWJl5yi5P2Ylqzw06P8DOgX3pVY0O9qUEO3u1Oo2qc9XpdFWdpOhQr7NTpwPwfAU62JhuC1MBOyegM7MwDWp1eqoOjzmFnXmdTlR2FnU6GegEVaej6Fygs4QdTpI2YKc++brvm8DONuhUyi4Hqjoox+xTdviZKuuiPoEdancGwJPb4Xk1uxyuyERgeXPtS9gpVJ0D0KGm5xXsvAKdS9VZhFJgYeqpOsBPq+xSjGGnE0rRszAFRWcNOtTrpECKkX3JARWDep0EOtTs3KEUQ9AZWJjKUAosTLuhFJu1OjuwsxNKQajBDuiClCde5YnYF7BTWYA2wJIdtqX6z3AGO/ydLGqWovpVqWNB5Sl/5nmw+xcAyBt4OfleX4IOKU4Jdg5B53UoRWZdIoVp375UhlJ0VV2KCDn7qs4ofckWpgQ7lX2JFKYsmKJnX0qqzqXohGCKtlbnTl+KSUyDFKYCdHZgZzeUogM7QwtTqehEK9PMwtRVdmL6zsrCtAE6nGSVcJPf9xx0CK7oWpg5FHTOlZ0N2AGGLuBli42Zp+zybMycAjqvFJ1kX7qtS13Y6aYvlXU63UCKK5QiKDot7LSKzti+NKrVmbYayEIpEuhk6cuY2ETCoVZ2StgZgM5VqxNaDZSgy95anRZ23oDOjoVppRg8gp2VovECdHcimCIqPJ8rO1/Djut2JjW7PNjlwe6fCjv7qs4J7LR1OsP0pUGtTgk7L1SdCnbmoHO3G6C/Th1OcYNOCTt9C1Nf1WmDKapQCnrrslHVmcPOnoVpDLs7o+ryYKffD8m9dnmwy4OZmZ2ZI0Fn0kun208n1enspy/RSO4OpnjXaqCv6jxoNdC1L5O5cRxqTjykJnLJwlQpOle9TqnqTNoNFBam72t1qNnptRs4Sl/a6amThVJyB+hkwRQb9uWdBJ0tGxN/B1X7gWWfoS9tTDuwM1B3eQGVf3hN0G+gc9RmIDSaKyxMj2EnWJjOFJ29UIqRfWmk6owSmKa1OlmdTuqpQxO5DHR6FqZC0RkGUwxCKVIDuVLRIaCir+rsJjCtVZ0j2MlCKYatBrZqdYKi8y6Y8u9Tdbkddmg1wQcgPnQSmXmw+wfDTgk671sNpECKY9D5qqfOC9Chidwigek0fakHO24elxrI3X11XKtTgc4NO7ei0wOdXp1O20RuDDr01emNBTMCXbjDBKYtVYfRYGZ9dTLQ6QZS/KDo/G9f5i5V5ynsLBOZrrqdVUDlpo0wEVuZJqEkM9ihJUEEXl7rwT8MfMI4MN+MBfMUdAo1J44GM1F1VuPAdAMpSGT6JJRit1ZnMv9SAToBdsahFJNWA1mtzlrVeRBKMVR1+rU671oNnDWQW8FO0SyuPvHZ7KmzCzqcoMU0oaVdpwilyEAH28+GhSmGRO7ktZ33qbYxsx92FiPDbKi7PNj9Q2DHio7HgfkBdI5UnW8VnXPQ2bMvhZ46u6AzrtMp7UuVqlPV6gRVZ6DoZKDTqDrdWp0x7IxCKYYJTB1Vp51/6d9WA92mYPEEpoab+r4NdQDQZSvsbIDOJ7W6mxF0DYeXY8Ysgaeq2XkOO1jF8jYP/WCK+PvCtaDs8mCXN6bMBWu3fXknZ1/6CnTuQIoz2NnrqXPWPC40lANqeod7/qUd0Hmu6pShFGPQIY3php07lGJUqzOagem5qtNal5r5lw5DKcaqzn7yUh90yhqdaLk5UXXZ3lcnws3q2iH8LGGnCKkIvYR2VK/4M1VeZy/sUAuGc5Cn7P4Bys4NOu9rdIrGcUeKzgfbDOymL2UWpjt5qWwz0G0ed40EM4SdwaBnvTodKzqFfalqNVDV6qRpKbJQipS+hKqTKTuFhel02LMEOyXoDFWdzgofbjVQzL9UqTqdNgP3sGct7DQ9dTLYGYZSZPW6nAw7TxvIHas6K7gZfd0m9PwFO3xwUIIu+5WdWLfLg10uh50SdN7DztM6ndcTUqTmcbeqc5a+VKo63QZyk/mXRm0GRqBTws4NOh4LZgQ6o/mXFqDTG/as11PHPXYOgin2VZ0AO6P5l27Qaet0GlVnJ5RiC3TRgr1l08JUW2fCfe2JOLtUXbbBDhC0ATxPYOe5lalUdvhdyG1LvdtmVqYUUBFtb4NUZh7scjHs/FqnczQOzEv7UgKde0qKM9DZqNN5MBKMQafTQG6UvtSbf+lOXyotTIWq0+urcyk6DegwA1Onedwp6JDK1Bv2bFmr01F1nrca6AzwFU9Y6rqc5r59C1MfdDjhKmEngQ4BFU+npfgjmGKk2uw+7ivYSVamYGPmJtjBQciDXS6EnRZy3is6hX3pCHSqAc8mqUvdxnEJdG5Fp1unkyUvlY3jNuxLxUgwB6EUHdApFR3qdOa1Osm+NFJ1EuhsDnv2I+i0k1JU9qWPJ6VkRyjFLugAPgl2jkAnS2DaDKXYUnV2QebkeRbQs6/uvIXdnbEy82CXW2GXKaYu7yzoNPalCeyMWwwsQCer0WlBp1R1RrU6o346/Y0GFvMvpUHP5qBzqzo7CUw7sPNNX519+1LVQG6q6mzU6mQWphXoYE35olanDzulolOAzhtVZxN2dmxFTlg6AZnd55oAzxbsWN3dSdjppzIVVqaOjYl/b3mwy2Ww83WNznNF58y61FV1qkCKrnVpCjon48C0Q56Np6QYtxp4m77UbyC3DzpdC1Oq0ymnpRg1kOvZl1pV5x3oPKrV2bIwvbUvvQedO4EpG6NlE3R3TNXJYWgAPE9gZ2lluhSz2jLW+xCiV6sTH+OaHY8Ny4Pdv6IFQWlfet9ioAijOEpe+gB0kn3p3zqdYfJSd0eduLfOpM1ASmC6Qyl6k1Ik+1KWvlSATgql2NlqYDL/UkpfKkHn81YDM1VnNiVFlrw0bBy3G0hx7anDiU88CRpdYzKH3glVfdKVrEubis6voJMDyZ+3vYadCHlB4ZnWNw1h58zKtIIdXAArdZen7HKJslMqOu9Bp1B0jkCnqtF5MiFFUnRegs72ODAnqs4Z6PRCKRLoVHU6BexctTpFm4Hh/EuHoZRI38y/lNKXqlqdIpCiGgmmaTOQWZeGsHOdqIxtS1iaruZiG6ADAB2DzibsvGk1sFR1/gSc+rV1gGdb2bGVKey181zZ5cHuX6HQzLYVGH3N17BTqDpHgRRnqk5Tp5NAZ1GnMw2kKOt0um0GFqEUp60GQhBFGUjRA527TqdMX+qBzt6kFPcKH/X6Hsy/1JuBaWRf2k9gChamBDuVqnPDzlmdzivYORgJ5hHsbIRS3KpOFkqxmb4UQWJar1MDyZ/3cxns8Du1Und5yi6XKDdTyPlwDJg3ik4TRoGqMwmk2KnT6SYvHdTpdAMpFqDTr9WlkGlPnR9CKfZUnXEoxcmkFAadzlgwo1qdBDqVqlP01KlUnaZOZ8fClNlPxsrOfp1OH3TaOp0ilPJvA50coiroiVC2vObxYTZsTPxsDa1MpQLH787ssIKdwsrUCank2Zg5GIZKNefj1KVD6zIjQ8e+9Bh09u1LZfpS2ThuDTod+9KgVqc3Ckx8zNtQin5PnSqU4nD+pVvR+bJW510oxbGFKQOdcfoSgQTfw048AfO1Ddi57UuZqvNVKEUOn+y+7RXsBCvTtGZnCjullWkGOnzNEezwb0sFvDzY5VDY5WbQaaxLKYySDdaliaozti7tpi9VrQaqSSmShSkLpShAJwulWKs6k/mXBulLn4ZSVNaluIlcsDBjKFil6hSgs1OnsxVKcZ/grE6E+Lp+KMVE1dmAnHgid8POFc7wBeiyG2x6f14ugp0SePqtKWZWZh7sciDslKC7s2EUp4rOLuh07UtZnU4589Jm47gJ6Ez76Ww1j6vSl7obDVCnUy5lVcDOUSjFV/al/voeti915l9K9qUO7KRanSp9qbEv7cBOpup8YV/qB1K0U1Ky277MMTU6PdCJj8mAZ2lfyiHvsjLFDwSm1zaszFt2x4ZxC4I+7MyszDzY5TDY+RV0joIowmBnTZ3OY+vSreqc99MpAylm9qXR6h5jVWeSvtSp0+nNvpQUHUCnSmBKsLOYlKIcC2YMOvdWAy8HPUdgOor88FEoxQ7oXKrOGHKuE5lFDUeu9vRhp1V1ntuXYtzembIzhJ0ImpxwLYMd3q9t4PkYdvgdyn+nerfdVqYN2KmszDzY5SDY+XLxKoIouSaMIgukeK/odOp0BtsMEgwUHY8EMwKdmaKTgU6CnGRdJlFMrKpOZzj/MoE0yUtxTJhkYcpgZ9Bq4HRSiieqTmFfqgIpuulLW4oOJzL7dTq7oHOq6jTWJZ/c7cPAEHSAS06AnPgePIUdwOhaXmuq6kzrds5CKpKViX8fBlN2jKzMPNjdYdixkkPa0seJyzsOOp06nbeKzrrFwD7ooPTEAIr6WhlIEep00uZxQ9jlrJFgpm0GOoouFKlLneSlIn2ZLfalfwIpnoNOFkgB7Gwqn1wDOm+BZxd2LuDh96A8lLCzre7yYJeV6/r0lJDzTeIyu1Wd3TqdLuzuSJ3OYvalNCVFFUgB6FSw02sgN1J1mr46bDBQH9EmFqaeqovSbyB3quqsYee0p06bhuN0nEvZGX0qZ0WXp+qyX/l5qu7yYJf7oGPU5+bPx/0FOs8bxnXaC5z20tltGpdZl2gvULYY+CaQot9P5xx0UvO4Eehk6UtF87jCwkwkKYGpt5CVoWcHdMpWA70GciPQaUMpDloNHKg6deRbum9pYbrTl6jN6NVs5I/p25faUIrTOh0sOcGek9XpbCo6UfkZKjtRSeW0axXsbNfuHNbtlKpO2Xog/j7lv2Oj21y7M7AxjUIqeTbmHbIx/5Gg07EudVOXAJ0Kdrq1upQ0MgyjuJKXRoEUp+lLpzvq3KEUpX2pgJ2j9KUH8y91a3Um6UuPQynKpaxmdToJbKoeJ7GOYqzonC1jxUlQPDm6r9UWmXDfKew0oHNgXwJ2hqDD13Ia5OTvR/XeRXBbXjtQd7ZgZzeoYsfKlP07zINdNsOOIeeH+pzGuvQgeZkuzrl0quYAOSegk1mXVorOEHbJqM+Jh2pHnUEgBRNSjKakGMFOqtXJeur0rEtATg90GuvScP6lHVVnHUoJN5iSYjkpRdVqILUZhClBp2kzUIVSdGFnqeicBVL8CTpdVecr2MnBkhNvZwPs8MFDCTy9Dy3Wql5QdjZCKnmwuzM2q7/UnLdhFE17gQXs/F6jcw14NgykeNRPZxxIMUpf6oHOiaLTpC+dgs5g9qVR87jRSDDt9nHzNgNFKMWseVwFOs/Tl/aTl6Kt5VZzWttSfjKVVJ2NBnIxWahRdg4sTENVlxPhpn5PXsIOPzc7qUz570e4rQWe+Hs2unbUguACXp6yywZlp1VzvguiKOpzjkeAZdCdAp1W0Sl76TwFnal9mWinp05oHpdAp6rTSbCzVadTtRrojgQzsS+lQIp1nU6o3elbmAw7KYGpqtPpJDDdqs4ilGKnp85S1fknfSlBzuY2A7ei8yx9aWpfqqGSk+/LgGdpX4ofAqQapw9hZ2Fl5sEuG8DlNLCSbWrOA9ApbEvRwjRpGvdK0Tmo0ZlZl6jRGdXpnDaOs6JTJC9V6UuZdQnI2QKdFEqRBVIAOV3QCdalk4WsxqrODujQRG6u6iTQWQVSVKrOM/vSHUgx+gSvflyp6IxVnQQ7O2pDdrK+zoELZ43j/xjQAcIy2NkPqYiBHnuw01qZzoMqdmCnDqrkKTs/A9JfsMtuRefVBgM7oJPtpjODnWGdzmDAM9foDJrH9frpkLyU0pcq2Em1OhuqTkpeykCnnJLiVnR6sHNvNFCqOiPYoSandyhVnQA7r5vH7Sg6WEd22gwcrO7Rgs7XsJOlLx3U6dSAUNzPySrO6L3JgGdL3fEHBJvAszE2TPw9qz/oqO9b1e3yYOdnuInKL9usSw+CKE6tS13QeRhI0U1dykBnaF9KYRRnjeNGgRStqlPNvjQCnWxKiiaU4lJ1RqAzgp1mWoqBfWkIOoNQih7opH46f9qXltalexwYTljqk5jeffEEqLxWhx28SV/+y+1LOfhksPOXuvNZ3c4kkZkHOz/DTgs53wxy1qQtHduWwqxLp9alLug87KXzGHRSIEWVukwW7vvcvjSq06lmXxo1jytgZzISTE/RuWdf2lN0ppNSdFoNrFWdl3U6Geig7IxbDZyFUpSQM1Z0OIk6sTDdoRQfqzo5PHLjbRnw7Kk7m8rONUlFa2X6OaQSHE15NqYP4ZfrQGdSnwPkdEEnKTqLnXQOe+nMrEuhRqej6AA7wzYD4/SlkzYDqU5npuhkQ541CUzdBnKHbQYGU1JMQylSIMVdp5NUnarNQJG+tKrVWVmYMtj5D3T6sJMgZzOU4i3o/lG1Oj0gu4BnC3YIqzjot9PCTlu301P46scEK9P4Q5VopeM6D3Y+gJ0Euezon/NQ0Tm1Lu2GUQybxn3RSycpOqegSyGnQ56N0pd6dTqFopMCKcaDnpUjwXwXSjGalGJkXzLszECnajPwpqfOFHT+HgfmCHYqRWezVqeoy8lUED+uB47c+Nidhp1FIhPgy4OdDwAm1t7sXDPsMtFO4LuWAl3b0kPQaaxLC0XnFehMIedsDJiZojO2LlMNQWek6CwDKSpVp4CdTNXp2ZdK0LlDKZo6XTRsS/GQNY8bqDoj0BmNBDOyL6X0pap5PCdMSdFalzYUXTaAzlTRARC5EWx671kGcVvqTpZqtdNvp1V3HlqZJnW7PGXnIxj6E3LeNYqjPmdQo/MR6HSHOqtSl9peujRKsRNGUSg6fVVnDDv9Xjpt47hqm4EngRQJdKo2Aw/qdJG+Ap2iTud5T51j2FkmL/OmpPgGguF07abe4QfIOoWd11amh7Czucw1z8b0AHySbeknNec96Jw3i5vX59yLVw1tSxXotGEUZdO4X2p0aDGw1WagSl4aBlKs515qanSufjpN8tJs0LMEOmUoRajJabca6LUYsKJTgM5dq7NWdcpQiqeg82kgRTP70jfJS3fzuGf2pamq01NHPnjs6s1wsnMoIegj+HloZXo2TcU57NxWpvXosDzYeQI7CXK+ty39BjqLEWC6sPNZ6tIm6FyKzqhp3Hg6CjYZ+DqQksyzLo3aCwA58VDYl7rN41jlYxBK4ZFgiRQRnaha2IrvwQSWZIrkr+HriWx12oOdqnncrNVAFUrxPez8MyVFkbx0ZF+q2gzERnJxIojFtW69zgdQkys/O3Azeo5PoedY3TlLZVq1IKgDKXr3rfrtRCszD3YOYOdvRadoFHfcP2dgW3oCOSlxCUVnQ9XJ6nRaReeyLu3Yl2a9dIZN405W9rgnpBjV6YzSl7bqdIaqThtKSUrJpEwiSkkjSkzOpNQMotR0oqSULEpIyqDYhFQG263AcIqJS6XYhDSKjEqkyJhE/roaeMpQSjbal3aax8UggY2eupsaRadfp/MEdIKqyw2Kzp6SM4IdHvcH8GzV7RxamZawsxtSsWFl5sHOBuwkyElpS9/2zumGURzDLoM0QRSvQeduL/DcvnTX6Qwbxr2q0RkHUpw2jhuBTrHNQJa+1FN0WvtSBrqoeIqJS2aoHT1+ilatWkPffLuFVq5aQzNnzeFjwMBB1LFjF6pfvyG9Vup1eqnYy/ROy9ZUu3ZdatW6LW354Uc6dOQkxSWkkdhj5zHoVIpOk770YZuBneZx/4POD4oOyseHqs4MYPy1G+F0VX1Y2JwC+Lx4n07VnYOgihXsEFLSU3Pyx1jZMezMrcw82FnAzh1C8Q/gvLctDRSdRRBF17ZUKDoboJMpOm0YxRPrUj+MYtpLZ1ajM5t7qarTSS0GqsZxp6DTwE62eRygS0hKp3Hvj6f773+A7r77brrrrruk49lnC9MzzzxLjz76KD31VD56/PHHpa+JzytRoiRVr16D/jp4lIHHtTqdnjqndTrHoLOj6NBU7lJ18pOT0W276UtPVJ3QA+YHVecj2JlCTg03q/sq+Hmt8rIVdjr9dhbAE/+N8bXJIIM82BnATlJzfmgn0FVyHrYVOO2fA+T8DzrfWZfmdTqT5KUCdLJ5l4CcCnRuRaes0ylAZ1GjA+Q0oFPV6bKIaOKkqQywUaPH0YmTp+jzL9ZSqVKv82MV3qhIzz33HEHd/fTLTlr/9SZa9/W39NW6jfTVum9ow8bvaMbMjyhfvvzUuUt3+nXnbkpMyaJQFewk0JnV6ax66nyo6ozgJn/c/6oul4HOCmhmX1fBzie2phPgOVB22vYDLex8pe7yYKcDO7ea808AxXs1J6QtPQGdbg+dpOhsqDlV6lKr6Ny2JRKXhqlLG9alJ4pOa12663RS47hum0ESxXrST2dRpxP76VLTM+nXnbvo8SeeoHnzFxEuyanEdbuomFhq2649FS78HCu60mXK0vETZ/k56ZlEaTgyiHAbl6WfraQnn3yS2rXvRDcDIygyOskFPFUoxaiB3JF9GU2ajQaWU1J8EUixUauzsdHAUNHZbB73Z/rSUM2Zgczp11Tgc6s8h7amE9g5qdtplrmKqVtlMlP+wUjvth11lwc7GeyyQ80pQOe4Lif0z+nW5ryuz9kIoliCzoF1mQLLUjx0Zl4ajgEz3jYO0Gn76VSqThd0JopOVqPTtBnoqjlt8jI6Nonty4oVK1GrNm25ZoeUJQY740Aw5fLVW1So0DMEdVeqVGk+MPEE1qc8jII6HS6Dhw6nChUq0tcbN1NcQrq0usdoJJi7eVzZZuAX+zI7Aim205c6is5B+lI3eekv69IpyOw+XwY8N+zEEItN6Mlgh5+JdVhFSGV61lyuVXd6gFM/JgHPwMrMg50LdkrQ5VRFZ1CfswE6XevSoLXAMIwiq9FpU5cu0MlSl96oOrOmcfubDFSqTgU6W/alAnb6zeNWU1JS07Pot9930YMPPkR/7NrHcAO0RNUH4GVkEX3+xVdUsuRrVK9+Q37u4qXL2aYUgygi9BBOOXbyLFWpWp3atutIl68GcpuCEeg8nX2pUXSyOp1xT52zHXVa+1L8ZK+9djr70jB9mVNVnV14OX2eDHZeWZoy4PkMdq7B0FZBFTXY9O7nwU6m3IxGf7ltS/+FUBSKzkF9ThhBpoIvUqFZWcStChl4z1k8MUWsx6mvza1L54rODugMk5fS8lXjMIqxfWm3RueGnHWLQbIt+9Ioeamt0wkjwUSQAYQZmUQ9evWmatVr8O8NcEtMzqDkNGLFl5iUwbCKjU+juvUasJ0JMBZ65hkKuHSDYuJSFOoO6UtYm0OGDqfXS5elL9duoMSUTJJqdSr70q3qYglKTjwc99O5YGc899IdSMGJR++EJH/M40CKbVVnkL60ATtDRSee8L1IYOral04B5vT5vgCe+He3peygqO2rOy3slOrulkVIBf+u8mBnAjs35FQwyfQt9Jz0z7FH5fA/GA0mXmyBTlJ0zmt0VqAzhJymRqcPOzNFJ9qU6mvtzEs37CzrdDYWsRrZl1agA/Bi41MoJDyGXnjhRW4tQN0NoPv71HkaOmwEde/Ri/buO0SJyVlck1uydCWVer001a1Xn55+uiB9umAJpWZkKWEXHkcA48lTF+h///sf9R8wiGLikyk0Ml4Angx2CtCpQimOYGdZp/PfODBN+tIG7Lyt1fkLdhrQOYWWt8+XQc8jS9MR8OzDzk5QRf5Byeg2A89gVua/1sZ0g863YBOTluK1XdBlIapHRAEBl2jz5s30xx9/0oYNG2nOnI9o/vz5NH36dHp30CBq06YNVaxYkapUqULdu3enYcOGUe/efWjr1m0UERnJryECT6PoJMjZbBZX1eisQOeNbWmeujSejqKt0dkFnVbROWO94EoAACAASURBVE1fauxLVfoSsEODOMCGVoKTp85TZhbR8ZNnqFixl6lHj17UtVsPqv5mTTpz7jJbmadOX6QypctSy1ZtKH/+AgwyNKCLVqbYUxcRlUSBwZH0VvMW1KRpczp09BTFxKcRLEv54YadW9Fp6nShMRQkS1+a2ZdWqs7oJKR+XGtf2gikAHLZADrTUApO9h6quqs3I5Rjv7wFlyffL4OdR5amI9gJ6s6ybmfXyvRS3f2rYMeAkxrDc46aE0E3d+4n3Fv1yCOPSP1V9/7nP1SsWDG677776P7776eHH36Y8ufLp+jRuvfeeylfvnzUuHFjOnb0GANPAzopcencttQmLmX1OVmNzlDVSdalThDFtYDV1Lo06KVj0Om0GEjWpU6LgbtOp5x76WRCihZyxtsMoOQWLlxKL774El25eot/N2+99TYhcYlxYOkZRB9MmExFihalq9eDGHjj3p9IjZs0Y2WHtoSgkCiKik0mEXRCq0EspWcRTZsxm63P43+f41SmP0FnWqdzsLYH4NNamNoanSeKzrROZ8O+9B/odKaieAIrX3yPDHh+V3deWZnafyfqD016943U3b8Gdm4l51/IOa3N4fm4LFy4iAE3c+ZMunz5Cq1atYpq1a5NL7/8MrVp25YKFixIn376Ke3YsYM2bdpE33zzLW3cuJHV37p162jo0PeoSJEitPSzzygxKZkVhAQ8SdE5ty3tgM4QchrrUgd2hqlL83mXWtB5rugUoJMFUozqdBrYyRrHxVqdeI3fbb/+A6lL1+78ez5w6Bh/aPlq/TcMNjSZB1y+QQ0aNqa5nyzg58ydt4CTlu07dKIqVavRbzt3U1wiEpcY7iwesRSXmEq//b6HnitSlBYtWc6pTBF2PlN0slCKoarLjsZxG4pOVBDXxbSl+tpGrcnUvvRA0WnUnAgaX0DLm9cQ34dmtBhSmhbq1Ym6swu72/ofdtQfiryp3f3jYadUc/61LJ2CTqy17d27j0G3aJHQf8VnPCKKio5m4FWoUIGbjceOHUuBgUHilzXXM2fOYhU4eswYioqO4eCKMNvSpm0pS1sCclrQaZvFvbIuTUFnHEYxA52k6lTJS8WEFBt1OiPQaet0BgOeoxMIa3tw6da9F7Xv0JFvL1y0lEeAYagzlB3sSXzcmTn7Y+rQoRMlJSfTX/uPUIMGjahTp65UuHBhVm8p6aQAHZKXeI3bwZH0+ONPENQiWhgAOzfolIEUjX0psy5hY3pmX7qDAXqfstWPqU9e+sEE4cTnNH1pCDkRencEdjlI0cnhKIOd1s70IfDuZIM5PoTJ2hD+0bDLLjWnqMs5SFqK6dDatWtTkyZN+GSIx8Q+OjwQcOkSVapUiUqWLEkPPPAANWvWjIR6YBZPQkF9DgouA8UgIurcpQu98sqrdPjIUYZdOqs6t6Iz3ENnWZ/Tgs5Q0Um2pX4IBfU5Y9vSXNF5Hkax30unCaTYbBwX1Rxf8zYDAXaoy4mw69S5CzVu3JQHQCOVCdghsLJrzwGqWrUaXQi4TgGXb/KElJ49e1OduvXoveGjOLwiV3VIXkbGJLH1+XTBgjR6zAcUFBJN4ZEJbtjJkpe6CUwZ7ALVsJMFUoztSyF9qQaa0X1tnc7o07yrNifW6GyqOlPY3RHQqWp0AIwcODnhtgx6jixN2+pOCKkgMCQqb8Nr3QZzHSvTw9rdPxZ2btDlPDUnLFYV7MsDBw7QQw8+SDdu3GBYAXQiPAEyXGBZvvHGG/Tiiy/yaCmEUXBRB1GAuytXrlLNmjWpYcOGFBeXQIAn+ubEwxB2KlWnDaMoYWcIOpd1abZlHKAzhp1507gWdnZ30zmBnWf9dBrYRSdSahpRm7btqUfP3vw7q1y5CoMM2w2wmRywg8ILjYjlOt6PP//Omw8aNWpMrdu0pWeeeYZ69+lPyamZFBYRLzWPA3YR0Ul07XowlSxZioaPGEPHT56jqNgUF+yUgRTHqk4GO/mnY+VtQdUZwU39+B1TdTZA549ana6FmRMAJ38P2Qg7S+DZhB3+Han/banv67Uh/ONgp7Qts7E+58E0FJz9+vTuTXXr1hXUmphU4dOi8B8BVmnUoEEDql+/Pj3//PP06quvUnR0jAAyl7IT63P4rhEjRlKBAvlp27bt/CJOQKeFnLOpKG7IGag6K+vSdhjFXaMzsi7dYRQt6LxOXprU6cSt47AZYS1ia0FXV80ObQWYfYlRYSLscB0bn0pvt2gpQbFWrTrcR4ehzzVr1WHQAYp4blRcCsUmpLM6jI5NYUiWL/8G/bl7P8UmZlCwqsXAMehkdTorVYeTivpEo3dfCzr99KXCuhSVnaUqMJmS4otQigcJTE2LgQgVOWhyym3Xe3Ok7FDXc6k7ywbzO2Bl4t+gEFRBS4xw/GNgp4Scf9WcqLykaw9BFxMdTUWLFqVp06dLeAsKCqJJkyfThAkTKSAgQHocgZUaNWrQwIED6fXXX6d169YLINOB3cWLAWx7LliwgDA/EyDUVXQO1ZxpfU4RRtEJopjuozO3Lm3V6HSSl+46nTJ5qQc6jPSyXaczA100to0LB5QeWiCh7Dp07My/r+LFS1C/fgMl2IVFxrG6w1QUrPnp3acfPw8tBbVq1aX/+7/HqVLlKqzooAaDQqPp1NlLtHffYfrp599pzdoN9NxzRah+g0b8OCs7lX3pqJ/OFuiczb60CzpN+tIScoI15lf70iPQ5QL7Ug5aEcQehlUsYXfLD1amjQ9Z/0jYuS3LbFRyDmpzom3pvhbsybPnzlHBQoXoytWrfIJD+KREiRLUqVNn6tKlCycwDx48yF+7efMWVa1alSFYvHhxmjr1Q348PSOTYSYGUWBtAnDdunWnUqVKUXBwCD9PAztfgs7rGl0KJThSdG5Vp7fBwEzRKZKXNjYZaJKXMcoJKRrr0gU61ONw4NKNa3ad+PYbb1R02ZhE4VHx3CwOKxNKb+h7I6h8hTf4ea3btKOy5SrQo48+Rm++WZNq1KhJrxYvQUWKPk9PPvkUoT0FNdyHHnqIR4shtXng8Ele9CrW5zSKzkE/nc8UnabNwLd1uhti+MTo2oaFKSoU3WurZKLO13VVnRwuOfG2IfDsJTPtAs+wXif/YGPDzrSTylSru1yt7Nxqzr9KzpOUpRtswvBm931hySrOaFu3baOnn36akpKS+QTXpk1bwskQ1iUu7du354ZxvkNEkydPphYt3qG6detRrVq1KDExSZW4FGpzeP6MmTOpTJkytHvPXv52CXYqyGkTl7IeOtfWAm8VnXF9zrVl3Ap0DnvpjBSdAnSyFgNNIMVwwLMw5FkBOKQuxUMFOhF2aDvo1Lkr/x7efvsdql2nHtflADnMuxRgl0WjR4+jOnXr8/NQ44N9ib5KWJlYDTTv08W06osvafWa9fT1hu9o245f6dffdhPU4uuly9De/Ud4soovYCdaP9rrbEpf2gqleGdf6sJNFrywjODrgk6l6nIi2Izekxd2pjXsnI0P005U0Qmq2FZ3Qioz18JOd2akj8d8CanHTCkw4o1tCbUlX8mDM9rIkSOperXq/Pi5c+fpvvvu5z46Ptuh9SAqil577TX66edf+KHFS5ZQp86dqWOnzvRSsWJ05oywBkasyYnXeJ8hISFUrVp1mjV7Nn8vw04FOm19ThlCsQM5d43OuXVpqeYUkHOrObManaTqVO0FCutSBjqNdelKXmoVnWzjuAg38VqCnGhhCqoOsMOA5+EjRlOLd1pxyhZW5SuvFufJKnLYwcYcPmIUh1HwC+veozfVr9+IVRvqfBHRCdxEjnmaUIFJKSQMlI5KpNdee50TuL//uY977UTYGdmXmuQlrEuZfakFnFj3cBhICYqiwJBYCo1I5CMkIpEiopOlIyo2jWLiMyg+iSg+mSguiSg6IYMiYlIpJDyBv9dMCZjalzZqdb6GXa4IpBiBDo/L1J22HcFE4dmt3XllZ+rAzmFQJdfBLjdalmrQIXGJyzvvtKQZM2by7U8+mUfPPvssB0/wgJjEnDJlKo0ZM5ZbC06dOk2NGjViexIzEdeuXcffK0IO14AaLpcuX6H8+fPTt5s2EYRialoG982J/XNaRed70FkqOtdKHtTk1AenLhMAOPFQpS5VfXQS5GxuGoeaiwHY1IeRqjOp04k1OuHaDbqIyHhKSiX65tsf6H//+z8e6vzHrr/Ymtyz9yAlJiNhGeda9ZNAI0aOpt///Iug698bNpLat+9E//nPf6hS5aoUGBJFEVGJilFguH/9VhiDrkqVavTXgaOSjWkEuuzrp4uk8KgUnpRy/O+LdPTEeTp87Axt3fEbbf9xJ23+/kdasnQVTZ02i3r16U+dOnenfgMG06QpM2j5qi/pj90H6XzALX4NPeB5CzooEVPY6ag2K6WngZ0ZWHLq12TAUwZWrGGHn6elwrPbZK6xMrWwc5bKjKJcA7s7Bjkva3NyNSf2z4kgQ8/crFmzGE6DBw+mVq1a8218HaESXC5cDOAQS0REJJ09d55gdXbs2ImeeeZZWrRoMT+Hk5gu0Imwu3DxIsPuk3nzKCYmju1OLeBgWXpjW/opcWmg6KShzqZhFGXyUmFdymp0RtaltmncrnUJVecGHVQbDii202cCeLs4rqNi4rnuNmXqdFZ9gB2Wr968HUZt23ekffuPcpM5lN2gwe/Ro48+KsAuWAk7NI6HM+xCech0y5Zt6cy5K/xanoLOV3U6WFDR8Rm0/9Df/N7vuusu/ns8W/g5uufee+mee+5h+GMBLb6mPh566GEq9XoZGj5yLO3Zd5RCwhM1PVrews4UdA5DKQLkcrF9qQavrp3pW9hZtiHoTlTRAk8v+at+TGxDyBWwc4PO/7U539XnlLalBDrX7jlQCr1U06YJSUwkLXv27OWGlwt2sXHxhEAKhkPj54D5lx9/PJdeeukl6t+/v9A4npGpSFviRW7eus0tCo0aNqIbN4SZjPqwc67oPFu66kpc2qnPKWCnUnQAnQp2ihqdl9vGtbAzn5DiVnVu0AF6IuzQUnDlWiCf3Fes/IJ/vwMGDOIEJaag4OtQcqjDPfPss7Rv/xFWcIAdNpo/9PDDXONDjx0axuXjwBh2N0P5g8+YMeOl2ZgK2Mkax3VVnYN+OjttBvi0HRGdQvsOnKAnnnyS0PA+aMhw+nDabJ4Pmi9ffv5ZNGzclMpXqEgdOnWlkaPfp8FDhlPf/oOoR8++1Kt3fx6O/UbFylSvXkM6efoShUYksWoQVJ53tTpLVecR7FQ2oBoguem+U3WnUsmm6s7HbQh2giq5BnbZCTqpJgc157GiEyCnq+hkS1Zx1kPjtwg71OYGDBiogB2moiCsgjpdH1ckHdNUBg8eQm+++Sb350HVwabka/5u93+GDRtOjz32GF29eo0fNKzROQii+KtG59f2AlmNTqPoZNNRnIJO7KeTKzo56ERld+pMAKsXJCxxOXv+Mj32v/9R374D+D62lLdt254mTvqQJ6UcPHKSe+eef+EFVkGYmymHnTgODLC7diOYnn66AM3+6BNeE6QAna/Sl8H2eunwiTooLI5rbVBm1avXpBOnLlJqBlFsQibBzuzWvTf/3QoWLERFn3+B/tx7iH8GsYlZUu0OdcmwyCTqP3AIh3TeHz+VTp29QkGhcWSZvrwjtbp/EOhEKPtN3d25NoQcqewYcFloIxAP/yo6X0JOoeAANxngYE+KB/4Pr1evHn344TT+n71E8eLUv79w8mNbEs9Fk1YW0aefLqDp04XaHsaKoakcA6KrVa/OA5/5BYgoJjaOa3VHjx6nPXv2UMuWLemVV16hsLAIBqIbdlo1ZyeMIig6/SCK1Yoes+3itkCnU6Nz1+lM+uhkoNPU52Sg0wRSXDW6KDGEIr82CaTowQ575+699z9UuUpViokTgiabvttKz7/wIicta9Wuy5sPrt0Q2kS27fiFKlWpSk2bNWdItmzVlgMporKTw+7q9WAqUOBpmvPxfIpPyiQF7LxWdc766QA7QG3suIm8eBZ9cwihAFC4HR2XTmfOX6UGDZvQs88WpvwFnqZ6DRrRhcu3GZJibQ7KIDgsnqLi0mn4yHH08EMP0+er13OYxdK+tICdpX35b1d1Iuxw7SHwTJUd6noO1J3+7FSlnam2LfXuQ93lKNgpIedfwGnsSo+VHFoLXFDTu5YBTgQdrnFB2GS2Ky1ZsWIl6tO3Lz8uwg69c7gMHzacWrRowbc7derE2w2eeOIJhh6AV7ZcOW4zwNaDxx9/nOPqDz/8CKuC118vTYFBwTLYuUDnQzVnGUSxY10aBVF0bEtAzinozBSdBnRmvXSypnG1okMgRbQvxev4pAzaf/AY/fe//2Vwbfz2e/494j9/nwmgRo2b0ruD3qMzZy/T+YtX6fjJszRg4GAqUbIkNWzUmMqWK8/tKFCHCUmZFJeQQSHhcbxtPDwyka5cC+K9dwsXL6O4xAw37GSgMxvwbFyncw46ACrgciAVKvQsLVq8guKTsiTQiSctpC4XL13JK6oaNGpCL75UjIYOG0UxCZmauhxSnBcvB9IrrxSnevUbUsDVILodEkuGwLMRkLCEnYNgiiaQItp/cmDk5tvi30fTbG5dv7MLPPEDjuG1Jqgi9mm6gWfHygQAcwzs3Hal/xvDNaDzYAKKum/OrqITgYeTHdKYw4eP4JNf9x49qV279nxbbBAXYffBBx9Qly5Cn1a/fv15gsrdd9/NDeiDhwzlnroVK1fRmjVf0saN39APP2yj/fv3c3M6UptizS4Fu+fs7J/DNBQ7My5du+iMt4unWjeLO6zP+Rp0jqxLqDtJ1SlrdGpFB9ihnoedcwcPHed+SvTCYT/d5u+3U+/e/WjDN1sIu+v69X+XWxOKlyhJ8tBG4eeK0PvjJ/HiVzSYv9OyDX3z3VbefoDanRx2i5eucMNOATqdbQZ26nTiuCUbvUw4kaBWFxWbTp8tX81hnIuXb7HtiDaG8KgkiozBzM54uh0cwyqudu16hL/fq6+WoHLlKtClq8EUyDalcmBwXCLRhEnTqORrpWj9xi0UFpXsP9g5Bp0qlAI45Ga46b13f6k7VxuCIeTEJnMbsLOTyswRsHOrudyl5PTaCYwsSxFw8mtQbdy4cby6B7enTJ3KEEtNTXM1iqez5QkwT5kyhSZNnsIgHDBwIJUrV45VGyakmF1Gjx3HEzauXr3OT5ODzr5taZC4tBz/ZT4VJSklnfvEUtOyCAccWyxuwLXeRWizJ4LYTUhKI/TNqQ+j5KXGvjRoL8DIsNi4ZIrD7Mn4VIpPTKO4hFSKiUvmIy4+lXvc8B7QPye+VdyPiUvhlTsAnAg6PHb+wlX6YvVXPO2kXLnyVL58BT6QQMTS3arV3qQnntBPJeI5sCgxRQUfbjBt5+VXXqHdew9yiwFaD65cDaR8+fPTF2vWU2yCS9kpYOfqoRN76fzRTxcowC4hmajFO22oUeNmFBmTzHALiUign37dRctXfinU3cLiKDYpixYtWcFQ7NylO9Vv0Jg+mrvAZXkqYYc6XcCVQF5Q27ffuww6bE/QqLucoOr0YJHbH3MKO3xgcAVW7Kg7S9gBerrAcys7hp2Nnrs7ouzcgMuempxGyXllWZrYlgaWpRxyuA2bEpeffvqZChQowGGYH3/6mUdABVy6wl9DzxxqlgkJiTRy5CjavEWwv8ZPmMCBFZwIy5YpS0lJKYT9r2L/nFiXw4sMGz6CoOyuuTYqAHB2ICeEUDytzbnUnIF1if45QCIlLYtu3AwSjhuBdOjwMfpz1x7af/AwbflhG322bAWNGjWW+vbrT/PnL6BNm7bQ6jVr6c/d+ygiKo6hCGtS3iyOVGYc26GplJCQRolJ6RSfmMqPAYTxCamUkiqAlX/Iqv/g1xIZFU/XbwTR7aAwunLtNl3j2+Gs0i5duUUbv9lCi5cso0mTP6TefftTx05dCMtWkbhEm0FCUgYDGb/hOR/PIwQxYDm/8UYlhtWsj+by/Mtu3XvSyy+/wqqtXPkKVKdOPUJtDhbmlKkzaPrMj2jW7Llci1uxcg19+91W6tixC2+s/27zdoYt5mBedsFu9ZdfC7DLZtCJqi4oNJ4CrgTRCy++RBMnTSMOmUQlcRITMH+zRi0ehXb5ejBFxKTQidMBVKLka1SzZm3q0asvNWrUlIMtt4KiFXbm9VvhlJBC1LlrD6rwRkU6e+Ea3Q6JUcIum0GHfjuxniVdZwPUrtwIJ6vDL8rSKfBk6Uxz4AlhFUvg2YCdHXX3r4CdbwIo4tgvg/qcA9CJsDtx8m8qVKgQRUfHEhQdbi9btlyCHZKYaD0Y+O4guhhwiR+HsuvWvTvXf7D/DPASYSeCDte4wCJFi4JUsxPtSaNr14xL72BnrOgAOlzQL9i0aTNWnfkLFKDSpUvT//3f/9HDjzxCjz72GN/+738f5b+jvAfrkf/+lxo1bkKTp0ylU6fPMPASEoXoPl4X6i8pJYNCw6Lp2vVAuhhwja5ev03hEbGsBsPCY+jgwWP01boNPHT5/Q8m0KjRY3mT+IAB7xLSkp27dqOly1ZQ48ZNuP7ZsFETmjBhCrVu3Y5wu2rV6twz9uqrxendQYMZdk/ly0evlXqdt5GvXLWGPlu2ioJDImnEiDH08dxPacTIMdS7d1/q228gjRk7npo3b8GwwjDnp556im7cCuOfC/6DDwI4oBwxKSU+MZPtSXytZq3aXOP75bdddOrMJSGhGZXI6m/T5u0UG59OaC8QD7Nanc+mpLhUHdoNfvvjL3q2cGE6ffYKT0RZuvwLBv32H38nTG3p1WcAb2Q/de4KAw9pyzp16lO7Dp1Zvf65+xCnMN0nP6HFAOrw910HCDbvHCjA+PQ7CjvdWp2fYWcFOfnXfQ48XdiZLHi1DTshrOL+fStVvfxxsearvHam7rIVdndc0Xlcm7PXTqBWcOr7UvDEpezOnD3HVtaSJZ/xyW7IkKG8wic5KVlKWX7/ww/82BVX+8Co0aO5zw4zE9F+ANjB+pODDnYlLoMGDeYQTEJCEmVkZAl1OCPQpcCuFA8DVWe6nsc151JnGgqnLfHxnIhOnT5LhQo9w9YbrNsFCxfzSCz8ferVr09du3XnuhWU0OjRY2jEiFEMI9Q0e/fuRQ3qN+Qme+yF+/vUWVZuq7/8isa+P5769R9AQ4YMo6lTp9O8+Qtp7LgPaMLEyfTuoCGEDeHNmr1FhQs/R4BTmTJleV5l23btqUWLltTinZbUqlUbfm6bNu3osUcfpRdeeIkBN/DdwTRs+CgaPOQ9OnX6Ap09f4luBwqAApRu3g6lce9PkOBco0YtBhsSkm3bdaCKlSpTteo1CGquUaMm1K//IIbYbzv3sJpH28CnC5fSnLnzafGSFRxYARBhe8LG/L/HH6f2HTrxQOjGjZvxKiConHcHDaUPp8/mfrZff9vD01oYdKE6dTo/2pf4VB0RnUrbduykokWfp6s3QikkPJ4w5ozDJ/EZFBaVRIAWfg5z5y2ilPQMWvn5V1T9zVr8vFeLl6Rvv9tOkTFIb4onPQF2weHxdPTkOcIHo9kff0qRcWmOYCfaaobXDmp1gqpTKTs/gU4OML59PZyuSEcYXbkuP/RVn8/Apwu8nBVUsbIzswV2Ssj5vzansS09hpxgWRqmLR2qOTXszp+7wCfI8eMnMAguX75CRYsUIYwIwyUpOZlat27D92FpXr12ncqXL08tW7Zie7J+gwYMufSMLBns0rg3Lyg4hKHw0Ucf8Wt5tWzVcrO4sZoTx4Alp6ZTfEIi1avXgJo1a05Xr93k94X/HDl6nG08LCotUaIkFStWjI4cPSl9XX4DI74wQxIp03YAScVKVLNWLWrYsAFPl2n+dgt67LH/UdNmb1Hz5m8TFBugN2zYSAIwsVcOVmh4ZJz8ZaXbsB/PnrtEBw8do0uXb/BkE6QkIZahuFDDi09Mp1hXXQ8zKnH/wMFj1KtXX07CorcRaVgMaG7QoBErMqQqixQtSk8+9ZSw8qdDZ7Yz69VvxDCTK1jU8nAfyVooH+zDa/72O9S6TXuGL8f28xfgCTlt23Zga7Njx6509txVtg9DI+IpLimTouNSOZ1pb+6lsHXcTuM4W5eqbQZoMYDqeubZwrw/7Pc/97MC3rX3MIdTEDePScykGbPmcu8c2hH+PnOZmjRtTm3bdeI2hDkfL+D2BBF2Yl0uMCyOTp65RBUrV6HRYyfQuYs3lFamiY1pCDiZ+rAaAyb/enZMS9GHnBxsFrdvhCnsTp8AzwU72zMzHdTtxFYE8feue61rZSKZqVR3Znam32HHoMumfjkN5LyqzZmoOZuQE+tzcsjxbVdLAYY/46SGhvK4OOHkiy0F+CSPUWLN336bE5U3bwkTULZs+Z5hhxYDfB+mqUDRuWEnpC1x5kYCE/W6BQsX8YncEHZ21vNYhFHMBjoDdqij4TJt2kyeqJGSCmwQtw+I1ua16zcpX758VODpp7k3ELBCsCQxJZ14QoqrX0783u7de9Lrr5ehSZOmUnyisDUCr3nl6k36/Y9dtH3HzzR+wiRavvxzOn3mAtfv+A8lYYAyoMU9dFHxHERJSRfCL65fjfhUtkZxB7ATbEX8jIXnXrx0nfYfOMq1OvEbTp46T8uWf85Qf/75F7hmh98DIABAy6FWpEhRnipS/c0atHbtRurarQe99NLL0nPQroD1PrBXV36+lvbsO8y9d9iPN3LkWFamZcqWZ3sPgOzVux+tXfcNrf/6O473/7JzNwWHxVFYBDYzJFNoONKQ4lBn9bV54zi+Lyg0lhOWSE0iVSk/0cTEp9GgIcPopWIv86iwqR/O4t81LEsoM4QMMAj6r4MneLzZiVMBPBwatbgZM+dS5cpVqVOnbvyaQt1OUHUi8GBddu3ei55//kWGJJrX+WsmoEO9yBJ2DlRdtoLOUMFZgE6h9tzQ8xp4TmFnO6iSfU3mfoGdWidfnQAAIABJREFUpOSkxnD/q7lsqcuJfXQWsNPATb5gNS2DxJYCbC3ASQo7yU6ccCsZAK9jp04095N5PBtTPJHOnDmL6tSpQ127dnOphgaUlp7FzefytgI8//r1G7z4c+lny/jbNbCTLEvjtKV5/5z1eh7RvkxNy6TgkHA+sUO1YuKLAEH36C+8yVmz5/DfC+ttAILpM4WNDTFxiVLyEkGTlNQMunjpGtt8CxcuoZDQSEpMShPgmCzUKzdt/oHKli1H77zTimq8WZPad+hIO//YTcGhURQbn8LAAvAA4r9PX6A9ew/Q1m0/0c+//kG//PYn/fTLH7Tjx99o03c/0Lqvv6UlS1fQ91t3cBBl0eJlhFU9CFjAksUQ5g/GT6adf+zl5m/x94VAy/KVq6lW7dpsn2KoMxRfm7YdOKGJP2PKhzM4nQm7E5Yq3nPDRk15fBZCG3I4Yh4qYAi1OH3mHGrXrhM98sh/GXKwYitXqcYhmNdeK8VAqV27Lr/O1u2/0ZGjZ+jq9RCupYVGJvJ2cQF82n461NfQKhCTkMFN4nFJWRQdl8awA7TwyRs9cGggj03I4mAMPr707NWPoYUB18NHjGEFhw0GSE/i+xAsASSrVatBY8ZOZBWKMWFQrLA8q1StTleuh9LtEIRUlLCLSybq2/9dVrFHjp9lgJqHH3I76BxCTQ05+X1ZsMUr6OlamSa1OxfwrH5PtpSdK5XpTTLT57BTKjn/98z5GnLethQYgs4FOaGHTjghA3Cw7GrXrsN76hBIwferL+npghLq3r0HL3Rt1bo123HYaQdVh0kr8rYCfD8sT0zaX7Z8Bb+cAnYS6AxqcxZKztY0FPTPuXro8AbWrd/AivXmrSDewJCQlMqpRbQbJCWn8xEXn8SWH5QrrMmyZcvS7dvBlJySoUhdAni4QNXB6lu/fiNvhRBbDGLikzmUsnXrTzR8xEhWVy+++BJ17tyV03+or323+QcKDI7gVOiQ94YzVCpWrEz3/uc/EmAef/wJjvwDOFiWihBN+fJv8Nexd7B2rbp8G/Me8TXU18qUKUcjRo2hEyfP8c46pBJT0oiOnzxHSz9bxUEXWLVIYI4e8z733WFfHYId+HPwWojjoyWhS5ce1KlzN1ZuCMRga/n999/Pz8OaIECWU54FCxEA9/4Hk+jLr76hz1as5vQj5koi4dm6TQe+jxmVo8d+QCdPB1BcYhav2kEPHOp8sCZxAHRQgz//uosGDBhM7Tt05tmcdes14D8PGxhwYCff2y1aEWxYtBrMmv0JrySaOWsu/2769B3Ik1LQRM6ABCQDIxmOmH3ZtNnbhP8LatetT8WLl6QevfpR6dJluM1ATFvi+begRENiKCWTOOCCn9Efew6ySjQ7iVoqOqi+HKLqJNvSV2pODjr5bV/UFnUVnsnP0oGdqWtfSvVbVx3X9e/ILKhiZGX6DHbZDTmNZemvupzBuC+z8IkCeArIQdW5F6weO36cLbsdO36khx56kHAfF2wuYCimCmt58Nju3Xv5hAo4og2hc+cuhJodfu54rrytAM+/fOUq165Wr/mSX5NhZ9OyNFd02nU8Yl2OlZwMcljPk+CyMFFnFOd7JmHTQlomHTv2N23b9iOFR8awWsMb/fyLNTwKDUoMSdLlKz5nK1HRQxcnBG727z9MxYq9TD179WFoibBDozj65bDtCOnMXbv309cbN9HkKdP4Q0L16m9SmbLlaNDgobRtx890/WYwfbZsJc2bt5CWr/iCln62nJehvvLKq1wrAygrVKjIfxZSly1btWFrEYBDUARzLhGv796jFw0ZMoSavdWchzNv+eFHSkrJZPswNj7N1SOYSWfOXaaZs+cwgPAaAFy+/AUIdmaNmrUJA5ABMyz2Ra0OoIUqBIwBH6jeFi1a0eQp0/n+448/yc/t0KELfb/1Jx66XKduAypa9EV6q/k7/BofTJhCb9aozaCs8EYlQi3t2IlzdPT4WQqLSGTFB5syPCqZQy+wUKHUJk6eRhMmfciWuAhaudrsP2AwDR46gm1a9AKiARwfYGA5on8On0sk2N2O5CALeu4mTp7BHwIGDR5GSN4iqAKgI8gCcQ5IRsamMewuXQtm4LXv0IWfu/2n3wnqNLtg5y/7UoKcqLzkYPLXbdef5QuF567f+QB2dpvMdfvutHU7PeB5BTvJrszGmpwGcjm1LgfrUgKdADgRdOIaHsAN7Qa4j8komHeJVT64pKLpOhW9dsS239stELx4jLAdISw8nDp27Mg1O8Tt8efIlRu+H/vs8Pyv1q3n17Ma4IzZluaQM09bisBz758T9tDBckQwBWpt8VIhdYrdeh+Mn8CWZdmy5TmwEhObwEOQAy5fo0qVcFLvyHMjW7VuQxC7qNsx8FxregAzpFAbNGhINWrWostXb3B9j4EnaxpHoziUFVKTiUkZFBkVRytXfUFDh43ghv4uXbpRrdp1aPGSz2jcuPH0566/+OeF+hlO6lDHuIb6Qs0NdbgmTd7iyR8YZDxy1FgGH4AEpYWBzuifw3qeQ0f+5ub00PA4nnqCLQehEXEUFZtM0O9RMcl09twV2rR5K3Xv3pstSPxZpUuXZfWE18T9Bx54gIcI4HanTl253w6QRJO5CCDchzqEdfncc0XYFnzmmcJss8Imx3qdipWqUMtW7Rjc+fMXkHoAERL5ZP5itg6vXA9mxda2XUfeLffu4GE8l/L98ZNpyHsjqVuPPtSzdz9OlPbuM4B31C1d9gWNnzCFXn7lVT5gf+L70KohKTvXJ/TouAyaOm02vw5+J9NnfsyKGDYmlHT3Hn2oa7ee1L5jF65P4j3jdWHhYjVQ4eeeo+0//cE2qhHsfKnqdEEHdeMDlaSAnb/gpve6Ily9+TtoLE0D4Mnqpka/L+lxu7vu7K7/UTWaewQ7CXJSTe4ONYd7peZMmsNtqjnDAIoJ6AA8OewKFixIcfEJrPhwu369+pSCBITsMvujOZxsg6oT+/CQNGzevDmDEPBQwy7g0mWG3cZvvuVXsgM7s7FfbF0aNIpLoHPZlqzoElOl9om/9h9isBw9/je/l5WrVvOsSKQwbwcG0YCBgzicgQ3ksCwnTJjEdakqVaryh4Ez5y6yEpTDDqlMmLs/bN3BNa9vN23h1wYEATjtvMsEYsUXn+Lqx8ukazcCuY7XqXNXXpwLmNxzz9308dz5NGnyND5ZI/SBBvJevfvS/PmL6er1ILp89TYFXL5BqMnh+satUF7MKty/SecDrlFsQjrPsQTosLMuLBx76xIJszKjY1MYdFB7uI2TPpxqDHiev2AJtyrADu3dpz9DFdZpk6ZvcUsCANK8+Tts3wJ099//ANex8N5FOCLkg/s48HXxNq6ffroQB0cAFvStoQ0DdWNAHcA7d/E61W/YmDb/8BN9sXo91xdfLV6Ca3A//bKL6tZtSFM+nMX26tD3RrKKxCivkaPep/4DB/OcTtTpRo35gCpVrkLB4QkkbxTnQdHvT6IOHbvw7+/D6R8RBmG3atOeoQ7QwzJFHa9d+07UpWtPrtVBYb5RqTLdffddtPrLjbzUVTpJqkIquQF2Euj8bV3qws4HwZUcBzvrZKZj2Emgk9Sc/+tyvlVz/msnYPtSUnNuy1Ku6AA6EXZ/7trNE1QiIqL4RL1//wEe7oyU5YYNG+i333bSBx+M55NV0aJFadXnn1NUVDQ/Fz1jbdq04dt6sLtw8RLDbsuWH/g5VhsLzFWdfmsB4Ci/AFS4wMaCotv31wGaNGkyVatWjapWq8Zfi46O5yby0WPGMnSQfoSqLFOmDE8mgVL9cu06evPNGvTSS8X4JLz/4BGuTWJiinhAwaVlZHEbQdOmb9G27T/Rnj1/UXxCGsMjLRMjvJIpOTWTD1ia+LMSUzBMOZVPtIAlVCNAc+7CFTp24jQNHDiYmjV9i5UExnBBxSGoggu+H2PEMCkFr4/BzEho4sBrAFr4CUBJ4jGM84pLSOepKriPBa1oCD956iKdO3+VhOHO6RRw+SZ9tf5b+vHnP2jGrDlUrdqbbJUCMpilWadufV6HA0sSigzQQs1s156DdPL0RTpw6ARt2ryNIVmixGtUrvwbbGGjdxHPxwxK2Lb4nhbvtGZwYZ1Qn34DuV1gwsQP+e87eeoMOnbyPCupK9eCOYCCGh72yeFAeOTg4VO8tufAoZNc+zt64hxfo9739cYtbMkGRyTQ9Jlz2fo8dvIChYQnSL1z2HwANYf+O/xOPp67gN/T2++0ogcffJAuXrnN2w4QSIEqhA2K8WK4IKACdfflum+zBXZuVafqq/NS2SlB58Mgih7YjB7j9gQBeh6pVBfs3FamSVDFrrpzsA0B1riybudD2OVBzr2eR1GTE5OWJpAT1ZwIOhF2v//xpwQ7JBRxuX07iNf+cDPx/wkWWoUKbxCSmBGRUazk8LymTZtShw4d+Hv0YHf+QgBPpdi6bQc/h21K1+Bm6baNJnGjMArgCUWHMV9bvt9GO378haKi42n37n206bsttGLl54SaF6uJggUJTeC4oH8Ow47PnL3AoEGYBJfZsz+mt956m28fOHiE2rRtx+ESnLDnf7qIU6dQbVB0Um3OlcwcOXIM23ZPP12Q7cbpM2bTnn0HKTk1i1OW23f8Qr//uZfTlJOnfEjrN2yiNWvX05ChwzhBCeihV871K6DbQeH00y+/88iu9V9vooOHTzC8ADe0IETGJNGfu/fT9ZshbFUeOHScMA3l89Vf0YyZc9iSXL5iNY0dN4H6DxhEo8d8wKPFcEIvXLgIFSr4DP9unn32WapStSphb51cfYm3UQNDXx5GjqFuWKlSFarfoBEPjS728iu0fOUahiv66bAzrnHTt3hCS/36DalXn/50+twlOnz0NP19BqAK4UZvzK9MSEKCMpO3EuAHjhoa/sxlK1ZzHa/A0wXp4qVbwuDmkFiGlTjEOTQigQMs4jXCLGggB8R2/vEXPVekKG8m2LnrAKeMd/z0B4VHpSpg98n8JWxl4rPS/AVLudEcUH7yyacI48SCwuKVTeO3Iwjw69ajN7/PH7b/xpNW9JRdTld1EuhgJRqBKDsf96aGp1F31sDT+50pHnMAPC3stMCTb0SwpewYdNms5DRqLldYluZqTg07bCfA/+RQdoCdOOYLJ6ArV6/T0WPH6ciRoxQdE8sQQP0OQRRcsB6oR4+efBvfp7Yxz527yMrut507+TkS4GTAM7MtuXfOxLZEy8Oeffsl+++BB+6nSpUr03OFn+OJJJ27dKX77r+f38Nbzd+mWrXq8PuYPXsOx/CDQiI4PBIbn8SK6djxU9wgfuHiZYqMjueE6kcff0Ko2b03bAQlp2Ry6EQCHaCHkfiEul0jeujhh2jsuPGsgHDivueee7ntoFq16qxUAAs8XrDQMxw0EYEyaMh7FBQSxqrsxN/nuG9u7txPacrU6bRu/bc0bPhIttTerFGTSpZ8jd4bNopGjR7HtbKSJUvxJnHYiaiLia8pXuPPwtfQ5A4Qo1UB01SQoER9DylG1KeGjRhDH308n7cgbN3+C23b/iv9/Nsu2vnnX3Tw8N904tQFCrh8m6JjU1k1Arg1a9VhGGMCG3bYRUQnEwIoX63bRJjgAtsPFzyOxKUAp1hSN43js8bipav4vUPpDRsxmvvlACKMAAPkAkNiXX112k/TYooTYZLd+47yv+c9fx3loEmRos/TkKEjOPmJExrsTBxIYyJ9CSNg3AeTOMGKnxk+4F28EqhsGHe1IAB2CL3geYePnuH3pThJytSDKfBsJjANVZ03dS5ZrUyYhHKHVJ0cprIGdG8U3jVpDVA21u501Z0x8AxhpwXcHbIrvQqg+LkuJ9XmlAEUPSUnBx2CJ7hs3vy9BDvB+ktn4EGpyS8i5AA6QA2Xhg0bUe/effi2BDtXSwEePHvuAoMG6hEXBexMFV0KGak5sTYn2pf9+g/kPi+M3oK9hBMRgIBaG5rC0Yt25MgR6tChE0Gd4tK33wDCTM+4hGRC+wEGOWNAc3JyCo/wGjPuAw7coOcMdTIEEurUqUtJyRkcUpHDDioPaqx+g4Y8gHjy5Gn04ksvcXKR1dBLxVg1Pfroo3xCbd2mLU2YNIXGjP2AbUK0AMA6Q6AE7xfAuufuuyVoIQCCvxOeg9g/Jpe88OKLDMs3KlaiatXfpLeat6A+ffvTRx/P4yAHlCCODRu/o++2bGMFeOT4aa7vRUQlsfUZn5hBOOISoa7cB5QjVBcew2461P2g2tDzFh6ZRCFhcRQTl0Z7/zpCDzzwIC1b8QWrM4ZdVDInOaHSEOpA+hLAcjeRC/10IpzEa8BuybLPucUCH7yKFHme52+iNw/wOnP+Oo//wkDmqNhUXqAaE5/BGwrQvoB+O1hKaDTf9tPv/PMaMWoc/65Hjn6fAQYooXaH5+47cJJTqH/uOcSbESZPnUn40ICf7zPPPss2pth6IDaU4xqw69KtJ78+rFFAWA47U8DJQegYdu4lph7BwAVHpaLLIapOhJ436g5/Pwl0UHbW6g6/K/nvTnvb5oBo3aCKFnZiMlMBO32r8g5BzgdKzh9jvqzqcnZAJ8Ju3bqvBRszMtpV5wLslDvn5C0FonrDmaR+/QY0dOh7fFJJSUknBFDEEAoePH3mHLcqHDh4mJ/DsDOFnM20JWZfJgnDlwEkzHDEKLMftm6jIUPfoxdeeIGturr16lPHjp35z+7ffyAvIMWd9u078mQY1LgQZBG3FuBrgAZsRlzeadmK1dndd99D9erV57obAioi7GBpxscLk1kwHBqzKxHiwGBlTCzBpgGoKkD4/gce4Mke+/46xK+dLHwbbfleCLcgkYm05fQZs2jxkuW0bPkX3Ej+9YZNtH3Hr3ToyEk6d+EqIU2JtT3RsUiGCmuA4hLTGU6JyVncJI3PMfg8giMxJYuhFROfyhNMwiLiXalMWH+uIyyWF7EGh8ZI12bbxgGcvfuP8lgyEXbBobEEkKIpe9mKNdy6MH7CVBnsoljRqVUdgMew+0xQdgsXL2dLcvfeI9Sv/2Cu9WGP3rj3J7FSHDFqLHXv0ZtDKwijNG7yFs2Y+TH9secQDRs5hgYOGkp333MPIaWJFU4YBwZrsk/fdwkKFLv9xk+cyjNHA64EUmRsKm8zEJKXbxOs2QuXb+kruySidu07s119/WY4K03xJGkbdICeDdi5VZ33oFNAjq3LHAY6CXje1+8s1R1+9rIPHuLvT//aJvBsqjsAj2F3JyGnsSt9oOS8hZy9lKV9y1JcvyO/xll39eovGXaRUSLsXKCzWLCK7wXs3hs2zHXyRlO2exIKHhRhd/DQEX6OeQDFGnTcIO5KW4qbBgC7Jk2a8uvjP1BZ4VExtGvXbm4nwGBlXNBfV7pMWb6NWZ/duvXg27xtHGPA4pK40XztV1/TkqXC1ofhw0cR+uHeqFiRv1cldnlVD9KVsFsxDxN2J0D5ySef0vc/bKfZH83lKSXf/7CDDh48zCCGzYn3iFQkwiQbv/mOJ5a8O3goq1GXaBYCLhmyEWFJ6bw/Dt+HfXXyIywynrcPuNsL0GaAOpfrCIslLFqVH0hd8iEDnAg7M9BhxmVUXCrt3nuIVejqNV+zOoyKEQI3WKOzdNnn/POaMnUmwwVzMvkIj6ewyERWiaivRccD0vxroM/XrGfFBFWIC2qYUE97/zrGw5rXb9xM3VyjulB3hGqE7dqkWXMOvsz8aB4DsG//QfzhAioN634AuOWr1nLaE8Ovhw0fw60Qn6/G7r1MnnfZ/O2WbOfWrlOfir1iArtE4gZ5AE/cai6eJOUnUMvbtmEnA50XgRQt7HKAdSkCTn0ts1kdqVh/hFWg/tQN5Qb37dTuGHY5xq70p5Kz2UqgGzyRrErjvjnx+xRWpSt1KQccbsNyFGtzy5at5GbgqOgYl7IT9s2JdqWo5NTXOCHVrVuPxk+YyCcnOeig4HDBdgEhCHKOX9u4PmdtW8K+FKehQI3htWC7YlNAk6bN+M+DLYnnJCMpQcRDmrGJHZf3ho3kTdO4DUuzbdt23CMH2HE7AZrEs7Jo0eLPqEzZsgy+jz6aSy1btaY6devxwtJ58xfwRgKoPwxzbtiwMe9HgwV5773/4aHPhw4LTfkiGAE08XaTJs24+RzvAbDC4xs2buKRYxhPhukdABZ64LB8VTzCIl2tA2gfkB3ol+ND6qFz99LZAl2YW8nJQQcIQvVhjqX8QAgkLDKB61zo37vvvvtozdoNFJ8IVf0L98ChjeDDabO5IR4KKjgshi4E3KCLl25SwJXbdOzEeU58frnuGw634DkAV89efdmOBtDmfbqEMNcSvXO79hwmjAqDjXo+4CadPneFJ6zwmLDETB4fBsCiAR1tAthoACX31FP5aNUX67lWB/tyzdqN/HXMzVywaJlkhyJVWbJUaVaQVVy1VaQxdW3MRKj9NtyHB0j7F3S+SV9qQZdDVZ0EPeXmBNvAk8FOaWkaKGm76s5u351NdXcXLCj34f8Zlr5Xcn5uJZDBThzbxWdwm/9BvQ1N3yL05LBbuHAR9zwx7FzhEz3b0gh26EfDRVGPU8Hu7NnzJrBzDjo57BA8kWCHxanxyWxN4j1hTY4IO4AKyUxcoPIqVqrEz4VCFGEHxTVr1hx64fkXOIwyZ+48rqOh/lemdFnq2LETqzDUATEIGRYpJqdgDRAmraCZevP32zmVGBmNwcfuA38u7FbUC3GJiIqXwa4Cde7SjXvCAMGomCQZ6KDalJAT7+uBTv41KD4BVvj+eIqITOR9c0hDopYmWp0YQM01vKRMVkKo0YVHJXJ9DmO8AjEuyzXK6/TZy7R3/xGu1aF+uOGbLWyPYvIIUpBv1qzN4HjlleKERGXTZs05DIQJLZjyAlsXNUgcmE/5WqnS9MCDD3IDOyxg1CYxqeXe/9zLCg0hGFiSaC+A5YiQC6asoA4YiKHQYfEMR4whmzptFtuTmM6CUWHlK1TkKScIt6BWdzMomi5evs2vgU/ZGOyM2h7qhNgR2KlLdw4XmcEOo8+6de9NyCU5hp1tRQfQ+QF23E+Xg1WdCLycpO4cwE6/FUFZv5PBzv+g08yx9NqyzL4ACp8liSgkJJTWrVtH8+bNpwULF/Juufc/GM/tAosWL6HPP/+Cli9fQcuWreARX/HxQmIQ3y+CTlR2eA2EINSwU8NNfR+vBcUzQVJ2yhmX+Prfp06zRXr9xm2O+OspOzFwYnQtty4BOfEQlR2sQwQ7hL9bpgZ2UH64YFkqwiC4oMUADc23AsM4jcmwi8X4L+Lddi1btmYQYWRXt+49CEEQJBmvXL1FCUlCsIdfSPYfWKmYovLzr78zROSgi4xK4GciSCLCDg3nuHz+xVoqV64Cbw+oXKUq25uoxwF64ThkCg8WJvrrxNocPlNgvQ+gJdbpklIQLkGwRGgWj4kDzFMpKiaFbgVF0u59h7kf7ovV63iw9PxPF9O8TxcTEpgAF4YnI4SBiSZIa2I0GVKkCNugV67U62VYgWGiCjaaoz3gVmAkfx177U6cusgfntCPhy0CWDi7aMkKDtLwBJWKlbkHr9lbLXjDxOWrQVxDwxgyNKr37juQWwEAOIwBQ/0Pu+fQaI5UJ/bUIahy6VoQXcHOushEDo6gdAqArft6M7/HX3fu45Tq6i838CxMzDxEChOAxEkJyg3fj2b5Qs88wy0FH8/DB79C+mnMWxEMOMAOE1ZE2FlaljIF4axWp4KdBwnM3KfqZCD2BHgydeekdid+aDG8dgA8KzvzLigtfx8ayPnTsrTYSCCfaSnaj7rXUt8cRnZlUnBwMPXs2ZMXqWIAMxanlixZkgMR6AUTPzGL1/XrY8BtcSpRogRhKeulS5fdA5tdy1VnzppF2OGGTeUYfaWGmua+LG1Zp15dfdi5wiMn/z7N63Ju3Q5WwU5Qc+rEJQCGRnC8D9Rs7FxGjR7Du/XWrf+abt0OkfrU8L1Qdi1avMMvgxoa1FdIaBg3bgN26LdLTc+SmsQx0HrJ0mW0aPFSfp1ly1fRsGEjONiChasAFBrC5ZNREFaBnVq7Tl2eR7n3r0PcW2cFu6CQSNq9dz99/MkCAuQwQQWwBMhgbwJimNwvHgBbRGQCHTtxhvvvvtuynTZ++z1t3fYzrV6znlavWUcrVq7mDQYYE4atBphviWZ3qFBMKoESg8Un7qoT/53gGqoMicQaNd6UUq3i1x96+GFOmuJ7MTvz2LGj/MGhT98BBFWI/jm0OAB2l64GchP+91t/5t4+tDpgQwB67vB+EDZBUhPzNWF5Ygce7MdatevxewbcYEIjbRkTn86tB5Exqdxuge/HgOpmb71NQ4eN5tu9+w6gQ0dPM8SwdHXP/mP04ovFuKcOf8arr5bgfjgkJ2/cCpc2GaDmNmvOfCpW7BVWdUuXr6YPp8/hel7A1SCljelK7gFwrVq3Y9Uo2pi2YWdD1QGGvgqmKECXWxSdqOz42m1n2rYyXalM2Ji2rExXWMUQcmJi0y7sdGdmapSdf2CnAZyPVJzhVgKbdTkRduaAU4ZPcMbetOk7/hTaokULmjxlKu348UdavXoN9R8wgLBxG7P7UDvCxIupU4VE4cpVn1PjJk143Uq/fgMoKSlZAh5ec9q06dynZgk7aUsBWg8EdYOpJBMnTWaYSDamK20JSxCwe7pgQYqMEnr0+IkW/4mNS6RLV67TsROn6Ledf/JOOIBqy/dbadOmLbRw4WIa9/543iaOmZQYwozlqQ899DCryGHDR9CPP/1K0TExhD47hFFwOXjwKJ/EEUDB+8cg4/HjBQs2xjW0OTU9k4a+N4xbA/A9H06bSWPGvs+f/jHrEQDjHXQxiS7gJVB0dAKHSWrUrMlWZGh4DP95PMkkU5hqgtQnLm+3aMmDmnEbig49gO3ad+QBzo8++hg3tCOJidmWsPRq1qzNCc2q1aozENFSgTYIsQEc47Wee+457uGD/SfCCdcj6OlXAAAgAElEQVSI0Hfq3JktOtxHLeyHbT8TXgvpUGzzxizLjZt+IHEQ8pix4/l94jlQca+99jrdd9/9PBYMtTBWQYWeobCIWN6VN/DdoZz+FGGHqSS79hwiWJjozcPXoeZgYQI8sCTl7xH3YTdCPTZo2Jgb0les+opi4jOlyRSwLM+cu8rf/+RT+Xh/IN5Lg0ZNOTmJ0V7LV33J7wP/LPcf/ptnh16+FkIXLt1mRQ41xuCMSSHsoItNzKKzF69zvyHSl81btKLQyHga+8Ek/n9IATvxhOdSdoBdh45deVsCRpIFhydyiMEUeo5B52NVp4CITD3lhsd9ovAM6nYu2OF35zPg6W5EcAPP58rOn5BLB9D0DptqThdwNiag4Cz05dq1NGPGTLYtsVn822+/46WrGN4MuGEdzVtvNefAQ7t27Wj69BnUu09fGjDwXZowcSJNnjyFwiMiebAz6nK44HUwIDkmNp7HYWmUHPrqZC0FgJpogVauXJkmTZ7Cr8Owk7UVAHZ/nzrD0zcwQeXgwUP088+/0sJFS2jixEnUf8BAVl3oT6tZsxanHtH7hr8LTuJYm1O6TBlWEC8VE3rVMAAZbQUIhECtjhqFfWW1WFFhnRBW5uDvCosNo80KP1uYWwbi41GvimFVg5mYuAwcOIgn3CclpfFS1ZS0LDp7/hKhAXz9BmGWJwIqGLwMyOADRGJyBo//iopJ4KWrWLyKA2BDw/fgIcNo6fKVPKmkVeu2DC9AC4qtbt26bPt+unAJ//mjx4wjbA4HEFDHQjgFKgTbDLC9AG0Ljz/xJFuGABlaGQBc1LPmfrKQZn/0Cf9ssUvu9z/3ESL5hQsXZhXXrNnbbI0mJCTyfQAGViBGhSGliA9EmHmJ3r/5C5cSFBrmV06cNI0bwpF2lDsF99x9D1uCeF9oAYDFiMHI2AoOwFy+FsT1uQWLlxHmTCIwghFf+PBVsWIVDnVgTVDr1u2pY6duPNUFkEHNDoERjBaDbQrluX7DZlZ1ajsImxCwJQEpys1bf6Y1677hkV0BVwPp+MmLbH1i/BfsUSypPR9wi5Oe6NXD3wXrfPbuP8Ybxr/f9ivXCBFqKVr0Bdq64zdKyyKGPhSuuOFAvZgVY8N69OzLwRy899lzPqX9h05ReHQKRcalU1BYAt0IjFJE2xmCNmDnVnQ+Bh1gkRugZvQePYGdRuGZwM428Gy2IRiqOwF4PoOdfyDnm/CJvVYC/cZwABKXPn370jffCifisPAICg+PpN9//4MWLVpMv/66k9Z/vYGOHz/B7QTYIXf02Ak6deoMD3XGup2aNWtSTIywjZxfkNXLdLZFxSZyBexkak5SbsmpnFTE8wHXKS4Fqa7HAXbnzl/kwAG2KmAsFa6xaBS3ERCZOWs2zZw5m6ZNn0nTps/ga9TT5n+6kL75djNB5eF1Uc/ja9xmoKZRKs5OhCh4a1YL9erXp1Wfr6GLAZd4fNjixZ9Ro0ZN+ISOiSoDBw3mkyCaumGTnj5zniEzcZIAa7wWbiN8gkWv6L1D6vK110tzwKJ8+QoC7DDg2QU50aoE7OrVa8Bw05tiAvXWo2cftlEDgyPZIh0xcgyhN2/4iFFcE7xw8RqflLGodc2X6zm0UbFyZVZWvM2gajWupwF8sDzXrt/IUIcViPFg5Su8wXM8YbfiQwFO8AsWfcaKDkoOe+ZgF8qVFR6HpYl5ldWq12QbEcB56+13WFliAzlqaXXrNuCvTZ4ygzZ+8z3X51q804r2HTjOSUmEWZ548kn6aM48Qo0Msy8xqBl/FhQ0ppVUf7MmQ++FF17k78f7Q2KyRMlSbA02btyMN4B/tX6TLuwAP6zeQagkIiaFV+9Ex2cQLE7U+QA48e9WoGAhCrgcSIEhcfz1337fR3XrNeR/C6i94nn4QARbFFvLMXkFBxQuJq4Ywi6RGNaYOvMub0R/hT+YIZSD1oeDR09TSEQSRSdkUmAoNqO7wGcBO7+B7k4MeDaClsePu+1MWLO2LU1N/c4EeLK6qqnCc9mZttoRDNKZXsPOP5DLIL/alRo1pw86tBJkZGZRamoa9e3bl27cvMUneSQsM3CWtXm5ees2q6Evv1xLa9d+xQpx6NChrOrQHnD48FFuJhdfLi0tU9E3p4YdWg1KlSpFU6cKI6H0YMc1uwIFKODyVcJS1MioGIqKjqPomHh+bfHPMrrGn8Gvi2u+nUYJSZiHCXWZRaHhUayIpn44gzp07MjqBydRTHbBCp1z5y/RwcNHaMLEyQxFQBZ1p/AIAfgfz53HJz6s+pk0eSqrqC++WMtvJyg4ghet9u7bj0/Y5cqVZwWIIdCAnQg6XOPXAIUKSw1/PgDSpWt3Gj5iNCvU/QeP0pmzATxrE2EY1OQQ7gAgMaEFqvDS5ZtsUQ98dzBhriRW5UDBiidwNEoDdIj7v9OyNWFA838ffZReevllVlDYVoGBxhh9hQn+qNFBLc2c/THXuF59pTjlL/A09ejRhxe2IoGIwAxSlLBQ8VyoPihHqFKEQ7p07cH2IvblAYh9+w3krQdQZfXqN2R4IZk4e858atGyNQ0bPpqgKhs0bMLgxUzN/AUK8Poh/D30aoXFS7zGjehYnlqrVl3a8sNP3BagVna4j2CJ+ggKjaedf+6nTxcuowWLllP/gUO4fngh4BaPGMO28fDoZK7BrV67gXfdLVi8nLZs/ZlfS5yBGRWXRqj/od6H4MqtkBiNtYWaHZRpxUpVXUCMo1Wr1/NWBPxsYQtjXNq0GR/ToWNnOSkam0gUGBJPN25HGTaT+wp2ijodK7pcruokQHoHPMuwip9gp5fO9Bh2upDzSV3ONwlL09qcrJ0AE0/Uh7xfDkiLio6mJk2aUHBwKJ+MxT118r45edJSnIKC18ElODiEP9lCJcD6gjU3cOC7NGLECGrQsCGflAGv0aPH0uEjx6SRYPhevC4Unwi8tHRM7U+iV4sXp2nTZvDr68HuxN+neKt5YFAoqxmET8QDdTOpd062lgcrduQHeuekw9VagPYCbDfAbMvnihShnb/v4veAxzds/JbBhr8nrL9fd/5B+/Yfoj/+3MP1LZx013y5Tnh+QgovZoUqguWGxCZ+XAicYF0P5kdC2QAKZcuWo4TENA6zyEEnwg7tDyKYcI1ddB06duaaEeqKcz9ZwJsDgkOjeTvBkKHDuY4KFbZ02Ura/uNvDDgAE5sWsOEbKuv10qUZXlg3g2HOn8xfRB07dWVLE5sI8uXLx+BBaAMrgabP/IhrY++0asPjvPB7RqwePwuADMoKtjAUKJazImUJiGLdDeZCoj3g0cceU/xdRFBhvia2qON9YaWO+PctWuR5vl+8eAnCbsDnX3iRCuQXVvzgz8WBPwN/5uNPPMHqHsCsUqU625xdu/XidT1t2nSg7T/u5J46NezUkBM3SuOTODYaoM4HY/7Aob/5d3nu4g22UgE72JE3g6IINTbU69DMHhaVzEtZxXFggB1CNBLsgvRhh/cKO/koxoWFJ1JkbDofF68E0ZqvvqGOnbsJP8fH/sdqdsKk6XTg8GkGXmwCZogm0PVbkRL4lKDzzsL8R8MOKtVlafpT3ZkqO9dyVyg7T9WdY9jpQs7rdKWFXekgfGK/LqcMocgBJ7+NMzOUWb169WjzZmFnmrihgM/aNv4THBLGJ9Ht23+kwNu3KSraHRoBxNALN3LESA57PPLfR7gWOGbsODpw8CABbuIF4IOrCoWGk/KMGbP4S0rYpXCa8sRJwK4Q3bwVyBsD5O0FRi0FuqCTQQ5AwwF1B+XXo2cv3qGG2ZgfTptBFy9e4fcTE5dIsAShSqCGoMxQ58ufPz8HSWBlxicKm7sBzRs3g9je5JU8KWm0ZMkywrixcuUrEOZv4vvxfOypk8MO9TvRxoSa6ta9J5/s7r//PrbK0HuH2hhmWPI281ThZ9mtR08qW64cz8v8YeuPBPjBVsR7BaBGj3mfF6RCMTZo0JjGvT+R628YkYWgC2p6CJkAOP37D2KIofaF3wnADVUlAgkqEPU2vLYIKPm1/HHYe/KvuW8L8zqhzvBBAolK9LHhw0Cjxk0ZVtgI8P/cvQeYlPXV/q9JNIlJjHljTcyb2E3sigooSFNBiqCI9N57r9JBeu+99957h6UtdemwtIXtvVPP//qcme/MM21nZll88/vvdT0+w87s7mzx+cx9zn3uAzBYsMpm8VFjJsqK1Rt0DVDYmcu6hofRBCK8Tp+7put6gNaViFihjInqnjNviaRYDCq+FJ2BnfUMwDZu3qUwtcEuxWNzgYGb+zkx9Y4Cn58ZFzzGFNwvfCnp9+XHyjWkdduOgmIzphQufBFRyRKXBExFTp+/JvMXrZSKP1TRFzsoZnqXvXoP0FzO6LhMYYFsdFyGXIlIsDgwcw87AwLH+f9JB6Yv8wwK1Qk7vsdggZdn6s4CPOvfns/bbuXMgGDnAbg8gRuA8wO5AI0ngas4V8AFkmNJwkxsbJwULvyF9tfKlC4jQ4cNl+49esqECZNkydJlsnPXbsF+P3HiJDl0OFQDnqdNm67GlVLflFaDCkPRkXZl6BgzyLotdwgMtL/Ri6Pv17lzFxv4/vCE7rdj9xv9QfpZvKHQMIsMGDhY/837UUTWt0vhV/TC4w47axKKmZsLFHKAjo3hbCrIyMjWlT6bNm3TQGpUEuoBMJGEcvbcJYXV999XFIDy3HPPqZMTpyLrd9hFp3FfGTaTCiMFAI2+GqVEoNG4STOZOGmqlvu8wi7Jtt0cEwozfStXr5UePftIu/YdVQFQymQtDtAYPmKMbm/ftfuANGveSofQy5f/Tg0dlBV5DAroueef8yj5ATZGRP781FMKURyOZikqhhAnlGwD2/z75ZdfVXXJbZyVf/zDHx2P4+eEOQMliWqsVLmaVK9RR+38ODfbtu+kRpg5cxcLPS+STxjsDj16WvfNoZgwoRAfRqoKtn42AWzZvleWrlgnJKRMnT5Hxo6fKt1+6qU9P3bkUZpluzpfG4XEme8FYwimF1sZ87a6MT3UnClj+ohswsTCcldeYAG7G9HBwQ7HKM5Qn7CzlzGJHEtKu+eAnYGeOd+ITpWYhCw1yBBivWjJGu1L8vdEyZih9z79BsuuvUckNjFb4pJua6+Pjze2efeLOWMJN6LIMs2Q2IRsiYnP1DMfDzxvaI8wScEZfj3eBgdHGdAXRIJ//6WrsRLokbfGmFzCzmJWsQEvD3p3duD5BJzb36e1SpEj7Dwgl2dlSifovLorg1ByOZpPXMqVwYOOMuX9+/clPPyycNH+8IMPdQjcmkTx7LPPSKPGjTXv8aOPPpLp02fqDB4Xubr16snAAQNl1+49cubMOc9ZOocJxTYUbowqQAt27QsJkZ49e0u+fPn0Qvz6G29Ix06dZP2GTWo4wUzCW0pqurCZHFPMho2bZfXqNcJ2c0pY1yMiHcrOE3Q+ypZe1JwVdBrenJIpGZm39XviOcTFJ8umzds0JozvnZkwwLd16065fCVCy7fkVKLUUE+sCMrIvOOYm0uwD3ozs8ZFmdk53JuMA/B9e8AuMV0SEjO0LEl0GNu5X3v1Nd30wNc3B85SHKYAbvPWXXrh0/LiZ4WkYcMmGqmGUkNh4frk4zB2kK05b8FS2bBpu+zcvVvLqeZzolD/9dJLUqDgZ5ogw445QpEpndJba9+hs4wZN0mOnTgry1esk0uXb8qBwydk556Dsnf/EQk9ckouX43WhBXiwa7fjJdT5y5LyIGjsn7TdoUOc3zzFizThJIOnbqqyebb8t9Lwc8KqeEDNUbpEmChHAE1ypAzapaxA5QSQ/OUilGCnxcuIl+XLC2VKlWVDh27au7lkuVrNV6MNUmLlqwWSorBKDpz0Xkg2KXd0d8Lc4AMp7srO1JYTpy+rBsZevUdqMtdDdy8nu2mFEwygI9+35lz12XBolXqSmW0g/5uvo/zS+++g2Xztn128NnGGcwAOnCLS2TNUbocPnpW1m3cKQsXr5I167fLspUbZcmydbJh827Zs/+4nDp3XWIAYQIAzNJy6aUrMXnmxgwUct4elzfgcwVewAovF2YVd1Xv8e9AS5luWxE8YOcVcHkGOZvxJC8AlyPkHAPhAC5IyJFpect5cCE/ffqcsBmcCxyOw507d0rjxo11qJwLZcGCBWXY0OFy/PgJO3zSZOvW7RJn30DOOx1qzj5O4J5naXpy5kzJ0vq2d+8+dUxSDuQVKkrph0qV5JNPPpZXXnlFDQ6/+93vFSRAl8SSRo0aaw+OBHpX0OUGcjZFB+jcD4wfGVm254taK1OmnEKDstv5i1fk2PFTehFeuXqdXLt+U3uUzZq11G+PKQxABtwvX7muoxCU1N559z01xgwcNFTeePNNJ+wUciaM2QY7hrcNiDhj/BgydLjMmDVPlq9co/Ck/Mer+6f+8hf54x//pGEAQI35NdJGSFdhJACYkGri/nYxPEJBRAjzibBzcuVatG4aYOXO9ZtxcubcFTl8JEzX72zbsU82bt4hK1dvkJmzF0jvvgPUFFOpclV1WlJezV/gM1UZ9BRRVxheeBH1O3prf/kfdaEC/ddff1P34AGtwl8UVbdl02Yt1eE5ZuxkmTJttkybMU/mL1ohq9awpDZEDhw+KWwVYI8dM26UCRNTrMdtXdGTknFPHZMYVDDBLFyyUpewelV1bq+YDeTMGdit37hDS4dnLgSp7NLuCH1OgOwOO2CGkYXeG/3unwcNDxh2BlootRtRKbpENin1nlwIj5LZ85ZKhe8rqSuUEjRB5b37DpKtO/Yr4OgHLl66VkqXLS/vvveB/PWvz6hqpSfKiwpGSPhb4/853KhErwHrChUqyZx5y7TUR3/wQUDjDVxe33clMMX3IM/Ftn8vF8CzwM42bB6YuuP37gE56/sCBZ5l9s4BOw/I5Wmp0lau9Am5h6bkXEFn7cV53LYAzgo7+nMxsfEKDxRGyH7bmhguhtyHiqpTp45eSHm1yKzYyJGjtFdmvWDSe3OdmXOaTgzgrGdrHw4wWt927d4ry5avkJWr1uiowLhxE2T6jFkyf/4iiYyK1ZImvT36WYwLOMuVRH45Qecwn2BECUDNuUNOFZ59a4GJ/cJIwu65+QsWy9/+/qKEnT4nx0+eUYPGnDkL9NtYu36Tqs46derJmXOXJD4hVXbvOaC9NS4kWPjZLM5b127dVcGkZd6RpGRcpQZ0nNNsyq5kKb3IfvjRR6oox0+cav1xyf4DR2TO3EWyaPFyWbdhi+wNOSzHT56VaxExuq4nMiZJLl+LErInjxw9JWwe37EzRGE1fsIU6dGrr6o1to5jUPn22+80iLpYsRJ6kaMM+uSTT2oZlwF7s6yVUiGD6JRBKRMC0rJly2vkFeMIg4aMkCHDRumYAlvCUZJbtu2RI0dPy5XrsQorgMVBXBeBzLpTLvW2QoxAZnbicSb1JCn1tj6GxxMcTakTleR5JKp6435KosDu65Lf6JA7YAwedvH6HHMLO0wr/FwwzfBcAR4XOqPaIuPSZf+hk/pzHTxsjI4qmPu8nv2MG1yPTJb45DtavoxLviVrN2yXHr36y5v/fkvBxe+JDQ6M6rA26ace/fT+t99+T0c0rC+sGPv49a9+LY2btFIDU606DRWCDRs1V0UIaIOFjFegWUuYwC2nw/pYt9vBPhfn4+29u9z07yzAy7GcafmdBwq7YMwqjzxcyOWdksvRePIg5Uo3JWdAZ9yVlBbpLa5Zu05atGipqgSXHrcPHrTtiuPKyjjC8hWrpF37DjrTRTmJQe3+/furAYU4LN74L5/TCjbrbSvkvN12B5/LVV0/9z3HyEBAoMsRcnY1l+aq5hRsVshxO8UcGZp5mXXrnho31m/cIgcPH9WfyalT59XYwoD4pcsRmpKvDsVXX9XSG4PZlOYOhR4X2pO4MxkAR6WmpVPyzLSs10lzwI7UkW7dekhsfLycORsuJ8POy9HjpxVYczXhf6Y6Mrt07S7EebHloGq1GlKqVGldGItiZ2aO8h/DzoCLOTQckpQsuejRk+TVP8kjjAc0a95ajStsDfh54BAZPWaizJ6zSFav3Sz7QkLlwqUI3SBOX421PSxejUsg/SVbQZWedV8DoQmFZhUOAdGp6fd0G7kTVikavEySCaU806cjiNksX/V3BhyuBwO2toPPy21SV76rWEkWL1ujIHGBnR9FByw5eM7rNu7QAfdglR0rh0qXLieff/6FfSO6J+xCDp7QisawkeN9w84P5BxKzx4NxgUVtcF8ng6mx6TJxs17pEvXXjpCgbtz2swFUrNWfWHnXsPGLXT84dP8n+ls5HcVf5ROXXpI7boNpXKVGvJ9xcr67+Yt2gqwu3g5Wp2fTmD479P5BF1OcPN3nxvw+BrBPCfnY3MJPAvsnFFiPhSeBXg5KjtUXqDqjr/hmwlig12eqri8A1xwxhNXFefXfOIFcgZwrmfbjjkDldDQI1oGYz4Opfd5oUJSr1592bFzl3mInteuXSd16uAOfE5f8efPX0D69+svp8+cFTOozgMxmyjsLAko3iBHlqXmWWZm69iA1V1pve1arjThzU41h7JzKDovoLMZUHIuWbrAzgE5G+zIq0xNz5aEpDSpV9dmFadnxP697FuijkpclVk6q5cka9ZskI4du8iQoSNk89adGocFDDGskBDSqnU77T05YWeDHKqOr8HcHCYgVDVwwn3HgdpikStlS0rNDDTjlmRAHZdljRq1hXIgn79zl+7Sr/8gGT9hqixYtFy2bNstYacvypXr0VquvBYRKzciE3QnXUJSpm4QR2wDZDYa8TzJzwRgqUA5JVs3F5g9cmw/iI7lSNU9dsAPCLocbBJgw4HPw7Zp3GxAAHK6fUCNKsl2KPL5bQfRXNHxGZpvSQmTPEoyJYEqcOVAFfJ4RhaA3YLFK7VEGCzscFcydJ4r2EXEqzuyZMnSUrRoCR1Gd1d2rAnau/+Y/n83etwUHWPIjaIDdq7jBq4767ifkQY8Y3XrN5YRoybIuYs3ZciwMbqAduToidqz69Slp7Rp30V+Hjhc2rbvIh0791QYtmjZTvoPGKYqtHXbTnLk+HktnzLnZ53186b2vELOH8SCud8L8HIHvVy6Mx8K8GxjCAGpuxvALk9Bl7flyhz7cn7UXN7AznWZKsn8vJGJSBnx+vUI6fbTT7r4k34C0V/Nm7eQ7Tt22B4oolmY69ZtkJo1ayr4UA4ff/yxxomxYPUOzTz7G/Nv3kFnX67qB3SO2TnLhgJbCdMJu8BAl+XRl/MoWRplZ4Gd2SJuzmxQ37J1uxQrVlxzIcm2ZLzAhDmnpmWLPRNbFS/ASEkDlKzaydCNAk2atFDjSFqGzcwC5MxhYMfMW5EixWTU6DEayLxx03Y5ffaSnDkXLmfPX5YLl67J5as35UZkvK7sSUmzjT3wk0dwM90BNAEY4c82YGVJvC5rRU2ytDVD4hLSdV0PJcKoOBaweu6kYzedvwWsBnLmcWwaNwdqy3awL8+2bJUSZVrmPUnP5PnZlWC2SHL6XS1v8nxQaGwlCL8aJZeuROng9aEjp2Tdhu0yZ/5SGT5ynEK9Vev2mlbSrEUbtftjTMHkQg+RSDCg5YBdgKou17Cz92AYBWDE48uvSgmD6sDOCjNgtyfkqPbsCI2m9Gi9X28Hqeps0LPAzm6pB3gYU74p860OyzOfx1hDYspduX4zSeHHyMLFKzFy8Uq0nL14U06dvSZXIxLVoUkgNh/PwP+qtVvl7IUbepw5H6HAo4+HoxN3p1Mx+ei5BQOzQB7rBXjW5xDYbU/Y5blZ5SGpuzyCnR81F2RPLjjIuSo6j16cWaLqRcm5lyy9KTodEM+2LVVlnx2hzUWKFJWw02cMo+TOvfsaz0VGZoECBTQYGSMJ/968ZYvjcQAYJ2XNmrU0touyWb58H2uiCokn1vEBypU28OVu55w75ByKzouaM/06M1YQSG/OWbZE0WWIAZzjbA945pvfunWXbrR2wg6YOTMurbNz5nZiUoYqQbIjya7ExAIADejiE8jcTNP1Ogxujxw1Vn/OGF4AVkraLUnmSM3Wg9U9lEFZ1cP6HnbMuW8XZ8O4Y8u423Zxs2ncsWUc0MVSnvS+hRxVF5+YqWXJFGCVcV9VVbpdVaGsUtJRsLf0cag/VJaBHSXLU2cvq4MTZ+bIUeOFsOdefQZIj1795KcefTVphYWmjD8wZ/jqa2/oSAFlV0YAULQYc37z2GMaxcVWcJyjDM0T4UXaSqlvykjzVm3lwOEwNYIEBjpb6ZLypZmZU2W3wVbGvHCFzQWpjvvMYzzOFtjxnHC04nx0RH3ZL3rAbve+Iwq7KdPnKnweHHYW0KE6LLCLis3QkvWwEeMVctb7dCidwXRSWbDBR1BytSW0mMfFxGfpJgm2qnP84x//1FJ4wYKFpMBnhfR3eCj0jP37SPA+ThAIvHLzGC/AC17h5RJ4wag7XrzYf/85lzMDV3e5hJ0NbkR65ZXp5EEAlxsVB+hc4ca/XZWcWaRqNocjwi5eDJcuXbrqhRUgkW5iHfwGWCdPhmnw829/+zu92NCLatK0qWzatFkVDB8MyPbsDVFzyysvv6KP+yhfPhk4aIgcPXbc8TjbY4np8l6+9Fe2dCg5HyYUZ9nSe+nSpWTp0pvzDTkcmeZANTFg/v4HH+rWAhP55R77ZSDnPGdoaZA0FEKb3WFnds1hWv3888KCaxOVxvv9bhdny7jHhnHb5vHoeOapUhSGlCzZR4fSS0VZZd0XG6zuS3rmfUnLQAWyv+6OmkNYvMqRnHZbWLwadjpc9oYckXUbtsmMWfNlwqRpuql75OgJCq82bTrozrniJb7SxBhW8rzy6ms6C/fPf74kzzz7rDzxhz+o+w+jBG5MFBhD5RzsvKOHiLJt16GLbNyyS1at3SIEMHOsXb9NB703b9sjJ05d1NIlpUzrQcAyJc6oeCBjjwQLQtEZgLexVhcAACAASURBVMUmZcnCpau0ZH/42BlNSyHzknKqeYzH2QK7YsW+lG8rVNTS61UPZZchu/aGKuxISmG+zVwI81LVASuU3fWbyfrigS0Q/Kx0li6KZbXpEhnrHEa/EkE/NEWu3WAIPkGAJLBOTrsvJb4sKVOnz5eTp6/IilWbZPmqTTrozlojDC68GOnTf7B+Pl4YoBQdpczcQCyYj3lg4Hnv3QWk8CzAy9GsYoEdv+McgWfv3fkrZwYJu/8DyHmUK4NQcj7UnCfk3EAH9OxqzhrODOzOX7gkbdq0tZXdLFsJcFoCP3pwvG3Zsk23cx87dlyH0FFwmFZeeuklqVathhw6dMTxWACJw7Jho0Zq5Hjiid9rb2ngwMESeuSoh+IDcEGVLAMBnY+RAhfYWUqWvtScgZwpVQKgRUuW6wYDVXZe8i2dgGN2zua2RIHR16tevaZ8mC+fA3YGcuZsYMdcHF/LbAs3W8dtsLqtS1XTs2zAYm+d7WB33X09tI9lX8hKORXQhV+5qbNyjBusWLVeF6zOnb9EML2MGz9F7f8NGjSWChUqSuHCRXSejVm9//znbY3twuSCsgJYjDhgcWekgt11zPq98857arenfDd56izdOjBn/hLh4OssWLhcFi9drbBkS3hqxn1Vg7gv3Q9GDNgmTjiz9YhPynYpdRpzCmcH3Ky3cwE6IHY9iqHqWN1MwH49tqRPmjpLjp26KMkZ9yQuOVui4tKc4LNcwChj0q/D8BGTkCk5wW7ugmW5gp3PXp1d0RlVRm+N0mP7jt10qeyoMZNl3Yad2n/bsn2/bNkeon0/AMXF/XhYuJw5f11Lkhs27ZKde0I1n5Pf8fyF9EDvah+QXiBjD3x+nK9mbOH7Hyrr52C4XWEXDLQe9LFeoBdUKVOTYoIcR7DALphRhEBhlxPwAoSdHwWXizLlf4eSs0DODjdvkDPAw0lJubF5ixYKNNdRAue2cO5cuWq1bibQB9r/A/iY/2IO7p//+peOK1StWl1Lm1aX5ZYtW6Vps+a6KueJJ/6gQ+X9fx4gR44ed4CPCzsZlc6xAi99Ob+Qy9Q0FPeypQvgAujNaenSruYM5MyZ57lw8TLtu9Gjc4/8soIOQJmD92dm35OKFSvJp/nzC6MHWoK0bA8HeMCuUKEvZOz4SfpTRknyNenxkcZCvw5n5rad+2TDxu2ag7luw1aZN3+JDB48QkcKatepKyXt286J4GI7Ohcr5vIYSGeU4N1337eVCl99TV2mtpzL1zUUmq0CqLXxE6fpZvCx4ybLuAlTZcrUWTpnt2zlOomOS1X1x+hAkv3gdmLKbX0/JU1XgN0Vyp86J5dy2z5GwMC1lyPK9j5frksr4HxCDuDlEnTA7kpEnKq4iKgkmTV3kYKCmTQGuL8uVVoH2I+ePK+Kj7U89ObMBQzYoVqrVa+tK3u4YFmVW1R8huzYfUjdsktXrFcgOu730qtDZdFfY7aOwXIyMVFkkXEZCh6MOzGJWTp3F5/EuAamort6ACSiySjrorxQ0i+88HepVqOOztxheOr6U28NvsZxWbhIMZvKLlhIAfarX/9KDVJ8zPadBzWX0woQIEn5k54pf1dA77XX35S1G3dKXCIzmyly8XJMzqMFDwo568fnGng4Oh+8nBmoujN/K77P/suZPmD3cBScX8B5qDjXkOYc+3FBqTgL5CwqLifQATxgB3AAEbcBlHVswNw2sPvwww814gujhhVm3B965LgMGTJMwYdphQSQqtWqy9p1G3Q0wc5H2bx5i246x/zC1uoCBQvKT917yNFjJxV0PM42sH5HZ+i0bOm3L+e9ZOnVhJILNWdAx5nnxswdSgZl5xV2FsiZnpyB3fff/yA4WYEXhhGj6DizPRwnJHvr+Pxly5UTSoLkahITxsA2owMoLHpazLsRpAzE6GtxZqaP0On+Pw/WdT24MjlY3cMM3KgxE2TugqVyMzrRYVCh3xcbn65RXazYSUjO0hKhbjjPtm86t48TpGXZ1Bi9PjWkRCdriZMyp22UwHZ2dWEmitV16RVwFui5Qs42Q+cOOOu/81LRWUuTAI/QZ9b/2LYdpMi0GXN1Zo2fO0YYElymTJ0jx05e1ABpDB1pWaLl2Bo16yrsrjMbGJWsfb+bMamSmHZXcy0ZCVmzfptmYFLKBFRAivgwSoeYScjHxABCORJTyNETF2TfwZMaD7Zt50FVZouXr5VRYyfpFoamzVvrQlj6mZhkUJj0QAnqZvkxzl4qMkS8kVSDy5cSJDOk9OKIgsuX7xNV7A0aNZNBQ0bLytVb5IMP8smAQSP0OVphR7nyemSKRMVlSqMmLdUlzN8nX6dzl55y8vRViU24pSDJcZbOCqwHve0FeIH18bzD7mGVM32Dzl7m9FPOdIPdfwvkHrxU6b0n5xtyRr3ldAYsIfsPSMOGjeywc6o5AzrOvK1cuVo+/fRT3f3m7rLMtKeN8Dj6fWFhZ3S/3Mcff6KvXkkMqV69hrB41RohtnnLNmneoqUuCuV/vrffeUcIjKYkigGFN+BCjJcxnVjPDgOK29ycf8hhtPA0oaAAU1OzBcUGyKwHXwuw+YWdF9ABPGCXkX1PSpcpq8pNYZeY7gq7xHR1UGKy+LpkKX0RwK46jg4du8hP3XtJ7z4/y5Rps+T6jTh1Y+LIdBxRCQox4IVCxJHJoeMEZqTgjm2kIDbO1dCCUnMcaiyxQsxtrMA6ZhDIiIEFZP5Ax/3BwC53oEP1Oc0oVsB5u83XQOHdjElRkFHGpIQ5b8Fyada8jW434MVHpR+ryeRpc+RGdKIUKFhIbfz8DaO8LlyOkrCzV+VY2EU5de6qoOiocuAs3b77oEyftVBHApiJa9ykpa76+aFSVV19RBrMO+++r/FigOSPf3pSy8lslCCkm/eR0gO4UJ7s9dOB/3IVdMSgdZuO0rFzd01UGT5ygs7aLV+1UXbuDZUzF27INVWNjHhkaug6WZtssAfAvAhGKb719rsesHP05K7G6OdAadaq00CzWCl3o/IIDieBBeBduZ7wyyg8H7D7pYAXqLrz27vT0rhvhWeBnQ10eWk4Qck9qJrLO/PJA4DOvi2c/xExlbCBnDcr4Ky3uW/FytU6VM6iU3fYGZdlema2Kj7jwqSXeObsBZk6dZrd1fl7HVfAvbli5Rq5ZU/t5/Nv275TFSZjEPyPgrKxbUoI1X4ej+HzUuZk7s0BOi+9Of+wc4IOwFEm5I2hby1NJmdKTBzOxCQ9x8WnSEpqloKDxxHZ9dLLLzkjv8xOOhfQ2RJRrMouPfOefPNNGd027g12GFF4bcHYwZSpM/Q5MU6gIwWMfdjHCngMzkhKpJRCdaRAXZm2cQJGCqyuSqfj0vt4gRkZcJwtas2m2HzALhDQRQWp6h4Udl5Kl8DTkbpin/sDXubAdIL7EgMKKo7VPamZHKIH78dBicpjDOL8pRty7uINhTKKbfuug9KmXWfd8ccw/yuvvKqLcgmCJrmkaLEvNZqPWDzrHj42UwAqFBYlQErMRK0Rbk2kF7sEcT/WqdtIVROh0az5GTFqosycs1jWbtwhocfOyblLN+XS5Wg1lVBOBU48d/O/F8F3GcyEpt3TbM2IqFTt050Pj9JRg30HTsj8hatk3IRpClxAyfNs1aajlPv2e12Yi0v2YOhpLaei7Jygs902Cg9zS7ESX+tKqHz5PpX8+T9TSHfv0V8zNv+vgWdVpd5v/5eZVQCeD4X3iF9H5cPox3mUK12VXN4CzgK5APpyHsrODjpThiTzsnadOnphtQLO3AZkvAG7QoUKe1V2QM6buxIoooR4y7p1V06dOSf9+vaTzz7/XB15lFUaN2mqSS3063gDPDt37ZVGjZtomY7hahJHOnfuKvsPHNYLPo/j0wI+a3/Of2/OqegYFUjLYFv5HVmyZIX07tNPatasLd99V1EXlBKH9fbb78jHn3yixguUVpu27aVP3/5So1Yd+bFyFZ1nS027pSYUY0QxcPM8p0t65l0FGVvPuQ2sTBnTGFEAGYtYx4ydqOqM98eYw8VxaRsrcIwWxLmODBjYOUEXwAwdM3UeoPM9MJ7z0HiSli4DLV8CEl+KzqoGTXnUgOpGdLJEU4IlfozeYepddWMqsDIYNEeZ3NYZP8Yg+FyoOswnHOHXoiX0+FlZu2GbLk8dNmKsbkZncS2OUFbw1KhVV8uVbCOndMxAP1ADTJTrua2q6h//1I0L/3rpFc0JpXxYpmx5zaxE9VWpVkt7f02atdJkEsqPh4+fU2CdOBUuZy9E6MgAPTmMICZVj9digAtgJaeLPRosS0crwq/Faj9u/cadMm/hChk7fpoMGDhCodih40/aS2M9UJGiJeS9Dz5SdywZqk8/86w+b4ILyC4lw5QXmWzCoOfGGiFmbUt9U06GDh8np89el6s3Eh2zdO6w49/05mLis2XHrsNaxmTfIOYe9vpRKu3dZ5BERKb8ciVNL1A2z9s76EwSS14Bz0eqipsz06/C8wU7n0ouyPU6uVNxnpDLDei8uyuB3AOAzgI5AzKgsWnTFqlZq5aCxrw/0y39hDtXrFgtRYsV03R/p7LzDjl38OG2JLyZfEvebt25LyfDzsjAQYMVoPyPxv8M1WvUlGUrVmnZksehtPbsCZEGDRvoq2US/9nW0KFjJ9m9J0RM+dQoPhfYufTmnJAz5UuUIXv02rRpr8kkvApnrQ7xXlwM2LBAGcb9YF0Py00JNa7foJEqP2bebEYU54C4A3Z2Awr3A7gvviiqsV4Gdu5jBcCOweix4yY5YecCOcYMLPNzQM4L6JyQQ80x5O0KO4eKsw6NBwm6nGHnrui8p6lQGmRhamxCliaJkGXJ0LkxuHAb4wsuTCK8cHFSQiRMmfPl6zHCsPmmrXtk8dI1MmX6HB2eHjxklPT7eYj06TdQGjRqqjNvxLAxDoHR5MUX/1d7nKxoogRIGf3xxx7XCC8gxmNIymEUAmVWslQZLSnWq99YZwJJH2GrwpZt+1TZkYhy+NhZOXXumkZ26XYCWyVeX5ihrm7fF+E1XQZh4dkiSen39PsIO3tFe3Cr124VAp3HT5wug4eOVhdk3/5DpE27TlK+wg8aP0ZA88uvvKq9WXq0wIQgcA56gIAL8L762uvqlmXbefHiX+n2eFYvVa1eWzeddO/ZT3CCrtu4SzZs3qO9v117QuXA4VNy+tx1OXL8gn7fZy5EKHhxXQIIAwuPs6XPhjFl9NgpOgtZpEgJjSTLX+BzTbbZvvOQjj78IqaVHJ7vLwM72+gH/VaPwzJo7hd2FnVnNV094gK7/4cAF+xAuJmV81BujA+4H47VO64GFICyes1aqVXbpuzop2E+sZUlSTmxLTXlcQyPFy9Rwg47BsQDB53TYWkLbkZVGsXHq1YcoSNGjtbQaV5NsmsNV+fKlWu0ZGkDJOMM+3TzAUYNNmX/5623pGvXn2TX7hDHlgJ1LpJsYoedgZv7mTGAgwePSrVqNaVuvfq6qoeIr788hVvxSf36b7zxpo5MsFOuV+9+uhS1/8+DtMTYomUbnQs7fOQkT0+TUhyAs6eiGNWm5pNElOQdXaNTvsL3Oigel4gxJNVxcP+BQ8e0tIVVP/O22FSdC+wsoHMbADdqjrMr7FxB5z8VxYuao09nL1uaMyoLtQSAABHBzoQ347i0HmRF8n4O3Jq245au38HUYpvfYx3QTlm0dLXMmrNQRxdwgw4cPFxatmqn6ShY3JnH44UJypu4NAw5XOCpABC6DbQoB77wt79pIDTjEex8Q2V9U7qcLoZt0aqd9Ok3SMFI74xZvo1bdsuufaFyLOyCXLgcqRBCSTlKyPYyMpFqGqd2WzQLFDhfuhojR06cl20798uS5ezfWyJTps2R8ZNmyOBho7XEWb1mXU0xwQ1Jfw/DCEHNr7/xb11f9Myzzyl0UVy88OP9zOpREuUF1/sffCQlS5WVH36sJo2btpRuPfrK2AnTZNWaLTJw0Ej93jGeoNTefPM/+nNiJo4RFEwvbD3AOHPyzFX54KOP5fT5CH1fZEyG2A6CtlPV8Ymy5HGoQbYzREQm5ww6oGKB3eVr8dr/K16ipG3b/EuvyKuvvi516zXWgOm9Icd19s/6MQ/1tg/o+QaeRdkFGxTtMYqQA/DcFF6ghhUDvEeMIgvm7DeUOYAyZW4UnAHcwzCfuI4RuELOKDiF2PqNUrRoUblw4YKkpGY4+mPch4JDjWVkZKjTstQ33wgB0MDKXb1Z/62D4Rkmx9KcnaMEjvQTNhZkZDvAx9c8ceKUbj4gdJpEFlyGlatU0R4fJUveeE47du6WJk2aySuvvqrgs/X4uir40tJtpVfMGZQqXUBnHylANW7dtkvKlv1Wtm7fLR06dtblsZ9+ml9ef/11qV2nntSoWVvPZC02btxMFi9doYtU+/UbKDt27ZP6DZroY5avWCM3o+K1mY8yIyLMCjor7PIXKCgVvquoKo/3W2HHjNymLTs1IWTR4pWCG9I5LG6BnA815wE5NzXnATl7oDNOzIQkElkoAwKlW5KUBrTMNoK7GupMakoaw+f2QW48RPS6Ll6OlKMnzsmekMOyfuN2WbZ8rSxYvELn7CZMmi7d7ekoP1SqIiW+/Fo+zV9QF71iumAombxV+llcrAEWL3hQW5QMMTgwNsFKIEYiyparoNFV7Tt21ciwGbMW6p68pcvXKSz3hhzV7eVsWUAVagA38Wn3Rdi1gcIyB4UG/lRwXR4/dUlCDh6Xzdv2yqp1WzREmjVDGE569flZ6tZrJDgcv/jCZs3n+XDwPdBje/6Fv2npDhciZU6W3RI8AGj5fhlFwLn5Y+Vq0qptR92+ThYlZpAu3XoJJUdMJCTJoEh79xukWZWMjuCUxEjCn39s0i01jmAeYZs6++n4PVT4rpJCEVC++977+jXJucThiarAUciYwO6QY/oi4PCxcwoch93eEqaMijt64qI+X/beMfYQqKoz0MJBSvnz0Uce1SrJb37zmCbi0J/s9lNfSUq97wJI83EP5ewDdqjT3ADPrzvzFwJe0LDzCzo/u+QCgtwvMEbgouZ8KDkDOXMGHAcOHpbixUvId999Lx06dJJBg4dK5SpVpW279rootXHjJvL554WkZMlSGn7MFvGcYKegCyTL0svMHArQKD5eUZ8IOyPDR4xSYwxqi/+Rf6j0o6xctVZDk3n+KMOt27ZLixat9OLIK3sGofledu/ZL5Q2eSOzEgiaIXHm11atXqd9uczsu7Ysyex7ciMyVg4ePqareg4cOiLHTpyRPfsOyq49+yXs9Hk5ey5ckpKz9BX/t+W/UxXIBoHXXn9DqteoJavXbNRVO3xN4EW8lw12GZKacUfyffyJVK5STTCruMMuww47LvoAg9xIG+y89+e4D+clOZcKq5RsSbSnniSlMAOIkeeOfi0+F+1X+kCYZ1EnHMmswImI03VA7I1jIevW7Xtl4+adsmHTDh0EHzZ8jHTs1FXXAZUu860UK/GVggcjA9vJ2QzOahh6Po89/rjC6plnntH3cx8wQIm9//6HarooX6Gi5lkOHjpKho8cr8aIaTPm6/65DZt3KnTOnr8msQkZthEInvcdkVsYdOz9Wv2lAqssEkHSJfxqjJw8Ha79q117DsvW7fvU1s9+vH79B0urNh3U4Qgsi3/5tS5+JcUF5QdQWQ5Lmfy3jz+uQ/NclHkf7kZKgihKrPzAqlHj5tK2nc0swowavT3MHAxuE4E2auxkGTJ8jPw8cJh07NJd6jdsohsEmM8j1qxY8a8Ugqg37P6oMYwqxk3J1gb6XKTOFClWQsuXe0KOaeKJtwxM3J7MwPHCkP4hH0fiCcDdseuQJqE4YLfvqCo//7C7oKVfDDDAzqNsaQBiUXRWUBE5Fn4lTr9XSsaUWVm9xM+0Zu0GcujIWYmITBUWwlo/7qHeNs/Z7RwQ8FhtZDnM0L7PczDAs5Q0A1V3mFYCgl1wgHOdjQNu5sjNnJxvFWfpx7nNyrmAzL1Eaf7t0pPzruQM5DhTogQUO3fukQYNG8nRYyd0K/jiJUs1gHjO3HkSn5As8xcslOXLl8v4CZMUiKgqb7ALCnJeQMdIgc1haTszX4cy442vefr0eRkyZLjOqNFP42L0fcUfZO68RUJUl3nbsXOPriWi/ENpi3GGdu07yp69BxyPI2+S733CpKkyZtxEvQ0Eya/EcMLwN3FeZFJiYLGlktyT1LTbkpp+W8cIKJeW+7aCGltQu+MnTFCIUYJl2Sp74tas3STXIqL18/M1UX30gYAisDNuSnp+SanZar7Zun2PKpw167fYh8nvChAEUvR7+JmYQXNglZicJTejcAkS4BsuR0+clUOhJ+XAwWN6rFy1QUaMHCc/9egjTZq11DLed99X0kQQtoN/9nlhBbXN0v4nefy3v7Vf7P9HX1ygUjhY6En5+LNChVXh0Adjhx25lv0HDFGVRWrKkmVrZU/IETl38brCCtMIAc+U0AAWsOJnb95QXslpbCtI0+DnM+evqko8GBomu/celsVLV2kkWc/eP0vzlm2kek3MQdX0OZCFSU+K3zWgePJP7OB7Qi39Tz31lJpHMJCgutjFRz+WMiKZlTVr1xNMKJRIuRBTFv++4o+yet0W2bBltxw+eloNLJhfdu09rFsDgDSHKrwixXS5KRBHeQEsYPPPf72k65OYw/vb317U/i8JNPSsvvv+R2nZur3wvbBYdeDgkTJy9CQB9MtWbNC+Gekl+rO6LVpSrFGznsyZv0zNIQxvk9Khh1tSCqVKPiclz7/a5+f4mfz4YzWJTbxlS0mJSdNEFEqKocfOW5Sdq8JB2bHhgBcGzA9iTAkWdkCL3h3qDqXO39czTz+rcKcnWrbcdwo7Sp4PFXBWGLtBznxPvmFnGTR3K2f6VXf8fszvyn726NtZe3m5AJ5P2PkFHKVKj3KlE2wBA86HissN5ALuy7mAzvusnAN0FvMJF51tO3YKiRve3oCaeWNGrkKF7xQ8VtgFUrJ0lC0DHQ53m5sDhIw88IarkwWpg4cMU3OLOsj+/GdhWHvW7HkayGyeM7281q3baW+HmSZKnQq+fQd13o8lphMmTtGHAzU2GCRZthgwG6cD5Unsbcu0H4wt2OaRKH/SyzNvzLYBsMlTZkit2nW194jyadiwiSxdvlpi4xI1BLpZ81b6IYALdXf9ZqyEX4lUaC1ctFw3fJOIcu78VU1ImT5rngwdPkq6dOuh++vq1W8oNWrWEaBFaY+5KnpXvACgHEj5lz4W5UHeR4AyF2NMF5TWmNsCGE2bttQ+ZIeOXaVv/0EybsIUmT1vsaq6YyfOqeLDnYnCos9G+RI4ub8B3SRyI2NS5GpEnFy4RDL+dTl56pJ+LhJIRowar3Bp3LSF1K3fSNNF2JdWpEhxdbuqQ/BpdvA9qTv4KGOSpclzx9XHbR5Dv449fGXKfKuKiSQYAILhYsjQ0ZpssmzlBtmzjxmya3Lh8k3twV26Gq3lSkYFGCOIT76lDkdGCV566RX9mfOCgNdXRHxhgGFcgZ4XPT4girOyTr1G+m+UHGXHnr0HyPBR42XB4lWyeds+OX3+ug6S65A4UWe6jui+AgxlShaplgTZMnA5Ws5filRDyPGTlxQsS5evlx+rVNeEE74uxhg2EVCCdLl4usGOnMu9IcdsJeCnn1bXJe5RdtUx38fg940gYfdt+e/1Y33CzgoSL7cZQzhz/oZup6fc+8wzz+lcYvsOP8nb77wvU6bN03GEXwx2PEcfwOP9vqFn6eFZ1J1f4D0s2NkNK7mHXQDlSoD336jmTI6lA2hZPoBnAZ0ZKdiIG7OmzY1pM6Zki/soARe3ZctXSuXKVbTMyOPo0QUCOn/Bze6KzjpKYG5bXZbM2LFIlTfGFc6euyRDhg2XosWKq32aV/T0xGbMnCMJiWn6ODC5N+SQXth5JU7Cy7vvvicvv/yyVKteU2f8ToSdVcUG8IAWZ9QYO+vInUzNuK1qDygCwavXImXAgCHSp8/PqrSYd4vWrQFJakShfHnsRJi0btPesd37gw8+0FIfF+t27drrwtUPP/xIXnjhBVVTqAvj/qSkRkkKFQsA6AWpceH1N4SLGFmN1WvUlrr1Ggrw7Ni5mwwYNEwmT5kpy1eslX37j8j5i2QcRklEJGte0rQHh7q0Kit+QKgtSpz06OKTMnU9DyaUy1ejZffeQ7JoySoZP2Gamjq6/tRLunbrJU2btZI2bTsqNOlJYRZB1QApBp1RFQAX2P7xT3/S74NX9JTneAFAbiRxWqSMNGjYVFq1aa8qESguXLxS9h86IcdPXdTj5JlwOX3+qly6GqWD3SgrAHfk+Dn5+utvdC6OciYKESjHJWZpaZOxBHNEsOU8Kkln5RhzYFAc6KHg/v73f6iyA3ZsGXcMlkfEK+BZZFqqdDn9W2I9DjCkXwbQSEShpHQhPFLOh9+UlWs261A4JhJGDJq1aCst23TQUieKrl79JjqywM8HJfjyK6+p+eSrkqWFxBJm6YAdzsnOXXvJoaNn7aCzLWb1pupMKY3+HMabR3/1K1XrlI8xvLRu10nHFYDd9l2H9PeE25KAaG8XeO3ZHb8g35T+VmbMXqSQdAl2NsDwAjgruHBcxifdlf4Dh8u7736guakLl6zRnyMD8x9/UkCHzS9djVN1d/FKrPg6rJ/3gW6b5+7j7O3n4exrupYyg4ddYGYVv6VMb7Dzq+ZcAOep4gKCmw8ll/P4gKVk+YCzcqisYCFng5rNxOEKO0/QATXegF2VKlUVdrox3MOAYnNaouLM4QCdD0XnLFu6bg43kONsBZ3etowUAEr6bbxl3ronZ85elKHDRir4MDpwsf22fAWZOWuuLlHlcQxmh+w/LM1btJIPP8qnF2GccS+++KL2/IoULSbNmrdUdTZv/mJp3baD9Ok7QEuUxJ9VqVpNA7GxfTMiULZceWEcgWBklAfgMiUtylt/6wS/5QAAIABJREFU+/vfFXYa5fW//9TeFeU0+kaUQb/7/gep9GMVLXsCLr7e1GmzZNuOvZqBydLV8xeu6eJVenRsLKCM6f7Gu4A0phZKpJhMAN2Bwyc0eHnegqUKwqHDRmkKS/cefaR5y7b6HFCHhDhjCOG5U7ak18YF2Yxg0IvjPqzuAJnNDJyJL6tWo7bD3g9wFyxcoRACfOvWb5PjYRd0lu30uas641a5cg3p3LWHfgs4HgEVqjElg5isO+rqpHzIaIEZM2Dwm9soy8lTZ6sBgzJbj579dSyBGT2bS822rscBrBySUoDdwSOndBs5LzSAkcKOi4n94HlhRHrxH/+QAYNHqPmDFx1aJsX5+O//6IsP+nGUdhs1aaFqjFIpz69KtZrSpHlr/dzTZs6XDZt3CxZ/jt37jkrIwZM6Z0cUGK5HHQjPsMWExSffkYioFC1BOnp1borOgI4zGwoYf+Bvn98b/cA//PGP2ncMO3NVy4pY/3lRYoOdzXjifoG3GVRssCv/XSU1x1BCdagiP5Czwgin5+ZtIfrzouKAmudF6qw5S/UFxsYte+VmTIZPyPmCH++3fp2gbvsAnW9151vZBQ88L2MIuSxnPuIXcB6lylzOxvmAXM7lyv8OyFlhR8AzhhTerI5K623uW7ZspdSt30D7SAo7FxOKF8D56Mt5KDm3kqUBXU6QY6zAxWGZkqH9vqxsGwVwWp48dU6GjxyjaSX8z0/PoEzZcjJ7znyJiknQ75cyYrHiJRR8Pw8YIFWqVpdP8xdQJUUwMhdyLuik/P/ud7+X99//QF577TW1UzP4/dXXJTXxHZX1Y+Wquil8wMAhMmvOfHVV7tq9X0IOHJEjx07JmbPhalxB/bGXLqc3vgtKg+yXO3UmXPaGhMq69Vtl/oJlMnXabC030h/7qXtvLWeSpYnLEecepgR6azz/555/QYiUwrRjVCM/B2YEP/k0vxQq/IVmbwJseowtWrZVl+CceYtVfRFbxpJUHHXzFy6XmNg4qV23gZorUL1ly5bXCzrfC2XPtu07q5uT1UE//FhVSAiZNHmm9hoxUWAkAVaU/yhPnr8UoYrTmnNpbltjwFBk8Sm3dDCcAOWFS1ZpD7JxkxZy4NBJfX+woAOGwO5AaJgqaJ4rLkhGCQzoOONvwpDypyf/JCPHTNTt5Vt37FcVxl49+m7HT4XL0ZMXtcyI8iPPMjnjviSn39fUkoRUclB5/pkKJKDEoYHOMTbLP6ADMqavE+hWAyvs+FjUJmknjz76qEKtdNnyWuYePW6qPq9tOw4qBP3BLvT4eR2C/8/b78iCxaslOiErV7BDFUVGp0vhL4op8HgBePzUVQXcl1+XlqrV60hMQnauYPf/S+AF0bvzDTsXFecdcAEpuVt3BKB5O3yrOe975QIynmBAsffkcluuNHBzPTsVG2kgvFkBZ73NfUuXrdQhatyS6Rm3ct5O4EPJuYLOu5oLFnIO6Fm2FFCCZI4OzYcKOn7yjIwaNU7VCBf+p59+WsG3cNFSvfCzc8+8MevGKpyTp87L8ZNnVV0BTubfSFTZveeAeajfM2aWaxExgjrD0YlhZcmyVTJvwRKZPmOuDBg4VEurVavVUGgy9vDW22/rDBblVtQgCoLnDLAx3AArSoNAmF7TZ58X0lQWVBhKtU/ffvK///ynwrdw4aJSvXot2RtyWPbsO6zhvqPHTJSUDNv2AaOqbMrqvu6y45vCkYmSo5RYr0FjDZZG4fCGiaNOXVu83JBho/W5Xb4WLT169pNvy1fUvh0l0WnT5+pzxLFJ2e9GVLImpAC9Q0dO68eRVoKSM4AzZwM6gESZkBU/E6fMVAXFzwMlygwa5cXFy9ZoQorpFwai6MxjUI/7D50Ukv8f/dWjMmDQcElM8YQdyo6SI2klxIkRu0W/Ddcj7tT4ZPbcpXksaXVsMuACZn317ue2K+j8ly+twGMHHfFlmHJ4fow+/Putt6VEiZLaN9y644AO1GNAMSMF7sqOHh2wq1qtluQv+Ll07tZLNyyossuFoiIXs/+AEZqvift11tylOljfu+9grR6cuXBTLl9PzDXwrOovYIWXg7p72AovmOzMnAbOXWHnAri8LVP6V3APqOLskLOVKSlV+i9XusLM5rj0/j7bQDgXr0WLl8oPP1TSC5kVcOY2fTneli5dIU2bttB8Su4zpUqH+SQHJZcryLktVnVAzT3A2Q45dVPiqHQ7eH/2rfsKPVQFowQjR49TSBhofF6osM4RAoXNW3fKocPH5eCho3LsxGl9/MXwazqOQA+EZJOdu/fL2nWbZeasedKzV19hB1yZMuW0fFq0aHFhlo7PidUaOFG+efzxx1UdUlqlvIS64iDRg3mtL4oUFYbNGzVuJoOHjtR1OlOnz5bZcxfK4iUr1ajCHjqU3qkzl+RvL/xNOnf5SX83/KdL1x6q6rjNUtWy31YQjCfspqNPx1ujJs3VZMFWA7Yb3DSBzgyHRyXpqEPY6Uvy7HPPqUtx7fqt8vjjv5U585aq0uQ+SrVLljHsf1vCr0br5yNp/4sixXWEgExJnJUXwm9oCZfve9uOEM2dNHFgzPK1at1eMECwzdwW/uy5j450ldiETB0bAO6UihnLYF8eX49kE362LVq3UzUGSJmZMzDzd1bYHT7pWE3DGATRYlZll0IZs2FT/Z0R4HwjOkXX9fB++k48r81b92rmpAvcLK/QHwx0wcEu4maynL94U3ujPDegR6/0uede0NIlpVNVV2GXcoTdkRMXpHLVGlKxUlWpUauerZSZyyDnG9Fpsm3nIf0Z0qcjb5M3yptkgs5buFKiE27lCeyCUntBA89SznxAd2aOfxPWvx1LSd36d8ltG+zyCnK5KlV6V3HBOiudKs4/5NzjvbwDDvi5pp7wB7dg4WKpWPEH/eOzAs46SsCdwK5585YusHP05HIAXdB9OUtPLscUFD+QI/uSkQRzGGclYwSoPfpbp89e1PGD8eMnqZuRaChmqrCpc1FFRbCd/dVXXlW1RLmQizfmEe7jYsLFn60O9LAIeS5Y8HPp2Kmb9nhKlSotM2bO1i0FCxcvl+0798nxk+fkRmSCzt+ZkQPMLJhDmMNLy7ynfTcAxYFK4vUG72eDeGJKlj5/em+MOLDjLiXtto4eUHZctGSlnL90XS92ffsN1OSKI8fP6vjCkeNndISgTbuOWk4k8SQuAXfpLf1aWP3p5zRr0VouXYnUC1HFSlU0rgtTS/MWbdRuT1oKF31ARPpJ69YdpG27ztojNPmTZFNS1uRnpMaP1LsOBcfS1qnT5+rnPxQapp/HqDlzxkTC52jeoq2aehg+r/RjVVm+coMGMQNUwpg7de6uXwOFBegApD/ImfuBHYPkGJZ4nkSAWWEHvAzsMNYQnRVhhx1qleQV9r3Rp0PtecDOj4LzdsFzVXUW+3oOvTqrsuM2zxnXKGqfxBVCpV9//U0ZP2GGHAw9o+VtVgWh6CmnXo8kMYetBxn27eXpWpat16CpmkgYzVixenPQzkmjuMKvsc8vUUuZ9Dur16gri5dvkCsRSToKUrtOQyGcGqOK+ZgHPT88hWcBnpszM5j+XV6ou0duK+geQMU9KOByMyOXm1KlfVbON9iMssv2gJyBGhCbM3e+zs9xWxWbF+MJ9y1ZulzatGmnw9SA0AE6vyXLTK8LVf2ZT3yCzgI5X2rOCjog5+1gpi49467DmUhiCsoqPiFJtu3Yo+VGxgBmzJonK1etl6XLVsnBw0ekZ8++MnP2fKlbr4HGhaEkE5IzVemkpN+W2nXq6w4xVvkcPX6GH52qIsCVhgEj9ZZjaWssCSoJaRLDQdizPRbMxH75ivxiWPzwkTCNxcJ4kppxV6HIkHux4l8qFBkt6Ny1u5YxmzRtYTeB3JNJU2bqhb1Dp25y+twVdWwCOQBH5iKKa+XqjequRD2h/gDu3pAj6qqcPnO+pGbccyxdpQ+H+5EDlaalyMhEdUaSagJEiLoCjDeibLvpiBlDzf3rpZdk0OAR6qA0kDNnIsaICwO+jB3UqlVPwq9Ea9AzJVGyMs9duqGjC8CKFydY9bH2G5j5OyvsDpzQuTye58TJM7W3ZoUW/TeUHSr97MUbDtixoy4yLk1Lqxhxzul4gE31OT4+SNi5gi44RWeAxwU3Kj5Tlixbpy/UGGL/KN8nunKIOb9DoWfkqb/8j0aPsY5nwqSZsmnrXlm1ZquMmzhdNyps2bFfWrRsJ99WqKjbFpiT69a9n8TE35JLV2zOSX8wscLqwuUYSUy9L02bt9Fg6arVaqvKozTMz50+89UbSQIUrR+XF7f9PU+9PyiFZ4HdA6o7nLXeXvA43udH4T1i5uHM2e+oQA5w81+qtKi4B4Scs1zpY2zAjBO4jQ/kBDsDNV9nLsQzZ81RxyK3rWrOlmdpM55w39Kly6V9h4422LFmxwvknCrOPiCeq/U7nuYTLWEGAjk3JecNcvo+t1U8fH/A64dKlbkpmVn3bGMHt2274HA4mlIg1n5UGtvEWYiK4tE1O4npqtbo0QFDorNQXAZgtrOXJBQvIc4esV+xrtmWpKYkJGVqGgulQGDERX7GrPnqQN2ybY+OBDCDRn8LZ97GTTtUIfI49uFRwkWlAoon/vCEPqbiD5WlVav2WhqsXaeBwotRy/ArUaoS+FpACNh420Rg3VyAUrh6PV4HrCmFbty8S7cSAENgxygEIxg1atTRxahmHADYxcRnSNiZy1oC5vnR9zt19qoCjvINgGVzAeVfFDaD4PT/uHAuXrZW+2p+y5n6eTJk3/5jCko+dtKUWd5h16CJxoKdD4/UJazAjAsVYc7tOnbVr7t05QbXUuYDgc6i6JjVClDVAToO9tNduByt7lleBDDg/u9/vy0ks+AGZUErAdP0Xus3aKomG2YIgRuZmyvXbJEhw8dK46atZMLkWTq+MHL0ZLl2I9kv7HwBCpgdPRkunxcqos+nbv0m0q5jNyE/E+ht3r5fIqLS8hx2PJ+HCrxg1R2/y2Dm7/g7skDPWsp0gV1AoMs17Cygy834AGruIfbl3GflvAGPC/u06TOlXLlv9SLvHths+nLcibLr1LlrELAL0ICSi96cT0WXK9jZZvFQdkSR8RZv31TAwLf1oOc3bfpsoTxIWj63cXQ68y1TdPAc40fegc5zYwEZl5RhyWzkYk/ZMi3jrpw+e0VNLU2atlQlMn7iVO2bYW5hAP3K9RhVl+mZ9+XAoROOsiSGHeLO2HDO7N76jTvUxIJijIlL0/ehbOjDUcK0gs562wo7BrIBI5+P3WgoQtJUjAmFMYOBg0eoEuXjCL1OIXczy5ZjOWjISHnr7Xd0vnD5qg1C6RM1R94lnxfTCMBesWaTjB43WeO8uLAT9szXZr4uR2VngR3QB3YEOONmtF5cjLL7JH8BuXgl2gE7HoObc+/+4/qxzNVRPnR87P8h7ABeQupdadGqvT63r0uVkWefeVYVVKcuPYUFrpTGcYNeCI/SHl/Y2Ws6vI4JB1gSJ9aydQeFI/N2qLHQo+eEGDBf8PAFOt5/LTJV9oQc151/VAzI8uSNFwzMGPbuN1jiku88FNgFBLyg1F3OySr8/HN8gZJXsPu/AlzAPTmvkMsrNee7ZOkOO2M8mTx5mpQpU9b2h+cYJ3AdJeDOxUuXS7efeqiSAYpWZeeq6HIHuWR344n5t19F59qXy0nNOXfOuS5W5ftT2P3wo35/VsBZbwO2OXMXamnwnXffk+iYJFV1Ttj52j3nZS2P340FyTp6wPiBdT2PWc2DyST02CmNupo9Z5GkpN3VjeSVKlXR/gxOTjaPr1i9URUSF3Oirs6cu6oqlRU6KMJrN+Ik9NgZjegCZkAlLeu+ll5PhF2wrcR56RV9TGLqbYWVFXDmthV0xogCmObOX6oXXOzwqDlUHcCLS8qSLdv36XPr1KWHZmT2HzhU8yQZjCY0mlVKqDfyRLGu16pdX5atWCMLF6/SsYYJk2foiMNvf/c7VX+kw/B9jhk/Rdgm7lXdWRr+GFoIjjZjGbPnL/UOuwZNpeBnheXStVgX2JHGwqt0FCqlWsqqzMU5ylBBAM+1hGl/9e/voul2v1F2nJPS7mvIND+PQoWK6BLZAgU+1zm3iZNtCpYL8tWIBH2+ODBtcWTxCrsDoae17EhgM0qQzzMfI0l8llfY5QQ67qNnd/bCTTUWkaNa/MuSMmnqXFm/abfk+yS/JsZExmXmad/O/Tn5grTL+3OAnqtr9f+mnOmi7HzCzse4wC9SqrQruKBMJwH35Gy9uUCUHMDTUqW9L8dFfuLEKVK6dBk77FwhZ/pyCrsly6V7j94esHOCLreQ81+2dHdYOv9tA51PwJl+nUvZ0nPnHN9frdr1pKIP2OnOuYRUVXGzZs8XXuV/8OGHmpRCPJiBnWvJ0gk4j/1zPkDn7NG5As7AzoCOM49FeTVoyOaFOgowXI6r1mxUswyuzus34zWPElclocdcsLjQDBg4TB2HjBNwaO7mHdtyUCBI2ZJAY1JbiPM6efqSY0TAwM169gY6gEafLuTgMQUyrtRLrM6JSdX0EsqVAAlIYPIpXuIrHbhnOwCrb3iuRMExbsH3h9Ir/11F7T/RwyO1hRkyHseYBgaWxx57TIOG6VFhVGE+z6HuLJAzFwwDO7M9nHU/GE8c6iwiXufl6NnhAOX99Oqs96PijRFn974juqstGNi5Qi53fTqgZQUdt1mSeuTYBY0PK1HiaynxZSktWxMYMGjwKI0xMxdvx7C4/UIP+PYfPiXNW7STuKTbCkhePI0aO0X/7QKHHFJP3GFDhG3zVu3ly6+/0Rizf/3rZXWKEgFHWZPeXvi1+Iem7ng+7s/d4985wM5zJOEBgJcH6u4Rr7DzAbqA5uLoxeW2H+cVcv7dlTn14Vzv85544q7i3CFnypVc5MeMHa8bDbjtMkZgcVga2PXtN4Cbqur8QS4QA4rXcQK/Ss4+XmAvWeYIOhfIuao5x+65BHsZ0wfsrMtVcXFSuvz1b34tNWvVkbTMO1rmDHiTuI/+nEePLoDVPGRWUsrs3KW7XuCvXIvWhafHTpzV0YH5i5YLw92YQlLT7+oG8jFjJ0vBgoW0rEifpFnz1rJsxTpZuWaTLF+5XkceGCxneJ5wZQbKjRvUmEqskOO2UXGu5wSHAqT0SPiyTRks16FtY0JJSLktffsPFgKdNdJt/zEdM6CPRD+JMua///O2bYSifEXtzY2dMFU3B/D5zPGrR3+lYwh79h+Vs5ciNOVl1NhJ2rvLCXb0BveEHNUBbD7X8lUbPWCXmiXSqGlLKVmytMaCucMuNilb5i9aqUqThatxibcCVnZ5BTpvsCOXEnhQ6qXUjcWffYB8nz91Z8XOPVtGp5eLO7ALORQmrVp31Mex3JW+X7MWbRzh0QYS7kDL6d+YVGrVaagOz1defV0qVqqm5Uxe3PB3eT48Wi5fz3uTivtzMs/d59nLz8S8IDAvEJxn38DLsZTptXcXuGGFF2xO2D0o4Nz6cA9WpvQPOI38Cth84jpC4A1u1vd5Gk9sc3KAa/SYsfL11yVtEANwFsiZUiV3Ll6yXPr1H6gXJRvoHsRlid3d7QgScowUBA46TzVn7cvx/dWsWUcHzbltSpdW0KHegN2UqTY3Iyt4SCrLSc3pBvFAd8+5lSuNmuNsVXR6275RnPU9q9du1lfsrOUhIozY0CJFi+swOKYaXbQamaglRFyUZEfu2nNI46tYW4Oyyp+/oJoXUFKopA6dusqgISNUAfbpO1D3xOG2JBAaxWaA56nobJAzfTnO9NeI0SLRY9jIsarmDOwY0F62cr1uCGfsw4AYqzvzhwZm5sxSVuCHEmABKo8hrov7e/UZIGz8Zkicci3307cDTkbJuZ9RdrtDjurH8/zYdmCb1bOZAsi8JAPzx8rVNfaLsuW1m5T7nKYBypaEOVMKbdSYEYT7AcHuYYKO1BK2CUTHZQrjA0Th8dzMz8rAzlzA3c8Ku4Nh0rptZ3XV4tTkZ0914EJ4tFyxz9u5Q8Tfv5m3W7Vuu47FoMILFy6mZU1m7zAxLVm+Xm7GpD9UZWeeo0/Qof7yCHZGbecIvQdQeI9QlnQ/fCs4y+C3FwWXG8AFW6pkRi63c3JWoLnftpYrjZIzhhNz5sI+ZOhwKfjZZ9x06cMZ0HHmVfeiJcv0sTzORHpZzx7JJ27GE589OaBnAZ2zROk2IB6I+SQxXXz15RxKLtHVdALYWCHUtm0HmTx1hub2uUPOlClZ6zN33mK9OC5askL7Wq6w8+K29FKy5GMIXE5MyRbbgHe6S1/OgM4DcoDPDjrOmEdQXM+/8IKaVShrMos3dtxkTUu5fiNeomNtj+FxHGwGB3gp6fd0U3h8Upa079BZreAMk1MeZIdblao1ZfKUacJMHiqwZq26Ot8G9Gww86bqPGHHLB99Q8Kgq1StoaVFyovEe6H61m3coeHRzIFRrmSwe4AuNR0kJLQMHT5GRoyeIOMnTpd9B49LVHy6fg5ARqkyLjlL2AL+m8d+o1sddPHr00/rAtxVazaru9IdcvwbYEVZYEdc2JYdIS6wI73l6MkL6kRlWwOzhe6ww7ARHZehK2vefuc9uRbBzyXJL/BcYWdx6Ln14XK8UHopX1pDixOS78rkaXP1xRCh2wSLA+UuXXtJYuo9nxd1vqcQA7v0+7Jg0SoNIadszPZzYGegEcyZvh0b0tnSwUhE+44/6UgCTs233n5X4RqffDdXnzuY52EemyPwHgR6br8Xf7/DoNyZlhdaDtjlDDg3yOWBissN5FxLkmYuzv1sN524DYS7w8382zvkvCeeAK6x4yYIcVn37nmHHSrOwG7osOEKRSvkuO0BujwbDGfHXOAGFPpnziNnNWfUG49Pz7wrHTp2kSPHT0tK2i1HD85AjjOP42fB4lVelW7euku3Idhg54Qc/TmHovMCuriEdHVEYgY5GHpSws5ckqsRMbpkVcuZ9hKmB+gskAN0zL/RtwOaZcqV12xMHHbA5bCGGz+veZWoMQM66zkqLlW3keOWfOw3j0nPXv11lm7N+q1StXotTd7gNm/sluNCjhEDyz+9OHIcnaVLT8gZdYcRZXdIqO7Jo19kBr+BHR/Pqp1ChYtI587dtXfIoHNqhvNgsJzeXlL6XQ2CRhWqoqSEGpmoRpdjJy9ovBku1JVr1kvR4l/qC5IJk2Z4xH8Z8AE7q7IDAqg8HJZGud2MTdO9bszRkecZFZehpUxzv+nN0fccMHCEfs3tOw9oBqa5z9vZFXT2Pl2QkDMXUKMe9Mzcl+Vgxx3ZnShfItGID8Ns0qETkPENO2DGpvJ2HbrJjWgyPDO0Z0nfdev2A7qHzgAjmPMVHT+4pGMczNyxxDUqLkuS00WqVK0lTZq2loSUe78Y7Mxz9wm93Co8N9iZ35H5nXk9WxSet78Zx/sCh51lXMCHkgtKzQWbWRn0rFzgPTlgFwjorH05LmQYVPaFHNJtBlY1Z+3JKewWL5XRY8Z5wM4f6DzKlaZ8GYias6Sg+CtZ+lN0Bm7uZyCWlnlX2rRtL3v3MxvnHXbM0uGM5MJH+Y8SYmx8uhjziQvkDPDcYBebkK5ByYOGjrC7HF/WHXvVqtWU3XsOam8N4HmAzk3RGdgBPADHWhySXzCWxCdmSlx8ujBgzuwZCs4KOb0dnaSjBb37DNBX/fPmL9Xfqy1G2zYEz6oZVt+sWrNJX+zoWMOLL6q1H0Vmsi5twPMNO9TXlYhYVZpY/A8eDlOgGNjh2ASiDDwTlsznCzbUmU0FDJSTsMJtklXYn0YOI1mXfD4DOaPq3GHHC5iDR05rgoiBGbBjUzd9r24/9XGFncVpCZy5H6isWLVJ4hhfsNxvve0VdFzocgE7cxF1nC2gA3qs/Bkzboo+r7feekfTfRo2biGDhoyyGU28XcyvxGqSysTJs6VGrfoSE58tsQnZUrz41/K73/5OJk6ZI9G5DG4GdsfCwjWt6IMP88knnxaU6PhsBRwrlFDosUm3/3tgl4fqjt9Rjr9jF9gF1rt7xFPR+QdcwIHMFsOJU8n5GRswgAvKXZkLyDnGBlBx5vDurjRQ4wpHVNaWrTscsHNCjsFwm8PSwG7MmPF6UfQAnEfJMlO8bSZwHw5/oJKl6dn5U3NeypZW4AFRIrgaNmoqIQeOeoUdBpR49tXFpWiUGLmX7LhD8XnAzg1wwIsD0DFLRjkQh+GMmfPk3PkrGjGGeeD555+XUWMmqrqJdAeeRdU58iztuZapmfcEMwoX2vUbtyuEb90VzTVkSSrbE1xhlygJSVmy/+Bx3ebArjrmBzGoEHNGoPOW7Xv191ysxJfaR6NHh+uQDQFP/vnPMnrsZF3H4w90pjfH5oBy5b/X5zh+4gxNQbEBLUFLqqR1FCv+lWZqMiOHenQYSwK4TWmTcGnmBZcsX6fPff7CFVp+3HfguH5eAzsDMgO7PfuP6fMCdgdCT3nA7vDRs9qvGjhkpAY+68e7gSw2IUtwcv7+iSd0mWtOJhUn7Cyly1zAzgE4q4pwgV2sjhXQT8SpyosJ1g4xOD581IQcYce4AaECX31dWhJT7inwvviimC5fHThktMQl5W4eDqcl4w0EhjMTSbWARBaUHW5cypvhV+O138guPK8HS28dh+/9d0a1BXr2qe6CAp6rsnb/HQUKO8qagcSJWWD3sCGX16YTypeBz8k5lJwDbAZwriVLq5JzN59wVRg5aoxs2LRVV/fYQOdpPFHYLVoqkyZP84SdW8kyECXncyicEOc8LFtaoeb9tq08iWqrX7+RhB4N0+SUjKx7NuglUArFSJOt0GBwm9U5rMbhNrBzlCz9OC3TMu/LlGmz1RW3YtV6/TnOnL1AUy4WL13liPFivQ4OSKBm7c9Z1ZwVeDHxabrlnF1zU6fP0SgvRgl++LGKfP11KY0JI68SVybHzahEYai8Xv3GGsVFoPPCJSvEpgPMAAAgAElEQVS0vEXQMnmKf3ryz/LzgMH6P9yzzz2vJTwUEhDFbIK6BUZ8XlOudD8b0HFmbU6Xrj0VKqSUoOYM7OKSsmXLtn3aF9y7/5imowQDOh5LD5CDxBhKohfDbyhEcRCyvRzlZYWcuU0Zkw0BvFDwBjs2GaD2eDEycswkLblaVZq5TUk3MiZNXaAMtQM7M79mHsPZCTrLiMFDAR0X3VhVEphUCBSgBEn0WslSZXWonJECFyMGF3X7AeBITylTtoLQ90PdMRJCEPqAQSMfaPgbRybAxIRUoGAhLZei6Lt17yulSpWV0+cibI5MX7Czvv+Xgp43BWx/n9OVaTadW4BnfSFiv52XwHtExwTyokRpUXHOKK8AAfewVZyX/EpjOjFnMyPnDjij6jjzNmLkaFm/cYsddt5n5YAd63AmT5nuCrtAQGcpV/qGnLMvF5zL0vc4gXe4Oc0pph8H6BKTM3W7eeMmzRR4W7ftlsNHwzTzMjI6SU6dvqTbv1et3qALTr/4oqjCDsWnsPOh5szcXFLaLTkedk4e/+3j0q17L/0ZRsUk6nxZw0bN9N+UI+vUayDlylWQ6zfiNKDZCjsr4By3o5J0qzilS5x21WvWUfdjQkq2pqBwcdu+c7+mklAavRGZKDFx6Wo0AWqTps6WVWs3aqTXug3b1EBCRubESVN1/oklqd2691Zn481o+oPZcij0lJpYZs1ZqF8rJ8gZ4PFxy1ZsUKhUrlJdP49NwSXo+h6MJAAHZyY9vmBhh2rDdEMWJzNzmGvYr0dSR6s2HWyQukEYsdNFye3ohExZt3G7OkVxA7orO2DH+4Dd6LFTbFFibqoOiAE7fj6f5v9MPv20oCpAd9h5BZ2/0paX+93Vgv7bTdGZCzDPjefx0suvKMwx7xCYTYKKP9g1adZaxwLik+5oADRpLGyY6NV3kEQxWJ7L0Gbg2aVbbwVv/vyf6VA5K4DoBX7xRXE5cvyiGmAYm/B2eFV7ANABPm7nXvEZ4Hs9+4Ce+XnbzhbY8XtxA16OsOP3bSln+lN4TthZTCdBlSktkHvYpUrdQhCg8SRQJRcI5AAdKo43YLdh42YtY7obT4z5hF6OC+zyDHKAxgm6HPtySVbziXfI+QOcud+AjjOGEbYNNGjYWIoVKy5t23VUcHz1VSmZOHG61KlbXwOi2SjObB0KqlnzVjrQrbDzAzpgmJF9Xxe74mrEjMJ83KLFK3R2iYsyjkyMJsCRAWvSQ9IzRSKjU9Q96YCbWcljzqzmiWa7dbYuGC1arIQ6LDGlnDp7RXs0uPD69huk/UXGEIDCrLmL5Lnnn9fUlJdfeU3atOskoUfPKCiMKYUoLy6Su/eG6jjCzNmLFEyoxu49+gpfi9IsJVIDPAM3l/ONBA2J3rnnkAKNBP5LV6IVDqg7FpoyjM3PZsnytYLSCwp29mFxthFcuhyljkO2rDO79drrb0r5737wuWsO2K1at0W/b5bzeoPd/sNhugB38rQ5Pntxxn2JCmZ/HLmgfhexegGZ3wuh24XTE3Q2RWcuvgZ2ZGKqS/WvT0vJb8rK0BHjXGFnUXVc5FF2wI6t4pQsI2N5UbBbg6Wr1aij2wqCH/62lSWBHTFkRYqWkM8+LyxzF6yQrLsie/ef1FzX/YdOaSi0N9C5v88r+PIAel5BZ35GeQA8fm85/q49gOd9H+IjGEyCMpkAtwcBXMCzccZlmYsZuQCUnEu50ktIs1F0zp6cbRvnSGC3wRV27j05YMfy1smT7crOATu3WbmHZD5xOiy9Q46xAgMyX2df4wR8bpQdPbtDoSd0bo69ccytbdm6W9at3yI7d4VIxE02LieqmYJVPdj8TT/O/WwUHYaWuMR0uXo9Vp555hndOQfoKIEWKlRYN53r54lLVWhRvhw3boqWEsOvRCqIvYKOEQLLkZx+V2bNWaSKi34X8Dt28rz+u2Xr9vLkn/4ku/eFKqzoveHArFKthiMl5WZ0ojRu0kKTV4AhioayYNlyFQSjSt36jTVQmiWqfO5lK9arFZ1klZj4dIWdC+Bu2nfT3UjQciXD2/sPntCL5ZNPPiknT1/WPpopZbIDD4NCp649JDn9XuCws6SiMAMXfjVG3njzP6rEXnzxfzVzkXm7a5FJHsknKLuYxCyZv2iFPPbY49pH9Qq7Q2Facps4ZZZP2KGeyNRkrx/lOWb9yJ3My9IlF0d3leAJO1NKs535GMDbvHkbeerPT+leOvplg4eNyRF2OCKbNW8jlavWlLhE/h54UbBdX6wQEIByCnz426667OVHYNeqTUcpVLiofPxpAfl54Ag5eOSsTJ0+XwOn94eeDhh2Vvh5gO8BoecTeD5gR0nYvMh4YIXnATvvhpVHglJxdjdlbsqUgc/G2XpxgcZ5ORScV8C59uNcVJyXYXADOKPk3HtyKLvBQ4bJBsqY98RzhMA+VnDvPskhs2TqtJnqzPPal3sI5Up/DssHgZxRdwrSpAypV7+h7D9wVEGUmn5HnZGs7GFzOeek1GwBCh/l+1j30uHG9A25FFuuZUyy8Lno0XGRP3DouKq6vftDdVM32wcAnLov7XNz7JdjdxpmkfTse84FqxY1Z0CHqmJujlDl+QuX6wUbcwnwIxeTMl7b9p1U9TVq3FwTVlCQbEJo2aqd9mFYSZR9564GSGOQQfCjSrDTc4F/5dXXdBs4zwl1Fm8fLm/avJUMHjpK4ZcT6AAaF9wL4ZE6vE5v7NiJCw5HJiouMQ1l3US+r1hJIctIQY7qzgI5YzzhTG+OmDNKoqjS7r36CypP99BFJXuUMYHdvIXLdaidgfqDbgYVgLXvwAkt382cs1gwogAwb0dy+n1dkcPXXrV2q8Ivr0qXXkHnUrp0VXTWiy77+abYt8ajqFicOoikl2R2IDr7dNbbBnZVqtWSWDvsVq7dpj9X1DKbxZmZy7lc6GkwAU5xyXelQ6fuWvLF1Uwk3Usvvyq/+c1j8pf/+auEHr8guDatIAvmdl5Cz/ozcdzOAXa/NPACg11uRwZwVgas5GxmE/eFqcAsp8N72okr5FxUXMCQc7orTbkS2A0YOFh7dqSDuCg6u3pLSc2S23dEPvk0vw4Z8zEusAsIcq7lyhz7cgEOhlsTUIJVcwZ0nHFZxiamSa3adSVk/1HdN2ednTMGFBRaxM14hd22HXsdc3EGeE415wQdw+GERzdv3kq3bPO1KGmu3bBVMyrPnL+qWwRMbw6Ioby6dOsp//73f3SbOJ/Xoe7sas5AzrZHLlMdnJu37dUxgtlzF6lJha/b7afeOl8FsFiTQ1/w5OlwHRoHdv/4x//KuvVbdbyA26HHzup6HVyWAIo+FEHMzVu21cH1oSPGaFB01h2R1m06SMlSZdRhCphcgGdXdEa5cSZJpUmzlsIGBnprPHcDNNRc2XLldQMCowo5ws4H6IAdgCZJBeAwtLxt5wEdoh42crwkpt31gB1RX4AAZyBD7w5lB9AiEjSBZP+hMH2hMnfBcomJ9w07lreOGDVBHv3Vr9SZGZd0y25IsfRh/JWvcrjfRdUFCDqgF598W8ZNsqX+VLA7MhV2GFR8wS75ruZi1qrdQGISb8nNmAzZuGWv/P73T2j58ezFSLl83RfsXJUc8LHCCtgxTP7Bhx9L1eq19W/2n/96WV7424vCHKbCLiL3sDNfK6+g5+tn5GLusQDQ+kLDOvOot93UeTClTG/9u5xh5wG5wA0nwSad5ApyZlbOxWHpHB/wMJ8EVK70vVsO40nffj/L+k1bNArLATtHmRLDSpaqkQ8/yqfKzgV2uQBdcH253JctAaAVat5u03OLS8zQxanVq9fS0QOWq3qME8SlaEkR40iBAp/Jrj0HdIUPoPOAnCX2i71z0bGpCrqq1Wqqm5HIrt59ftYVPMzpcb8DdtGsxbklu/celOeee0FLqaSsGCXnOEcTBJ2qWwM6dOymkWGRMUna9B89dqI6MOmtNW3WSsunRHGRjMIYAkPPlPYGDBqmO+wuXr4pEyfPkHfeeU+joWxKLEVhxIB3m7YdhY9n11216rWExBVKl3v3H9Hh87AzV4SkEYWdF8gZ4PG56B8ComEjxqlD08COwfEvvyqpsGMhqk/Y5QA6YOcAzqOPqgORC9Izzzwr3Xv200Bnd4MKsMOk85vf/FpLn+cu3dQIuJR00fm8hJS7EnLwpAZSsyfPH+yGDBurRpA1G7ZLTEJ2nsHOBXRcMIOAHQpuzPhp2rOjHM2Ih2POLkDYXY9MkYOhZ1Ulv/rq63Lq3HVVX57KzhN03mDHsPr7H+RT6L3+xr81LxPjC7Dbfzh3ZUwDOev5oQLPAjgr+FxhR2nT8vtygx2/1+CB56wseMLuFytVPrxyZe6UnH2EwD4rZ9Sc45yWpbvpevbqo6MHquwskDObwgFg9u378umn+WXGzDm2MmagkAtijCCQkmVeqTkgp0ccBpUMLUdWqVrdDrtshZ1RdEa5YWSxwi457bYb6Dz3zlEyPH3uivz5qac0ZJlgZmD3ySf5BfixpSAqJkVhZ9Qb5Ud6fSgqgKRjCBZFh6qjb7Z56x7dQUfv45vSZSUiMl7NEWwaT069o0PjxG1VrlpdRx74egCQMidgq9egsbz++hsSm5ipUVwff5Jfe1KoOUqjJKoQFN29Z18td9asVU/efe99vY+e3uWIOO0tEp5MCoqBmq8zJcaGjZsr7NiSDuAM7Nhz17P3z5p5GX4tRtfomPv07AdygE7dlfEYKXZqiRgXZkrGHY2hIjGEvXSesLslY8ZPVZih7lg11LvvIB0Qp2f1TZlv5ZP8BeWll16RdRt2aCyYtxIm7yOtZPLUOfLII48KJU9ir1ycdf4ubDnc7wI768VTb7v3ipz/5iIcm3RLJk2doxD+umQZXZUE7HBZ+lItPHfcl/UbNpOYhFuacrJwyVp57vkXpHadhgokSo0esLOOBbgpOgMhDC+duvYSIMdcHc+Nt+OnLquhiP7dlTxQdubrcXZAz6WPF7hr09fPyQo56+2HCTzr358Tdh4qLvDh78BLlU7TSTBKzpF04rUv56rkct2X87MlnP4dWY/du/eSDRu3aj6kAZy1TGlgV6BAQZk1e54L7HwOhQfhsHSF3MNVcqg7K+g0ozIxQ6Kik3RL+f6DlDGznbNzFqclsLsWESuFCxeRvSGhqsBsqs77Oh5KmKgg4sD++te/yvadIZKceltS0+/Je+99ID8PGOqYpzOgM2fKjSxmZRs6ag71B+TMYRtTaCily5QTjDelviktPXv10wDkMmW+1dIo27zPXriuiomyaOcuPbSEitWeMQUSVipXqaEXGsqRo0ZP1GFv+n29+w7QVTrM4lEC5fnXqdNA3njjTblwOVJjti5eidJtC2RbMlrgC3Lm/czW9ejVT2FHrBeD5gZo0aoUj2qcFbv1ImNTHfcBMn+HgRi5lQQ/v/nmW9qDDD12WmOu2nfqpl/PPdcyJiFLps1aoKU5YP/Xp5/Rnw0qmFDqEl+WlK9Llpb33vtQBg4aoYkk1ouN9Taqb+36HfL73/3eYQBR2OUAsRxf1XtRAS4qwQE9J9zcL7JcgONT7si4iTP05/7JJwXUGDJwcGCwa9CouQN2CxavUZUMBPcdDFMTiRN2FqDY4WKFjfV2bNId6fpTHwVdgc8Ky/rNe+R6ZKpMmTZP/vXSK2pWISvT+jF5cdsBPAM/B/gCG1P4bwTeI4wL5GZkIDeAy6n35u0+B+RcypR51Y/z7Mk5VJyX/ErKkwQgd+7cTTZuMrDzdFcCu6zse/L554Vk3rxFglnFJ+QsSi7HvhzpJy69OS85lom29/nqxznfn+q3XOmAXByJJ9YjRTMvb0YlqDkC2GFEMWrOenbA7ouism//ERvsvKzisW4pQLmt37RD/vKXv0jo0dOSmHxLjS8ffPCRDBk2yifsklJuyYbNO/Xjwk6HS4wl35J9cLGJGQojdtbx1r1HHylTtryWLQnUZUkqDsgL4Tfl1Vdfk9dee11V4h2MRjPmyfvvf6iJGvS1Nm3Zri64ufOXaU8PQDKf91P33vq5K3xXUaO3evcdqEPF6zbtkLjkbIlPztZN56SpJCT5V3Y8fsr0OWrzZ7M4i2CdsMuQHbsPyl+fflpWrd2sa3aCUXRW2HH7u4o/6guKXfuOSM3a9WT8pBmCgQTYkW+p/Y+IeN3pRuYlppn/vPW2bNt1UG7GpElC8h1Vaqhqgo8pvaL0knPYaEDJc8JkW28MtyPmlweBnYuas5Qu2WbA+h721dFXxUTD98TweHS89cjSRavZrKWatVC/hw8+yKdzgAMHjfSq7Ay8UHYtW3eUpi3aajTY9ahU2bh1n/xYpYZQqj189LzFoOIKOn9gomdHGfOdd96X/AU+178tYun+157beSzskn5uf58nt/c7oOeAXeAKj5+PB/R8lDN5oeH+4sPlxYrbi5kcX/j4cGc+oqtyLBFdOf47YLOJU8HlylUZgIJ7GKVKRw/OCjuL8QTYdezYRcuYGBqsis5sIkDtATus8vPnL1Y16Aq7wOfkXAGHivOh5BL8jxJoTy7BP+hMudIVcs6YLxJSKAGW+7aCHDh0TNNSrJDj9v/H3XmAR1Vn7x91117Wtfdde++K2BuoIKAIggUVsAAKSO+99yKC0gSk99577xBq6C2BJJAGSWjC+T+fc+c7c+fOnZk7Iezu/+fz3OdOJpPJJMH7mfec97wHBcdM2d4DydpXwlVJxJjZTmDOzkxLUlN69Pxdy30bN++U1PSTamzJn7+AdOvRS3trRs3p2Veu5HGLlqzWHsa27fuDYHc4xeppcXGuUrW6AgmAffTxJ9KgYVMtbdLPA5DAjrlAUkXWbtgmOafOSZ9+g+TRRx+Tz7/4Wi+AKJGHH35U5sxfKtknz8q8hSvUkNH79wGqRqtUq6FzZtjq6X+xTw71l6Xqs6288srrknYskIhilFzw+ai+nllzF+v3LPN5WYUdfT6gxmtdsGSV7oTr9Vt/HZGIpub084RJH0rXbQRAinU8XPjvuPMuTbrZtS9Zinz4kTB+0bZ9Fyn0fmGZMn2+tbPuwFFVao2atFTjBbvztu9K1FxIMxBOKsrKNVu05Nb794FhRw9wXR7NOCP9/himP1/7Tt0F1bh3P9FXwX0Z1CBu14OHMiThMLA6rhFlh1PIXrWgxdcyysDgN8/LgWWf+bfDKTm6Umjthu26i2/m7MUyacocNcWMHD1ZNxRgQEGBETJQ7KMSOnNIiED5CpXk+efza2i1s4xpQMfZwI5Fq+RgHjx8TOYtWi0FCxXWXXTrNu6SvQkYVGIDHYAyz83md8qkr772pkKPcjG95A2b9lxQ2PEa/MDjdozQC4GdAaAL9GKBXW76d55g523bQABw/uHvWAfAXSEXRcl5dle6p50YNRcCOkc/zhhPqv1cQ5WdH3aOfhywyz7xl7z51tu6047enh92MSq5vJiXsxTdMS3fuZlO7PdFAx19OQwqBxKPSNGixWXFylDYGQOKBbskzfBbCewygmHnBB0fZ58QadW6vZYBN2/ZrZmUqD32gvX6rZ8cP3EuxGlJ2ZKtAhs2blcHJWVHhs5NCZN+WsbxM9pHoxyIyWj+whU6StCyTQdVcTyGwfL4nQcVXMSIMZ6ADX3goOGaAsMiT8p0y1etE1JN6AHimNyzP1nefPNtzcC85pprdRHsNVdfo/00yp/tO3STzKxzGvnVqUtPTSuJ1LPDbMKhpcoVVg4l+/ZMxJcfdouB3SXSb8AQfRMA1Fmdg2uT+T5eW8bxs/q96f9RBj2ScUq3EDBasDZuu6xYvUnmL1olt91+u0Jnzvzlaqy5/Y47pW6DptKoSQs1aAATgJaWcUZq1W6g2ZdEYwEiMyDObUBEEDQJKqPGTXXdZmDGCwgwHjLCyiit16CJ9keJWKOXx6JUVCHGF0KVee4t8Qdk7frtQkTa/IWrZNbcpQK4Ro+dKt179lFTDZsBmHVj3vHdQh/4y62YRHgTwzjL5VdcoT1K0k1uuvkWBT0D+mw44E0Mc3FvvV1QI94KFHhVqCow2xYJdqivatXrys8162lQM5sJJkyeo7/T2267Xdf04Fa1Q8Or0gJ21WvWk3cKfqBzkAP/HK2O3tHjpstTTz8ncVv26gyf1+fL7ePsrz0YeNGVnivwXGAXq7qLFXhhYRcb4GI3m1C29JcpXSEXoRcXi6synOHErt6ctx2gQ8FpL+6MSNVq1QOws4HOAC3dB7u33npHRo8Zr65Nz/mVvnJlVMh5VHJHvCo5DWi2lysDSs44LY0BhXGAvfsPy7sFC8nK1XFBys6ADsMIzso9+w/L+x8UkTXrNksqiSfJGUI2JY8Lgp0vuDnnpOggOWkl23TMIFvSjp3S5aqaY5nzV4jTEqihzAAWM33ffldJLwYGduRbspT1k5Kl5aWXX1U1NmvOIo31Yus4uZVsKACYqEXAwk448inprY2fNFNLdoQCl6vwvSrDu+++R4YMG6M9PZQkOYgsWqXnNWPOYiH1BDcurszWbTtquRPgYNtne7W1485sK7AGyVFe9N44GPhmUStB0pQEyeDctS9Jl6sa2M1dsFxHAEaPnSLr4rbrYDYXf5JbgGqDRs0EuOPoJBWlWPESCi5eG2VXdrUx0M1Fn9ktlMzm+H26CYHv+dHHpTQ55N777leo0GMDRO+8+76+prJflfetA0r1z9GxNaBN2y669YBB+ITDmf7PASwLdNZoAeAdNGS0Plfxjz6Rnr36Sf2GzaRiJd9r/riU7rzDDYnRR1/zjTfpyAMzfldffbX+7QAWOZbAjL2CmDjIkGSXXIVvK0mNmvU0q7RJ09a6vue3PoNkxKhJMmvOUlm3cafs2JOkBxdwLp6px/6SUeOmqQnnrbcL+WDXJSrsfq5RV8uNbCUwQ+UsuKX0GL/rkOzZH4BdLMDBoFK7bhM1yhQtVkKAXM4Z0Wiyf/3rXp3h230gNc97dm6v0Q+8IHWXS9hFUHjB0LO5M+m7xlLOpEpgK2kGwS52wJ2SWMqU5wW4WBQcgIsVcg7AodDsZUrtxZ06K+RBzpg5V2fp3LIrgR373goWLCTjJ0zWx0Xtx3mFXB725fzGkyigM5AzpUrKmHbYYfUPQC4wM6ew23dIMICsj9um8V4oLB6L8jqU4tsobttQQM+nZu16GhC8fecBVZE8P6pq0ODh2r8z4wQBmFlGFObxPij8oV6sA5sLKH+laeQXcLr0sstUGeDAZO4NSBD6S0mSJBRivHB14n4ENsBuxuxFQsmOxxUt+pGOQ2BE+bl6He0hUj699NK/C1Z7VOPyVXEKDkqvXKTr1GukJhsyLLkgPvLIY6ryAqt5LNjh2GSmDyh998OPsmHTTtm4dbde3FnvEr8rQZevAjv6kHyenxdYAytKpqzWYUO2+ZggYlb3AGrcoeUq/CA/VKqiiRwNG7fQxa9/DhurihjAjRwzWWrVbqhKmufhOcnAnDRlrqrENeu3S7kKFdXM0qxFO70PiKH69iemC/OEvH7S+Vloald9RtGZiw/zbH37D1HYobjo0/L9zGsmpqssr7n89zrkX+3n2mrUAOT9/xgmEybPFmb6Nm7dJ5u27lPlF78jUXtE9OjozQFfVCJlY0DNxyhFFHBi0nF9zSguc+w5mCqHj+Ro/iSKjJ4bMWqt2nTS0igKxV6+NLcBEuqLDEtUHbBD2bHg9suy5RV09J+AhRtEIt2XeuyctGxtDf7fedfdsmjZBsnMEd2wgIoFrjv2psT8vJG+Z6TP+YEXUtKMDD1XdQfw8kDhOUvfQR+7wS520MW2JDVW0OWuJ+czneQx6IyyoxfnDXZn/LAj7irirJzPeBLssnQ3oARMJuF7dOFivuzlyvAGlGBF5wedbUMBCm3XnkRVMyxTDYGdz4RiYEdvL27zDi1TkVqCS7Vnr76qdsy8nDkzW9aiVTu54cYb1JXJKAIjC7j9fun5u+ZfhoPd8Zyz0qBRc7X+k92JoiPIGdih+o6k5eicG0qTsujcBcu030bSP+t6GHHYcyBFZ6MqVa6mF3JyJ2fNWaLmjW+/qyhkJuIYpXTIvjNKhQDyoYcfUZgg+8ZNmqEX8I8/+VTXE2F4wU2KGmQ/HTme1tfZlF0i8VlW2j4XWZbLflCkqOzYkyhPP/OsvqvfuuOA9tqAHSXL1Wu3yMMPPyI1azcQBuRXrNqoiSar121ViKOsACRwwfzBBZJSJiMFGdnndMYOEwq9LtQbKq/s1+W1Z3f99f+U73/4SeJ3JgquyynT5mlSzPSZi1RFXXPttap4/xLRUiNbC+ir8fhHHn1cSpX+XPt1ppfnBB2vCeigsABCjVr1ZduOgxK3ebee6d1gHuH1UcqkpMlMYABYACVbDh7OlP2HMmR/YoaaUIAckN17gMPq/4X2gSwjRLiLLMaZnr36y5VXXKmQAXYtW3eMCjt+hibN2vhgly0z5iyx/h2U+FT2JxDNFjvsCI/en5gpn5b+Ut+ooVjjdx3WbeWFixTXNy2UOSPB6UJ8Ljzw3N8MmDcFrsALA7tgdcffzKbwcqnu8nmHXO4SToIgF8VVGQvggiO9YnNW+vtzQWou1FnpV3YZ2Tosnp1zRoOOZ8yap4PjpnRpP6P2srJPy/sfFJbJU2boCpywsAvaLRfGfIKa81i29AK6aH25kKWqtnEC1J2BHSaOYNgFjxQAu917E3U7wq69h2Tt+s2aD4mjkV7WjJkLBBelAR1AAjiAkHf66+K2qQJEDT73/IvSucsv2tNzKjrzcdYJ1qxUkSpVawgrhwzogB0Hg9079xyS2nUayJDhYyTrxF+6z46N20OHj1Ulh5GEry9Z6jPNnARAi5et1V4O+Zh33HGn7N6XpHv0MAew+DQz55zQ+6PvQ9LL+4U/1JIa/R7W16Byylf4QVf2vP1OQSn43gd+2AEuDlJQNm3bo72u4aMn6vO+W/A96fX7ALn6qqvVeLNh8y5VdN2DeOIAACAASURBVJQ7GZMgcPryyy5TgwWjFQCQg74ZQ+sJSZRDSVfJkH0JaSEzc7gwMatwRjmyfYC+1c23sLLoWl3kimIq9ennMn3mQn1z0qJ1B7no4os0ZQXItmzVQVq37SyVfqwmd919t/5+UIi/9RmoYApAzraix2dAAWaTp87V70WSClDDMXnABy4Dq6B36TbzSlA5y34h1Ntuzr7g+9xgxwUVl2aduo0VVEWKFNdoLmCH4cVctJ1nlF2NWg2sDQdHLNMPphfKrfUaNJWU1FP6tbGCh/BoosZQuW+/+57u/mPsAMAx/vL9D1V0fVCsz3u+jw+CXV4ovDDAC36jYoNdrOVMn7qLArvcAS6WXhyAC4JchH6cK+BiUXFBcLMWpmaYMGbn2daPA2AYVLJyzsg35SpICOxsxhMeeyz7tM5yTZk6MxR2QSME4QHnRcV5dViGV3KZruknpmTpdgZ223cdULW1au2msC5LenO79h1S12anLrjdaugOOPpn331XSciYZN+b3V1JGsr4idM1qYTRA+PGpP9FH42LuoGb88wAOCqScuPJ01w4LciZMwqM3h7za2riyDylyo7FsLozLuusPj/qkH4PG8vZP7f3AFvDn9Y4LXIjl61Yr2MOKC7KjMmpObLv4BHtCeLUxAzRucuvUqbMl6rmyJ40/7Vu00kH5OkHGtBxRkGywYCL4yelymip8cEHH5Zvv6+sJV16Uus2bFeYUf7EgIKS47UP+nOUT0VZ83VmrMDLOfXYGWE5LEP8vG76XcDqh4pVFHYVK1cVXseSZet16P6ddwrq2AGPZd0MK3pYUsoYB6n/n33xlQ7q48jEkRiAna134gMWKq1bj9/0+9FnpMQYDmzO+88HdG6QM/eZMQUyUvk9XHRRPrn1ttt9ZczIsGM8oFXbzloGTTp6QucVeaPT7Zc+OnuXG8AQHr1h81559fW39A0YveH04+fU6Un5uk//oapwc/PcefE1fuiF9PDClzRd1Z3ncqYNeA51x78J578T58cRYBc5kxLF5nb4QXehVVwskMOA4gI6v3KLAjqUW8axEwqxL778Smb6lV3oGAGPPZZ1Sj4sWlyheOLUuUAZM0+VXAwOS9e+XJiSpUPJ2YFHv43SYvzO/Zr9uYoyZhiXpcJu7yEd3EZNEab88ccl9brPQHbpMl8Ku+94TgM8So0oun/ecIMsWLRS0jJPSebxv7T39VOV6mrhRwE6QUfJkqBpVvMw4I0aNJALd6YcuWzlBlUW3X/5XV2LlFGZIyOKC9gBSO7D3fd1uW/1wt+iZTtN0nn8iSfl19/6S0Y29vbjWjIkw5K8zHfffU+3H3z++VeCgQS44shkxo7+GTN0dtilZp6WgX+OVNMF/cGXChTQNwaNm7XSsF96cTt2Jarxhu+FukRt3XTzzdq/OpJ2UgfJvQDO/hjKmvSjuLBz8fzss6/0drsO3TSc+fuKVWTwkNFaRly0ZK32Inls02Zt9HcAoDhwUfJcL7yQX92MiclZqiYt2IWCjosQfTQDO76HF9gFQY6LXR4pOoUdmwnYDH4gVe67/0Hte2KKoaRrlTGjw65N+64W7I6c0J7ajTfdLN179tVxhNzAhfDojVv36xseDETVatTVvvCM2Uu1Pxu3+T/jxIz22hV6Fwh4werOUc6MUeEFwS5Ws4mBXXjARRkbiFXFhUk5YXzAX5p03g6CXLZ4VXL20qQddsRkKexOi24Jd5YoDewI6p05e76cOHlOB8IDDkv3fpyXjQQxKzlXyAXUXFBPztaXswOO23YDSmpGjmyN3yvPPvucrEbZ2WBnd1ga2DFkTV4kSSpff11BTR2r1mzSkYS1G7aqCcUPu9Rs2bJtjyqNLl17aogySoycSYKZKUVaW8RNOoq1TZySJb09BrlxP3I7HOTM/Ump2RK3aaeW3rp076UbAAhGrt+giQKJkiawO5Z9TlA4zz//ou6ke7fQ+3L6nMg7BQvplgCN8Tp4VEOgUWxA8suy5fRnpuw5fNQETVph+SrA79qjdwjsKJdOmjZH8xiZ2+O/Fi3bS6PGLVVh0et76aWXtddIdBlzceQicjFmYSwhynaIebm9LyFVQ49r1WmogOMCzyA4MGvRqoOqbmbb1OiRcVq6dO2ln7viyitl+qxF1lzcAcuJCWxnz1umn6d8l3aM/qcPcmHecadmntEFrwRdT5jEYPyJiO/MI4MuuEQZeoG0Pm8UXMjZ5wwEwpRRKedSpn711TdUbbdoRc8uMuyIWMM8Qy+RsuXbbxfS38efw8ZJYkp2rvpq+xLTZdHS9VoKZ79e2a8qyIfFPpbnX3hJZxlxee7enyrb9ySHPaKBKi8+71d451vSDFPO5O8V+jf1vdmJQeHlYyYuluiu3ADuvEuV5w05lF2YnpyjXOnmsLRgh8PzhJT4pKRCjFKZE3R8zGMzj5/UXtW8+Uu0fxQNdF5Kll76cf5ypSvkwii5CJBzgo7RAcqYAOnpp59R2KmzMtnnrLSdk48cl527E9WQgfPxnXcLaR8T1cXuOVbybKYMePS4pewOpwtfs3d/siqon2vU0bIisBs1ZpLGcJF0EoBdAHQAjDImPbKPS5TS2wZqbmdrji1b1q7fpikklEiBmiq7ug31tRplhyqbPHWOQpH4LpyORICNGD1JSLLYsz9FQcdQ+NH0U8IGc+bUGjVuoauHMIyw6obHoQZnzF6oZhS7sks4nCHEibHMtGOXX1Q11ahVTwitLvheYVV5H31cUmrWqqcZnCgv4sx4LS1atVeV5AVw9sfglOQg2ovSKRdrFoQyivDn0DGqtDCYcPBz0SMChE8/+5yaUXBf0lfjwFlZs1Z9YaHr0pVxkkgWaBTYoew6d+2lM2/M+h1OyfIOuzxWdKa0hrFl244ELV3mL/CKlPikjKrtpi3aRYHdaf39EdiNmxOFSAbrs8+9KAyUU47MDVTM/B491YcfeVxzS1nzcxm5pA2bS2JKjjoxI8HO/rncvAavXxMeeDGaVsIALyzsYlB3+Qy8vJxjUXAhgPM8OuDbOhBrmTIPSpWAKvSwSpWmDFq0WPHIsEtHPZ6QkqVKy8JFy3UMAdXmdniBnFc15x8lCIr3igC4CJCzKznrdsB8Auw2b90ljz/+hKxmfo4xAhvkjOHEDrsaNetKnXoNdTgb1TV9xnwNdo7fecCCnS8Jha/Nyjmrn+PCSw8P2AEQSnYrVsepq9I4LY0JhbImYc9FihRTgwkB0uEgp0PbiRhWcmTVms260ocZOTvs7GVM+nxEgj3w4EMKIvp2bAVIOpKmVvlWbTqqKgR2AJKVOYwmECr95JPPKAgxjGyJ3yelSn+mySeHj1Dms8wpnInlYoi8aPES+q592ao4efqZ57SXiKp78KGHtXRJz5LXeeqs6OgB8MEgAjjsIIt6+wCOzmyZPXeZui0ZzOZNAnNqDFYDMDM2gLLD4s9KI74f4c+ULQ3ogCE9qkcffVxdp4xQ7E1ItWAXRtWhoFB2gJrRhoWL16iCdPZY+DhI0eUCclwkQ5Scuc/MevnODI536d5bXbMstUWdYY5ipCCSsiM8mvJ3j5791O066M/R8uZbBaVDp19k245E2bn3SK5gx248UlP4vfNGAtDRP773vgdkxJipCjuF2e4k2R7pcFF+XiEWy+P8wAspaYYHnnmjEXQ2fx/HOSzwnP9Owvy78wy7WEEXFMgcpVwZMJ745uNiBV1QqdL058IoORSeQ82FAs63T84W0AzseFzhwh+6w85nPElL5/uekE9LfyaLl66UrJzToaDLQ3dlrtRclL5cMOwCoDPKbtOWnbo/LhrsduxKUHCh7NhmfvEll8jkqbPUmYgdn4zNpJTj/kFxoMWsXfNW7VS1kHNJbw3X4yuvvi4tW7cXBs8N5AzQUHzbdx3UrQSoLzZ5m8/Zz5g7zIHaYhv4tdddJ9169PbDjhm7Qu994O/ZAUcAw1D6p6U/t0YjbrhJUo5maF+OYWY2H9BvZDD9gQceEnqAPJ5oJy7+7Nxr2ry1/gz060zslx14DJOvi9uhKS1c1Aq8/IrOBDKYDEhY5kq2o7oxj2bLvIUr9SL4y699VVlFBZxv04E+7oC1uLVO3Ubah2Oom9EDLqoAD4AZ2AFSaztBPk0foeSYnkmJ11KGRHPNVJv9RdKsJQrotOxF1YW54HA/4wF8DwKoySY9kGCNYTi/Jgh0ed2j40LqgB3xYpRwmTEkRYVSMSaceg2aRYBdsqSkBWBH77L/wOE6H8kcHH03RghigQaPZZMBu+oY5SAphb8NPcB3Cr6vlYNV6+JVMUaEnBOAe5JCyp2xvq5oj48VeM6/gf9jB+giljJd1B3/dpz/nsLCzg8313ST0F5ckKMyiooDbgHARVdyYXtyIZDzDrhw5co0AGeDnBkIx6BCmbJQofdl1uz5AZelw12ZqrDLkTKffSHLVqyR49k22HmEnJfkk8iQC/Tloo0S2PtzQZALE9qMsmNujrDkINjZhsNRaBaAEjTRhOHq6bPm68A4vS+2AfTpO0iycs5JIvNwtg0FOBMXL12jvZKJk2fpWh9gQa8MpyXjCsza2SEGaFas3qhN+6Ur1muZ0P55o+YM6DhTnly0dI3Qg/rl1z4KN7I5GzZurotRUZRmwSrxXphPGC9gv93tt9+pZg6cmMzRMTvHKAPpHC+8mF9INyGthZIkPT0zQ0eaCYtX7ZAzt/ceZPbshOY3og7jNu/SDeXAjt7R3v1HhHInsKNMyOJUXIN9BgzRjEtPsPOVHbH4M9fGclKWsHIhRTG8mP9l+aLsN1pSBEYczOExfsBjnn3uBU1FYaaOCwkXlOS0k7puiN7bgsWrreBolwuN/cLD16MMMcW88uobWjLlY/tjzPP7gXeBVR0XWcYL2HDAz/raG2/JLTffqstzmzaPVMZM1h5d3fpNpU/fP3UG7pXX3pSbbrlFOnXtrZvLowHC7fP7EjJk2apNGvj8+htvq+Gl1++DdLzhh0rVdP6Or4sJdgZ+Fxh6eQI8F9gZhR6s8ML37pzAC4GdH3Ihbkp3wMUKOfpegcOn5ML05LyZToKTTkIclp5UXPTN4AZ277xb0ILdKXHdRAAQSVH5/IuysmLVOjmWdVq8liv/JyBnW6aKkrMflCspW67fGC/33HOPrF7rK2M6QIfhhD1zpKD8WOVn+fe998mAgUN1GWq//n/KmLGTdX2PHXLmNmVDDkp3XHgJUKacOXzkeM0y3L4rQd2PdphRwhw7YaqWnMiq5OvN5+2AC9xO1SzMlWs2yR133qmzfZnHzypY+/0xRNp26CIknhjYMY+WfuwveeedQvLd95V1aJuyEooVIJP88UPFn/Q8aMgo4eDiv3zVRoXdkhXrLVU0eWZIv05h51vLgyJiTo5MThJdADfPg3EEEGIqAWqUQRcvXy+PPfGkDBs1wQpqtis3t9s+0AERepMdOloXdVJV5sxbqgPhlE6ZeTPbCjCoAEX+FrffcYe+mUC5UtK8807ruO++B3QEAliq8jyQGgItJ8QM7HAYMnxv8i+dj7tgoHNRdcR5oTjZcHHlVVfp753fBxsemjRr66LssNdbB4YUYMeuudTMc/JN+R/ksSeeksFDx2oPzw1m0e5jtU+tOo11NvWmm26RwUPHyetvviOXXXqZjBo7VRKTc3IHOgM8c7aVOKO9Jq+f98MuBsOKX9HZ1XYY4LnCzrwZcpQ07f+mFHaxAi6oROlBxYXALdYypWs/Lu9VnJvhxNwH7Bjufv2NN2XW7AWat2gZT4L7cTyecmfZr76R1Ws3SubxU1Fhd/7mk4CS8+qwDDGf4Lp0wM18bO/JAbvFy9aoWUIXuSYHNoej6IyzEtjRk/upanW5/4EHZdCfI/R3xqJURgpQZwZwzjMX41p1G6gp5GDCUV2uytwdw86//T5AUGAGZpx5/Odffq2xYgRQJyRlaJhyAG6mfEl5zjooj3KRZyfb4KGjdFwBBUeKCBmYxIUZ2NGPo0/FPBhLSxnonjxtlo5I3H33v+Te++7TBa+4QVFyDJYXLPSB5muSVkKaPjmZgI3cS6PmUGnhDhyOQ31ByV99823Q5vCko9nqfvzH9dfL4uXrtFQaVtn5IGeUU9KRHA1UBlqXXPI3TU9hFhA1ecUVV+hIA/1MHs8sHCVM5vkYFfm09Bcai9WqbScZMGi4xov9MXik/l3osdIHNN/HfpFx3kYt8rsEJCyDBXb2x5wv5MzF0CiBoLP9Ymq7jdpdvHS9OoGLFv9EXnjhJe2fovLo2RHbFTxMHtgGAOwodQKhiVPmyquvvymF3vtQ1sbl0pyyN0USkrOF5bG8qWD0hDNvqp559gXZHH9Qdu07mjew80MvUOL0CrVoj1PonU//LgzsQkuajjGUMMDLp6DzqOKCIOehDxdcqoxx64AZIQgpVf5nlJyBnJ7TstR0gkJ79bXXfbA7F9qLSzvuc2hmy1dfl5M16zZFhJ1XyGnJMsR4Emw+yXW5UkcLghWcG+QM8IDd3PnLpGOn7to/M4YUAzlzBnbbduwXzCnEc9HDMokpTrg5P0apLVuxTlfJ/N7nD+2ZAciPPymlOZU4OHFlAjq+Hw5PEl1QWpQ83cqWFvgCsEM5jRk/Vc0Ik6bO1hk+4rlIEKlbv7GCSmGXYGVXou4AHqVDosLYdUckFyMCuDnZGHBWRPr0H6xlsElT52hgL9maAJJUEQDqBXQAkNfXtn1XfS6yMon7MkADdpQMH3/8SWGDAQA1nws6+zYRkAUJwHBVArD3Pyiqzwuo6dFx5qJOf4roL8qXQItcSQwwzJrdd9/9sn33YUlnE0HaST3Y/TZ0xHj9Wh7nhJYdYPbbpKWYn40IMkKm+bwfcua2ebeuZzf7uft9QXBzXjBtgLOridSMs9KpizVeQf8SpYopifi2hUvWyYFDmVFhN27CLB0s53dZ7tuKumQVQEaDgv3zGE52H0yVTfEHhUiwN98uqCMmP/5UQwh+btq8rRw6kkeqzoDOnG0qj9dhf125vR0L8Ox/j6Dbzr9hyCiCV9j5QRe8ZSCkPOlBwQXDzRfhlScqzjvg3M0mxmUZGAI3vbggqBHIbD9s/ThMJ8lHMiR//pdk1hyUnQN2qVaslxkzKFf+W9mwcZtu8raXMb0Czu+udB0jCCi584KcByVnIKfnJEYPTsi8BculVesOVs/NpuYM6DgDu63b90m9+o11bxzlLtboBEYH3JSdNU7A1+NsBG6owpSjWQq8aTPm64WVQW3UHCqNNJGZsxfpxZgeHH20SIrOKDtWB1EaJZqMr2Owe/vuBDVsAC+eN3jHXKoGCG/cukfn3EgNAV7kQ9KH09VBi1aquYF9cHwMdOlLoex4DPC0ly3DqTruZz0P4cdcOH+qWjNI2fFacf+9kL+AzqcdPxmceQnQOCh9Ll0Rpwn/02YsEA7WFFE+rFqtlo4ZUJKkJ8T3aUUGZDoGk8AOOfp1Tz71rM45pqSfVKiasQLMK126WYAYNnKCp8FwSpiYW+jV3Xb7HbJh0y6NNcsr0KHqwsIuDOgYFaCESQYlvwdMIawC4vdU/KOSmkdJdFdA2QVUHRfz5NRTGlI9YdIc+cAXMfbH4FExpZvYRwSSeL7GLfXfJuYkZusef+IpYQvDyrVbdet5rnp1BmrRzjbo5RZy5uv8Jc0QheeeshIEOfP3ivA3NSreOtugZ94w2c75zIiAOQept9wCLkwPLqzRxFXFRShTenZUhvbivELOQMuUKunDAbsXX8wfDDuH6cR8XfkK30ncpngb7LwlnviNJ1GUXFC58jzclUbFcQ4Cm/1jW08uLeOkzJ67WJo0bRm8Xy4p3V/CpESZlHJM5/EaN2kpAwePUEs7Csw9AQXwBYKbUWyou6XL12kOY7PmbdSlSe/us8/Lyl133SM79yRqCDWD4LgJse1bs3G4BEPLlgZy5kwY85/DxuhIw9Yd+9XksW3nQe0LDh0xVjceOGEHhPi6ZSs2CAHSLITlZ2PTQcvWHbTMBDiWLF8tYydM0ySWIh8Wly3b92mpMRLcnJ8j+Jg+IBe7Dp16BDkuKbeyQYGt4r/07icflfhUZwz5Xgzgk1VJMDGbGVChzP3hLGRXG6XIK6+8Si/Oo8dN020NLAalRBa/M0H7bsCOTE2WuT786GO6Lb1i5Woh28QJau7+Sx8FBAqNEqldwbndZj6PCxMjFe+9X0QDnoNAF6TmuHi5q7dw97uCzlw0w5z3HUyXLfEHhT2ErAzSsYN3CqmyooRpnI8W7Hy9OvpRPvUDnFq17aK9PYIEgOXy1VsEk4m56Ic72yHHbcqTODhR2Sg5HL1fflVe1ffKtdvk4GHSeg7nbQkzHPzyCHqxAo/fcwj0wgAv+N+BDXb8O7KBjtt+2MUKuUAfzqbgIqi4sKBzKVOGHQB3gZxXV2WQYrOrN3Pbp+LCbR9IP8by0TR56ulnZPbchZJz8pxrLw7YoeS+/6GSbN22W8cQAJiXI3xIc3DJMtegC6PkwoLOBjlTrgRCEWHnm5mzw46hbCz6uCzplTnLlk7QmX4cvbladeqrWtq4ZZeukNmfcFQv3CiU4zlnpP8fQ3RMYcr0eWoi8QI6gAe0+v0xVJ588ilJxBRzNEuAHWpj+swF6tZ0wo6PgRLKimFxYsTIrSTY+t//vk9LqZgacJ8CHpydCckk0BwX3JZOoLl9bJUhU1U1sqEctyjrg3STt894AgiZiyOfkhLnZ59/pWHTVarW0m0F7KrDJVr4w+Iye95yWb9xp2zetk/BwZuD9h17KKAoL5P6Qf4jaS2UF3VswAc7DBhAELXTuduvWro0AGMtDgoNFUsmpqWOoptTKFkOHzlR02IaNG6hbk7/RSkIdLFBjotebkDHhZg1OZOnzlOo8/OauDBiwho0aiErVm+RPQd8m8ZRKDbQATHm4Vq366rZosCyZp1GnkuYu/YflV37U4WddNzmtfwxaJQ89vhTCrxixT/RNUO8oWG7AyC4oKrOCT4f8MLB2uv95ndmTD2Bs/sMnlfY8TcPBh4f26BnA57CLgh0HnpxwaDzwS43ai4IdBGivM4Dcl6VXDDkQgOa/bB76hmZNccr7HZJWkZOVND5S5ZR1FxQyTKCmnM1n4RxWXpRcwZ0lBePZpwIDzsf6FB2OCI3b9ujWwYOHkrV3kfb9l0cYc6BFBTn7BzA4zmYXSO9g5IS5Ur+27hlpyorTCA4BRniZpSASC4vsKOcCLBYcEqcWXJajm4K2L0vWd9N02dLSTsRUsY08ANI9M2SU7N1uHvdxu2ydft+2ZtwROK27NKD75GmGZ2snQlvRHF+judmW8HOvUm6jQDQrF6/TRKTAaa1PQCHKj97+W8r6hsAyolmGzk9y2/Kfy+MLGDoYYEpA9ypGawjsmbjWPMzYOBw/Z3y/A88+LBCjmWrJrz5wOEMhSTzjf/4xz9k6PBx2sNjDxw9QJ6THh19LYCHocaAMNI5I0t0HIXvS9+RKK28gJ0r6ACgm0qw3QekDx46pkHfGGYom5PNinFpweK1Urd+s6iwY+AcBYhDl31802cvUbckySmUONnKzmYE53E49ZTE706SLTsSZNO2A7J1e6LEbdmnc3XsXsQVyu+JBJVtOw/JnoNp/1nQAT7bmIJXsLk9zg+7EIemO+xyr+4iwE5BFzPgIo8M5JmKc0AuT/txKDpbT84t4cR+Hz27Q0mpcu+998n0GXPVWWjvxZnbKDugVKlyFdm+c78wdxdO1YVXchF6chGST0Ih5248CavkKF26qDlKj6Yf5wo7G+SMaqM3t2N3otSq00BO/iW6JaFt+84+2AUgZ1Sc2xkFxgwdK4JQStjwKWMOGDhIS4RcCNi7RlmPhaamRBnpDITopTHcjTJ74smn9GtZ1Dp52hxVaJQpuaAbuDnPxmTC8zAMTkIKa3oO8nuw3XaCLNrHlqqzRgtWrN4kV119tZp02PPG8/J5you79yer+xPVAeSMoYTyo7UdPFV7c/y+UKrMAa5eH699PGK56Juh9Bic/vvfL1WlxXA40DGwYxh+8rS5UqJkaWFp6JBh4yTh8DGdA5w0da4MHT5enZQoT/a4eYEdfbGEpEwtpz719LMaFs19Qe/EXd+pu717D9wXFnRRYZes++emzVykULnnX/dqcg2l38+//EbNOKwyWr5qsw5w2y/Y9gs6sKtVp5E+R5EPP9Iy5L6EdFm/aY9GojVv1UEaNmmljk1cm4CxUZPWUr1mfY3GQ1mjCO++59+qsvmb8WaFf99Ejq3dsFMSkv6D5UunulPoWfmb9p87N7f9v8OgHp478FzfqIRR8GHVnV3ZmQFvt7OrgsuzUuV/yXQSArlQFWeHnNklB+z2HTisQ+Vr122S49lnHGVMqycH9IBd5R+ryo5dB1xhF17JBUMuSMn9lyFnYEcZk/iuRk1a+IbC013HCNiOMGPWAi2vscC2Zu368tQzz2qoNGrSTcmFAx7GFhQeSScscn3woUc0jUTTQ9IB3XEFUzTIAToDO4bXmakqWbKMqjiiuFjaysA7pTwuyk7I8bEBXdRzjGrOgI4zqnGhb7CejMUt2w/IwaRMhd2hI1mydMUGzdHs/ftAv6EE0HGgquidATN6Ypdddrncc8+/1BFLn4+UE5yTGFO4qHfs8quqNAM5Yz7hNQwfNVFVNc5EytD0o0gXYUQB5cGZhbZjxk2Lmm3J68L8wmvm6+o3bKYD2Lv32kpOuQBdbsuXXEgxnbAfjhk54HLDjTfKrbfernsFGSGgbFjy089lzfodEWGXduycNGrSSpX0uwU/UHX40EOP6r9T3gyQeUoF4rnn82s8G7mb9HY/KFxMvi73vfZX+/0xTOfyKKOiEC3QvaCKjzGE/1ifzg10Ntidr0vTDzuPCi8vgZfPCblgwEWP7wqr4lxm40IGvlFu5nAMf4fvxYVGeXktVRrzSOAcPCNnh5xRauYM7DZu3i7tO3TW9BTUmvW5O0LBDAAAIABJREFU4H4c9yWlZEiVqtVl775Dwvcyyi5XSi7WcmUe9OXsSs5AzpyB3ZRpczTo2EpAcXNVpmsYM+HAzJfx39jxU/RiieLj+d3AFuk+Irmw4+OAZHAcpyEfoyQjQY7PGciZM4qMr8dI0KRZa31O3J2U43Rx7Mbtknw0WNlFhZst6zKagjOftwPOfhtr/+BhY7SMVaVaTYWfGSinvDp1xgK9IK9YvVkoKxrQmTNgYeaNofC6DZroz4krlAsoBwHWvGEYNmK8Rl2x3NW5joflqkOGj1OFyKoi3J8jR0/WcuaoMVN0e/msuUvlpQKvyuhxU/X7RSpf8vxsQ0D55Lsonyxetl5fu6XqAiot9B16+M+FVXS2MqXrxXJvivbdDh89IRMmz1GzDKHagIay7D9vuFFQnh99XEpKf/aVrIvbqT1J+4XaqBqiwDCNlPiktLDsdeqMhdJ/4AgdAmfubs78larMKMvx/Q4fPSmHjp6wjpQcLePSp2OIvGadhnLLrbfprB9gjNuyVxKSsv77oLMDMA9MK/bfY6B3F4M7k7+vJ4VneyOFQSXWcYGIcHMBXN6YTXLpqvSpOC9wU9A5nJUGdJyB3aYtO6R5i9bCVmwDMOfZwK5qtRqyb/9hhd0Fh1wEwIUtWUYpVxq4BZ0PpwtuzHETpknDRs0Fs4MpWzrPZFzWb9BU3n23kJw+K8JQOKtpGC7PzPrLM+wAkx4+hyV9OUqWRGdZ/bnA7JwTegZuQeeEVFWC7J3DuTh77hIFG8qOoXBgQGYkzs6YlBywi0HN8Vg74Oy3AXqF7yrpayF4+fiJwIwds3L0KOkNUb6kD2cgZz8DHj5HCXnazIW6EPbHKjXUxYmDckv8ATlKoPNBX2izY0sBbwbo6/GGAAhQ0jxxxjdjl3pCZ/YA7U033iwt23QMW8ak9HkoJUtwbk6fvVj+9re/64D6EV3WetTFXBAebnYQhrvY6f0eYKe9uqTjqqzYVk9PmN4lsBswaKQuRp08bb5U+bm2sIyWhBUu0gZy5ky5ctmqzTpiMmX6Akk/LjoHRy8SUKEc9yakq4rcuSclOJtyd5LmZtJDZbMC//ZYoEuPeuPWff/90qUdcvbbeQk8D+XMWPp3/P3t/07sJfJ8ASUXeeg7IuSCjCZWELNfsRnl5jw7lFzEfpxtE7hXFRfcj/NWqrTDzXnbKLtGjZtpMr8TcuZjhV1yulSvUVsOJJJ3SFkTN6X9CJQrvTorQ/txuPzypidHny6SmlPg+fpywG7MuCnSoGGzqLBr0LCpFC5cVI5nn9PH4v7jQo3L0ksZ0w65gPEk+liBm5pT4PkGxNMyzsiIUTgCrxIGyhme3r0vSffVXXPNtYIVH8ML39MoOr6ePhamFG6b+/1nj6CzQy3cbTaI4zbl4kdSiRWubC0WZf4O1YFBxeorWjmTdtCZ2xhIJkyepT8PPU+CpjGI0J/DBGP16NyXqxrYsQWBjRM4QrnPqDf6ftxGMb755js6UI+bk6gxc7BVe9XarTJ7/nKdDzNrgqbOsAbJgy9KzotU5I9dYecBcig9Lp4Z2SL1G7bQ3zE9Mvp1nClporJYr5OYkiXfff+jrMKNGQF2jBnwRm7BkrU6fG5A6DwHjRnsTlIQHkrJkdbtuvh7dGW++NpXXs3831J0dthx+4IB7/wVXvC/q4C6ywfEIh1e8ymtFTi2smQUuEUtU+YScAEVd/6ACwDvmLoq4zbGS936jSLCDrgdSk6XGrXqSsKhVEk5aoddGMjF1I8LH+sVVsWFNZ7YZuPsc3Lmts14YuK90jJPyYhRE1S1uSs7a16O7QQKuyLF5Fj2WT1YjMq8lzO/0q18GQo3b5CLBjrUGgPe9Pu4iG+J368qhVGCG2+8WdUdiSGz5i0R+nrADLiRUrJoGTFhc3VwfV+ib0WPR8gZ1RcOcOZ+jCgbNu/SHg+vg9VAlukkMOiNsaZv/yGaPGLA5jwDI8woAIYAatQc7k2Wi4ZTcwZknElSIdgaBcnvacz46f6kEz5vYId55ZZbb5Uyn5XVecdixUvomdBuBtIxX5BIAkiA9xdfltPn5jmCL0qR4WZ/7PmADtgxKoAphRguXtO9994vr73xtsZzodSYc+ONAEoON+uqNVsVdk548bFRdvyeFi/fIMCLr3ceOCmZxwOiGFpSM8/K4mVxmsjDmqP3PiiqYw7bd1vP+V/v0Tnh5vrx+ZtW/CXNIIUXA/DClDPdFF5Y2OUZ5ICeZxXnvnHA64xc3oMuMAjOCAGwq9egsSvsjOlEYZeUrjFZAdgFIJd704nZGB6jmnMpV8ai5ICcAR2lSmA3dPhYqdegSRhlZ8GOsqBl7S+lJUF6fXPmL1XX2cYtLG3Nci1lOsuWwdALX7I0JUxVcPY+nU/NGbMJz4fzskKFiuq8w8lJ6srCxavVhMFMGjFcNevUV+MGsGOr+ZBhY9TkwYW9Y5ce2ufDyGIg5uVsgBbpDGCJGgMSDBTbS5WUMMdPnKlGCGvhqZVF6QQdHwNISpUPPviwPPPMc1Ly0890EezcBStVoRojih1w9tsGdsCMMua4iTNdYUfUGH3O994vrPN2Zb8qL2R5fvtdZaFsCmQHDxkjL7/8mvzzn/+U5Ss36u46O7xiue0GOkpVe5lV23c04qjB3gNsZ/9LlqzY6IcvmxxQ86+++qas37Rbd/MxMgDEAOM35b73DLtpsxbLpm0HdTXPqrXxOli+dOUm/X4Ll66XWnUby5dlfb+f73/UNzS4MGvUrC8z5y7TMQWGyv//AB079AIb0t3eCHi5zw87D4aVcP1Xt38TnmDnCjmXMqVZZhqxJ+cAXcRSpctanaiQC+nJRVZzAaV23OGkDP3YGesF7DZu3B4COwM5U6ZEyaGwyIRMOHRUe3sALgRysaq5MCXLsHNyYdVcYIwgqB8XRs3ZQWdgN3jIKM2PDFZ2wQkozILZYcfMHMPjDFwzbM1mcbuiiww5VF1k0IVATh9v7UkzoOPM96T8BwA+/+JrVW8YXYi9KvlpGUlMztBxCQbFGU+gdLk5fq+6Fxs0ai5sRXj5ldf8iiuvIGcAeCSd6KnmqjiqVK2p83FmtAAA1azVQF2UAC1cv87Abut2ls4+rK+XTeQflSglE6fOsdbwRNk5h3OyR8++cvPNt+oblAmTZ4fADkgBQkqq/FugL0eZlPJlmm6ROKd9vpatO+nPw6445v3Cwc0O7QDkrUF1vsZ5UUN9Uaqld8iG8R27kwSg0Y+zH8AwMTlLDiRmyLCRk7Q/d+UVV2qVgWW8RYuV8Nv7t+5IlC3bE2Tr9gSFX9mvKsiqtdtk9373beNAccWarXLf/Q/I3XffY7lW77xLB8EZ+sed+dEnpeWLsuU0Soy8yw+LlZCqP9eW7j376iwfuZsc5zsszsye23G+zxv1689z8NwPvAus7vK5ws3VaEIvLsrgtwNukUuVoaYTr3CLNgBud1Wa0YHooAt2VZoenDkDu/UbtmgZ83jOWXFCLgC7Y+rGrFuvocKOx3ntywXtk4sQ0BxrudKTkgN2trKl03BiPgYMrOupU6+R5lOa9BNnDw53I1AjLd+K8UrVyK/vf6isA7xEf7GdAPhciN4cwcesyuFshx2Kh/k/5iUHDBym/TAWbmII+bFKdb04L162VjeYE/mVffqczJy7WK66kv7eHJkyfa5e0P4cOkafPxrsDMS8nklHeefd9xQOffsPtbaQ+8YKABA9NMqR9sBmOyTM7f0J6UI01/MvviTlv6skp86Jfm3P3v31Z7arOLfbBnaU+jBvTJ46V3BomsdSxjSwK/ReYQHSew6SBGKBhu8NAP8cOlZ/FhQSHzMAz2MBNX8LElVQrAALGHE/B8+Nyub7MUrB9z58hCNbS7EYXPgY1Vi7TiP5pGQZ6dqttw5uM7tnQY9AawxJ2TJ4yFhdNUXZ8tK/X6qRaS+/+oY8/0J+TZQpV6Giqj22C/AG4amnnpVPPiktX3/znY4eRIIdBhW2SPTuM0hmzlkqM2YvlXmL1qhxZU3cTtkUf0BVELNyDJjTEzx85IQaWDCvoICiAsWljOgGNi/35eZ7Rf6agMLL7WhCLMCLxbBif2MVDLuwCi5CL84FcFEh5+jHXRDTSVqoWnMHXqBUacDmdsagsmpNnNSu20DLmAZugbOl3nJO/iXDRoxWy30a4dEGdhFGCGKBXO5A5703Z6AW7gzs+g34U+rUbahzdk7IGbVmYEcvB9hxP1Fh8xYsk4svvkSmzZin5cTwoIus5CL15gAckV/1GjSV0eMwVgSAx166IcPG6noZklIys88K4c4333yztG7XSbcfpB2ztigwjH36nMiAQcPkuuuu0yFv1t1wwRwzbmpU2HkFnHkc++A2b9uvjkAWxG7autffr6P/hiuQ+bjev/8RMl9nIMfZzMyhrmrVaSiPP/GkDBk+Vigxbty8R2FioBXujALr2LmnXH311Qr3qdPnB2Vf2mFHLmn2aZHk1JMWmI6QZpMpTZu1VeX3yKOPyR+DRkq/AUN1i3vX7r/JvIWrNEGF8Qbu/7V3f517RCHRQ0NxMR/4yCOPCTv3yPEcNnKinidMmS29fhuos2oXX3KJjrR8WPRjKV+hopp32J+Iq5KvpYyLMYoUEtbjEL/FUPdPVWsJcWXMGTZu1kY6dPpF+v3B2qIpgoqdMWuxzJm3XNg2TjZmJNhRFmXjOsPfyWmn1HiyPzFT9uDCPMCmckKkrW3lkaFBaTD64QVoXh7j5Xt5f0wAeF7Kl87H+GHnoZzpCjsP4wgW7FwhFwVwLpCLpUzpCXC5HAB3h5oTfpGVnB14AAtwLV+1XrMas1B2fndlcD/u1F8iPXr2liefekaOZZ3Rx+GkdDtigVzYcmUe9eSc5cpwsGNbQO/f+msMGO/UDdycZ2DH4Dn74cyogZmxK1DgVfm+4k+Sc1p8w+DGfBK9XBkJcig4xhI2bt4thd77QJ5/4UV1Ik6dMd+/xQDw1qhZT0OcmaWjVDlq7GS57PLLZPX6rVq2PJp5SsuVQG3pyg0yYfJMufXWW6XXbwNU4VCe6tV7gD6nm7Iz8LKfmZNjfg6nJVZ8emb2zwMpAPNr7wEKU2a8UDOmhEk8V5OmrRW4a9fH6/iEHXDmtgEdz4/jErPLCy++pH3IWrUbetpMAAAt2P0iwIT+4ey5S4Nm6Qzs2N6OexXjTvNW7eWzz7/WPXD33PNv/Tn4HTKMzt+cEjbp/U888ZS6eVGohFRj0Pj3v++VDwoXlRYtO8iY8dM01WX8pFlaSuX5UU6MQQAxApLZqv7uu++pqmND+ICBI6VLt97ye9/B8nvfP4Uh7YGDR0n/P4bL8NGTZfX67XKQqLOjJ1VRYdRhPo6DlTl6pOSoakRlMqcYv+uQfFrmS0+w4+daumKj9vpUqRm3In0tDwDz+hgvEIv1MV6/d/TH8bPm3rRyoYGXL9B7i5Jo4gK3qAouN324oAgvenCR+3CULL3B7bhoHy7VG+ScZcr0zJOyaMkq7cVZsAtAzl6mpBfVq3c/eemllyXzuDvsgiEXo+EkTC+OUqVVrsw7FRcMPKsnx066X3v3076WF9h9Xe5bP+wwhxBv1a17b724ma3jARNKsJoDoPZenVtfTu+zmVCO5ZyTNm07y9XXXCPbdybIt99XltJlvtCUFFJRGE6nH0fIMvNs6Vl/6d+UfXiMH+C6JPaLEusDDzyofce4TbvUUbh+4w7dtt6x8y8yZdpcBasTdkEA883SATp6f5269tSw6GkzF+gGAQMozkANa/+771ojB916/K4GGfM5gqAJdyYVBRDZvzYAOKPqrHGC3ftTFKxr12+X/n8MlU1b9/ldlOEUnbmfFUHsnLvo4ou1vDdn3jI/7OiVMYhOD+3e++6Xf/37Pnn66edUPQFW1h+h1kaOmazgWrJsvZYqd+5JUmWJQp23cKUucO3StZcQuMybH0KpGzZqIZV/+lnDrVFhhd4rorFmr73xls7EMZTO98DosXX7QTmafkbX81CuPJySo+oShZl8FJV5Qg0nicnZluFk3xHbmh73iCpzwcWkgmGlRMkyCsqIym55nDz9zPOyfBWbDnxlST/soiu16BBx78XFCrVoj/fyOqI/5n8XePmiGkxcIHchFVxwPy58wkm0IfBgAHorVRo1p6DzKzdrPg7YLVy8UmrUrOMrY7qYTlIy1XgB7AoUeCUEdsGQy+UIQRjYuZpNjOnE0Y/zquICsAuYT1B2Xbv3khq16mkPxqnozMcou8ZNW2rob8bxv/x9OdTUqjVb1AHHDBhlUTvQzG02BbCZgLVAlDq9gA5oZmad0xU3lK7YNTdyzCR1XaL4KG+uWrtFrfIjRk+UIxkndW7uy7LlpEt3Uv1zdNSAQGdA2L3Hb1rC27Bxp2Zm/lSlhqq5yj9WE0qg/Cx22LmBjvsoi/buM1D3x9EjevLJpyV+V6K/RAm46EstWb5By4YskF0ft9OfjgLogAMbFQYPGa2mDAO7YNDZZuZ8BhR6FvTG6MEZNWaAFukM7Nq066LqTGfIFq9WFyVfY4cdyozN3pOmzlOTD7AiieaHilV0NU2p0l/oTjiyJilpFyz4vuTP/7KWGFFp99//oJo7qlarrauMyNkkeovcz3oNm/nzJEmN2bEnSR2SKChA+HP1un5TCiYUp1uPcldMByU032Fg9/EnpT3BjgzLFau36gC5fwYtD1VdNFDlxeejg8wruC8E8ML/LZ1/d6eRyXycz3X42zEq4EnBnYeK8wy4CAknwXBD7Z0/4OylyoxjJ2XOvMVS7eeamqDiV3OOEqVRdm++9bZkZp3RJaZBkMtN2klYwEVxVjogF4CXe8RX8OctwDl7csCuS7dfPcOOnWz0yYx6IwEFiBGv9PbbBf39PAM5zklHsmRdXLym91MaI2yZTeFBwLOpOWNA4XtgSmGujOc+dVZ0pKDCdxVlwZLVQkZnsxZthfm1jVt3S0b2WZk6c75cfNHFGnnFGIIOiR/Eup+hIGN+CoXTpeuvqtY7dOyuO+F2oQIPWRsNwkGO+zFqULZ87Y031axzWkTDfQlWRskZaPG66TFS9sMBSLAyaoXPAx6ATB7lbCzqbPa29eas2zbQEeh8ngeD9ixz5fVg2liweI06GgGdwu5gmsKFHhuB05Qk2aJNj5A9ej/+VF2zRn+oVFXBx1A6/UIG21nYunHLXs3v3LJtv45IkLRCnBgHbk5cnSSLmAOVxmM4sxG+34Bh+ncEghhQQi54sYKOxwfBLk0hh3NyzYYdEXt2i5dtkBfzFxDGDZivU9gp6M6vhJkXAMvNc+QN9CzgOXtzsXysf4/cOjRdenjBsHOBnCfQ2QwnnhyVsfbiYihV5gpyrtvAg3fIAbvZdtg5IGd6cnbYZYTALnzJMhbjSdS0E6PobO5K72ousJHACTpUG6Bq37GbVK9RR2OsjJJznom4QtmhguywA0i47+YtXKGBwFNnzFO1ZGBHX48tBy/mf0mee/5FddANHTFO1ZEX2NGT+7HKz5rqwd8C+/37hYvKL736yvETVvrIRx+X1MFyXJilSn+u6oLSJUA1sGOGjrSSnr/21c0Ds+Ys0XELFAUGF5Qiqi4S6PgcfbOtOw7KQw8/olmLuHQbNm6hihcgobZQXtt2HNS1RRdffLFMmDRL3ZaA7vCRLFm4ZI1cfvnl+hxDh08QjdoKgl3ego7XBexatuqgsAP4y1bGaXyVwm4f84VpCgfm8FgWS2mV5BS+jjNpKhy6eihbFND0wXCR0n80jzGriQAc7kpd7rr/iGzffVi27UxQEGLa2bRlnyxcslZGj52mYdJsu3jjzXfU7cmbAifsYlJ0Crrzgx2VhNXrtltreNRdeX6gAzi5AVVefs35Qy/3/Tug6H/zEQS8UIXn/Nv7P3aMq1iwc4Fc1FIlSs6m5mKBnOfh77Tj4n10wKfmPC5KpWTpVq60qzn7fFzG8VMydfoc+anKz+pCNHBznsmEpKeFQcJSdnlbroy1L+cdcoFt4W6QMzADdu06dI0IO8qO9POaNG0lVavVdMCOvhzlxrNqSCAW61j2OX8pk5LnL7/2URBirujQubtuIU9JP2EpOxdFZ5QdZ74vm81xM5LUsmnbXin37Q+ya2+SLF0Zp6G/fw4brb26PQdS5L0PiuhcW/rxM37QmdKklcN5XEOTS5T4VMcSNmzaqeYQE8wcDXb0CdlAQOZhkWIfaXBy0+Zt5MUXC6hyA3aUXjt3/VXBwgUc5cb9QIfhfObT2Fz98MOPyJ/Dxjlgl/egM7Br3rK9DXYbLdj5FmMCO+baGCpnDANjFvOLmDsIoKanB6x5Lg6ANX/Rahk3YYZmbnbt3ltatekkjZq0lLr1GkvN2g21j8o2gKefeVZ7gZhfmPPjICD5H9dfryMDl192mdx4083y2mtvSvlvKyno7GXMmEHnUHVcaFFoLG19/4OisjZuZ1Rl98qrb8jqDTt8O+d8ZbzzMKbkJbRy+1x5Arv/kGHFDzhnZJwNePlQbtHVW+hMnGc3ZYyD37H14mIrV/pNJ65KLmA4sUNOy5UpmZJx7JRMmTbbFXb2MqUFu76aKJF5/LS6MFFtziN2d2UU48n5liwPp4V1VhrQcQZGTZu3VojRl7N/zj5GoLBr1lrNHwDSKmMGDCj06phZowQ2Z95SfV62kDOM/kOlKjr/dCznrMyev1QeevhRWbNuq278toPN7TZ9uQWLVumeNi7CODExyaDiqtesqxdSSpDHT4oaRrC4YzyhR2ggZ86oO5a8jhozWS66+CIZPXaKKpVogLN/HsNL/M5E7fmxOYD/ho4Yr45CZuEABAPRbDonkJglqVZ5k/mybFm+cpPOufX6/Q91OfYfONyaaTPBzVGGww1sYj2j0ChLUsa8/4EHZfW6eB0nACr0ATHU7Nh9WO66+x6p9OPP0rxFOylX/gfdEfjqa2+o6xJDDb9fHkNM3LXXXqdvYlg7xK4+cjVxbZL1yaA+iTEF3/tAS9zMPdap21g6duqp6m3ilDkyacpcmTZjoaxcs1Vatemsc4OUS63XZPXs8gJ0dti99/6HUWG3aOl6VZlr43bpqIE6Es8DdP8Lqs4OyPODng/8LiHaXkqa7urOPU6Mv30I9OywC6/ggpUbcPMMOJ+jMrgXl3euSvpzxkzi5eyHnMN0YqDmPLv14wDX+InTdE9d9olzFsR08NsW45WSoYPTvXr3lQ+LFhc32MUCuaimEwfgUHHelVygJxdJydlhZmBHeRLFZmBngcw+PpCmcEHB6N4yVxOKBc4iRYsr2BJJWEnKVNjR//mg8Ie6LWH5qo16oezb/08toboBznkf4wTffldR3n6nkBQuUkw6du4hAI6N2/UbNtXvsf9Qqrz+xltSrvz3OodnAOc889yUYXF1stNtx57DunInZHQgTEkThUbPjtdS/KNPFHYMPwO3AwkZqkSBIFDhgp9wyBqsBiaUUVmeisLh+wKF/gOHBWB3nn25cACkVEnvDLMIrwsjyRqs+4cy/eknfC0/V7sO3XSnHWMFRG8VePk1DbGmPFyxUlU1mzCywTzd8JETZez46boeiDk7XJlEmh1MOqbh1JRnU9JOSUrqKasEmiOSmvGX/o5wXSYmZWnfELXbqcuvcsMNNykQucABvLwCHRdhXJVkXbLgdv3G3RGV3cKl6+SttwvJOn0c28RzX8K0Q+a8bu9Kkni3I5fl0dwDz6hc6+wFcM7H5BXw8oXCLhRynkuUuVFxnvtx7I/LhenEVcUF9+OAnR9w5rajJwe4xo2fqhvIs06c0yWklqLLCNo+QAAysCtW/GM/7MICLozxJDelypggdzjgrnTCLNrHlB/JxaxStYb27Oxqzg49lBSwIzIsnOPySPoJWbJ8nV5QO3TqLowN0OurWLmqPPX0M1a58MARfQffsVMPLfc5wWb/mNIiB/23vQePqLuvbfsuciQ9x2dMuV6NKQxAY5i48cabZN2G7RqY7ISc/WP6c6g1eohAjy0EKDa7gnO97Us+IUaLyCygsXHLHk3Wx7iB4l22YqMuRL3uH/+Q8ZNmaj8TkBxJOy0z5yzR383v/QarUYMBaT/sLgDojPmEMz20xk1b6/d/9NHHJU6H0TP8sEPd8TpJO2F5LkYS+m+YaUziCSqbkqz94HP07hKSmXHLlH2J6Wq2Uccc0NoLaM/JyNFTVOnpgtNvvlXYYlDhwgf42nXorotWGzRsbr2bzw3s7H0hh/IAdouWWYotEuxIQJm/ZK2WO+O27Fco5hYMFwRubsCz3+cRfrn9mayvswHP8Xt2gi3cx37g8TfLTQ9vX4r4YGepNqPePCs44BYCuCjjArnpw3mcjfP34VwBF6FMGSWnkr4c/beRoybID5V+0j6Krtdxyau0YNdPPilZWjCoAMQQ2IUdBI+tVOkdcMZ9mXvIGQiyMYCoMGz4lCrtgLOXKunD4Xxs1qJNCOzsRpPM7HNSsXIVufGmm3TAnJ1pgI/kjvidB4UBauztzGzhlrTDzdy2IOfbQpCAaYSB6nQdK2CEgO9HigdGCtYLAa8Pi30s1WvW01U+PI8dbs7bgAzA4fxD6bD2hdgrDC2RIGeclvSwMKkwH/ZxiU81iopt44Rhv/rqGwrdxk1bKQRQdMCDLdqEBBcp+rEczbTgylZwhV3aKX8vLJw6i+V+O+T09r4jkn7snDRuYsGOYGxm9EyMF6DbtTdZzSSYa2bOXiKdu/XSAXAivvT1h+wVs7YaGBt40NlWfkK94bR8qcArwpZ2dvGRjsJW9bUbtmukGLBjLIJ+IdDjQsgS1ZiVnQ12zosssEOx0UP0AjugHLflwH8OdnZg5dXtCw4+H/RyAbwg2AUBL9Sw4lrO3AvsYilPusLN2+C3d6OJpeBUxXk0m4QvU4YquCAV51BvTrMJH5t+HLAbPnKcfFOeIekzmn/p7MPxMSUWDCqflv48FHYukLuwpUof5A6dP+T7sUNaAAAgAElEQVRUwWnP7qzUrtPQBXaBfhzOSgO75i3bBsHODjpuM1YAnOgLsY4m/dhJzUS8+pprdW6L8iW72FAJwNQAzpzVPWnfEm67zfMD5+8r/qizXFu379cyc6fOPRVaS1es1/6YE27mYyfImJdj8BngYRpJzzoXCjyfmjOgM2cyHSnbcZFm7IB/Jz9VraGgo1SG4ktMPq7GDmz331eqoitoVq/fpgPxlEOZSSMRBEdjLDCL9Ngg0PnMJ5QEgR2uUX5W5vvoK/IaAJ3Vs8ONmSRff/Ot9uo4U8YklmvughUhwAuCm62PYu+xHEjMlKUr4tSBC+h5A/Rp6S+kXftuCn7KqswLGtjR7yPmC1DFDLs9AfelE3R8vD8xQ+YtWq2l5Q2b9oQtY6LsyMEsVrykbI5P0Giw3KggT6our6Dm5XkigC83P19eKLwg4EVRd27Ay+e5ROmabJKXfbgLW6YMgpwHJWcgZ0qVRH8NGzFWe3GYVfj4WNZfkpqeo2cAeCybMWZmgP6Uzz4nE9Kn7Fwgl5tSZfAcnFFr4c6RRwiMUvNytpcqKWNW+7m2plxQcrSrOTM+YGDH5u927bvoWiAn5MzHwArTCwPmXFjbd+yuv0MGk8lGLPZRCalZu7721eywiwQ5PgdA046dlrkLl+vztm7X2b9p4fp/3qAmGMqrBmzOsxN0fLyfOb7M09qH5LU2a9FORyLoNRqohTsDHLIvKfWhXps1b6uGFHqGmGgYHMfBSEjyT1Vr6qgB7lHu1++dx7ALgpxvds4YPSzYnfXDjvItZhQ77Igy69PvTzUYEZ9Wp14TVWGEWGM0sdYfsXYndFuBH3w2RQf0mJf75dd+Uvmn6rJs5SZp066r4HJkHx7H5198o9sM0jPPalmYsi7RYFxIY4edZW13A51X2DFPR/5lAHYH9XXECoP/OdDZYZjn0LOVNHeHbn4P9/cw958P8LzBTiO7jIKLDrjYHZW5NJzkplwZBXTBkAtsAycirE/fgfL008/Ir736yvyFy2Xo8DGyYtUGGTVmokyYNEOwtHfq0kPdfxUqfK8JKoeTMzXGC7iZIzdqzjvo8hhyGtkVMJ9YsKsllX+qZvXswqzeQdkBO3pmqZmnggfCzb452xgBPZ+GjZopAKZOm6NQIPC49+8D1bpPzJdRc1p2tCk4N/AlJmfq98TKT/mQdBR28WES+fe998vOPYf9s3JeQGfgR+mSfMsGja01PDg8k1KytU9FCTIc7Lgf2KFMMGpccsnftAc4fNRENWeg/Hjz0L1nH4XzH4NHaKkUSPK8gIaAY3VjnqeyCwGdTdEZ5YYb06wayv/Sy6okeR18ntfC/CKGmvIVftBoL3qOqDG2MuCyZEM55Vs/2JzQc4AO2GFOqV6jnu7CI+4LdXnwEMtsdytA6XPiYGXxKT3Q+x9k08Dg2GHnU3XmAup23n8oU2bPW67/duI273VVdgq7g+kyb+Ea+aTUZ7Jt56GYYfc/DToDvQsIPLfffbT73IEXvZzpDjtXFXcBenEey5TGcRl+Lu78+nH2cqUfdo5xAdI36tVrpL2EFi3bSpt2neSLst9Ii1ZtdV3Mo489rmG3rLAp89mXUrHiT5J5/C8xsLuwgEPdBSDnRa1FeoxdyVnKzQ67c1KpclXts+HGtKs5+216cS1atZfO3X61em0GcJxtkDO3SSzBsFGyVBm56qqrZd6CFRr3RZIIoFMgqQEl0Jtzgxz38fozsv7SNx3XXHutLF66VrJO/KVlQxQZQ9t8L+fyVQO0aGeARx+tW4/f1E5Pesaipeu0vIhB41BylgIKONDTYmMBCSm79iXrLBk2fPpRffoPUWMHYxCr18fr0lMSSYaOHG/lYqImE9K1l8cgPgYXAo5zW8YMgZxuC2eUwByBbeF22DFKALgAtgW7dO2fAbu4zbsl47hoMsqvvw0Q9rXdcONNmriCASUEdi6QM6VMjCt9+w2RF154SZYuj1NHJn3hRUvWyeVXXKGAO5pxRtf4dO7aSzdX/PhTDQ149qzsopQvzYXWwO75F14SN9iZSLC9PtiV/PTzmGEXFXQGNv8r5zDQi1XJBpU0c9G/42+UG+AFYBd2XCC6kguN6ooUzhybo9JvOgkZG7AyK8OODYRxVTr7cn64mf1xLqYTenGn/xKpXLmqFCteQsts23cdkD37k2TH7gRZuTpOlq1YLzt3JVhlzP5/SsVKVRR2mFOigs6RdBKb8cQHufNwWBrwmb6cE3CBj1N1GJyfDVOJG+xMedLArkv3XgHYuUDOwI4zMWEAiDQKtlqTB0nZj8+FA5vzfowpqMQ+/QZr/iYKif/IxMx30UU6EI9pJRY1FwK/A0CI0YlzMnHyLHn++fxy7XXXCSHF/QYMkZWrt6gDERW3OX6/rFkfr31OSnxcyIHjrLlLtZy5Ys0W6dP/Tx1FeL/wh7Jo2To5+Zfo3jYguX33IVm2cqNMnjZP5+2GjZjgeXOBvVcXAjo/4EJBB9AUdg0t9frGm2/rsDjPx+eAOAYVBuMHDByuvwdUK/+xmfwf/7he1m/apQaWINhFAB3AY1B9a/xBXQZLr27AwBHqqMU1+9bb76rrkszKI+lnpEv331QBs9YnMSXbexnTd6E0UAt3PnDomMyYvUT7lRu37AtRdiYSDNjNXbBaPvvia1WY9Iq8Xvwjwu5/BXBur8MBPa8/b+jj8siwEqV/Z95M5Yt1Fo4SZWxwi23wO0jF5aZMGYPpxPTj1FnpUHJO8wkJEaSxY5bgdkpqlqQczVJHXVrGSUnLOCVHUrP9BhVisggxjgg7B+RiLlXmAeAAnRfIGdVGebLCtxWFzEsn7AzoOLMnrmXrDtKzVz/dW2eHWrjbAOhI2gnZvitRL6QMH48YM1GOneDij3kjsqpLTs1RsDJLR/4lQ+DZp85pjiduzCbNWvvTXAzsQkBmm5ezxhgyJDH5mBw6kqUrd+ihMfTNhmwOQgSYwxs0ZJTO0rG5m3UvbCdgNQ23mY9jRc0111yrCSq9+wyQ0p+VVTMH96E2UbOUXJn9Y/8cu9gefuQxHchmGPuyyy/X/ljXHr9p7xE7P+5IO9Cct0MAF6LkLHgBMOdhh50uZ0077X8Mb0gAcfGPSsqjjz6hmZeUIIcOHy/EnbEEN+noCc3QNBcar2fKlitWbZZvv/tR/nnDjXLbbbdrGPSOXYd1TxxwssPuxyo15VBKjjfYeVR1fA9gN33WYv3bucLOl31pwW6VEHTN13mF3f+3oAN+DtiZj0Nh5iU4OtDDC/fGI9z97uou/MB5vkB0V16XKS0oGnh5Ocfqqjw/00nkGC9gZx8ZAHCVfqwqRT4spmteTP/NeQYAv/buKz9Xr6VuTFfY5RpyeVeu9APO0ZOzqzgDOPsZ2GGqsMPODjlz28COgeKj6SddS5du0ANCKWkndAj88y+/lr9feqnUq99Ee0Q4K5NTs3X9Dt+Hn4HeHCDEOEKUFxcdzAy/9Rkg8Tv2aRyVZXzpppCgLEoySdLRbAGOKekndayAvEbGCdgUzvfJyD6na3goPcZt2S3LVm2U6bMWycTJczTyitgrAEdIdO16jTX4mNzMO+64S+HF9zQHySjsYANiAIycTGzz5EriQn32uecVcsRndf/ld40OIz6Mg1Jpr9/+kLHjp6nKuf7669UJSykWdQWU+Hmc4HMD3Z79rBJigwQb4jM1WBlFhguUEiWlSm5TeuXfMRsM+BkKFvpAS6d2IDJesGL1Zk2kue/+B9VIQhoOv/9tOxMDqi6KmguFYLKOF1C+xaSyPm6Xrusxq3OAiR12VarV9gY7j4rOXFgPHj4mU2Ys1DcrG7da83Pmc0bVMTwO7ObMXylfffOd7PSNP3i56BtAhJzdlNT/6n0O6Hn5uUMfk3vY8feIBXj51EzC7JvLEbuC8+2M+0/14qKYTUJ7ccED4E715gScK+yKFJOTp8VvNgF29jIlA+eMHlSvUTsUducLuTwYIYhVydlBx216KDhN2XpNtJeBW9A5wbL8t2rTUcuJRzzCzszLobbY/5Z67LT88mtfVTeAoXmrdrJ4+TrZvT/Zv55ny/Z9wr45ymf33nuf3HzLrdL7twHSt/8g+de//q0QQeHt3pskS5atk7kLlsvsectkzvzlMn7iDKHP1KxlO6lSrZaOi7BAlLQTDma9HnjoYc1lRCky53bffQ8opEg1ue32OzTdhK0ADF6ztQA3KaMNjCgAKxaKMoPWs/cAXQYKTAg7pu9nHYAnw7eGxwpJJlQ5+Ditw9oArXWbTloyveqqq+Spp55R5yL78RgDoKzKgljdGH7U2uVGKgkpJJg9uJ/QZPbAsX1gweLVMnf+Ch0VYGB73QbrPswlDH/jGAV2qFSe2w47QEuCStyWPdKle29p3Ky1bhLXhbMJ6dbsW8ygC8Q90UcEyEAPIAI5cyjsulllzNp1G2uAtAGNeUzQOQZFZ4AG7CZPX6CZpnbYmV6dlZJiZWgCu2/K/yC79rORPHoZMwRwBhr/q1CL9rrM6/edQ4EWTeEFgMfv1/wNvJ69Ai8Edv8JwJ23gosJcj7AhenFGeDZwRZ02+eixKBCr6pwkaIKOzvg7LcN7OrWb6SjB/Tf7Md/q1Tph1xiwGwSUHHmvuBZOSfo+Bg7Pw5EK8nDF87sYj5BHQG7AQOHqT0fk4kelAR9B7NzGC+YX+Px9PlIXsGVyMF9mDc2bN4p35T7Tq686iqhTIhh4pNSZbSkTNkPcxAw4sJMufCiiy4SdrDddvvtgpPwiSef1nIYEV133nmX7rNjZxy9IJyDHCwhpfxWrXptNbL8WKWGArBm7QbqSmRhK7NwuDh37D6kVnzs+EBm975k7WNhTiEtBTBwkELCQfQWxooDhzJ0fIH0FcYVEpKISPMdh4+pWxNXJuVRYIdqU6XJc2T+pWMJqLjpsxZKt+6/6Vwbr52fG3XFrBvQ79m7v/T6faB0+6WPbjevWq2WOhxLffq5lkoJpWaBLVu4CVO+51//VmMJ4co8FyXT++67X8O0+ZhyLD8rIKV8yUohlCNJFoBbgZr5lxw+mqNml1C1FoBYLJ8LAlYY2NVv2Dwy7Gzv/r1ePHkcW83Z0Xf33fdInK9n5wQdF3UCo2fPWyEVvqssew6k6YU60sX+/xzoDAjzEngXaCQhALuYdsVZfbhYBr9NGTO8ozJ0ADxahJfTbOKq5KL04oLA5ihd2kuUuYLd8TO5BF26kFdpDmMgye3ZX7IMCzp3yPH9AnDmAp2h5ULKbZT2+Niv6BzmEwO7wUNGKdCABGtsGOzeEs+xT+bMXyZDho+VX3r1k4aNmitsvv/hR7WzY2nHmYnjj9Lf0/S9HnxIP6aHxUWYA7PHK6++rkkkuD8HDBoudes30edjrxrPV/nHn3UmDqMIr5ttChw4CTdu3Sub4/fJjj2HJD3rrMLW7FAza2oAF7ChvGcdFphI+LeOY76S4HE1pjArl5r5l6QdD+xmY1CcFBYUK8qV30f8zgQtz/L72Bp/QJav2iQTp8zWDd4MSxOFVaduI6lRq76+/lZtOyuU2IDwyKOPK6Bvu+02zRalfMgqI9yclE0B2HPP59c3B6wHosRIP40DsPO7u+OOO4V0FC7oH31cSn9PhDp/98OPukuQvjN7B6+97h+q7qpVryMTJs3WmK9DjFsczZG9B1MVfpyt/Xupsmc/IwrG+BK6VNUOPPM4Sqx8nf85DvC8aYIrMiE5Sw4fOSHJqae0hHlORH7vN0R/hkZNWuvnwiq7GMuXBojAbsz4GWo8Ic2G57eXL03+pYHd9xWraEmTr48JdgYW/xfONuBF+h2E/1xA4Zm/g9ezF3WXz3uyiTGmxO6mBHSxQO68e3GouNwquTB5lSfPiPapKHOxJ82u5uy3s3KsMmaTpi3VjRmARbjhb+f9eQc5nImsqeEgYBh7vzlQWbgfMYQwB4eZ5lg2F/tzWqrkNvenpGbLYV2emqYGkaSjWTpsvGLNJu2XKewcoKMXR4gx/acq1WrKs88+r3FPXIhRVljvCVUGWldeeZVgRHnt9Tel5KefaWo+4dAYgYoW/1hKflpGyn5dXoaPHC9rN8RrKXLF6k3qrly9dqsQu7V8ZZwClO+JUmRlDrfpL+LmBF704xKSrbBpS1WhrAJHUNalbzUNYDPqiq+3lE22go2SopmpM3NwwBRYDR46RuflCElu3a6LsICWVTZkfn72xVeCu/Gxx5/UPh4GDBTmP/95g1xyySV+iBuYmzOgv+uue+Tqa67RNwNffl1eMzVJVWHou037rqpAgd5PVWpKofeKKMAIY0YFs0qJNxDFipXQv0H+/AV0px6D25QtATp96dNnRUc+AAr/YcAByjPnLtV+XJGiH0mJkmWkZZtOGupMQDWgM9ACZIAr4TC9P94UZImC8UiOBjyT+UkCCkqXs7WU9bj26fg6LlqsDuKCuHVHgixatkEBO3DwaFWqzVt1kCbN2yr0gXjXHr9rz85VBeaifGkurgcPH5ehIybKwCFj1CC1+0Cq7NiTYjusctuBQ5kyb+FqqVj5Z9mXkBGbsvu/ADjnz2ADHio2PNjcPheAHW8mzN/C69kdeIHydz5vZcvYAXfepcoorsrgkQHf8HceA87ej4sIO1up0g+7Zq00GSQ67CKPDoT7eha4Jh05LoQpkwRCCgkD3xhDKAdysU/L5IJySoFG+YsSFODi61ins27DNpk7f6mMm8BCzD80k7JN207CwWYDXJeMWlA2JAaKVTt33XW39q5QaQDTzWRiYNetR2+pXbehlPjkU7WoMzs3Y/Yi/zF73lKZv2ilLFq6RlUiPUBgSynTHPwsHCmpOaqKWMXjdvBajMPSnCM5LcN+zhf3RR8NA0aXbr0U2iys/blGXb3gA44CBV7VPt39DzykMV6A6IorrtQS6sUXX6ImGQMqzldccYX2+/7+t7+FBRo5jEWLlVDQf1j0I90aUL9BUx20BmLPPfeChmsDIUrJfL9GTVoJDs2hIybIxMlzpezXFaR0mbIaXwVgKZ3SX0XFfV3ue00hufaaa3WLOE5KysL0MON3JMicectl3MQZ8nvfwWqGad22s5iDHNEyn5XVvuill14mf/ubBWYWuzK0/8yzL8gzzzyvblPcp1+ULadGprbtu8nU6fNl+MhJWlqlh4mpp2Wrjho0zRJWVCVOVPIvWQnEayUPlZ6otcPuSk2U4Y0RBp0HH3pUjT3ErC1YvFadk+6wi/2CaS6sCUlZMnLMFPm63HcyY84SWRO3U/YmsKcvQ8cQiAnbl5ihPboJk+cIRhn6fHy92wXetXzpBMX/lY9twHP7XUS+LwA887eI9eyHnmMkIQzsbNFdMYQw+xWc68hAaJkyRMF56MVdyFKlvWxpV2vctmD3o66eCVJ2NtDRmyNoGINKqzYddLA5HKyANeMLR9NyJJXRhczTkn7stLBEFJXFmcFn7uNzpH+Yg/u44FMSXLJsrUyaOlsG/TlSzSBAi6Nzl1+kRs168mXZcrrm5vkX8mvp64EHHtRSFxeVG264Qa688krh4oX6eqnAywo1lmeSh8hFjLimgoXeF1yVGDomTZ0jX31VXlav3aK9t0iwa922k0yaMlvOnBPBpIL7MfSwnJGUWl1HCw7iIIztCAsy21hByGMcmZb0E1u07qgjAXZocZvcTvt91113ncKPCzb9sCeffEa++qaCsKqIniEQw5bP5oBevQfIV19V0KBw/jYkxLAFHeCgHE+fE7/C4t8c/9b4jx14L7xYQEGIYYQsRgaeS5X+Ql2exYuX1LzOuvWb6ve76+679U0KkWavvPK69vfKVfhBCn9YTB2jGG3Mz3DrbbersYfw7Uv+dokQw8XfnaxL/h0AL25TLmZWEFhNnbFQxk+cpYPwf/vb3/3P9VKBV4XZN94cPfjQI3L7HXcpqIA9BzN4OFb5PT39zPOqSlkLhCHok5KfSdVqtXVX3fDRk2XK9AX6fWbNXSbzF6/RZapb4g9K0tGT+qaA8OX9CRmavLJ7f6rfwLLzPBSdubBSOqWM+dLLr2qpnNJxpco/S7nyFaV9xx7y9jvvaXnZ/J4oY6JgPcPu/wrYwv0ceQS8vFR4NtjFrt5y04fLM8DluYqLvHEgCHanJGwvDtj17NVX2nfsKmdFVG1pOU3Lg5QIz6mtm2SVrdv2yuq1m2XW3CUybuI0GTV2spbrRoyaIP0HDNHda9+U/07zOAsUeEV7M0899bQ8+eTT8tBDD6vpAlhhz8ekQf8FxyAXKw5mtZ586hntcwG/PwYNk779B+tBfufAwSNk2IhxMnbCNO29oQ6x8PuPY6fVEakfZ5yS1IxTCv0GDZtp+RCjSSTYtWnXWUaPm6pRXa4gizQ3ZwMcRhpKinw/Sq/JRzFxUBazZt4YJ0DB0hMDqkCDuTjcnSFQcwLPATlTmmSOjf5V/vwva+LKqDFTZcy4aWoAITmHwXdm4+iNVaxcTZ2KQIk+1k/VKCMWlvadesgvPfsKkWBACOfnwiWrpErVmjp6wH49LqLMlTGrR++ONT+oKw52v/3ed5C0aN1BUEAAhH4ckLL3Lfn48suv0LguRhzoy/HmhvtwsaLISDVBGQI5tgig3iZMni1jJ8zQHuGAQSN04/iI0ZNky/YDPoOQVQJmzpHDGIcYSyDImhLnqbMia9bvUMABLb7fkGHj5fMvvpafq9fVbfQPPfSo1G/YQtf0MEpAyZN+KBmhOadFsk9Zz52ZI5J+XCQ5jcW+CxQ2Y8ZPl9HjpsvIMVNl+KjJqrZQh5iQcMRWr1VfJk2br0aRlPTT2t+j96fl0Fw4+wzsEpOzZPDQsdK8dUfdQD546DgZNGSsdO/ZTwYMGqXbFvg8irpr99+lWo26kpic7U3VhQPE/8X7fdCLrOYilzTN3ySWs5u6y5cSo3LLjXoLAVyUEmWoegtkVBr3pNvZq9kkkoJzKjqe82j6CX13Xe3nmvL+B0XkxCmxGTeCe26U4fr0G6Q737p0+1V+rlFHrfrvvV9YezWvvPKacAAnele8m6Y0SA8H4wDhxxgGuI8LKXmIX5b9Rn75tY8uIe3YubuWGzt26aEzWKi4YSPHK3S4+AMC+0HPjVxIVCIwCz6YLTujcDNmE7+ZxQyb+0wtBmrMzLH1YNnKuMjKLuuctO/UXUaNmxwb7GyQ05m71BwFHIPmGzbukCXL18vsuUtk5uzFeuBMZN6tQ6ceWjKt26CJsNV7+epNGqKMvT8s8MKAjh4ckVyoJobRKQdzcc7IElVWXNAxbmDYoMzFVu1iH30iBRVw3dX8smxFnI4cYDBB3X1QpJiOQdSt11C3BJAQg3IGVLhEAdIXX36j4w78uzCqy3kGZMwR0uMDePTreD3Ox9H/M0BAUfHviv7d7Xfcoa8XePIz9O4zUBfD8gaBPhoRX4wTLF6+XubMXyEz5yzVNyzDRk7Uiz+LZ2vUrK/GDRJj3n67kBQsVFjVJLDj90V5sVXrTgp8Bs9ff+Md+err72TugpU6pzh81CTtIRIgDexxe9JjpIRb/ttK8lPVWqoKKQ1zUCpFMRYuXExq1G6ovbvf+g6WWnUa6f8jV1x5pSpFArSnTl+gA+aW+/WYkLgSy0XSPBbY0a9r17GHpGWJJCRny8HDWUIvD1MKYOM2YxBsKq9Zp6Er7ELKl/8VoB2W+F1uR5gFr3n5Gm0K73x6eObvEsvZCbx8Rp15OUfuw3koU3qAXCjoMsQNbPb7cgO5Q2z5jnLwvKSkLFm2Rn7p+ZteMD4uUVIVG7vI6H3RO6NUeYjA55Rj+m516PCxCihKSbfcequUKlVGWrZqLygi0j3owzRu0kJat+2o8VVz5i21TCCJqWJ3XPK8PD9lTt5NM+PGYfpZar7IOqcgo2dlzCjWOS3oudzGCPxOSvvogLntYjoBeMCuVu0GUWHH7rn6jZqpagS2UZWdA3KADvMMxhTGC1A1vBl4591C8vEnpfTNAv0mApWdF/pLL71UlS2uzMNHsjyv4TGqzg+7Ml/KY48/oQPbDF8DXAw29Oz4nvSQ6NkBPL7Xm2+9q6YTFBufpzxISZPxAL6ONzQoPvpgrAj6c+gYncvjYy74gAz3KeVJBtDZ9l34w+Lax+KCj2oHbuRPUipkM8TCJevUPcmyW2DJ7+m66/6hoLOXF83viJ4Xah9VirmF+9kCQT8W0wujGzfffIuQKQokGfcAqjfddIuWOpljvO22O3QwHtX7/vsfStmvKggjAD/+VF3By887Zdr/Y+8swKyqtzbOvffzWte4KmJ3F4qCDdgtEooKFwRJJZQQRECRMihFQpTu7u7u7o5hhmlg6Fzf81tn/mf2OXO6ZxieZz/71JzY5/D/7Xetd601R0OTqF5mzpHPQ1G2atNeN6YkUCPH1qTpj9K+UzedYDBt5mLtRYkSsObh1JkZf0jNKMnpKPgzciCV0pfDqvy+qtdYGPlz+X/+o+5dJidMnDpPlVbqIWYPZuiMQF8XS8KYfQeOlDY/dZIDqafcTh8HfNTZxRbsDsjmHb5tjhAME/wswIumwvMIOzvcwpyDixTgvMHNfn9mHi7t4AmdbFCufEVdaIoVe1nqftVAe2Ju2U5vzCQ5fBRjyFnt4oH5Y3/iQWn+Qyv5vXN3BeWuPYm6aBPyIfRj3QAYG8oRqCkwgaZlo0MI0FPF5bZ0gDo51+UDzrd7BJybJs1G1RFOxOhCLdriZeuyKTsDNFTipm179Yx86ox5mqcz92Xbu4AcoON15sxfpq5N8kSE33DCErqiuTRdRTp1/lOLt1u2/lUdophhWORQK9QB5r8uv7YIA3ga0nSj5AzkzN7ADlVCYTnFzTbYJShEq1T7UuHw7vsfqMHjskvJe/5b4VH24/IapgQaqDdARo2aaeVFv0zbICib65GQAWE8XJlAqnuPvtrsuen3rfRzrFq3QxYv2yBzFqyQocPH64BU5rp98eXXCrzqNepImQ8/UcUJhDvdcjEAACAASURBVAll57/eVi8HyP75j39qzgx4XXnllZp3I6RJVxQK6d948135+NMKGopl4kK9Bk3k26YtBCcpoc5hIybIrLnLZN2G3bJh8z7dmG3HWTNlAhwbHJV8hvWb9ygg+RwjR0+xGVruvkcaNETN1hDmwjGFHFgBoNTDti3l0FnNw9H2i+4uWP1RZGbDCcltbNaGz1zmNv4Ol+fOPakyetw0+aJWPY2I4Fyl/pBjRY4ReKaoej2ic+c8gQ/Y9eo3zAI7V6G2RKGzy/iJs+Wr+o2zKbvIqjrf4OYNgmGFX0AhzSzDSrD5O7ews4POZQPm7FMGQhaq9JKLM4rOpZqzjNGxhiqtrko70JxVnZPRBLMJob/vW7TRZP0zzzwnJUt9qGfmhJkeK/i4LizVatSSbn/2UuPK66+/Ka+99oa88cbbMmnKbMk4ek4VG4u/VbH5c9keVgwB6ACfR9i5UXPeYGc6nxiQYenfsGW3FnZ7hJ0b0PF6GHCYrvCvf/5LyxFeeeV16d13sHxQsoyCjfFBjKBp2KipVKpSXd7DNVq0uJpwUFF33XWPfl9Y/ampM137DdCc96Z8gAbPFHpzUvL2O+9Li5Y/27qXJGArT9QQM4YUSie4v+wn5XWsTfHir2phO4aFChWraL4NgxAF2oT16FpCG60Ro3G+9pHWbdorBAi9UbdIWPKKK65QNYRiQgViIqI/JL83VCKPwZ3InoL5e+65V6eev/r6WwosDC9Vqn2h4VWOz+9/9JABA0fqJPGVq7dq15SVa7ZpcTzvZcOWfTpD70DKcS18p58l9YGEAIEH15kxR7/KPXEHtdUY7cbYAB25McoFyMFRajB3wUqt5+M9r1y9TYaNnCgffVROB9ZiqFm6crPdwWhVbUFfzqylA3zUxzECiEV7/KTZGrJFfdODFMMMzQK4ncdStwfUgKYz+AhbEsJs2aa9JKqycw07wM33jVuWy1bl4gC7UIYGXTyXW4htPyCb3W1u1F8W8MKg9CIMPHsoc1eSOMDODjg/lFwgkIuUkvMJckDPBehQU9SZ1avfSB1oqIsnnnjSHp5i8X300YLyedUaakhp8E0T+fLLujJ77hLZvTdJdu5JVEXmD9isj/UOOd+UnFF2HiHnRdFZYYfCodiYWjdjUDGQM3sDO8KOFI7Tz9Lcp3s3kDOuSxQkRdely5TVUB1WdI4vdWK33na7dvbAzfdisZfkjbfe0VAf5Q0s9sDjp187Sb9BI7SdFgXpa9bv0FyUK8DR2NnaXxLYbdi8V1tp4UKkIwk1Z3QHscHuDg2VmbAgewq8v2vWUl2GqE+UDSFKDEoTJs9Wpybuva/rNdLHUleIysKVSLgSZUZtHqBCTZrPQePq7j36yeSp82T23OUye94Kmb9wtRafr1y7TTZu2afGGEpKsuoBKTk5q5MR6MRC2y8K34E9Gx1P2BgUqwXh1MjtTckaxRNgiy8DO47HJ59W0NZkjb/9QWbOXqrg5+Rj1bqdgmU/aLhZuqnoc7koHEcVErrE8ALYJ02dr/lAfg+UbAC+WnUbCGUD9LekaN1MT6B4HNhRg+gNdoRTy3z4qTb2tsIuMqBzo+bcwc3T7S7AlwU98n0hAl/AIU2LwvPTeGSAl88z4HxQcAGVC/hWF4eKc6ng3BR+29Sc91ycXd1ZIAfcnDes/jVq1hJyHx1/76omFZQKrcCeKPSk5jYKF3lavv+hlZYAUJSLa5O8mhZiO+XgrDBzdzlU4UqvKs5HwBnQsQdC5AZRXEuWr5P9SYcdIZbprjSwo4jcAXZeIGdgR86R3OB99z8gU2fMV7XT5qcOqrKZPEEBOEXeOAEBEWFBHPonz2U5/HD6ASsaLgMvjBcGdoQUzcw5SinoZ1miZBnNV2EKQrWR08r3D1urLMwQhOgIh5K/Ii+GOeWmm27RhdOAjxxe1epfaGiz34ARqo4oJWjUuLmeJDHYFJfhnHnLBQPL+k27FTg4OI2qorWYqquDp9VST4gQs4Tp1qLtxQ6Qnz2kuUQUKZ/L2reSyyZsavbc5jBux3Id2HF8UGzW7ib+XOb9zZm3Qj9nteq1NRdHTpWc3cgxUxUGFGBbw5BBQ88F5JwVGgXqBnxph8+r8uI7oL3Xo48+rmFXcqF1vvpGRo2dpnV0CSkn5OBRkW8afy8tWv0qiWknHRSbVb3hAP3k04ryv4pVJCmd3J5NAdphFypIOD1PNiXnCWT+3mcBX+wAzwK7AAvO8yVlC1P6ALiAjCYhcFS6hZyPgLPAzag5Z8BZrxPGxE2Jq634S6/IkOFjJC4hTaFHfdzEybOkSpUaWmgLEOlm/3W9bzSEiXmFkgNq5MjBeYSbk/MRqDhuIVRxXkKVVrg5XzZqE/chHVQ8wW795l3af5GZdJQLGJB535MHOqiQIzQ5aepcDSNTID1z7lL58KNPdAIADsy/ew3UZsv1v2miYbyXX3lNnY+FChXWEDN5MBa0pSs2as7NwI4yhgWL1+iCjGokXEhu7rPK1eTvXoNkyPDxMmX6fKGOC/gBs+vy51e35X333S80YabQHpX5QakPNZeIUqM/J0oTg8eAQSPV0UlnkrpfNdTneOrJwrJvf7qWSTA1gMUfhWV6TTpMKrC027J1J8k+hscZcDRnRq2R7zSjiKgX3M9Ugzjq0JKyAY/X3LwtXhYvXS/r6e6/x3V7L27fF0/Tc1tHFGrKCHEeSD6uvSlxqy5dvkk/J0oHwwsuyT4Dhmu9YrPvWyu0AWjQkOM5MkHHPhvg3NwGiKjHo2Cc8gbybSi7Ol81VDcnJyu879pfNRSMMrVqN9D37hV25Srq1AMDOzvoUDFOkAr+ugs15y/MfH28S+iF6DMFG8508x17+i1YYJcdcsH3pgRwIYCch1ycL65KAzbr3go1d5cp3v6y1lfC9HFgx9k+uRJyd0OHj1VVA/kId06YNFMfh5ECFxulBbTKmjJtroKOydmph2ikmyH7Emyuy1CquHAoOSvsCD/yfgmHUiztC+ywoc+et8wv2FEzN2T4WM1LVfysqsxftEqVXcHHn1TXIWoK5UVJBq5CVFbhwk/LCy8WV5MG3Tg+LldBGn3bTMPPhZ9+VttdoTyAHWFKlFSJD0qr83HAoFGqEs+gDs+LsEdZ0XmE0gBCovMXL1Ul99RTRTRMapQce1p/lS7zsd5Po2XyN0Bv8NCx2tAZ2H1Rq65+nldffUO2bo9XReYANubMmS0b5NzPnHOGHZ+NkC3v+bnnXpSiRV/SnqG4RCklQCGi4PYnHslsQH1E1eeGTXt1sSefhcOXfJ3ZaOnF1ATAtmrtdi1HmDBptoybOFPGTpghI0ZNFmoQGSpbv0ETLRonP8ckiJKlykqz79uoe3TU2KkK95CAzgI7T4ubt/tQmYQuCWHS/WTk2Knydf1v5d77HpBrrrlOwYdLlNyeUWzOe0KX5OuqVP3C/rjwwc4JdL5CK5jHuQReiMKawQLPT4WXj5yb2bLBLVohSrcK7pD4BDdjPnFScu6g5vr2dMk4dlY+/qS8tG3bTh2XS5atk59/6agLHJ0gWHTffa+E9BswVHbHJWuOBmPDlGlzND+DtZv+fYQ8W//UTkN6u/Ylq3MNWz05L0cF57urMpS5OCvUrJcd8mz7U4Vem7vjUoRC91XrtsqBVFyOTgNV41K15+SGzbvl0ccKyrwFK7RNmXdFx/OkqXPz2+9+EKZ2U7uGueS1N96Sdh3/0HBjkaefkybNWuhIGR5XvUZtdf2R62r7cwd1K9LIuHyFSjrtAMVF6BNDhelnyWia4aMmKTAfebRgZn1XDTW5UA9HwTgnKyh6HIoGgMy2AyA8/4tFi2nRtgEfyp6yAIwhmEgoCMd5Cex4j7S+ovUaUxJQc3a4uYWco5IzoLbl3kxD6qw9eTu6rYweO1VzhpwoEEakjpP3SOsrjCc0m563cJXMX2SroyP02On3P9V4Q4eWZs1baUNoXKW0LMPhCSwBv5mwwPNxbC6/7HIN4wJ3av2YmsBjKEMoUOBGdXq+/0EZmTRtvvuWXv4qvQAUnTfocT8Qjk8+rhu5volT5slLr7wurdt2sEPMGXRcB3a0RqNuMTHtlONg0xCqurCGLX2BYbigFxDwCBXbwpq+fLfmMQq7bJDzMUzp0mjig5vSbR4uFJBzAhxqzjXM3N2e1avy8JEzOtanRcu2Wj+Xkn5c83GUCqxcs1na/tReGxhfedVVOmOMwa7de/TWMgDySNixp0yfqx34ce5RDMyiwSiZaTPma2gPOKJmaNBsAObLPhSGEyvYnC9ng1gm7IA1JwDjJs2QXXEpcvDoWTl07JwWp5PTogkzxojV67Yp5OcvXOkT7Cj8Bnbk44aOGK8dOAiDocAwgNBE+a9eA7UAm2JvlB2LLDVtuBML3HCj5tAwfWhvxZtstWB33X2vnnDQxYRQnslxEd5j4gElDBQy434EVv/6v//Txsw8N4t65y5/Z048yJCVa7bq90x5AN/f5KlzFcAUR3NSw+MJe1KK0LP3IFVJKH/ye9yHoYZ5dmwoR/uWGR5MTqNLzVl1RjLax4z3AZgoU/pXotyWr9qsfTsXLV2nnWwWLl4jw0ZOkB5/DxBKFgjH4RK+6KJ/a1eVf1/0by36BlpMP+C9XHTRRepQxJ5vjh2/T6B86213aH0htX/UxqFWv67XWMO+GHHadeiirzVs+AR1Ni5cuk4LrKdMX6jPjfV/6MiJwnXyZaimoBWdBXL+hC7NQudtbx3fQ8PnQ0dFypWvJM1+aOMVduUrVNbm26m4QDMX7+DDldZwoUXR+QKmcDzGLeyCVHlBws6fcoR8dtD5ALjszZd9C1F6NJoAOLeQC08uLjv8MgHnNFaHnF2Tpj8Iba8Al/XvcBjSuJgOJavWbpG2P7fPDHVernVO75coKd169Jbd+5I1PEaR9dz5y1Wh4ARjkSExXqv21wpE8nq8Bi25TH7PGXpeAReA6cQKOVeAs95G0TyKDii8+da76pAkp8konZatf5HxE2foFG3yaT17D9RGyfM8wM5dZxOguXl7nM7Dox6MRZgFGjWN6YTQ5L8vvli7azCXjUJslB2LOdAynTdomcbijVGGIm6ciQZ25MkI6aXSLPvwGdm5N1lnzQFAwMiEcMwtqB5Ce8Bm6fIN2k8UsNEtZP7CVRrGI+/DINTm37fWyda0b+P9ooz+6tVblR1tvlAKvA4uyrUbd2vd2Zp1O2Xt+l2aI8T5+f0PbbSnKcaOqtW+1GbKNHKmfAGQciyoneP5UVcoN+rqODbcxnQEPjchXsKrpT/8RAvWaR9GmJJm1jhWGR9Euyv6W9IdhRAkRdm4J8nPARQMK3xuIJx+GJenbSPEmZR6UntBkv+iNo6OIvMXr9EThe9b/KR5be7D4p+TQGcUA5/ng1If6YQFHJeuVB23cR9NBVD7NIY+kHpSqAvE7h888HiOGACdFZ6W95NlXrGCOYDLQQLP24mMuT8f6syXzRF0vg1E9Qo5D7k4u2PShCTd7Z2UnBVI3i9nqTgzO469gQ0NmelyQiE5CgywJaUe0x6B9GbEfMIoHB7HP2C1dcd+na7NIo1zj7NmxtV06fq3FqETagKis+ct0fAaphZygU8VLqJ5plFjJtsaPtMUOuOMTgMwuTKvsAvCfMIUBCvYXF1mvM+cBcu1Oz3TsWnVxbFp1LipvPXOe1omwBTzCZNnybAR49X6T1sxauZchTHdwY7bUT10iklMPSbrNu9W8NGTkr6SmEJowUWehK4hH31cThf2j8qW067/lSpXl46/ddMc07IVG2XD5j3qTiSnBeQICbK3bSnaTmwvTtOkDHVc8jggTWE4cEAFAjymexOipIAck8qn5SvK1f+9RvNd3MeUBLqIcBKDY5fepADoqquvludfLCY333qr1h5SeoDCoq+pCYdT9M1jrRujf8hJ0karZOmywuf7RM0QVRSgqI7+g0fJ0pWbZOKUOQo1Oq6MHm+bOUc5QLcefeX990vL66+/rRMC+B0DLXJxB5JpeZWhtXLduvfWZs/06cSpaqujsxVyO5tWXMGLhX7Zyi0a9uTEgxOALTsStOA7KAemRdGZRSvUe6uqs8EuUeHNsaRhAaFK6vEAIHlPitjJ47HxG8XJyfeIuaVRkx9k1bpdWrQeHOwskAMwVuBE+3KYgOfuhMLz7Uk6Z9CX34Rb2DnCLVPBEaL0Eqb0GKJ0q+DIxeH08lHJ8TgL5LxDzVXI0vvcOIBGK696DRoJ8+kqVKysNXW//d5NZs1dLLQF69d/qCxcvFrog6mNnIeN1hZZTOgGeCzGnJVTe0VojOuDho6SbTv3KyCZbgD4atepp8XJLISlypTVsB3PB+DSmHyQCb5swAsCcK6A5uk2G+yWqctyy7Y4nZwNkDkBwEHJ3DOOGWFZJjJQiE+e0wo7T4BzdZ+BEJO7zTBVYLRle7yGlM1t1j3TwmkMTU0grkfcl8b1mAU5YJdi3wihbtiyV8ZPnKknIbTAYswM6omCbnIyABRFiVHl/RKlNUT4j3/+Q7/b1998R7t1PPlkEQ0ZEsYmL0ehNeYZ6rvIX9F9BRh8VqmaNPymqXYpmcrUg5mLZObsJdqtBJVIbo0pCagrraFjannmRtkFJprk9FOqruhKQk4Og8yDDz+qExSYHk7HE0bpfF6lpvz0cydZtxHop2YrL6A4nKJxavjo9uKu5MAV5MxtGD3oUgKsUZWYNgD0L+07qwMyIOCFGHTmvVr328gZ7kmRXXGYrw5rOBaocUxpPK1q+OtG2s5syIgJMnDoWOndb5h06NRdZ+lROP8CedwatdWty+ev/HlN2ZdwRPNKgQIv6jk6T0C1wI73GRKFZ8K/gc7A88Gd6QC7QAHnVcGFAnIWuAUOOsdwpVFw7vaEEam1W7R0jYbpqlStqXkoftBlPy4nFStV0ZAe6gYzAMXApUp/qKGkEiVL6xw03IS0BNMc38/t1bhC9xXyTPRJpKv9tp3xCj4cm0C0Tt362lCX0Be2eGq3ho+aIHvjU3X0D1MIPM2Ss4YmXV/2ruJcQQ+VNWvuEp0ltn7jLjWioNh4DYw2AI/LwGXN+u06WmbZCpRChvtmzM5TCFxdd2rzhdGENlWmlMCXvTvIGeCRZ+zdd4i27aLFVLGXXlFlh7sTswYnLOTCUOtMBKcNWMGCT+h0gZ9+6aiKk2JlfhuM9ElMO6Hq9JTYzvy5HWVGoTl5OZQVzZcJrQJk60ZOj8GnWP0Juzq7Lp3r5bDQr163Q6pWr6XTDf7qOVBBuC/+sDAehxzboCFjtUyAkCO3OwPNVlpw2G3pgRUQri7zvCvWbNOcKiUZHK//u+ginXs3aeo8VUWu/s7tbX6ADpCSGwRWOE2BFeorIcVWFsGeUgluR6ERXuVxdFuJI9S6L01WrN4uM+csU0VKeLf7X/0VaBT6o8j5/uhdyt660YuT6RKflP9MT2KYDl+s+KuyNz4jCNjFsKqzQjATelmwCzJ0G2Q4E4XuSeHlcwu4pHA1YA5cwflvNkHROQLOGqZ0Bznn26mZowyBvNrMOYt1+Chuwz1xKbJ81SZVL6vXbpOde5Jk195knai9ZXuchjn5W56PECgqiKbOwLPDb120VoscDIqPTiz9B42QTdv2aaE0Q1gpyKbrBjk+3H6YMipXqa51ZrwOw1opvib85hpqaU63BwY5BV9mv8qZsxdrQ+b1m7Jg5xyiNLB74YViOlGc9+dKtXm8zQlwvgDN1WO8Qc4UXTPZgFo+LPv1GzRW9coJDG5N2pLNW7BS5sxfIcNHTlTTysef/k9LTIoXf0UYOUOdHk7Ojz4uryYkYMdroxAIhRLm+rTcZwo6wOIMMF+uO0POXOd1TpwVGTFmii7IFLQTUqfoni4gLM6lSn8sO3enaGh30dL1LhWeFYBuIeTGPQlwmDOHeYjfMyE9Xpswff+BI7Vo3t1zAhuADTA5iSH8Sq7QBiXCh7bQoQ1eJ7QBNE2geb2ktJNa0rB+8z6Zv3itTJgyVxtDM3qnT//h0qvvUOnctac2m+Zk4L0SpTXfyrBZ8ruYnzi5ocE1LcXIx2LeueTSS1XZ08ibmX5AjMkLTHlAsVarWUfNQPfe+4B2Ypk1b4WsXLtdOv3xlz5/4MrOAjorWGL1skXlZUEvgLydca4GBDxLwbkH4Flg5x1uKDivKi4MebhQQM4ZYIFcp1kzk8Gpq0OtsKijdijiZY/a4jEUUQNGZ4OJuU6oD/CR81u6fL389sef6tQjR4O78JXX3pBuf/WWrTvjVQkwR2z6zIVSv+G3wn8uXHaMhalW/UsZM26q7NidqCE9woemhZcj/IKAHLm8zM4nhCuZLo5Rgu4fdEox91n3HBfcmBhGVqzZIvv9hV0IQOcVcoQw92ZtOB8ZgUOIkX+M+BkzfppO9L7zzrsUbDhpsdXPnb9Cpkybr02bGW9DCQpAefnV13VkTZGnn1XQUM93MOO8/Nqus04HePOt99TZ6QvYnB9jwGbdb9+TrOHZrTsPqIOVfBtNopmIwMRy+oYyDYCQKwadypWryz333S8vvfxq5oTv7AovkKJvTChM8Maw9eFH5dSkwuBTutrghiXUd+SkaCcS8l+YOthoBk0HEiYHrN+8V5au2KRdWKZMWyDjJs7SjiZ0XwFYuEAx7ZCfpXn1i8Ve1mNNucSjjz2uZqIrr7pabPnQSzSnSo9OzEqMN2LOHz0yeewrr72pTQhqf/WNtGrbQdp16Cq//fGX/Pn3AOk/aLSMmTBT5i5cJZu2xWsNHu+Tfpu0Hjt0zDbbD4W+ftMeBWSPXoNkx95U2bgtXj6rXF1hF3fgaEDKzh6+jFW4uXpfoVR4wYYzPdTe5TMA87SPSB7ORZjSv1ycZ7NJIHAzfxOO4m8FX0K69o3Eug9EUUudfu8mr772htYroQbI+3Xt3lO270zQid+ERJls3ahxM+2ryH9u4FPxsyo6SZyekrQr4/mAr6twpE+3uWjtBewYNEuYCmXrCnaoNVyOq9Zt01DWyrVbfYddCCCHussCXVZOzoQrdW+BnAEeJwp//t1fF2rClH/1HCA7dyfJybOEHc9o/RrlDyycNA0AfCzAcxeu1Jlv1Py9894HOoII5yPhLzr/Aw/cvCzQOFjpW+kMMnfXrWBzdTkukXqwOVL+f5U1dE6JAENiH3zwEZ36jUGG1l10dOH9UiMIlCmDoVHz3v0HNWyJGUWV1X56Z7Idztwoj8C0YzNk0EkEONkmFpyTtIzzennfgQx1l27cGqcT1HkNwr+E6R959HHp3LWXtO/UXd8bOUvCuZQ0MHG92EuvymMFC6kTlJM93KU6Wuiyy9XYQxNsavbIm+IWfeihRxQmmEcAS8PGzaXp963lx1a/yq8duujECEA7ffYSWbl2h/biJHyJCmTiQfqR82oqOXpaVA2fOi/C0FiUItAmr7l81RZZsGSdzJq3XKbOXKQDWlHvTTKBW+ajT+Xd90uqmie0+WjBJ+TFoi8LarH4S69Ju47dZNe+gwG4MXOYqjPgs6i7kOTwAlJ3WbV37sKZLmEXEbg5mUyCUm+EKjPLBgyggt0r4Gjjla11l7nNvxZewC2bucRyG6+HtR93F+6/jZv3SKffuqmTk1ExzCFjsaSTPUA7c170THrGLFuoEwcgBdQMfq342ecyYvRE2bYrQWvg6NwSl8gixqLmReW5gJxRbbwvhqZSx+YMO2tIEthRk0ZT5LUbd0pc4mHPYcwQQC4LcI7GE2+QM7ADkuTHCAECLUJxtAjDSUtdHUBiTFPa4TM6TZw6NkoTcGV2/P1PLT6/vkAB/Y7MnLj81xfQPC6PpXE1i7uvsHMFN+fbcFJSOoAinTVnmXzySQWhmLxO3YZaI0ZD5mEjJ8nwkZM0bNm3/3AZOHi0TjFAhaE6MbIQViUMuHrdTlm+aqssWbFJFi/fKEuWb5KZc5dJ1z/7aNssCqwZAUQ4EOVIWQNO0eeeL6ZABXJmM/ktWrbpxIZrr7V1vrnT1vmmaFFb55nqNeuom7Fho+ZCyQIdS1Byo8dN11KGzdsT1OAChIEWyhCFhVKkFypGICIf3M4wVUKlQHf1+l2yfPVWIWSLSuQzfN+irb5WpSo15eNyFaVUmU/UNESOlXA1c/oIXdOlh/QCeXXCmxTKoxI5aeBEj8e+/iZND8qo8QjAVatRW/N8f/UaLF3/7KtK119zil3VAQ8Dkpy0D4PC8+zEdD2JQh21LsKZuQN2TvVxwYKOvw+HmvMEO70v01mJ0YNwpK110wkF32+d/5R33/1Acz+Aj4WT2wDa6XO2//DMmCPUiV2dRZgQDiaaoSPGyc69SZKecVqnktMJxSX4PIAO4BnYMVMO2KlydGEoiTTsggWdFXiph05rWHrjlr06K48QIGUBLHjvvFNCi9CplaPRNM2Ce/UdItded50aV6irw3lJLSCOREKGLPYoEkLTHX7rpnZ/q5LjtU2uUWsAaeycuanpIuGQ5ruAEvWAaerEzKp5w+hCV5Yt2xO0x+V2zoq3J8j8RWs0P4erk24xTBinZhCzyjeNmgmQQWV9/EkFzUmhniiFwH3KRu6KxZ7PTZnEv/99sf72brjxRrnjzrt1GC0nX3QPQVlSmF+tRh2p3/A7hf+QYePV8EE9IfBh0eLz0FuTEObhY6KqmZM28osAjH6VGEcIa2I0AHSAd+zEmTYH5G/dNUwLcGt++ZWWnlDjRpcXwpOE9gESERHKPa659lrt6sJl4EWZCE0HyCdSuvLOeyX181M8XunzGvreUWyMTCL/iWFl2aotumG+Wb1+p/YP5bPsTTgsKNpV63dpITluzuSDZ6X1Tx2l0+89JD7puN/Kzg67nAQ463vNCbDzquRC4aZ0oeSMqzLYcGXI4BZiyHmFm1F2HsoHDPgOHTknaYdO6yyyzl16aGcR+g/yH5np3R06/SFrNmzXM92MEyJLV26Qbxo3U7coLkHA93mV6jJ42BihKIemagAAIABJREFUCwpqj5wh4DMGFKPg3O2B3ZRp83QBp3aNMKZV0ZnLwG7F6i3afgs7P11RzH32fQjUnGPI0o2icxGyNHBztyesR1suwpeUMNC1BFC88+4HWmbA2T9g691vqMycs0TVzL/+9U/ZvTdNp17gsCRvSa3gkOHj9H4mOFBGQIiZ50Uhsiffy2up6zJz1A4Nm9koXVi2arP0HTBcRw21+bmj/PDjT9K0eStp3OQH7WhCKzKcjyh6ajqBE3DWieI33ayLPa5eo7jYm98DIUQ+E3lKCtAx16DYvsJq37GrjJ88RxYt26Bz6FB9G7bEaajP1lvziAIfZYU55ugpWzgQQw7hTh5Do2tycbPmLtfJBz37DNHnpXaNovYG3zSVKlW/lHdVHRa1zfC77Q79HLQeA1woKkAFiKlH5fOhrjCXFC3+ijbrRl2W/aSCTjJg8nmbnztptx3e/xyMRQtWqnmFeXqrN+ySTdvj1YGJ4YWQLPBNPnhG/+80/6GtToonwkJoF0BbN0KdmHEoWSBctmNfmpYubN+dImyPF3pK+g0cJeTs/FF2dtDlVFVnoJcJvKxwZnBmlYCVHe3EnNRdPpeg82Ay8as3pQvA+Qc2Ux8XvKPSFRDtocoIhivtAPQAOEdzSZajkpAqNWsYZAjdbNyyR6dZv/7m27oI07bs+ReKSrsOnWX1+izw0bS5cZPmmeC7VAubyfENHjpGdu9L0a4tgM8oNV9gx8gbd+FJAzt6W2aDXcgh53tezh3cbLfbis2NyjJ7gEWJACcQ5Hc2bduvOZySpT5SdyyhTNpqkVtq1bqdYPsn90fOj3za3AUrpFChpzQPRXcU2pO179hFfmn3uxYsV6j4uU51YPwPJy+YXVjkeT76TbLYW0FlLpPfKvRkYXmx6EtSrPgr8uqrb8pbb72n+TA6r/z86+8avpw6faHMnLNUa+gWLlmnKmXjljjNxR0/bRuNBKy4TGiTz3noKOHacxoaZGEHEpQwjBg9WXr0HKjK7ed2naVV2/ZSv2ET+bR8JTXgPP3M81oyQ7kMNYp8HkK5dAvCno9axPHIbTiLCz1ZRJVw8ZdfUycrdYIoTkxAHX7rrnVuuCspXWAKwZz5K1XpoRZp6UV5QRasTqsyJDcHxHBwkm/MykEe0vwdCgz35/Y9qaoerYspebuWbdqp+SX9CHWSqaoyUXFGbfJ4VKcupLuTZVfcQX3e/YnHZPvuVP1OGBVE3tN32OXQXJ0BnPM+m8ILEHgB5+6y8nfWUoQs2HkEXHDlAoEpuNCUDbiCnD1MGULI2SFm1JqrfQCAcwSfY76NHB8KjTIF2nj16NlPmyb/95pr9CyYNlo28G3TZsaEixYuWSMtfvxJHn+8kJ7howg+q1RVBg4eJZu3US5hUzOUCzhDLyntuPaDZCFG2XmCHf0bS3/4sWzevl/2JRy0h+oMRALd+xOy5DUoQMfOTh0biisp9YQkp7GdtGy22xiLw/26pZ3Qx2/dmaAdSmbMXqKdSVjwaa81dPh4VSdvvPWuvPTSqzp77/8uclRQgImwGYs/dnYDKvbU62EgIeQMtDC10IKMkBy5sLpfN5KefQbJyDFTdLrAxMlzZNqMRTJ3/kpZvnKLhi4Jc2OgoSsPG8Air0iXFBQkhfaEDTFdzJ6/QvtYDh0xUfoOGCE9eg6QP7r1khYtf9GQYKkyHyu0qR0kzIcdnzZrQOuqq/6rsCacCbAALcNYH33sCQ3Z8t4J3+I2pcNL7ToNFFYDBo/WaQgUvJNbnDRlrgKL0CBOR0oLyLWZbiSAigkEQExr4hKZ0nBEN0KGtpFIRAlopG1rQ2ZdzDxdBk72TZsIZ8/3ADXCl+UqfC69+w+3m1SYbM6JAq9LnhSQ7dhrU3RzF67WHqBDhk9UV+cbb70n8xetlZ17032EXS4DHeALsbqj36j1pMT3y47qLp9t4Kmtg4njZT+6mbhQcIEBLnyOyqgBDuiFGHKuTCb0k6T/Jo2ZV63fJt3/6qNuOBYmGio/94INfBR7M2SWxZGC9+9btJHHHntcLdv0kWReXP+Bw2XT1n1C6BSXoqmTS0w7rvPlfIVdmY8+0U4nZtqAv4AjtEeIjwJrCq0pDD6QckwOUO6RuenctvST2s2FfBuhXsKDBtq85rqNu/SzorSYCkArM1Qt08Hbtf9DGjRsoj0oMaMw8QD4kHN75JHH1H1J7occKIs97lfUCWFhjArAil6hL75YXF2ONBaoU7eBtGqLyhugDaH7Dxopw0ZM0PpIxuPMnrdc1m3craFMwn8oKk5EFFZnRI6fsYUGCaXx2Zk3t3L1Vpm7YJVMmb5Axk6YqXm4/gNHqZqsVbu+fPppRTXHPP9CMa0JK1iwkM7yY1o8uTcgRfcXnI508wFiGGloiUZ3Fx7/8iuvqzIkH9ai1S/SpVtv6fZnX/mr1yDtozls1CR9fWAFWOx1b5nF27g2db4dM+50o7jbNvcOpWVCmyY8iJnEE6BCeZ8ddEDPDex4Pd4TJQg4Ln9t/4e0btNej8uzzxeVeg2b6JBWBrWSoyRnSelDrToN5NumLTVs361Hv8znT7pwYWcBXtC1d0Gpu0SHUKYD7AJt12XAxt7/MGV2wLlTY4Hcbg9VRshVaVd4QQLOFdB8ve1AyhFtL0anlXUbd0qXbr30P6aC79JLpfjLr0rnrn9plxOgB/wAX4uWP2uin5wO4bQyH36she4bt+6Vg0fPqUWb1laEoQBRasYZYVxOfDJn34c0h5eQggHhlE4H/+iTcsJAUXotKrASTacQioSPar4KhcUoHHJYtMOiwz8bBgbAhZlj3aY9smzlJm29NX32Ipk8bZ6GCMdMmC5/9uwn3zX9UVtiEVp88813hUJvFn1MCIQHMdRgaQdWLPa4VgH2rbfepqHCO+64U5UZ4UaMP5U+ry7fNm0hbX/pJL92+EOLyBnqOnT4BJk8db7Wg9HdxAbVs/p+AROKCuMKx5NuqVwm52drb7ZfVq/brm3A5ixYIdNmLdL6M3KBTZr9aKshK1tOgUkOjuGwtB5DQeXPX0Cu0FDgJRoOJIdF3pAwJ6FCjBkURzN9AXWF4QKjCGHGtj93knYduwrT1lGkqJR5C9do/k1NFhgtdMtQGKGoUFaoLLviSjupJhluR40RGiSPRYjTvu1OtnVl2RXYYNVQgs35uXwBnVEL/C0w5sRiweK1aq7B0Ur3pJpf1NU2aJQ8MOn8g5IfqTt13iKO535ZsGS97I476Ed9naMKypEOTOcQpvW6QyuxALurZMIuWHXHb0BhFyzk/AecJUQZhrIB31Scf7Pj7BBzFZ603hYU5BzDlL7Cze3j4lJVlaHQCN0Revyj698KPqz1LPzkfH76pYNCEfCdPGMLdTb/obXWP2lX/fzXCx1Dps5coKBB8VA7NmnaXFm2apNQS8esN8KgNENesny9/NLuN6les7aGDyl6pwgd08qSZeuFkTTAddzEGfLn3/209Vb9Bt8qZGjNhQOSWjAWfUJqhAJ5v6grjAos/IAbQwaLPmC+4867FNTkrzBbMEap0bfNpWmzHzU3Rl9LFNb4SbM0lLttZ4L2zqQZMgXkgBZgmTzWebEBC+gS1mQB3LQlTttyMfmczwB0e/UZop+V1yJX9mHZT7WGjPwZg11Rf4SKMVbQWgqVzV4NGAVu0Pd/ww02xyaPBdI0bua5MFs0afqjqixUBiN8AC7hTAapmo4nlA7Q35K6ubgEVPAxNYmY4m0TKkR50S4LuBGSoxB6xx6zWcDF1AM3nVJc3m5p7RXIBHFnOIXyugPoVNX5FhIDWgbohEx5T+xt4dMUe84Oowr5Q8wpvocuTQ4rl8MuU+EFpe5CCTuvoAu62Nuq9sJjNAkH3LzVxTnALyjA+VD75q02znq/m/IBQqkYUJg3hwOQOr7OXf5SsFx15VUKkKJFi0vrtu20Ng5VQmgNeH3XvKXccuvtmpcpXPgZtapb808YEAiFUtzO7ShDwmaE+GijRagMCz6WcEKAGGlY/AkPchthNhZ8OlwQEmRYK8NXgSXT3gFJyza/SpfuvWTQ0DEKXXpBohoJU+J8BEgAi5AgpRjmH9dRYAw3xWVJo+NNW/ZpGHHB4tU6ZJWZdTgca3/VQM/YCUV+/GkFW+HwM8/b1OHNt2iejfdPGNAMKuX9A2Lcj2Z6OqBGHdI8+otaX0u9Bt9Ks+9bS/tOXaVnn8EyZvx0WbFmq5p3cCtizWdCAPByHqtj+miasTrAmXZagI3Pw6ZuwcyF2AYwP2HlD9h4rBu4hWPOXLDgc4Cdm/ClUXXu97bwJu9l665k2QrgMjee33cjioGcbW/NbeU6VWcUXgypu3xuYecCcqEKUwbSn9JTCNN7qNI/FRc50IVeyTmbSlxdx9UJ+Gw5OTq37JYePfvr6BxqxljQMRy0/qm9TgoHHG1+7qCW76EjJ8iAwaPkm2+bSY0v62iO7+13SsjLr7ymuY133iuhJQ8UUjOHDbch0Gr4zXfS5qcO2uV/5JjJwugf8labtsbJjl2JOkWc/Bu1a7gDUVbG1o5DMC3jjJAz3J+IcSZdW33xHKPGTpFefQZrTRxqlNdhDBAhJ6D1YtHiOpKIgaSoQMAKZNXWfs21+llRWwCLejjUFeqQkCitrwgJMjUAEJKH+7vXQBk3YYYwOJXxQctXbtIC+rUbdqqyJewKWE1INj3jnE4oYEo4UwpoIUb+am88JR/pWVtcusexOkbFudq7VFv+Asyfx7uAXbBQCtffO8LON1XnDnr2wawWtaG3mb6Ofu4vFNhllSFEK5TJ954k2WHnAnKxGKbMU3OZoHSj5FxBzvk2at5QfAAEc0d6xllZt2mXtlyibAD1ggqjjo9wJ/VMmCfI352GRiK6V+ffMdE8G7ehxpp938p+PyqRNme4A41xhPIEZsDNmL1YRoyepHVRFF0D2OYt2kiDRt8JE6AxAWju7cGHFLYoRAqg6XZBH1HCmihJAA3M7r77HlWHr7z6hhp03n+/lE49x3RBo2fCmajD6bMWy6w5S2X2/OUyf/FqWb56iyotYAKM6C5y8Mh53dP1BHVIuNNMKcDhiXnGbJhwyM1pYfi+VM01Onc8cXnd5LoC3EcUdC4gF4tqzoDTEXQYU8IAOz8BZ1WBebBzVLrWY5PtsuUEI7DvEdi5gFtgCs6ShwtDRxOj7LyruNC28XIIVwbtrAyhkgsScvbibksHFGa64bxMOXhSmAm3ZsNO6dV3sIbzyImheGhB9XX9xtoXsl2HP7RujKnev//xl27Y5R959DENdf7Y6me1omOaKFrsJQ0H3nXX3aqgMFdQIsHYHJtx5DK5GpfgTTdrrVaRZ57T/BVd5il8Ni7HFq1+lh5/95dRY6aowsLOPn3WIlmwaLU6FpmpR1jzYMZZVVcoLCus6JJP7gqg2TZGwmCwMSN1bOFBa5cTfy+7hNqeZHG4PUC4AeNoA87AJNb3dtgFHL7MgmOoVR2LuR12JuSXG/ehKkOwwC5Qs4oddoGpt+yAM1AK5d474ALrV5kNZFajibkcS/k4cnNhgJwr8HEbEKB4feHStTZ34s+dtF1TzS/qyH8u/4/m52gt9dDDj6hFH3cj+Tm6W9BfkPwdTsdHHnlUHYOVP6+uRcjkCvsPHCEDBo3Sbv2jx0+TaTMX2kKbm3bJnvg0VZq4MXFqsqGqKIPAvWmrhTuuKov8I3ks25BWA6w0h4kGppicjiTZNh23w8gd65bsc7NmZxA6AM0ZcFwPAnIRBV0OU3GuwJsFuyxoBaYKErUlmEvghULZ5UbImc8US7ALDHLhLRdwCFF6LPyO1VxciE0nEYacFX7kmEaOnqx9OQlzko/atuuATvQeMGikNoYmJLl5237NWRHKo2vK8FETtaYNGJBTQ6ER7lRwHTyl5QmUKNCdhFwdtXO2EobDGg40gArVPhvkAF+IAMdn9Ao585gAYRcxNZcLIAf4IgI61EYe7Lw3rXboqBLgMQuFsvMdduFzUhoV6JuCC2OYMigVR/4rhGHKKALOCjvUHd1DKAmgtgyYkZ+ilAHlRb9MbrPlrgAVav+wXYkBOKYGMNmdx9Lk2GESAXPlzBZAH0tvMHQJuUiDLkDARUzJuQFcLOfjXCk5c5sddH6UGnhSfC4VXZCgu2DCmCg8B3UXGtgFEsrM5x522dVbqMfo+A45/wGn8+JMKNKXfYCgc1vjFiz4AgxXWkEV9OV9qVq3RYsxXJWEELXBsZMZw7kzCiYNAMhGS6uevQfL1/UbqYKzg80AzuwjAToHJYeyCzxcaf7Wq6KLadAluS0jMODIiXs77MKZq8uDnXdF5zKUGSDsUNBBqjs3sAu/inMIVbrtbhJYLs6v0gFAGCDo+LuQwy5AyJHLCxpu1ufIbNiMUqM27fOqNTXPRhsxFnrciOTKACAuSzqFYARRa31ihio9OqfQW5L5apQuELZ0CbtIgC7Sai7I/FxEwpYuFF1OhJvze86CXRhzdXmwy8mwyxqAGnYF5zEPF5iK88lsYhReEHDL1YADdi6mEgCtP7r8reUETKCmswnwo8i7d98h0qRpC+0DqWNhJs6UH1v9Im+88baUKFFaSpX+SFtwjZ88S/tZOsAuDJAjrJktdGlXdMErOZ/yc0GoubCHLp3aeVkLxJ2hkVOvhwp2zkoi2/Ug8nV5YcwAFJ6TsvM3lJlvv6VdV7ggZ1dxHhVcrEMuxPm4GMnJ2dWgC8hZwUe+jQLqjr91l+49+ghF41/W+lpbczGG5v4HHpQ77rhLPqtUTbuPvPr6m9qVpE+/odo+jMkH4QZdNsg5qLnYB13Y1ZwLJZdT83KeQKywC7KmjhxeNrg535YHO9/UXShydi7CmP7DLgFzQei3cJlN/A5R5oUpPYc3vUDOCjxMKNj+KQPgMkXhCxav0SbN2u9y4SqZM3+FrN24SzuD4LRkSoEZ3urNTBLo/dkgZ1dyocnLRULNhVXRXSCQA4A20IWpgDwPdr7BzeTqzD5UsHMBPE/GIuf78oUSdAq4MKi3HA+4IFScXXlZ82mhuOwH5KzAM5cxn2BWob7Nth3VsgTcm/sOHJI98emOSg4jShjCltlAF2k1F8shSzd9LD2popx8X6jClz6pOsAXKmUHDAwYctveAXQBtguzHmenEw5noHm6HhLY0WvR8xZYiNJvR2VQKi4MYcpcCDkDO+e9baiqpYzAuCzDBLlsubkwqDmPii5IyIVVySnkXDdszskw8/be82AXg9AMM+z8CWUGBLtwKrjIqrgLBHBGCQap5pwBZ67HDuhCk5fzCLkgXZZALvygcywp8AaJ3HC/HXThrq2zKgur4gjwsr0GLbcpOvN5MmEX1Jgf67G1Hv/My57UnPU+n2DnHW7+dzIxqs3s/XJTBqngQl78bWrqAigbCFuYMsyAywKdCzUXhnClCYE6hC3tai50kAN0bmEXAjWXB7qksEwnt8MuBMYUFkiv5hQeY12EA75sKbo2gMhNewfYBXnM3HwvVqB5uuwb7GIpTJkHOs+GEwM59mFScuZ53Sq6MMHOAXRhyM3lNtDlRqelOxWac2GXyxtCxzLswumiNCrO7P1ScwHXxoWhjZdRcgHk5MKu5HIh5LLl5xR0oVdz4VZ0YVV1To5Ld1DIrbcr7EKk6iKr7GxqR8OZuUnR8VlCCTqUcyiUXaQA5xfcAlZwNriFLVRpQOdHyDIigIsA5FB0kVZz2UAXptCly7ZfIQpbhhVyLhyXuRVo7j5XqFWdz7ALWSgzFwLPAXQhcGGGAnbhdFEGpOAChhxtv8Ks4mJVyUUMdC7yc2F0WzqATiEXHjXnUtHlgS4suTV3wArm9lwFOyCR0xVeJuhQdqHJa7pXdX65MR1hF1yJQMBwCxhwEVJxfkAuYiouQoDLys+5AF2YcnMOkCNkmRe2dD2w9QIPXRpAhjqEGS1lh2MxV4QzHVRdkKYUY/wJMoTJd5ovC3bBgc7vEGXAgMtScLESqowo4IBctEEXRsgBOgfYhVHRZQtdhlDNEboMa/gyD3R25RlV2IU4lJmjgWdgrYoOVRd+ZQfEfN3yGTUW6N4vyAVsMnEEXNghl6fk1Mnp0MvSFImHGXQOjssQjOAxDktXewfYhRh0Ye1zmQc6O+hQd7kLdjk0fxdO0IUgX5ep7HxXdH6BDeUWIvUWkVxcrAIuKkoOI4pT2DLMkHNQc2EMWxro5VjQ5RlSHECXq2FnABLrOTzzPu2KLkShyxCGMP2CnV+gC6GCixjofIRdxEOWYa6VMzk5696l4zIXwS6coAtr6BLQOcHO5K0u5H1uVHb2cKYBSSwDL/M92sKWIQxdeoCdr6FL6+M8hjH9AlwYlFzEQOeljCDigItwTs6AziXkwuy2zJ6jC5/jMpuqC3HoMux5ujzQZVN1uVXZ2VyMtrxXTJtWsoEuxLALgTHFAM8BdpGFW/Y8nIEb+5BPAHf1nHmQc+iy4hC6jICSizToHBRdiHpcGsCZfVhzdbuzel5eyErO+bNHXdmF3KTiHAbMKtCOibIEozazgc75fQd5PYSgs4cx/YZcGMKUBnQRgZwPIcsLRc1lqbrI5+gc8nRhNqOg6hxgFwZVF17QOU4xcF7wL+Tr4YCdUQPuuna4vN2E3cKwN91Ioq7yLKDLCluGWM2Z4+cEO/OdBLrP5zPoAgZcVi2cAZqrfbQhFxW4RcF8YuBm9tlCl1FRdKEbsmpClc77cIMuL1cXngbPvkBcYbfLdwu6P4ulS6g5LcIOjzELdVj2lrAm0IlUHs8COGAbdshx7JyOsT/fmbvHuoddboGbNXzpImwZVchFKTeXBbroqDmH8GUkFV0Y1FxkwpcYU7JCmBdSg2dfYMdjYkbdsUiHBXTW57WENQ2IQg0+87yZe0fAGeBZ31OILjtBzkDPHcD8ud0RdgEDznP+zarkIqbgvEBuj1FV0dxHwWlpQMc+Wjk6e/gyAqBzCF/mwc6lwcNXoMTy48Kp7lhQzaLr0z7ssAMsBjghAp8T3EzY1Po6WZdDBDbn4+TiOPsDM2+PzYJdbgWdm/zchazosoEuQo5LB0UXgVo6E8q0hzDzYJcHOz86blgXT58gZ12snRfykF/Pgh0QMnAKxT4Lao6vkXV7ToVdQJDzLQ+HoouKkrO+riV0GXXAGRV5oSu6MPe7NJBzUHVhcl9GJFen9XWOYcy8UGb2HGG41Z1fCi/kcPMEGHdQCuXtnl4/yPusJwmWy9aTjeAvJ0m+vT7DLgcBzsDOArqYCFtGOUeXTdFF0IwSdVUXJOx27U2V+MSjkpR6UrfktFOSnHZS4hOPyI49Ka4bNZsi8JDsk7Ll7fKA5wg8G+ySfO6VGOgC6rPKiyjwAE4o4WZ9riBh5uk4WOBmPa6Bfjeu/86W0/UAO9/hFhMKzgCOfSxCLgZAtzsKLcAM5Ox5ugiGLx2UXRAhzJ3AbGeiTJoyV3r3HSr9BoyQPv2G6eVpMxYK90cMeE59MfOA5wg8m1klPM5M60JqXZg9Xva00If1Pius/L0cRrhZP7MT6KzHN2SXjXlpVzZl5xvgoh6atILN+XIe6BwKxV0aUqKg6OywC+MUA2v40lwORb7uQPJx+bX9H1LigzJSoWIVufTSSyVfvny63XjTzdKhUzc5kHIiT93tyg6eaJhatoapDMF5AfYIOaeFPPwOzQgBygqrQC47H5cAc6jO34Xr65ku3czfZT6rU9KXy3mgyxyxY/Jv3vZRzs9lwc5SZhBV2IW/HZgBnYOyCzCMiWrbtTdNfv/jbynxwYdSq04Dee/9UnL/Aw9JpcrVpULFqvJ1vcayP5LhzDx159VoE85SBOeFNQ96PoI2iqDjpMsr7GIablZVZ1F0MWNEiYnQZao4hC+jBLosZZfzYLcn7qBU/6KuzJy9VFB5XMeYgpqbNnORPPTQI7Ju4x7ZE5ceNXVHODMvpJmlLCNhVgkYeoEoopz8NxbIOR+zsFy3hC6tkQWXsMsxgDOwywOd29BlrIAup8IOYwoQq/hZVYVdXEKGcNvufWmSkHxMpkxfIA8++HAEYZdZYO5UZG5glwe8LOBFKn/nvGD7rPRyMsC8vXcL4DgezscoLNfdQM4AzwF2OQ5yebDzADkW5NhRdTkZdoDtfxUqy4xZS2Rf/GFVdSg7QpeTps6Tgo8Xkg2b9ykUI1OKkOnMBHguoGf+c+ftydkk2rZILbiW1/EKPW/AyIn3RwNyO3HgOubnXP328+VYwBnQsc9Tdm6hF80uKQDOuukU8gh1TXGbt/Mzd4eKYytX/jO3sHv8iSdjCnZ5Ks9Z3UUXelYV4xGAORFuvOdMwFk/Z+Que4ecAV+ugl1ers6oObO3mFIi3CXFCjlzWWG3N7I5OwM9uysT2PkBPECHWiv7cXkNY2ZTdlPmSpEiz8qmrfvtyi4y6s4SznSh7qzAywttZi2IkVuEfQvdGVBk28cy+CzqLXrHM+s7NTDzts/5sMtTdW5VnUO+LmZgF/4JBwZwzvtAgAfsgMWHH33qFnZPP/1cNthFBXhuwprO4LNe97ZA5Lb77WHNCJUnBAqDbPAzgIkEBM1rWfaBfo7Q/V1mqDIzXBnI7zLXwC5P1Rk1Z93HlrJD4eU0dUe+buuOA/JByQ9l5pxl2XJ2EyfPkedfLCabt8WraQXIOW9hn3NnIOe8d1GiYAWdP5cDWVxi+W8coBfj4PMGDLdgtMDK02O8PX/k77eALQi4Of/+cjbsLKouZtqBxVC5AcrOQd055dBMeDHSexvwoqPwsqk7LyFNAzsKyt3B7sViL8mW7QluYRcZledkWrGCL4TQcwVI50UlJ113gJ7FXBL5Bd63sGfufV9OgPPBcOLv7ywPdt6KwgO9P+rF5DbQxSLs7AovCmYVQpv+AA/Ybd62X95+p4TMmptd2U2YPEdeevl1VX881lnVOV8Pv8pzyuVZoefqcphB6AxHfxeoSD7eAXxRdHHmXqABdBdQM7dllg6EAQneAAAgAElEQVSE6zvPg12gMPP2d1GHHeHMHAC8KBlW3ELPSekZ2L319vtuYffqa2/Jtp2JHpWdM/TCr/Y8KD1X0AvkthCCMlwLXKDPay9KN9Cz7vMUoIe6OQ8wM1Az+wi3l8uDnTdoBXp/rMIuBowq1rDpzliEnQV4FJSv37RHXnrldZkzb0W2nN2ESbPlzbfeUxOLL8rOCr3wqrwIwA5A5gHPw8J/IYYmfYRdhEHHSU/Ohp1TjV1M5e2AZNSBl6XsHMKZMQc8jCvRKUnwqPD2JMue/emyfvMeKf7yay5hN37iLHm/RGmdfEAPTSvM/L2cK+DnTSH6AcdAVVk4/84+RsjSrcN+myqW3Ao4HyFmVJtlH87vw9tzW0/G8mAXqHLz9e/ygOdQWG5VddbL0XRpegLenv0HZe3GXfL8C8Vk7oKVsi/hsD3ntz/piIyfNEs+KPWhFp4HCztXcAwvAP3M73kDWSjv9wBFbwtcNO63A88ZgpZF32O+Koc/bttOx0L+aHwH5jWtgNPLmb/LnA+7PHXnRUE6qrscofCiqPKcwQfs1mzYJc89X9Ql7MZNnKU1eLvj0mTXvlQ7CO0mGBelCK6g5stt4Qcf8ItBALoBn1ncYnXvEoA5HGoAW8EWQ3Dj+3cHOG2nl5thZ9qHxUztXYypu2zAi7Gwps2tmRzV0KaB3t74g7J63Q4p8vSzMnfhqmzKDth9VLacuIWdO/enuT0EMIwcBA0M3e0jlCc0CtJpkYtV6Hl6X7ECRDvADMyikFPzdJys9/kCNivkzOVcqewM7GIqh5cHPJ/CmdbQprkczXzePmC3drs8Vfhpl7AbO3GmlPtfJQGKLpWdgZov+xCAz51CjB0gGlCGEYwWCFoXybzLsRNq9OW7CBRqBm7Ov/ncATsXoUwr8PKgZ8wy2UOaOUHl2ZRepomFEGcEw5z74g/JyjVb5YlCT8n8RaslLuGwGNVHzg7Yla9QOTSw8wTEMIHQeUGI7vUQA9ACPbNw+rLI5j0mOlA035HD3qh4n/fmZCr7PvfALqcAL6oKzzXsAF426MVItxWj7sze3n0lQtADditWb5HHCj7hADuAFw/sJsyQylVqSNyBw9oKzZ6r8wSuYO8LE/isqjC60LMuVCEEoAV+eUCLDtCcj7sD2Mz34zPYzG/D+ntxfzl3wc4H4FkVX1RzelGDnmfguQRfDOb0ssMvs+/mHtqQOW+BlzUAu+WrNssjjzzmFnafV6kh+w8c1jCtUX0RgZ47aEYAhlYwWi9HFpJmsQvB3iy0mXvnRTnvemBwDA3M+H7dQ8yX+/iN5j7Y+Qk8A7+ogC/GgZeTwJel+EyzaU/wc4ah9bojGOMSDsnSFRvlgQcekgWL19jDmHZlN3661PyiriQkHbHDjvvMFlXoOcMwihBksfFlUQruMSGAnlVVWACYBzvPsHMJNY6f9Xj6dTn434v1JExht3d/qrjbcttgVwO2UO5DCsmIw883lWegZ907DIWNUeXnFoBMX8im/lzfRo5uyfKNct99D8iCxWslLiHD/rfxSUdl7PgZ8sWXX0lC0lGttfP8vFkQjEkYOsPR+XoEYRkc9NwtlMEsvl7+1gJGs/DnZECaz+B27xe4nI+du+/H/9udgebpej53oPPl9hwBQ6fJCKEEnbfnCgqEEQVf4NADgDkefB7gB9wWL10vd951tyxcsi4b7MaMmy516jaUA8nHfYCda6BmAdIGw5hSg87A83Y9TEAMD/xYXJ0X4jBedwFEK0zCDUfra3m9HLLj4j/AvH3XnoDmcJ/TbzUo2PkCRPOYmABjFMHnDYzc7xWOEQFgcOAz6i9XAHBvisQdyJBFS9fLHXfe5RZ2X33dSBJTQgE7bzDkfkd1mKPB6LQYOSxUAULT20IZ+P1hhGDIwBLO9xh6aLn7Lvz6HTj/hjxcjxjsDPRc7aMOwhiHoFsQRgR+nssWDNx82ecEADobX/YnZsiCJWvl5ltulUXL1in8THg0PvmojB43TRp8850kpZ3IHEzrlDP0oBqzFJ0vkPP3MY5QdIak8/UcB80AYchC6m6Rzbs9/McmXCDz5febb+/+NPG+uc/ruYJXMLdFHXwBGlx8UW6heoxbBRgx+F046i8+MUMWeoAdpQeNvm0uyekn3cPOPqHdBQijAkP/QGgFoy+LStQfEwAI80AXWtD5BTW+Lw+KLFT3+Qg7X4BofUxo4BhV8OUAtRcbis9xbp4vCs/dYxyUX4zU+cUnHpF5C1dJ/usLyJJl62X/gQx7J5iE5KMycsxkadK0haQcPBU47DzB0EcjTWhUYuAQzDFA9BOEeRB0D0G/gRYhqBk4Wn+TXM63Nz5Ngtp8UoZWEAZ/OWoQzMkAjOrIoeCVoAMII+j+tMMu//XZYJd++KyUKFlGatWpJ4eOnLdD0IRCzd6EPaO+Dzs4g4OlWaRidu8nKN3BINIAdfc+QnJ7BBSZu9+DM8xcX88K/wcPO2+wDDMM9+xPE9+3VAkZKHMI+NyqvxwOP9RhJADoCXYHM85J0WIvS40v6niEnYGe8z7q8IuoogwchO4Wu5i9PURQDAmMgnkvUQSZ83frGmTOv6kssLmKdIQfdt5gaO4PExR9B6E/0HR+rAWiOQiC1hyiyzxgxHKAxgRj3YdBDToD0odQKbCjJ+bVV/9XFi1Z6xDGBHYvv/K61PyybkCwc4afv9djGpbuQOqXunRezHy77rxQ5l2PTE7M3+PsG8Cs37kbmLn7rTndHjuwM9Bz3ocJgs6mnLBCMS5N9njcUsUKnli97BKIEVKIHD8mENDRhNZcdCw5kHxUt8SUo2LdklKPS3Ia2wlJST8pKQdPSqpupyT10ClJO3Ra0g5btzOSdtj1duyUyNwFy+Whhx+VNRt2SNyBQ3ZFefAIsHtNvq7XSM6JSHLaSUlKPSGJqcclMeWY/f2Z98me943phdwfn2Xv/oP622Cqvb+wC8fjYxqgXkFpXRgDu+zvgn2hPt5/UDl/H27AZf2OnWAV7G8z9mFnhV+EwOcMQq6HFIYewecMxhwMQjfK0IALaLHwAwA2atVSD54ScmHkwA4dPS+Hj4pkHBMF1N796bJ1R4Js2LxH1dacectl5pwlMn3WIpk2Y4FMnbFA94OGjJa/ew2QLt16ys+/dpKWrX+Vps1byjeNm0ntOvWkRs06Uvbj8lK6TFkdvFqy1IfyfolS8v4HpR23EqWkZOmPpME3TeSnXzpJWsYZO+gIoaZnnJX3SpSS5557Udr+0lF+af+7dOneS/oOGCajxk6RqTPmy5Tptk3f28yFMnP2ElmweLVOUli/abfWzXEcUg+e1s/K50Yxcgy4DYByXDhOBpI83gbK9KgDMtgFKOR/b10ss112XnCDu56bQBc8vMyx9AFi5nsJMcycf0vOJ4P59sVzxhzYFpSxxQqxYC9HEYKuwOjuNp+BmcNhGJdwUPYfOCTxiYclPilDFVZ6xhldzI8cFwUaSmb95j2ybOVGWbJ8vdr7R4+bKh06dZNvGjWTcuU/k1Kly9ogVKKUvPb6m/L4E0/KPffeL3fdfa/ce+/9ut12+x1y0823SIEbbpTrC9yg23XX5Zdrr71O2F+X/3q5/voCUqDADXLjjTfJLbfcJrfddodUqfqFlgzUb9hE6jf4Vuq52Ro1bi7f/9BagZl++IzDVHigxODWiy++RG644UZ9LX3N6/JLfl5X30/Wa9988y1y5133yN1336vvj9o9FGORZ56V115/S8EJdPncFSpWkWbNW0nH37rJwCGjZP6iVbJo6TpZvHy9TmHYuHWfKl2gyAkBkOQySpbWZcBwH1t8bClH5wXI+brzghW162ZB9mtvFvxo7f0AjV+fy/K8YQaUu+/b+XcSyPWgYOcNklGFYQ4BoBWMHmHoFwCNOgyfKuR9AzW2A8lHJP3waVVgh46c09s2b4uTjZv3yIpVm2TEqInS5qf2UqXaF1KxUhVBST36aEG5++575M4771ZQAAfyYldccaVcn/96+bRcRfm8ag2p+FkVXfg/q1RVqlWvJbXrNpCmzVtpU+Z1G3fLmvU7ZO36nbJ2A9su3dZt3CXrN+6W9Zv2yIbNe2Xjln2yaes+4T1t2R6v6hDVhGJEPR46KgoMoOG8nT4nMnrsFGnc5HuFCZA2G7B7++335at6jRTqvBavyfviPZj3Y9vv1Pe5YcteVaLffveDApYm0oD3s0rV9HPyeatUrSkffVxeYX3llVfJVVddJdfltwH0zjvvUuDfcsut8syzzytsAWPlz6tLg4ZN5I9uPWXy9HmybtMuWbdpt2zZvl+hR5iWzwoQUYv0/EQps8VKCDWQBczd37hbNCNye6AgidTfRQFY7r6nSN4eVth5gmHEQZgD4WdAGBwEgweeeR+oNXJfh4+e1z2379qbLAuXrJGu3XvpYlut+pfy9DPPCYoLJYPSueSSS+SWW2+TMh9+Ih+ULKOhQ8KI7Tv8IStWb5ZFS9fK4mXrVOFxHVAczDgrR06IZBy3bMdEDh87L+TKCHsSznO5mZCf5sYO66w5FnfbdkhVD6FUAy1Pe3JvAwePcgu7t956TwDX0ZPi+r04vUcUF/V5fAbUmML1mC1UC3wPHxOxqd/TsmbdDh0vtGT5BlV1C5eulWUrN8mkqXOles3a8vEn5aXEB2Xk/RKl5cOyn6pZhmN95VVXqZJFwaKAn33+RalcpbrU/fob+a55S+nTf6isXLNFh+ASjj2QckxDsoRl6QSzL+GgvXWdOl59MPJEctHy9bUiArYogCMnfi5fv7OwPW5fikQNdp5A6Oq+sMMxB8PQwMjVPhsoXSpEZyDaaiFVsWWc0bAjBpCtO/bLkOFjpVXrX6Vipary8COPKcRQHhRdE4p76eVX5a2335PfOv8pc+Yvk2kzF8iM2YtkzbrtuoizoJst7dApSUjKUGXIa7GpgSMpQ7v6+GPUoRQBGGM8wYRizClcJ/yIAtVidtOD1KLQPMPuuPTtP1xDnqgi62O5/u67H0jTZi0VFtb7gr0MjG15OtsxMXlN3KEHko8pLK0qlBMD7pu7YIVMn7VYpk5fIHPmL5f2Hbtkfi+vySuvviEvvFhcLr/8crn2uuvk9tvvkEceLah5ye+atZRWbdrJkGHjZPP2eP0egGDqIZtxJzH1mOat1aSEmcbZ2RqK6zkEqjkRNr6857CBJhTfawh+XzkGdq4A6OttIQVlLoUioOSMHoOIAQb5tG5/9pHadevLU4WLyE033awhtcKFn5HCRZ6RRo2bybiJM7SLCOoOFXb4KIrlnCq/pNRjYjag5g+8/H0sMFu1ZqsMHDxSmv/QWho2+k6+qveNGlT6Dxoh23clqJPS3+fF2dm731Bp9G0zG9AMLONS9fq7730gzb5vJelHztrVkN216iNQgwWj/v1euhalKwhRo5hagBU5PFQkIVdUI7cBwhGjJsm4CTPkx5Y/63dZ6MnC8tzzReXWW2/T7/nBBx+W994vKW3atpeu3XrJ5GnzFKYp6ae0Wwx7YLxnn28K2f1ndFEvGYKFzQHGoVhs857DPzNUqL9Dp+fL3oUpK73g7reWb198ujhugZlVfAVPLD8uKCjmVAjGpaq6AlAs7FOmzdPGxk8UekpNFPfe94A8+tjj0vbnDtJ/4AiZNHWOHMw4oxsWfuDIhvLzFyShejygTko7Lj+0aCv58uXT7R/58sk1114r+a+/Xq+zcPM4oOjP66IQe/zdX75p3FQOHjnr8LccBwwlLVr9pMfDPK8ddhYw+nVbGCGJYrSVZpzU3B3QIn/JRlh19rxl0qvPEOnavbcUK/6KDq3l++c43n//g1L8pVfll3a/y7CRE2T12u2Sdgjlf1pLLgjRultogr/dVnfpADGnBTDk9+UBLjwK3sv3lgUy7wDz53eVLy4hXdj2RXLLBlgrcHMXbN0CNAbgCKCOnhA1bjRr3lKeeOJJueyyy/RM/9f2neXPv/oqIGzlAKc1j4ZSUBUYj7kh+NZv5jlYhA0sAtkDMUKlf1Fy0LWnLsq1atfTcoAOnbpIrz6DNb/IyZY/zw/s/vyrn1vYlfigtLRs/YsD7Px5/lA/1i+oZsLYduxtCg3lZ1P2p+31ghhaho2YIL//0UPNRYQ/777nPg1hFynyrLpnJ0yeLdt2HtAcJI8nl+rPQhTNx+4KV1jWy6IecjiH7fUIW2ffovmdBfLadtgZ6AWyDzkoPcLQCkbnyzkPlC5hGEKIGJhY9yh53JMrV2/R7h8PP/yohq6q16glo8ZM0oJoTCioPfJgPN7699G8rDnIbHlHzgBtOTvec0r6CXvpA2qDnB0qNBCw8Fx/dP1L1e4hJ2XH8+IsRfVyPAN5/lj8GwNMa76XwvxDR88JuTtOLHbuTZYOnbpK0+9bSsHHn1Dlh7MWExJ1hlt3Jqj7k5CqcXwGskDF6t+4WvwdbwtneDY7eBxf27f7Y/XYBv2+3ERUQgK7QADp/DchA2bAoHQGp7frsQdWBacXUFJ3Bcj+7NFXrrnmWnnyycLSt/9QXcBYvFm0YwlugYKVBdmE53kO1Is/z2UWepRs5y4GduccOuFgUKEm7udff1OgGoXkeu9sAsqZ1zmGHFeOL2FdzEacEOGmZdQRBhjcoOT+6Bk6c+4SDXEDS44pIHUFeAPYkO7DGA4OekG+EN+bGwgF8p27+g15uy1mYOcMP3fXg4JixEDoDMpYAaNN0bVoactt1avfWBcqjCWxpuD8AVM4H4uzkzBo/Ybf6kmC9bUojyj94SfSvuMfCjtznwGlwz6bGjW1kKHeu4aJt4UgmPuBH25RQuLsV6zeIk2++0Gef/5FufTSS6X4S6/I5KlzhMYCCclHVIUH83r8bSALpF9/cyHCyNNnjsAxD/Y34e3vcxzs3EHQ+faAoBg1GDrD0dX14IGJM5I+j5x19+w9UOvYDiRj80/13EXHi1o0i3xu2vMfh5wmPS87d+kh9Ro0dgG7M1Lmo080t3n6vKjaCfYYOADSU5u6iMHTPxgTOQB4lEJghBk5epI8+9yL8q9//Us+r1JDtu8+oA5Rws7eFqdw3O8X8CKwwGd7P56Aw33ReE8BvGY4vrtgnzPXws4ZfqG67hKiMQVJd1BMVxPFF7W+kgcefEgyjp2X+ETyce4eH4HbCYl52IIFR6B/z38qFN3iZWu1WJ5CeTqoZBwVh1Aoyq58hUpSrUYtmTh5lqpjmj3z94G+dqz9nc/wdQZzXKqWsuDWZLDtsBHjtW0bdX2EPAGhbfFyhmnklWmwi2je38fCd+b8O8p+Pd/+A+niyxZ3IF183jIdnqECTK5/HnIgmZvJM4VjT07uiy/rCq2mWFQxX7D377UiAMFIAdgVaOPTFFpTp8+TylVqaOH18y8UldZt28lZET1mdJFhqsKpsyJf1v5aHnn0MW159vLLr2nzZxR0rEEreu8nVRUvXWFWrd0ihQoVFgxRAGJ/Ii3LfM+l+g1et+o3Fhbn3PQesoPFZd7a+YQogOv+/F6cH+sz7HwBorfHeIVlHiS1DMQj3C1gNIBk7w1YGArImbz9zvvyj3z/0FZT+w8cFByGcfFZZg5vzxOa+2MbmCnpxzXMS11ZwccLyTPPPS/33/+AVKxcRWrUrCV1v6qv8Pvq64by7LMviK1/5dXy+utvSb+BwyQ57Zj4YhZy/s+Ym68DN0621m3cqQqv25+9Je3gab9gF+zxCR0srYt7LEDL+n5CfDkAIDkf52C/t1D9fT4WvOA235ShNxCG636P4LiA4Kpgyzijrbw++fR/8sADD8orr74u02bM164nKWmMkbGVGTgcMzdwtYLWejk0MPQO7/C+TpqkHDwh23bGaxhz0JBR0r1Hb+nSvae069BZZ9iRw/vpl44ydPhYnUzQt98QWbBopSQkHY5uaDhYVZypdkO1wFifhykYhIeLFXtJc6B0dbHen3fZd5Wbd6z8P1YhgF2wsIyVv/cR2gnpst/L5gCLGAJqesZpYVFm4OjPv3RU8F16yaXqNNy4ZY8kpR6VI8fPa49K4BgTn8NP2FrBay4HCkZanNH+DEVCjRkbBdeoZO6jtyd5O9ysKGRCm4G+Vuz9XWjVd2LKEck4fl5PHihKb/5DKz1mgeSMs9Wm+hEKzYOE/5CIyWPmNBbOl99RHuyCVrbOsLZA0wsUnaEZbrig3FIPnpAPP/pErrziSpk0Zbb83au/vPzKq/Lfa66VF14oqgXU23fFq5kFKzkA5O/C/d6i8vx+ghQgAdD4A4dkP+ONMsPHwUI19kAXCmVNazZKEg5LxrFzsnPPAfm1/e8awmRMETlQThB8WaTC8ZhswDSLZx44g1Pb5jhm7sPx3QX6nPniDxyUUGzBhUKdgXEhXQ8cjlZY+gqLxOQjmlP6rukPOj+ORsaTp06XMeMmSYWKleWaa65RU0aZDz+Wjr91lVVrtghn5Sg+Fi0uA7+YUX4xpJxdfgeegMrJkA65ZdCtZTuQeXLh5m9jGo6Zg3tpToAqBiq///Gn3HnX3XLXPffKX3/3l1deeV1Gjp6oJQi+f5bQKs1AF0xf/84tTJ1gEOnH+fr+c+Pj8sUnHpSY3UIA4jwIO504JKQrsADX+InT5bnnX5T8+QtItWo1pU+/ITJn3hIZPHSMlC79kVx7XX7573//K48/UUiaNmshvfsOko2bdklK2jE5yLDWo+ckOfWYHEg6bD9hMgB2ufDHOpgi+P72JdCQ+agkJGdobhDYUfPIxn2YZNTQFcH3FMx3xmehnAW1xmeZNHW2OlVvve12/Q3VqdtAxk2YLo8+VlBqflFHlTE5PN9hFwq1Ga7niAUQh+uz5Z7njW3YhQLEQQAzN4OSBenQ0bPaHmzA4JHy2mtvyn/+8x9hcWr+fSutG8NwwQLFxPB33i0hF110keTPn1+t40zT7t13sKzdsF327k+Rgxk0iuZs/qxuJvzpcAz9DOsacPq7D2bRjtTf4ticMXuhfFKugjT8pok89VQRefzxQvLYY49LjZq1dVQRIcBYVND8dtIOMcT3rBw8ckYOHTkj6zftlP6DhkvdrxvKK6+9Llf/9786jb5lq7YyYfJM+bbJ9/rbev2Nt2TL9n2CIUrDv8HC3En95g545h7AxML3YdIMuR92oQCmL88RBFStYWQHOIQ8n+io8lAOLKgsWEeOnZdlKzfIDz+20akH/774Yrnjjjt1snif/kNk2sz52n1l3IRpUrtOPVWE99x7nz7m9jvulCefKqILN91GRo6ZJFu2x+lMO8Kfh49h7rAtjJhkUC0omEh+1pC+VgignX74lHT+o4eahd5/v6Q89NAjcvHFlwjTxTnpKF2mrOzbn6qq2RvswwXohMTD+l3xXoEbe75PQtmz5y5WIPN7ebHYSzoO6oorrtDfQYsf28r0WQtk3MTp0qbtL/qZrr/+emnzU3v9W75/wmThet95z2ubZJN3HByPQ76ExEMSyxtnkf5tMRyW9QWavj4mRHC1gpYFjfAmJpYZsxaqY7NosZfktttulyJFnpFnnn1eyn5cTrp0+1vmLlgmy1dulKnT5kr/AcOkdt168vQzz8r9DzwoLHp33X2PPFbwCXnhxWJSqkxZad3mVxk9drJQrL1y9SaF3bGTImwUHKMSzKJKmy6UoTU/GFJYhfkkwtf3yvFevmqDHs+x46fKiFET9Pj07DNQlq/cEPYTAk50KIDn+zYwo2AeoB0/JZKUckTfB30tJ0yaIc2+b6nlKg8//Ij2vLz22uukUKGnpPLn1aT/wOEyfeYCWbx0jZZiEB6/5JJL5I4779LxSNt27NfemQeSMlTRYfDxBnF39+ct4o6LeN7x8O14ZMEu6ZAkhHuLIbD6B1CAm0sh6gKanPwcyjiti176oZO6KC1cvFK+/6GVFC1aXMcBsZA988xzUr78Z1K1ak35s0cfWbRktRpaAOWAgcOlW/eeUuOL2vL0M88JDjwmnV999X91IChdRyiBeO/9D6RS5Wpas4Y7dP7CFbJjV4JunP0D35OnRRffYydEr5MvZIFGIeiWdkySU4/q4sxiCsB9BU60H8f7B/aEArXMIfO4U8YQ5+fn4DeNYgZinDDwHMmZx0hDzMfOKXA4wThxWvQYElJcumK9HneANmTYGIUX4caCBZ+QK664Ui699DJ59bU3pFz5z+SDD0rLb527y9Dh42TeguXaV/WvXv3lfxUqyUMPPyK3336nVKj4uZQrX1HhzfEll8d7CduxVnACT7N5Lw9yB1Lr7XkQ8Q0iOeU45Qs74MIN0FA/fxSA7Bm80YUsv4/EFGrKTsqxU7TLOib74lNl0tRZ0vandlK1ek156KGHNYwFyK648kqFGGAkF9X9z14yf8FyWb12iyxbuV5mzFogM2cvlJ9/7SiNv20mb731rqrAG264UWGIIeaJQk/K3ffcq4vnG2+8LWXKlJX/Vawsdb9qIL+2+02GjxwnCxet1Odcs26rbNi8S7bv3K+5w+S0o3Jc1eI5hfXJM7aF3aYgbY7SQ0dOS9qhEwpHPhugtG5JqUfEbNyfmJx9w5Rj3QCM9bq5bL3dfjnTiKLPm3JEFSwqio2/08vAO3Mjv5d28IQcPHxKoYgxiLIQ1BfQYuNzosh4DWDPCcPa9dv0GC1Zvk4GDx0t7Tt0lq/rfSNVqtYQ3La0Qbv5lls0bMpYnhtuvFE7xKDGP/vsc/nplw7yd89+amQiJ7d2ww41MTG1nb/nO0Lx589/vU42YNIBYW7ABlyBXI4OV/t5shE2mOe9j5CcKOXBLlSwjAIkXYWf3YMzNNA8kIxqyNDFjEWWRTcuIU2ozSO02a5jZ6nfoLFUqlRVIXb11VfLdflxdV6j+b2PPykv3zVrIS1atpHuPXppeGzV2s0CtNjIBRHGA4ZNm/8o9Rs2lkqVq8iLLxaTu++5R2fw3XrbbbpIs8gCx2uvvVb7fd7/4IPyYtHi8mm5CvJLu07Sqs0v8sWXdfQ5vm/RSkLtFusAACAASURBVDr93lV6/N1HYTlvwTLZuiNOduxOUMMEl7ftjNPPsXNPguzamyi79yXpZzOq3oBfAZl2VF2pKEzCr+kZpyTtMHktx42TBE4QgCfHicv8Pc9F1yBu2xOXrK/Fa3Iiwetv2xEnW3fs0/36jTtkzvylCpJBg0dqNxc+2zeNvpPadb6WqtVqSuUq1bV+8qnCT+tJwSOPPCZXXXWVnoQUKHCDHifmF6KwCUUDvEaNm2qoumfvAbbvYc1m2bJ1r8ydv0ydt63b/CJffd1Ajz1zDwlZXnbZ5XLvvfdL+fIVpX6DRjJsxDjZvjNejwXABXLmd2kNkQd7OQ8kOSdaEavfVb4DSYcklrYLUmnGCCjNIuXvHiWi6uPQSYWfWfSAxboNO2TZivUyfMQ4VQP0kazf4FthMb7sssvk4osvlhtvukluvOlmueXWW+WNN9+W9h07S8tWP0m7Dr9Lj7/7yrARY2XSlFn6PABRFcu6LTJ33lIZMXK8dOn6t/zY8idp2Og7tbV/9lkVadO2nV5+9NGCgpHmxhtvkiuvvFIuv/xyDc2hQqkxLFv2Uy10xmUKlNnfcONNcvPNtwhQLfL0s/qeHnusoCrOp599Tp597gVVMi+//Koq0w9KlpbSH5bV5yMsm7WVlHffK6FK951335dmzX/Uy+Q+cV8SymUCBTVot91+h54MoIYZwcR7ub5AAX3fwIr3y7H7zxVXaA71+gI36MnEk08VljffekfK/+8zPSkA7oBQVVmv/jJtxjzNC65YvVGdszhsqXHDcNS5y5+qzgEfn5POJrhBASbO2zvuuEvefNP23MxARJWvXrdFwYyqNN8zapqTIHNS4NfeRRg9WDAG+vexukjnva/QgD542CWTJ/BxizGwhgryFySgUcQeIM3iZ8JvqBvmwmFBZ5FmMTpx6owqi3vvu19Dkn/37K+KpFLlqlK12heq0DC7XHXV1XLJxZdoqO2mm26Su+66WxVG4cJPa/6QbjDfNGoqnX7rqnnDPn0Hy+ixkxSIk6fOVqMNSgVIrtuwXVas2ihLl68TcpCr1myWjZt36evzWPpcknukmJ4OH981+0G+/6G1tGr9s6qn6jVqSeXK1YT3SI4KdYNSRSnRbxRwZts+Lieflvufhgf79R9qg1IlPmNNqVX7K6GZNOFc6hgx8fTsNUC6de8lAweNULW1cPEq7bm5aPEqNX/w3jdt2aPhSfKbAGjqtDkyfsI0GTJ0tHAcBw8dJYOHjJLPq1RXQwlQBfh3332vAE4GqpYs9aHcd98D8uyzzyvMCRUT4hw6bIxCkdfdufuA/eSFECnfI0qWkC/fvfsogq/3hSba4BdcI517jyGYB3oSkFv+Lp/PoPIVaNF+XA4Gam6G5uFjZ6V3v8GS//rrZefuBOEfYbKnn3lezgv5Jlse6uhJQqPnhT1hPsbCUOg+ccpMGTdxmvTpN1jLI6j9K1GilBQr/rIUefoZVSOoJBZz1CJKiTAnuUBqBx8r+LgaZZ559jl57nmbMmv+Q0upVv0LNVKMGjtJRo2ZpKAcM26yjB0/RcZOmCq4JIEnICGEyB4TB+E7cocjR02Q8ROmy4yZC1Rljho9UZw3XJY8B3lGYEL+bNCQkTJw8Ah9zt59BknHTl3kl187qYqt+1VD+fTTCkItIxAsXORpzY1Rh4dSffrpZxVU119fQMOK//znP+X//vV/qvwK3HCDqjQUJWqtaNGXpGSpMvJtk+bqmp01Z76aTXDZbtu5X44et+X8yHMSksaYBNDID9I8gByip5OaSNyXB9UL4KQgAich+RLJwcTQhiLIWZsPqjYHAzgY9WuFN7D7u/cAhd2OXfE6G65FZk0fiyzfufXxNmV4VHNgGEoyjp6VjGNs53QDjrbtvBozMKAQTtt/IEXzWIWLPCODhozQkCjKjPAgIT6UIM7CJ554UsN/APGii/4t+fLl87ihjp4qXEQefugRVZdA9IYbbtD2atQjAiBb/vA6zZNhy7dt12qe8b7771ew4kjl8eS9gDPTJ3T/4ENSsODj8u13zfV1MH7gYn3woYc1fEoYtE7d+lqr1uOvPtKn3yDpN2CoDBo8QoaPHC9Tp8/VMC95Po4dxww1Zttsx4pjxz+OAaUBBzNOSVLaUYfjbv0OYvqyh6hCJACcG18j+JMKXxW9r48LLeRjDnaxBF5/30vsQNoHAAeiwAOAdnLqEUk7eFzOnBP5s0dvVV4US7PsYlIBSpQUcKzdgTUpJUNS0o7q86QfQnWclEMZp3Q7zKJ+7Jw+x6kzupbLb793lX/8459y9933yC233CYFChSQgo8/IcWLv6y1gLwmuS6UUqFCT2o7NNpYme3hRx7VekFAdO+998l//nOFKiuK6SdOminAOv3wCYmLT5XNW3cLBhLCoWs1n0hO0bIRPl2/TbZu3yubtuxWVRufkC6p6cf0/fNZrFtq+nG9neODE5Jc3c5dCXLilMiRY2fl6PHz+lk5ZmbjtoyjZ/R50tKPSzIOT1y05iTW8r1RxlGyZBlVxCg3mwM0tvL2rn4HMQ3eUJnccuvzxMiJSfCwS8GdF+LN/Ce9gPexA07PShtnIQ5DrPw4EY+cOC8nzoicPi86yRsX4qate2T9ph3qrmTaAi3G+Nf253aqYljYM46flaMnz9ts9GdFTp3Leo5DR06p+QHVsmrNJlm2Yp0sXrZat6kz5mpok5Bo9ZpfSvkKFTSsWbrMh/L7H93lt87ddFu0dJWkpKNiDkqCC9A7/oYzJCmVz2V7/MjR4+XLWnV1gOtll18u993/gFSpWl1DnXvjklSlnjkvcvT4OQWVHguOR+bGdeDGcWLjBACAK4zYm01LHGyRFpRql65/KeyAJM+lvwkLuFxBwdttwO79EiV10Kwpv/D2Nxfq/XmAjUDtdQQBny8phbqe2N8cF6MQwzXUsDbPl0tgzSLLwkyYkMWaQnPceCzwlB/s258im7bu1jAazaIpF8AdSLgMyzruQpx+hAwxnOB0rPFFLZ2nR2H5hs07hTwZizt2eMwbTGDA2PFR2U/VwUgY8ZZbblXg0J4MdyVuxetoVn3NNfq8b739rtSr/4381bOfHDt5Tk6fFS1IZ4HXkF0qrlGKrX3cUo+oogQ85LQA1PSZ8zQkSsE17k5ev1SZj6Rr954KdRTn6XOiKgsjhyrWAH4HvGa79r9pmJSTBWBnV2pens/TiRIOSkKi5PH4x3u1dc2hQN9WIuHp73PffbGvai/Ukw3r5w7FiUeOgV2kgRyTcPWyyPm6GPryOBZ2E4IkhEaIkOuAbc26Ldod5et6DaVCxUraGBqg3Xzzrer0Yy5epUqfq0MRaHX8rYuG8Qjlrd+4Xc0SgOzmm29WGP5/e+cBLUWR9fF3vu/TTa5pV11dE2JAkopZVEBERESSCQFBVFRUXBRzDqviqrhiWMyyYAQRI6gIZoyASk4SVCSHlwP3O/+aV/N6erp7OlR3V/fcd06/ntChpurW/1f3Vmj0bQEcW2+9tZjTBa+pd+9zqVevPtTrnD5i5OP55w+kW269U9wbIcMfZy+iWdjmLBahxHkLlgkgwEssq9jS4DkpyjMZSkXfIQCBvICXiSkSbdu2z0zM3nZbOumkk+neYQ/SN9/9KLw5gBZh1hxvzkWaBOzuz8BujkfYOZUvyrHn6WeK+XYIy95x5z00bvxbonwQloUHijSjoQBPFe+9pt3p/iq+Sw9wHbobAnrwRlDw60yDpgSVuHi2+D1YLSEqPdHVG2nN+jLhrcFzQ1hy4ZKf6dnnxwhv7ZhjjhVz4TA5Gf1YGOiBUX8Yog/hh8B/M/1HIY4YYQnPDxu8IhnaQ/9UVW3Go5g1ZxFN+2o6Tft6Bn393Q/07fRZDefWNZwvrlOX8dLQVybDg+Y9RFmFmLq5BvoQ8VsAPgwG+f7H+fTYf56iU089jf7y1wy8DzmkFV1/w83CG4Q3KT1EnCvswAF6yH+AFJ6jBLmbdBU6JgO7s2i3v+9O3bt3E/2YmLuHUaxYzxTLwcE7vuuf9wkILlm2UoRz0TcKrxAjZQFAaEah31AoLUn7Pj2Qde6aiO53GmAfAdxL0DfBWxKAHx6o16zLLLEFD27ZilU0avRLdM21N1CrQw8TQ/chhG3bnUDnXzCQPpz6GX3w4Sf09bffCyjWUiaUiX41bBs3VxGut3L1hoLh8fWbKsXxOEdubs+N2tO3ux8Ef/XazbRhU6UYRAKvaN6Cn+iVsa9T7z7nikEyW2/9OzHPDZ4wHpK7as0mKkf/ZBXCnVi2LL9sER6G14XJ5fMXLrM9zupcpwYVGhpY97L/eReIMCYaN1hNZurHX4jpEAgFH3d8G0LD5k9/2kZM9j/wwKZ0+hlniUn+r73+Nq34dQ2VVtRRWSUGy2D+Xbn4DU73jf07h4ZF0qCb5vSGCdoSVDze1OVB6A0HRZ44Kgw8I4gzPI233/mABl50iegXQ0jysMMPp6FDr6O335kkvDaEBzMjAutEWG5jaY2wm+KJCrhrEKEuod8OIUCMQP3l13X0zsTJYjoEHuODBbQxMR4LJWPaAECGfIX3ixGVMmSIcsHT5DFvToz+3FCpJAKD8CRCrZhwjntgpCxGeSLUilGd+AzHAGKT8ZieNyeJgT5Y9PvQQw8Tq83gKRitjz1OLAz+zruT6adlv4nzcI7xN0RvG/mNBqvGgOrPYge5ITITeloS3Ghg2CUM9oFhKobxbxahRHT63nLbXWJ0IZbR6tixEz3/3xdF/w3CcyLsVoXH71RnhNYqCqAIvtELozt4BU0XYIJ8zHhxlfTh1M/FiiyHH36EGFSDMCW8KSyYPX3mHEK4EMADdG648RaxOPOiJT+LQUFB04LzJewwmV72wxqvC1jjPdIAYAPC2AAynPvp59/Q6DEvZUanNmki+v4w4KjDSSeLqRIIRSMEK34v5vGl1j7iAWtRgVoxWEtWrd1ETtvqtZjjpPfmlH7X3yUMev68cXhz5UK8XnjpFdp3v/3ExOjbbruLPv5kmhAoCBpCcv6ur85DTuP9EaJF6A8hSoQxp8+cTQ/9+xE6of2JYuI5Fm6+7fa7qKwiM5IUfWfwopYuXynCmCryBP2fJ3Y4iRBShbfu9poI1eLYzWU1Gc+vcguVVtTSrDkLacQj/6GOJ3eivfbaS8AZXt+DD40gQBr2tKmshlatxZMk4rWPwA1Fq8ae/Cy1UA+jUaiuoeDFky2BEfOmZx4UBLVH8Vi7vkx4DljJ/ne//70Y2r9y1Tqq3YKWO0YMxitGxXR/1LlNpdUi1AmArPhllQhtYhUVgBAh0MGDh4iHn6IfFX17KvLHL+zM95aagYYR7Ad9rus3ltJrr78lnoYASGOqyeArrqTpM2YLLxJeKzwT87X4vR71LrTGQGwNgVyoMuyKBPYQFITGhj80QiyLNXHSFCGoEKms2KD17mpzjgYUhHSBaEI85+f/dinoYe2R77g2PD78jXzyWbGyC2AHgAy69HLhfa/4ZY2AnYp0YEARRtHCs8OI2aDXlLaD34DGFMKX8BiX/7xaLBqAOZHbbLMNXXTxIFqwaLmwQXmOta25tC1umDXUW0V5IWGXLR9F1zVfT97H014BMGOF3RpUdMMWtOLx+fYeKsKXECR4DlgNBJ4DPuM8s8+zKPMGcBv+0CMCdhIYAMQBTZrQLyvXaQs7uzyCxwfo/bJyPY184mnaddddRd/wl1/PoIqqLVraXQa+DFsznHR67wmQ9f3Pst+4ZM06tCx5iyUPIgQ9QmaY14bFip986jnhSWAQgp1Y8efR5g1g9+DwEWKSvYQdJtc3bdaMfv1tvVLYdejQUcylU+HZFbITzEXE39z5S7JPNZ+/4CfaXFbNtqdpVMm1xx2S5xcWXBl2RQJ6DCb46usZ1L59Bzr55FNozrzFYvBAIbEq5u+NUQfb14rsB17Qg8MfFnMbEW4GiPoPOJ8OPvgQWrVmI23YhPU1gzdKcV0JO0BIxTULXQMD3Mor62jT5nIxf6/vuf2psqqW1q4vdb6/oTGI/C9mW0zDb7f0nCMEZslaxNpVb+sRv49oU5R2hPj02oILm1GEMADl8y++oVM6nyr6gbDO5NffzhCtbghRQeFRILTG9PDr3PK1gl2/8waIpzIAFqpgh/tgmsBVQ68VZR9VOeA34O/Ou+4RCxVghOnGUixAkJsP/L4+P0ygNza20gC+MH9DTp+/AaYlkUEpKvgl6D5r0LIttCmCMIa8T/7wE7F6xpKlv4oVNA46uBVddMkl9NU3MzPDySu2iHBZYejHLVC6NUyCpwcQuv/Bf4tn18Gzwx9WYMFkbvStYjSmY7kUsqP677Owu7oedi7PK2inTtdZVyqmKWAkKFZvaXLAgfTzr2tp46ZK59+kyPZz8y1u203Q/VPmTTPsEgTHIA2T8qotNHnKJyKMCS8Pgvro408IL+8Pf/gD9ex5plgCrLQ881A4jAjESE2MsINYuL63Ik/bNtqQ0vJCePGBB/8tPDlM9haw692Xjj6mNW3YWCE212XgkEe4DxYPuPqa68Q9VFzT6RrrN5aLgSrrNpTS0Kuvo+132IF69DyDZs9dJPrtnM6N/DsFtpsL1uCNIP/XSxBUjd69waNV7f2VrFtfSq63DaUEo0385uU3Kzw28sprED0Mepj0/hRq06YdrduA+XaVYpFmvH5u1Bg66qijaf/9DxDPgrvs8itoykef0cpV64VQYWIwBhTgHBwf5+9I670l7A5pdahY3QYkOuvsXtT+xA4i7wENFb9dwu6aa68PDXawEdgL/krLq2nsuNfFQ3B3+/vf6flRY0S/3YJFS/WDnaG+qMhrba/hAer+YWsH+hggXA/QkgZw4TllvBXOAx+wVwhMNw0Tq0pmhp0UT/QFIbS1qbSK3p00mQZePEh4e5gbtdfee1P/886nsa+9QQuXLBcr6WDUIP7Qz4dz0wo/N/ms8hjkKTw7wA6NC/wBdljtpLSsmjZsLHffKHWwN1wXA5Suu+5GcQ8Vv2H9hjKRvs2lVVSHJ13UEs2bv4T+df9wOu20buIpEHh+3rx5C2nBwp8IT4NYuGip+F0q7u/nGlZ1hD/zEMGRDYMC4AwOS3VwLCks7gzAePLIB1Sl120hdlXVRG+/+z61bn2cECazeAJcOAZ/GP33yafTaOjV14pH1uyzzz70l7/8RTwC5pJBl9FDD40Qg12QL5VVW8TIQZwnlobaXEkAKTaRbxZp8SNOoZ8j8y6mPfIvCzu0Pijz3Lkup3UVeSwbFkFtEdft1Kkz3XDDzeIefq4nyxcNHvyhAbS5rIqWrfiNxr/+Bp1x5lm07bbb0bbbbUd9+vYT4XPM68TfjO9n05FHHkVLfvpZeHZ+7t9wjo86EpM9MkgNIA0FkIWhWIJWGW/h5EFDpYy/wYB+oLfffY+OaX2s8MicxBNz8rB+I5w4aBQeWQPvDvO+8KgfgA8LR++3//5008230a2330Ujn3iGJk6aTL+t3iAmDeN8iCAAiP4/CKMUySwIOZKQjaYABA/We3YSDHjI6mldu4n+Vafy8mJnuI8d7PJ0AI2WDeW0sb4hBHvAVl1DAsA//DiPRo16ga655no6sGlTat68BR13fFvCw3ufePIZWrxkmbAf2B7SX1ZRK2CHkLka2MVfr7zkvbtjfQDc3EBTCPREQNoGnmavsmT9xjLirUAeaN4gcFOJAJ0Jb74j+uTQ9+ZWPAEmiBQEDn8Qu3kLltB770+hf94zTDz1GnPB8EDXrbbaWixc3LRpMzqlcxcRxsJx02fMEgsGw3OEkCPMJfZ4XZd5CjoGxiBNRsF187tUH2O8f5Svka933Hm3eIxObb0X1L1HT+p1Tm8RGoQnriI9KMPOnbvQzbfcJspT1H304W6qoHKUM8qmNlMmSAeSgjDql199R2PHTaARIx6nPn3OpcMOO1w8XR6Dmw5p1Yowd+6ll8fS9z/MEbaC8zINnIaGJK4/Y+YsOv74NrRs+a/iuip+k+prqLYpva/nAq4+4akVKNeVUqSw27ARsX11G0O6AKQNDRlAZcIbb9PhRxxJm0rx0NQK740c0TdTJkQR14MYQhgRypw7bxG9/c579N/RL9I/hlxJxxzTmvDQzyOPOpoO2L8JYUV/LFWGVn3Xrt3p2utuoDFjXqaJEz+gzz7/SvTxyLCYhKrs/wFosQGWEEwIs6/0G/JDN9sB7G697U466KCDhEeMPOjWvQf16XuuaGBs2ITQsPvyxrHIo83l1VReWUuV1VvEYsy4bpcuXemfd98rYCf/4Zj5C5fQR598TpOnfETjXnud+p83QDy37sCmzcRz+PAw18b77kutWx9L111/A4154SX6dvr34rpIPzx53GejTVpxjxnfz6I2bdvR8p9XisErXn+Ttsdr1CDWG67wxk2A9QDTIAAtQYuRNx3zwL5R4KfCQ4heG/+GGNqO/hWVsIAQQ8hwD4geQAjRwzZn3kJ6ddzrIqw1/KGH6YKBFwmxbNx4X8JDYrfddlv63e9+R7379KVjjztOCGGnUzpT37796PobbqJR/32BPpzyMX36+ZdiEjxG8SHt5XjktsUfPAp5/4qqOpJbeRWezVZLZRU1QmSRB3bQV9cgc2lXm8qF93blVVdTt249sr+qR4/TaeBFF4v3gHxFZZ1oWKBxgQ3wl94X8t38h+9Xr9kgBoXAo5r25bc0c+ZMOrF9Bzq1y2l0++23U/fuPemEE9oL72ynv+5EW2+9NTVpciD17t2X9t13PzrnnL7iMUR4ht3X38ygTZsrRMNDep9ohKDx4UZDkH6k48QTT6Kff1mdHXjj5txwjrGvY7ABP/UscecohnS0oDVA0wUwSyBUvCnIA80bDfCSxo2bIJafQlhqE0KZYaV5U6afR4bG6qNyQovhCZaV1wjQrF23mb75dia98MLL9Nbbk+i+fz1IV/zjSjr11C4inXgo6N/+tqt45h5Gh/7ud7+nAw5oQoOvGEJHH3OMOK5Hz9PpnHP60AUXDhQDarDk1itjx9Onn38lhBVhtVlzFtCcuRgJuJSWLvuVflm5hlav3SjyANAI8offhs3tVeSEcat7wlNCn+itt91GCxcuFnMiL7/8CqqurhFhv4WLltHsOQvphx/niu3Lr6bTCy++Qo888jgNu+8BAiz79TuPzjzrbAIojzvueDHkf5tt/iyedFFSUkJbbbWVgBhW0Nl770biGDxd4c5/3iOeiPHquPH046x5AkRoDCCsKf/Q94YRl2hsIOTsVTfguc+aM188++7nX9eIRkdoNhiWbbu6rjNEZWMqcWA0NwAUgDJ8ONYDcX0plSDkwJv7PPBawXU5HmL8yquvUYsWLbOwiSNtEEqIKKY6wLuC94E/eGPyD6viI22r1myg31ato+UrVtLHn34hvLwRjzxGTzz1DP1jyFWEkaGAHUS9RYsWtOeee9KOO+5IO+y4I+20006088670F//+lfRnwhY4rvddt2N9tmnMTVr1lyMCsRaoYBlv34DqH//AXTxJZfSoEGXicfrXD74HzTkyqFiAja8zFtvvYNuve0OGnbf/fTgQw/TI48+Ts8+918xdwwDMkY8+jg98th/8rZHHxspvKMHh/+b3p88le4d9i+66eZbRSgX18e8xssHXyG8LABJbo0aNaI999pLDP5A2v/4xz/S/221Ff3f//2feI3QMH4XPseG9xg81KxZMzE/D78Fk8dvuulWsUzXyCeeonfefZ8WLl4qYL9m7UYBHJnv2MNOKqvqRBkJ73dzhdAHlEdQnaip3ULjX39TPKwWHmdZebVnYMZhs5Hd0xVIXUYLfF0rF9KRw9gnPN0Ck2GnoBIHFQGn81VVNIgYBhBA5BHKA3BUXVvldSQMIbSYkIwN6YWHIb0nAxcFJHHM2vWb6dff1tJPy36hRUuW08LFy2ju/EX0yWfT6NWx4+mxx5+gfz0wXEDmqqHXCMDAG+zXf4AIoWIgCEY+djipo5j0jEE3zZs3FxPt92m0D+2x55606267iUfVAKA77LCjgMsuu/yNtt9uO9pu221p++23p+22s9q2E9/tttvf6ZprrhOeKjzWvfbaW1y/ZcuD6IgjjqQOHU6ic8/tT5deerkA7qhRY2jo1dfQgAEXiPfo57zvXw/Q008/RxMmvE3Tpn1Dc+cupCU/LaclP60QjYJfV66h9RtKBbCMEJOvEX6sQDgX+Yr8La0SoUknG1T1HdJw//3D6fg2bWnDhlJxf1XXDvM6Ku07smv5gp1fkGYgGQkcPQLRCMLwYLe5nDbqsGkOszArqfHaEBqEvDBopLyihjZjkEoK8gZ9SKVlVUI48bsg5HKDh4I+JYRw3f6hnxHXQ6hp3bpNtGr1elr52xr6+ZdVIpS4bPkvYkj9woU/0bz5i2n+gsU0Z+4CmjtvoXiNz3K2BYtp3oLFYvDHoiXLaOVva2nJ0hW0bAXCqatp1Zr1Ak64Z2V1XRboSK9TssW0DjEFAP2StZmtspbKK2tEXmwuwyCk4N6YShvBb8L0inYntKcNm8oSAzuVeWC8VmTg89tVFQowQwajAwxL0JI2bhCPYt2M+RDf6xAaCZvKhdZjpCSWBAMM0gI7o3jkvPbR0NpUWkGARGl5FZVVZDxKwAMDW7BloIJ1RbFhgEhmEA76shCOxXvLrabhWFwXEBYDZ+qvKwfNAHgoF9S/uOwvzLoPIxw27H6xKgwiC/DI4/qd9vdVXP8S1qAMHcCKAOrHiywJ07j52vo0HCA0o8dkYAexhbDalY+9EIQrwnbp4c/1saMgZQEbvOee++ikkzpmvfEg10vyuWrqmA8wxwRfpRD1CUzvsCvFAIOEb0XovXqBXZJFhNOuLxhhg7fffiedckpnEUpHnyGXV/DyigScEUBSCRAdQFiyGaEb3kLLA10aBhCa/45+QQzdL+TZJU6ANG18cb3K1RbY4G233UGdO58qQunlFdWh1Tu/eR9ZfU1wXnl+PQAAIABJREFUg9s7XC08UIXwdAvJCGBXKfoh0BcR/pZbufwafBrOM1daCM1TzzxHGPlXVbNF9EuZj0nD+zSUnZ6/IXj9hQ1ef/2N1LVrNzFwCJ6dO01IT71WXsc0hqY3KJqAGAIMS9wZm8HQyypFJz468hO7RQJeQ55pcD8Bu6efo5YHHexSaHQTGL3y03O90cAG4k6zf9iloez1qE+BYBsxWN3B0gDJAoAsKcXoM94c80A51GMQPgjNY4+NpMOPOMIl7NIgMIp/Q8QNvLTVS9jglVcOpdNPPwMvCWHMuH5j4DodQx1uaKxEB05fcIwAioVBmA9Bhl2RgB7i8uhj/6EjjzxSLN4cp9DEJXB833gbtrDBIUOuotPPODN22CXBFlwDORLwBgesa3AGhKUdCBl2RQS74Q/9WyythVU0ysqrYmtVJ0FoOI3qwQjCXXrpZXT22ecI2LENqs9jabfxgdI/FAvCMCAES8rKK8n9hpUqdN+8/B41x5aWY4Ksw6YBUKEuDzw4nNq0aStWymehCSA0prJ2X3/U2Fv+/XSvk5n0wQYvuWSQeEYfXiO6EL2e+CuDnPqtQX2WUIt6XxCigbxMb6D0CseS6I0tGRUz3HzxV+HyRS5znZyKaBJiWRkgLvcOu49OPLGDWD4rVbAz/2ZPDTi7smA7VV0HYIPnX3Ah9e17Ll6K5cJU3yOe69nZkPXnOfU1heB0BKJvGLoHoR0EGXbae6pqRBficvfd99JJHTuKNRfjaVWr+S3xCBqnPWi+wwbxQNh+/fqnDHZx24Y1VGXjOElwtQSlZ0Bag7GkvKKKePOZB+VVVG7aggpCGOcDbPi744676JTOnRl2Cho45nLnOlS4DsEG+/TpSwMGnC/sMTF5loA6HoZuZK6ZD1Kd4OkFjgy7ILA3VQIpgOEZnr8WpITdLbfcRqed1pVhFxB2spyz+yA2VETngnBnnXU2XXDBhYmGHcpdtzoebnoSBjwbT5BhVwRiU1H/eOwbb7yJevToKYQGnyWmZV0EZVQMZQHDO/vsXsmDnQ72Z2pYhws31TB3gGWEfZYlaPWr2ioqqimMTVX6rK9TOPySdCGSsLvmmmtFyxqiw7BTWe7q6pC1jaq7fhj10+01M7A7h84/P+PZuT3P6bjw8kulfWh+LQNI9YJoAySzodMAcCxxMiT+zj281VU69RVDwm7o0KupV6/MHCeGnX+AcL1wXy+MeQXY9erVmwYOvBgvQ2kYG+8X5mv39V19fY6l8W0AYrxh3AYAYgCOgKBLAJZA9HhLUB748J4rK2uEuFxxxT/EAAG8wWdhioF212Y7j72ew+569+lDl11+ubDHotUdH3VY1qfCkNUQrgZQRus5NoARUGTYFYEIVuJR2kR0+eWDadCgS8VrfFa0YlMEZa5j2cLwALvLBw8WNqhjGlOVJpdQtQdojOCsB6RKOJZUVlZTsW6pMmwHAZeww5Dv0aNfYKFxyKuwbKJY65jxd8Pwzj23H101dKiwQeN3cb4Oq8wTc10XULQHIroDIoRiAAiWVFZVE282eZCShkBVvWd33nkDaMyYFwMJTdAKHKeohXZvrkOuNETArl8/uvrqqzM2qHO+xVj3g9axyM93gKU9JEMGpAUUQ4ZdDcGrsN9sIKNzJQgzbSFVMAm73r37ZD270IQ/pN+gPL1hlmOs13aqb/F+B8KhwXXDjTfVwy7K9MSsNSHVi8jB5jUq4hmE4UGwxB5EURpiku4Vc6XxIaRV1Zk+u3N696bRYzJhTPbm3ZZjkmxT77RK2N14080xwC6MvHFrQwGPUwRK7cBoA0JrbzA4BEvQ6i/WrVhAX1VdK8Sl5+mnG2AXRuXna9rZVLHWMePvhhGef/4FdMcddwp7NH4X52u7MtPz84DgRGM5ADxjA6YFGL1CsahhF2cFi/Le1fWww+opY+o9O7/3VyEAfu/N5yW7YQrCYamwO++8SyvY6WRXKuqXt2v4gKcHWEYKxwJALEGIizePeZAwb1jC7tRTuwSGnU7CEEtauL741gsQbuDAi+jee4dlYKd7Xmpez71BLUjUxSMQdYKhAYAMO90rnIL0Vddkwph44kHWs1NwXW4keWwkFXmeg3AXXXQx3Xffv5IBOx3KKyLghgPOApCMGIqOsKuuriFdNhZW/8IqYdeh40kMOx0ErEjTAMJdcsklNHz4Qwy7MGwgRDCqhWEBCLrsV/QaIi3RBWZJTUcSICxhd0L79gw7HyKTVNvULd0g3KBBg+jhh0cI2OmWPjfpSUJ9d0yjYiBGBkEXXmAh+JWgP4c3fTxYNxXO6zE19WHMNm3aZGHn9Rp8vNFGuM740QwQ7tJLL6NHH328HnY656OxvON97QgvH40339dTAEo1cHTwDB2gyLCLBPbxVhYJu2OOOaYIYaezoBZX2kC4IUOG0MiRTyQAdkHLJvo67xtiKoAZEITBIVgYgCUIcfEWUx5EAtpaqqmtE+Jy1FFHZ5cL89MyT/Q5bOex1nPYYHV1NfXt25eee+75DOzSUiYR1ePc+qceppHAMgAU/QMxA8IStPqLcSsmwNfWbRHi0qrVoTTmhczamMX0+/m3xtSYM8AMBrhm7To69NBDafzrr6cLdobfGYmtKYNrMGCGDkcfYHQCYtHCLi7AR1IZTJVPwu6QQw5h2BnyJi4bKMb7gm5r166jww8/nF5/fYKAXdLyIY666/ueSoDoD4ahQTAg/Bh2ReDZ1tV7dk2bNqUXXsisjZk0oeH0JjsCA7qtWrWaWrVqRe++OzGRsIvaBn2DztCg83UN36D0DkelYCwAQ4Ydw64ow9hRC1ex388Iu4kTJzHsItQdX8DzAkxfcHQPRlVAZNhFaHRxCR57dsn2iuKyG5X3Bd1++eVXatmyJU2ZMpVhF7Hu6Ae8OGBXi9F6vCnPg4iN2UmYGHY2sGO791b3A9i0EXZTP/qIYRcgL53qusrvQgGkJy/QHRDden4ltbW1lOZNOcQSKJAYi1lXV0fNmjWjV8eOzQhNAn8Hl2VyG6UwuuUrVggb/GLaNLZBu/qXAAiagRofFAvD0AhCn7Cro9panTY9ga2LOAN2tfWwGztuHAuNQWjS3NBT9dtU2DGMbtny5YRBUtO+/JJt0GCDvvI3AVBUCkFXHqEz/Er0gpZOAFWRFj0gDGWprKwUreoJEzLDvlUJYbTXUVEmfI046jxs8KefltIBBxxA06dPF7CLIx3W99SjnqIu+QKf1/M0AqUSIBYEYQaCDDutPNRwhBjKUl5eIWD35ptvaiY04fxma1Hje8WVLzC6JUt+ov3335++//57tsGs7qgFbSiwjBGOgWFoACHDLmt06RVCKMumTZupefPm9M47mTlOcYke3ze9duZUtrDBRYsWU+PGjWnOnDkMO8+6owaKymCYQAAy7DwbXfLECsqyfv0GAbtJk95noSmCMncCTxzfwegWLFhIjRo1ovnzF7ANxmaD7qGpBIwRQ9HJE2TYxWZ00UETyrJmzVoBuw8+mMxCUwRlHgfQnO4Jo5s3bz7ttddetHjxErZBLW3QGYSB4Rch+KygV4JRerz5zAMtDTYfolCWlSt/E7CbOjUzoddJmIryu7DrQUJsJayyhw3OmTOX9thjD1q+fAXDLnH2YA/CJEAQ8CvB/CvevOWBto0DmwoEZcHqFeiz+/jjj90JTdjin8Dru6knWtqGjV2EBTar68LoZs+eTbvvvjv9/PMv7mxQg3Rb/Rb+LL9BnZsnuWAMBEOF3iDDLibYRymKUJaly5ZRixYt6PMvvsgITQJh45RnbkCU5GOcfruW35lABaP74YcfaNddd6XVa9a4g13KbDSvnEx5lAuMQkBJ2vcNAAwEP0yz8AlAhl1MsItSeAXsli4VsJtWv3pFlPfne3mLHKQxv4ywWyNhVwBmacwH+ZvywFcgL/KOTyUoM0D0BUMXAGTYFQnsFixYIBbh/fbbb0WrWlY63jOIorABK9hFcd803iMPfIVAmRow+ph0b4Agw65IYDd//nwBu++++45hVwRlrpvIS9jttttuJD073dKY9PQUGwQ9eYA8QKU4WvUQmlmzZgnYod8Ef0mv2Jz+ZNmuhN3ee+9N69evZxuMsMHlGoKJ9QDdeXwlePwLb1Z5kCwxcRJ/KMuPP/4oYIc9/pyO5+/SU/a6lCVsDg0tTCpn2OljX2kGYU1tXc5aoww7JbDXx3itxA1C89lnn9Fpp50mFoTesgVw1zvNzumzapzo+FmS81ht2mGDWBMTC0Fv3LgRbxNug2rzx9neo72XKwAmyAvMQK8O8+x0FIliTVM4Rg1hwfy6M888U4jMli0QmmLNY91+dzhlrpN4Ii34A+yaNGnCsEtoQ9MVBDFYRlMQMuyKQPQhNB9+OIW6d+/OsEtceacDhjC8mTNnilD6pk2bhB3qBmROjz9bcw3BmEHIsEuc+Hn3TKAsWBOzW7duDLtUlLc/UYpTzCXsDj74YNq8eTPDLqHenRsb8gS/CAFYgv4b3qzzoA59W2FtEYoulGXixEnUpUsXvWEXVl4n7bqBbUM/GMLwZsyYQYcffjiVlpZqDDvvjcngXQL6lZcbqPk5Jk4QMuw0hL1qwEJZ3nn3XercuXMGdhgcECIAuPFk3XgKki+ByssTPMMRXgm7o446isrKyhTDziegQqwD2fLylPdufkc45eMHXCrO8QS/gH2BDLsigd1bb71FnTp1Ch12QQSdz7WHZFY8/Qi0Z8FVL6gwvOkzZlDr1q2pvLw8ftj5yUc/53jO++IDnoRm2OBj2GkIO9WiD2WZMGECnXTSSUJk8E/1Pfh69qBKUt4EgqoDDGBzgF2btm2porJS2GFY98J1dc9zz7/dFTTVN1IkiOLcu4ZgAc+PYZeAihG04kJZxo8fTx06dBAig39Br8nn6y+oOpURbA59du3bt6eqqiphhzqlL0lpcQRlHhSLGIAm+DHsigR2r776Kp1wwgkMuyIobx2FG4Y3ffp0Ovnkk6m6upphp9AOLeGXA710Ak96mwU9v3roMewUGp2OIoM04e+VV16hdu3aidf4p2taOV3p9Bhhc4Ad+o0ZdtGVcR4IBQTTDT9A0AqADLsigd2YMWPouOOOY9gVQXnr2GCA4SGM2bVrV6qtrRV2qGM6056mLPyKEHoMuyIQPyjL6NGj6dhjj2XYFUF56yjYMLwvvviCYaeZ/Qn4pXiCuzHUybDTzPjCECoIzbPPPkuY4yT/wrgPXzO68FTS8hp2d//994vFyNkG9bQTCYa07hl2DDvuvysCG4gbjgDcPffcw7DT2NbSCjn5uxh2GhufKoGC0DzxxBN02GGHyUY1A64Iyl2V/ai4Dgzv9ttvp549e7INam57aQ1tMuw0NzxVQjNy5Eg69NBDWWiKoLxV2Izqa8DwbrvtNjr99NPZBhNig9IjSsueYZcQwwsiPlAXhp2e/SRByjVJ58IGr7/+eurVqxfDLkGak1nkOh1TFRh2CTI8v+IGdUEYs1WrViw0RVDefu0kzPNgeNdeey317t2bbTCBNpgG745hl0DD8ypKUJdHHnmEjj76aBaaIihvr/YRxfEwvCFDhlC/fv3YBhNqg0kHHsMuoYbnRaCgLv/+9795nl0RlLUXu4jyWNjg4MGD6bzzzmPYJdgOkww8hl2CDc+tWEFdHnjgAWrbti0LTRGUt1u7iPI4GN6gQYPoggsuYBtMuA0mFXgMu4QbnhvBgroMGzaMn3pQBGXtxh7iOAY2eOGFF9LFF1/MsEu4HTLsEl6AcQhAVPeEumBCL1acl39R3Zvvw6NAYQP4GzBggPDu2AbTYRNJgx57dimHtBSWO+64g1evSHlZ69ywgB326dNH9NtJm9Q5vZw2d0BOEvAYdikXQCksmNDbrVs3+ZZXUEl5uesm1jC8c845h6644gq2wZTZXlKAx7BLmeGZRU4qCyb0nnnmmfItwy7l5W62g7jfw/CwVNjQoUOFDcadHr6/O8/NTT4x7FhMtACKpNt1111HZ511lnyrRdrcVCQ+Rp0oxZmXMLwePXrQ1VdfzbBLoTYmAXjs2aXQ8IyiJul25ZVX8oTelJe1sdx1ew07POWUU+iGG25g2KXUDnUHHsMupYYnxY5hlw7PSJZnUvcMu/TbIcMu5TDRXXwk7C699FK66KKL5FsOY7JdRmoDDLv0ww5aqDPw2LNLuehJumH1Cp7QWxyCo2MDjGFXHLbHsEs5UHQUF5kmCTss08TDvotDcGTZ67SHHXbp0kU80w6vdUobp0VtvdAVeOzZpRzEEnZYveKyyy6Tb1lsUl7uugk4DO+0004jLG6AP93Sx+lRBzyGHYtLLBVc0q1v3770zDPPsNCwHcZmh1jU4O6772YbTLkNMuxSXsC6tgwl7LB6xeTJk1lo2A5jg1337t3FguQwQl3rC6cruIfHsGORiaWCS9hh9ZSJEycy7NgOY7NDrKBy//33sw0WgQ3qCDzus0u54UnYYfUKhl3wViu3/P3lIezwjDPOoIceeohhl3LNQR1h2BVBIesmhhJ2Xbt2Zdix/cXi1aFO4A/RhREjRjDsisAOGXZFUMi6wq5Tp040adIkFhq2wViAB8M7++yz6fHHH2cbLAIbZNgVQSHrCruOHTsy7Nj+YgGd9Ox69epFI0eOZNgVgR0y7IqgkHWFXbt27Rh2bH+xwg4Pb+XpL/76PHXTFaf06Ag6pIkHqKRcAEUzmojatm3LsEt5WTsJUNzfwQ4Bu2effZY9u5TbIcMu5QUct5jY3V/C7uijj2bYsQ3G6tn169ePxowZw7BLuR0y7FJewHawiftzhl36w0Zx25ib+8MOGXbFYYsMO4ZdLK1qCbtDDjmE3nvvPW5Vsx3GZofnn38+vfrqq2yDKbdBhl3KC9hN6zaOYyTsDj74YIYd22AsoIPd42/gwIEMu5TboK6gQ7p4gErKjQ8iA7Fp2rQpwy7lZR1HY8rtPauqqsSk8gkTJgjwuT2Pj0tO6FNX0NXW1RE2hl3KBVDCrkmTJgy7lJe1rmCADf7yyy+E6MLUqVMZdim1Qx1hJ0HHsEup0RlFD8oCI2zcuDHDrgjK21j2uryGDa5YsYJatmxJH330EcMuhXaoI+iQJoZdCo3NTtgk7Pbaay+GXRGVu509xPE5bHDZsmV00EEH0RdffMGwS5kdJgF07NmlzOishEzCbu+992bYFUF5W9lA3J/BBpcsWULNmzenadOmMexSZoc6ws7o0YnXtdxnF9votKgECMqCezHsktPRH5VtRHUf2OCiRYuoWbNmNH36dIZdimCXFNDVMuzSL4BQlurqamrUqBF98MEHLDQpEpqoYBX0PhJ28OxmzJjBNpgiG9QNdlYeHUDHsEuR0dkJEpSlrKyM9tlnHx4JVwTlbWcHcX4OG5w3b56Y/jJnzhyGXUrsMEmgY9ilxOichAzKsnnzZgE7HgmXfk/eyRbi+g42OHfuXDrwwAPFHu/jSgvfN3gd0A1ySE+eR4fP6j06ued5dikHHoRl7dq1tO+++9Jnn32Gtyw0KS9z3QQdNjdr1iw64IADaPHixWyDCbc/3WCXBzoT5Bh2CTc4t4IGZVmzZo2A3eeff85CUyTl7tY+ojgORvfDDz/Q/vvvTz/99BPbYIJtUHvQWXh0DLsEG5wXgYKyYPUKCM3XX3/NQlMk5e7FRsI+FkaHgSmILmByOf7CvidfP3i40pyH2oPOxqNj2BWJ6EFYGHbqK75ZCPi9fR7DBr/77juxis/KlSsZdgnUnqSDDsDjPrsEGp4XYYWyYEIv1sbkOU72guwlT/lYb/kIG/zmm2/EIKnVq1cz7BKoOVrDroBHx55dAg3Oj8hCWTAoALDjOU7eRNpPfvM5+XkMG/zyyy/FXM8NGzYw7BKkPbpBDulxOyBFQk7u2bNLkOH5EVIoC4Z94xE/GBGHPz/X4XPyRZzzxF2ewOawTBhW8dm0aRPbYEI0RzfQ5UHOYTCKBJxxz7BLiOH5FVYoy+zZswXssMef32vxee7EnfMpN59gc59++intscceVFlZyTaYEM3RCXZBQQfoMewSYnh+BRTKMnPmTLEIL1axwJ/fa/F5uSLO+eEuP2BzDDt3eRW3TekEOJkWFaBj2KUcdKg4+MNIuBYtWtCCBQvE+7grFN8/GcKnqpwYdskobwkXnfaqQFfDnl0yjDCI6EBovvrqK/HgTF69Iv3lHcRWwjpXwm7PPffkMKamDWydACfTohJ0NbW1HMYMq4Lrcl0IDQYHYMV5TEHAny5p43QUB3xhc5988gntt99+4gkcbIN6lbuEi277PNi5nGJgHJSC1wAdw07TVpZKCEBYpkyZQu3atRNrZLLQ6CU0Ksta12tJ2GEVHzxuim1QHxvUDXAyPapBx7ArEti9+eab1L9/fxaZIihvHYEnYYd+45qaGrZDDexQQkXHvTrQNXh1DDsNjC5scYKyvPHGG9S7d28WmSIo77Dtyc/1JexatmzJsNPABnUEHNKUBzmP8+iM4UsMSJHhS7nnqQcaGJ8fAXF7DoRm3Lhx1KtXL4ZdysvarU1EfRwM7+OPP6bDDjuMamtr2Q5jtENdQWcJO999dPmgY88uRqOLSnCgLGPHjqWzzz6bRaYIyjsqu/JyHwm7I444giBq+PNyPh8bvI8vUZCTXp5v2GUGpEiPrqamlrCxZ5dyAYSwvPjii3TGGWewyKS8rHWFAgwPnl3r1q0F5Bh2weHlpawTBzrfkLPw6OpBx7ArAvFj2EUrLF5EqFiOlbA7/vjjGXYRa47OoEPa8vrpQgIdwy5iw4tD3CA0zz//PHXv3h0vOXxUBGUeh5053VPCDtNfcBzbYfgNMN0hJ9OXAzuVoMPcOoNXx7ArAuGDsDz33HMMuyIoayfgxPkdbPCjjz6ik046SYCOYRcu7CRIdN7nQC7AqEvjpPFsH50F6Bh2RSCAEJYnn3ySTjvtNCE0cYoe3ztckdM1f2F4gN3JJ58sbBD/dE1r0tOlM+CQtjzIRQQ6hl2RwO6JJ56gLl26MOyKoLx1FGsY3tSpU7MNLoad2kaP7oAzpi8Pdj5DlxmPznlACocxi0zwICyPPvoonXLKKQy7Iit7XcAnYde1a1dhg/inS9qSng4jSHR+nQc56eX5hF1OyNImbMmwKzLBg7CMGDGCOnXqJIQm6ZWb06/WK4giP2F4mHpw5plnChvEvyjum+Z76Aw2c9rUg86bRyehx/PsUg4/CMvw4cOpY8eOQmjSLAD82/QEIQzv/fffZ9gp0hozTHR+bwk6396cBeRcenXVPKlcT3FQKdoQmvvvv586dOjAsFMkNirLpxiuBcO7+eabs+uz4n0x/G7Vv1FnqNmlLQ92qkHnAnYAHcOuCMQPwjJs2DBq3749w64Iylu1wKq4Hgzv2muvZdgFsD87mOj8eR7oAoy8zOujcwE5hC8l6Bh2AYxPhQhEcQ0IzV133SWeZ4fXUdyT75H+iIGXMobdDRkyhM477zy8FH9ezi/2Y3UGml3a8kDn06PzM+pS9tEx7IoAcEZxgLL885//ZNgVWbkbbSDu17DBf/zjHzRgwIAM6bjR5arRaQcS3T8PHXQ+vDr27IpAABl27GXpALtLLrmELr74YoadS83RHWh26dMVdAw7l4YXt1gEuT/UBWFM7rNj6AWxoyDnwgYvuugiGjRoEMPOQXPsAJKEz/MgF6B/TmXokvvsHAwuSKXW8Vyoy6233kqdO3cWQqNjGjlN6QYxDA8hzMGDBzPsbLQnCUCzS6MuoDOCLe91NT/PzlXsPMliDHW55ZZb6NRTT2XY2QhNkss3CWmH4Z177rlikIqkXRLSHXYa7eCRpM/Vg8704FWf/XNZ2FXXUnX9xpPKUyyAUliuu+466tGjB8MuxWUdtjAHuT4M75xzzqGhQ4dKk0x9I9NNfiUJanZpzYOdBqMus6DD1AOGXbrDRrKiSWXBHKeePXsy7Bh2sUAGhoelwtDokn/SRotxbweOpHyeB7iA61yijy7TT6fYq8uBXQ2xZ5diAZTCcuWVV2Yn9BajuPBvjrdxBztEY+uGG26QJhkLdHWwg6QAzSmdebAL4M3ZDkYJGr7Mgq6GqqszG8OuCGCHCb19+/YVQqNDhec0xAufqPMfhodHTGGglPyLOg1x388JHkn5Lg9yCjy6mtpg613mhCzliimG0KUEHfYMuyKA3WWXXUbnn38+wy7FZR23mDvdH4aH0cC33367ZF3ReHZJAVmhdFqCTmuPDv11DV4dwy7l4ieVBfObBg4cyLBLeXk7ASeu76QNnnjiiXTPPfcUjQ0WgkeSvs8DXUDI2YYua2rJuNSX02tLjy4buswHXRV7dukOJ0mhAeguvfTSohGauISd75tfn6QNYlGDe++9N/U2mCSIFUprHuRiDltK+FmCziZ0CY8OoGPYpbylL4UGIUw5oZcFOV+QOU/CyxNpg61bt6YHH3yQYVdXR4Ugo8v3lrAL6NVZPr1A2WAUOdWgIXwpQcewKxLY9e/fnzAiE38s7OEJO+dtft4WA+x0gZOqdIQBuaChS0tvrsCAFKNXx7ArEtj16dMnO8eJBTlfkDlPwsuTNMNOFVx0uY4l5BSELm3n0Cn16Bq8OTPkpHfHozFTDDwpNFi94sYbbxRvWdjDE3bO2/y8lTaYpjCmLnBSnQ5L2AUOW9pMLQgRdAy7FEPNTmSl0JxxxhlifUy8tzuWP88Xas6T4HkibfD444+nESNGiLdJzFfVYNHpepaQg0cXEHS2Hp3LUZfuQpe5Hp0d6DiMmXIASqEB7B544IHECk0SxZHTnAGltME2bdrQo48+mkgb1AlMqtNiCTolkLPx6EIEnQxXWu6reFJ5qj0dKTRYqunLL79MpNAwNIJ7V3HmobTBdu3a0ciRIxNjg6qhotP1LAGnyJOz9eZchi0xvcCPR2cJODntoKqGqhh2yRaSQiImhQZPPGDYpbusC9lCXN9LG8Q8uyeffFKSQMulAAAf20lEQVR72OkEpTDSEibogiz95R5y1hPGbWFXDzqGXRGEMSFyeJYdw45hFwfwJOw6dOhAzzzzjNawCwMuOl0zFtAp9+gYdqkOR/oVKSgLzsW6hAw7hp1fOwpynoTdySefTKNGjdISdjoBKYy02EJOUejS1qNTDjr3g1GEp2fw6tizKwLPrra2lrAu4VdffaWl0AQRUj5Xf4BL2HXq1IlGjx6tlQ2GARbdrmkLOgWDUDL9c8EGorgPXwYDHcOuSGCH/hKGnf5gSCO8JewQSn/ppZe0gJ1uQAojPbFBzoM3FyXoKnmASroFEMpSU1NDxx13HMMu5Q0bXUEpYYfn2b388suxwC4MmOh8zfBBZ/FEcUBOQ9ABcnLjFVRSLIJQlurqasLqFezZpbthozvsunXrRq+99lqksNMZSKrTZgs4Rf1yqkKW7r05/wNRELKUmwQde3YpBh3ED39VVVV0xBFH0Ndffx2p0OgqvpyuaKEvjI6IunfvTuPHj4/EBlWDROfrOUIuCtCF4s2pBx3DrghgV1lZSYceeijDLuVlrSvEJeywis/bb78dCux0hlFYaXOEnKLBJ/DmVEwSD82bw6RxgxdnfG306ORrDmOmWAShLBUVFXTQQQcx7FJczrqCDumSf2HALiyQ6H7dqECXmVIQ8mhLh6eLO61zmZ1EbgE7CbfcfTUx7FIsghCa8vJyatasGX3zzTdCd3QWRk5btCHGKPJbwq5Xr1703nvvKbFB3WEUVvqiglxkHl0O6NSELuHd5UIO76vFxrBLOezKysqoSZMmDLsUl3MU0PJ7Dwm73r17+4ZdWPDQ/bqOcFPYHyfhlglZ2nhyHvvmCoYus6DLnz+n2qNj2BWB+EFoSktLqXHjxgy7Iihvv0AK8zzY4IoVK+joo492tYqP7gCKIn3aQc4j6Nwt5AxPzqM3Z9NHl+/JSe8u49EJ2FVyGDPVy4xJ2DVq1Ihhx7CLxdZhg/PmzaMWLVrQd999h7eW6YgCIrrfIz7IRe3NqQOdddiyIXQpQVfJsEtfH4mxlQ5h2bRpE+2222707bff2gqN8Rx+nW6biLp8YXRz586lli1b0syZM4UN6g6dqNIXB9xkyNJx8Ak8OQ/enKMnlw1XWgPOVcjSxqPzAjqGXcpb+ww7BlfUcDPer65+NOasWbOEZ/fjjz8y7NDX5mZTPH3ANeRcPlwVfXJyc4SdCFUGAJ3FaEtXkMOglMrcjQeopBh4DDuGnRE+Yb4G2LJbXR1J7wg2+P333wvYwcPDn/yuGPdxgk71ABT3g1CsYZedPiAfsmre24COYZdiaPkVKYYdw86P7WShZQSY8XXdFqoTWwPU7MAFG5w+fTo1b96cFi5cWFSwixtsYXlzjp4cwpY5oUufoy1tQpfWg1EMA1EsPLqKymrCxp5diiEJZVm9ejXtscce2f4SP+LH5+gJzYJQMgLK6nUWWhJecl8YYnZwM38OG0R/MeZ6Ll68ONWwcwW3kKYMSLAZ9yr75VyFLHMgB28uH3QFvTlPkLMeiGIMX0rQMex8gC6wwFiJjsLPjGCCsqxatYr23HNPEUrCe+P3/DpeiIViS7YAkyCTe3VAMwPO+B42hwcHN23alJYvX5462LkGXOSQU/NkAn+Q8wk6m7CltTfnDXRFBztf4uJaPKSI6LOHsixfvoL23rsR/fjjrIzQhATWJIPTl13Y5aNye4kGSkZAqXwNo5s2bZqA3c8//5xo2OkINunJheHF+QOdD2/OBnJ+++aM3pzxderCmJ6ES7kw6QM69Kngb+nSZdSo0T40a9bseqHxmUY7cU/r58psI9mwCgo+GN0nn3xCBx54oIgy4H3Qa0Z5vifARei9SchhL6YJyOkCVnvDyEkJMDf7gn1zBUZauppWYAM6a2/OuW9Ohi+NgDO+TgzsCkJMmTgVgkFyxAvCsnDhImrceF8x16lBaAr9xmL/PjllHKXw+7kXbO7jjz8WsEP/cYMN6pXHSYCaFoBT1S9n0zen2pvTBnbxAkyvyuZHSAqdA2HB6hX77bcfzZ8/XzOhUQ3U9JdnofLW8XsY3eTJk8X6rFjgAH9xpNMzzORcuJDmuxnB5eZ1Qe/NwyRwK6/Omxfns0/OAXB+IQdvzgg0p9exenbxwa44hBHCggm9+++/v6bDvlUBrzjKMw5IBL2nDrDzDbqYwpJW8NMLdvn9ckFClgCdNeyChS3N4FMOu4IAQx9PKCFHFjyzMEFosEQTnnqQ9mHf5t/O7/WoD7DBSZMmiQYXHiSMP5VlEwhkGsHMDLiw4Sa9O28enU/IOXh01n1zppGWFnPnvHh0FRXVhM017BhieoiHF6GAsGDxXQwOWLJkiXKh8ZIWPjZ59qOizGB0EydOFLCrqqpybYOBIaYxyHLBVku1VoNK7D7zOdjENdzy+uQChCw9Q87kyQWFHEKc9aCzhV1BsLFnprR1qkJUrK4BZcGwb6xesWzZMtdCY3Ut/qw4YRW03GF0b775pug3xvQU/MlrFg/Q6sgMOFeemxF4mkDOVbgSkLMBXSSenAlyAF05PLss2EIBGEKWLBJx5QGE5fPPPxfrEqZxQm9c+cr3za3TTtCCDU6YMEHADq+Bu+zxmgz+yAWRGUx+32c8Nk9em4RbQLDBiysYnjQek51CYB2mDAo46/44hCotwpUW3py5763ge4M3V15RRXIr8d5/lmvoXPH1zQ+Iy9SpU+nggw+mX3/9FW+58cGNL2EDWeDIUYde9y5BBZvLgd0WMnk5fmES93kNMAPQjJsnr00B2DyFKPPClPaAUwE5a9CFG66UnpyEnNxbwE5f8U4aWIMKStDfC6GZMmWKgN1Khl3qQB/UvizPdwkxt96QhN2+++6Ll4RIpttz9TkuF2ZGsMXluUnA6ejF2Y+utPDkTI/hKTQx3NKrM3hyGdA1eHMSdNiXBBXUJJ5vWcm9tmztjlcsFjkV3u6eNp9DXCZOmkStWrWiVasyE3r9/vYklrPKNPvNNyXnhWlTIV9bwg6DpPSCnTPAAgMNIUmFXpvxWqpDlPDgwvPiLABnEar0NLpSzq0zQM4INbvXqYNdIHEJueLngCuCe0Fc3n13Ih122GENsDPe1waSgfKw2K9pzF9+LQCHMGaLFi0ihp03mJnh5stjU9jnZoSbf+/NeiSlhJvc+30SgfTgrEOV7iEXBegS69l5FuMiFR2oywsvvED9+vWv71MIqZ8jDYArUhsJuwEGGwTs0G+MP/9hzODwsgKa/MxTP5uEmtzr4MHl9MU598N5gpzNqEp70Fn0x8GTC8GbqzAMPrHz5oyfx+rZeYIWi5Hnvg6Iy/PPP08XX3yJEJqwhY2v77cxEa6QS0GPYw/De/311+nwww8XNojpB1GmIxDEQoZZcO/NHdQ8w60A4PKnD3gDnGdPzhCuBOC8Qk4CTynsXMNLG3ClV2QgKPh77rnn6LLLLhOvoxSZzL38in8Y56W7rKMvW3f5CcMD7I488khhg35hpwRaEl7GfUhemRlk8r2n/rac6QHewAbAuQpPyuNsnj4gPbhcwDnATZUHlzNXznrAiYRYwX15FZWV+xigoj/Q3FVCXcVBZbqgLuPGjaNGjRplpx6ovD5fi22tkA1I2B133HE5sAsNXkaQ4XXEMDPfzxfcLJ7wLb0zN/twIOcdcJ49uBzAYfUTNZAD6ATsCsIrFi8sHSLitUIXEg6v30NdsEwYQkjTp0/PERuv1+Lji9Mmvdqw+XgY3fjXX6c2bdoI+8MiFuZjct7HDCczrNy89w60Gqqu8e6pmUGnEmq5HlwBsDn0wfkDXCY0GSREKby78ioqrwebBJxxXxJ9P4ueopFT4cytw4S+F0Pvt9TRNddcQ3/5y1/o+VGjhODgH75jgMVvi6mwOwdAwdbef/8DMSI4Y3dbYve23ADM7hjfYFMAN8+hyQJ9b7ECrjIXcIG8uAKQk8Arqa1Fh7HcwugrqaO6WuNWS3W1+Zul8NbVUq2bzbSCgeW1ChyTCtGxgHL9coR02WWX08477UwPP/xw9gkIEB/h2QvvPUbhd1PGXo4pUNZ+7COsc1Jhdzawk7Y3ePBgatOmLcxNPPHEDiR+P6+tqSWnzfq6dVRT47DZPAFcBexqqmvIuJk9Ntv3NTVUJTfZ12a5r6UquQRYVa14fI4Em9U+u2xXdTVVyk16b/X7qqpqwgbPzWprmOxdQxWVNVRRha06s9XPi5PnZY71ALvKKirHVj84JQ+M5dVUXl5NZWLLhCwl4Ix70woq8a2eUjCc6jS8PZZQazgNgzA8baEy9f13BxxwAP35z3+myy8fTAsWLJBfZYUojPsXvKZT2fr5ju3B88jdgmXkMU+lYT399DNUUlJCH3/8ifhI9X3cXK9GgKuOvO9r80OuNmC3Bqq7PkPvAMX8Ofebp3CnhKfNgJXcgSqYS+e01YdDTYBsAKP7B6+KcwyjMrGws/Vm38+ndDSm1YoVDDE9oCjF57ffVtGjjz5KWL5pu+22p6uuuorGjHmBVq78TR4i9mLNVOHx65F+N6LGx8RbVrAZ+Ye1WDG/83//93/p7n/enbWpMMpICcSMUZEQgCZh6AtsclSmK8Bl+gJVAg7eoDPU5PeGvj4T4Hz15ZlWSrGGG6BnDzjjd65g5wlYHluAYRg/X9Ne9KQYlZeX0+jRo+nkk0+m7bbbTvTptW/fntASnzVrtjwsZ8/5ap+vxZw3RiNZuHAhPfHEk7TLLn+jv//978LG8H3BgSlG2AR9HSKsJLSs9oFAljMp3Mprsx7Q4hlqNh6bDG+qgJpvsBk8t4bFnKUH5w5oRriJ14YBKyVZkGkLKfd9Sano/wha0V2ebxQoPMV89JgxdMopp9DOO+9Me++9N/Xp04f69+8v5khhJCf6rKz+/OZ5WH1guK7fNPF57vLObAfw4jDislOnTrTNNtvQrrvuSjfddBOtW79eHAqPzwoOun8WHryswWXuq/MMsgIhSAk0d56awUtz6KvzDTbTNIOM1+YTaPDsXAxSiXg0Zozgiqm1p3uFhkdi/Fu9ejVNnTqFHn54BDVt2pT+9re/0VZbbUXNmjWjrl27ihDo3LlzacHCBVRRWWk8NfsawSwGh7v+Gp3tw2wbsoBXr15DM2fOpAceeIAuuOACOuCAJrTDDjsI2L300ku0fv0Geai2kAsMMhlatPTI3MEsSrg5A84ENjk4xSIUqQpuTk8nyPPO7MKULgCXM0BFVQs7kLgxiLQQBStxW7duPU2Y8Abde+8w6ty5MzVu3FhMUv/DH/5AWMm+e/ceNGjQINHvN2/efFqxYoUYcZdVO4sXcn1EnYW+mNJm7GszF9fGjZto6dKl9N1339Gdd95J3bp1F57bn7f5M+2yyy7Uo0dPevrpp2n58hU5p2ZGOnoHvlIIGYHk9Fr0hfkDlBlY5ve+vTN4aQVCjlbfN4QhbQAmQWbc20DNN9hEONL/sl55sPMItQbAVVJZecNW4mpovxz2nTeku6EPw20nsWXfRk0d1brdlIRbMx5mIEAnNFzmqnGDody1dWLR3hwFI6LS0lKaO3cePf/8KLr55pvpwgsuJIzw3HHHHUW/H0Z6nn76GTTwwoF0ySWD6I477qCXX36Fliz5idasWUMQTyuomu+D94AihFjYDOxDSdmruo77KIWrPM+rW/bXd2W3aEBiik/dFtFf1jB0xCqnidCHu3btWvpx1ix66qmn6IorrqCePXuKhg1CkwDbPvvsQ2eddRYNGzaMvvr6ayotK825WC3ClQHrRXVtLWU3J0A5fOe5oVJdmzMVwDgtIPu6poZqMFdObO6fBF5VU0s5W7VhWkChASdVNVRdv+WATYYrLfaV1TWU2TLTCOSUgYZ9LkQFHCtrqFJupsEomSkEcgAK9oWmHmDlk8zqJ2KKgJw2IPYOoy8N/XV5A1GyUwuqqKwis+UB0dL7awAdoNfQZ+dmiLdWYhNEtBh23gXYGn5Qu/LyCvpt1SqaPXu2aOVjEvt5AwZQm7ZthRcAL3CnnXaiv+70VzFo4aijjqILLxxIo0aNEmt3Pvvss/TJJ5/SihU/U1lZOVVUVApPN0dJbd5AxHM2IyBDtVd7GHnP2wLXkk9X37KFsLYkBnvgN2OPrdAfjqmsQr9GOf26ciVN/vBDevw/j9Ott91GQ4YMoU6ndBIh6z322F2EI7fffns6pFUr0Wd7ww030NixY2npsmW0afPmvFvh2kEBZ3u+hhGfwJ5nIcDlfN/gbfr2EAt4hw2eoBFoTq9dwE6OovSyd4JddpqB9z69Bi+virTps7M1eD8tRQ0riefWZkJ+QyEvDf07Cxctotmz59Abb75Jd9x5J/Xvfx5169ZNjATFup2A4Z/+9CcBxN12241232N3Ib4nnHACnX/BBfTY44/Tq6+Opccff1wMpHnn3Xfp8y++EN4i7AZ6b9T8wvKfp9mZyfVuGnw4BhD1cKxTmDA/Je4+we9FGgAbhJq/mz6d3nzrLdF4wMIB/7r/fgKo0M8KD7tDhw6i4bHzLjvTH//4RwLQ8Iy5Ll260FlnnkXXXnstTZ06lX78cRYtW7ZcPMzTKiX4LUm05cCQMnuSOVAyj55sgJQ5rGl87xtgHkOchYFmCnmqDmuaBqPkjrT0DrAcr84w2tIINqvXJV5aoYGBlBABT2Jl1jHNW3LHvuRpJ6Dxyy+/0rx58+jbb7+jL7/8kt555x164IEH6dJLL6MePXpQu7bt6Mwzz6LOp3SmHXfYUYz2+/3vfy8AucMOO4rQGvoRMW8Qg2hOPPFEGj58uPAwn3rqaXryyaeyG6ZVjHp+FL304ks0btxr9Nabb9EHH0ymRYsW56VN5Qf4naWlZeIBukuXLhNh4BkzZtJXX31Nn3/+BU2e/CG9/fY7YuTruLHj6IUXXqTnnnteTAN5ZMQjdN1114k5a6eeeiq1a9eODj30UNp33/3oyiuvpNatWwuIIdS49dZbi2kke+65p1gPFceiwXD33ffQs88+J647bdqXYp1UhJUR2nL6U2FTyiFjho6X91lAuYOREUxOrwNByxiKLOCFGUOZzgAzwcvYP2cThkT/XLA+Ohm+VLCAswxJ+u6rk6uomMKYvgCWIGhpVdm8VMwYjlUhbl6uYfTGnEQX3wEWGAQxZ85cAYmPPvqYJk16j95551166aWXhSczZMiVNHDgQBo5ciS1bn0sHXbY4dSqVSs6+JBD6KCDDxajBnfffXfRv4i+RXiU//M//0OASNu27cT6jTj+EBx/0MHUsmVL4f00b96CMltzOuigg4SX1Lx5c3KznXBCezr33H601157CShhjdJtt91OeLK4P8CdgXcG4Egf4I05as1btKBDWh1Chx1+GB177LHUsWNH4REjRHzttdfRq2PH0ltvv03vTpxIH344hb786itasHARrTOMhnTKV3jA5vKKtr7IPrAC+4BPAXACldvv4gBaPtwKQMwMtQJg8w23rKemcBCKy+kD+R5bLtCMA1KMr0vL0GcXar+GmyV63M3tyUI5QaA1Cwm/dzk6z2J5JyfRdvsdBlAg5AevBhPnv/nmW/rwww/FHiNOX3nlFcLQeXhWWFUGk+7/+9//0qhRchsl3o8dO070N6LPsdCG8OsHkyfT6NFjxLXxfvz48fTWW2/Ru+9OpPfee08spQUvb8aMGbR48RJatXp1do6a299mPk6EG+sHvaS97oQO6KxHaA5XOr3P9R6jhKWz12fVH1cPUZvwpe/lvbJQbPD68gafiP44/6HMfPhJry5/X5KtCF76xhIEnNArQgweWBi/KQ0gzjbc6keTZt/XN+i8eJJmeMTxPjO60abBKBYxdj8qMAybieyaBWGTCxa33prb45SBymNfGzw7d+Aq4PHZQCy4Z2eGmH9omfvhnB7V4wVwRu+OYZcSWKkQnjQAL4m/QUXZpfoaMcJOKeg8wi4poGsYcKIAdvX9dGpglxviLHE7P66gB6ipt5dqEVAM6iSCIg1pZhv14aEWBKBTiNHtdw0eo3LohQI+O08wxDClq1BlQAh6GHHp5PWV6CQWsVT6SCqN28ql6DjFEIylXPg3UOj5roXtNwDFbVgx6HGhgMsjvOTgE3fem4SYQ7jSIVQZKFwJmBUEWkCY1Q9OcQKV/+8avDttYBd6xbYTTy0qvCLIyd9i91v58/ABkqQ8lvYS2z560AGUocDOw7QBf6AD8PzBLtAAEwvY5Q4yUQM6NWFL86CUBtCJFVTi8uxigVtslVoxzIL8jiSJMae1Ac5Bylzrc6MDXiiQk/CME3Zhe3Vhe3aB59OZIWd+n4Gea89OKZwsK190Rm8XBgm1MshKoXBv9zv48/htqVjKIGl1Ji+9PiAlPTPz3jkk6eCV+fTYEJ5UEqK0gJmSpxIomxwOeOV6aVbvS8srSWxllYR5debNNey8eIBKwShb95aAlB4Ti1v04irzPi17tqHobch/nudBS2Ej0vLaAaDoDEHZH1cgTGkGooM3pyRsaQHA3PCl+yeE50wrkACs3/vvizN7b07vLTw75ZByBJSdSPqvAFaV1dJww64YGl7fKm/4M7W2pmt+ch3IXenf7JH5ee8eYEaYeQCaA8yUeXMW/XGZJxbIp4PLva79cs7entnTy3p2eoAOAFQrQFzRMx3yqvOVr6fWTsPMT64DamHnH3QuYVcAdEphZ3jagARdw7w5Nd6b8OxC6Zezh50ZdGK5sDArmfnakVe6AKEHP629xJ2joQcauY3EnQdso74eUuq2rlmDyWf/mTmUaH7vAlKyn00psKSHJvc5AFO8fqUMQwae/G0PKsv+OIs+OHOfXKH34Xh2vsKXMqwZrMVcdGLpU6zNDRF+H8zu4s4/tnuHKQWKGxTWADWHK+3euwBtAWgq65OzhKMMXZr3wUOZ0fTPmfvuMlCFp8ew8wmLpItL3OLM91cL16TbY6jpZ9hlJoZLuJn3OZ6gGXLyfQpgp0p0QjVWM5AUG6/bkAgfV6Dvw1xOur9nOwo1hBhlffHmbbnwrswhSqf3BTyxSEKXEmAmcFXIsKPqvY8wZu7E8RjCmNWuQo7+W6GRQtAsrixm9mJmzit+H87KGoXylW3U3kYV5o03GBpDkD7BqAsA8+AnPTXsg3tredcIZSCKdWjS3LeXHZSC+XYWfXwl7kdhGh+waFq41RUwZZ9cob09WGMFZyHR4u+zsFAVLQh6HbYXh36sNNurQkjiae7YrJfqMkLR4nWlxWeWj+0xXd8BlL766wA86fnV78srqwlbRWVVw1aRGcwiR2Xmz6szglK+tgAmFm6uyGx5MDQA1n8fnr1XmAWegF0VlZU1bCVuBaWqupYaNsWVSKlxFgi1Ge7lv7Xn1ojVHxdlaIjv5d6WOK/85VW4ddAEEVtoOR1XX4cBrrwts4KJMUwpXwu4VOVDxgwdJe/zvDcJrfo9gJYFWe5ra6BZAMwAKQkwCTSrPUKWuWFLs3cm39uDy9ZzK6uiUpstCzfxpIT6FVXqV1Yp8dz6NcBCdQXPGL6T4fF31i1MzhfOlyK2AQdPSMLH714JjExelf01c0FkBpSEjNNegsd8jPy84L7Q43TgKVkeUw+tskoq87FZhR1Vf1aS6bOzDh16BqGf0EiI8DTDONxWpHovrlB6zb+P3/vzLjjf9Mi3QvYezfcuGw0eAGsPN/WenwxPmj22sopqst4aQo5WIDRDU3pstntD2DDrZfn5zBKodqA1f97gLYqwZn3/HcPOMoYePbj8VGQWaT1EmstBTTn4qQPqz0k27LJgzQttVpPsizPu82BmEa70eowVNMVngQBmBprTexvYefLeQvLCvBmsS2P0FZ/nazuHA5PRCHBvT1zezuWdkPzx4GV5DWdm4eE6FKnIW8uDVSbE6RU8vo933efmBB35XQN8zP1wdu9VhzBxPe99doVClSEB0dh6thKziqoaCrZVUwU6lLXe/P9GqzxT/ZmxjHR7rfq38vVyGz7u6p5e9csN+HJglwcga2/J6DlZvnYDTp/3yoQv3Q0w0QOEEohW+8KQNIYprQFZQaVlmU2EMSurayj0DeHCvNFM/BnnCdsA20ASbMB+5GUhaOYA0w3oVB5jgqa5L8/5fSWVVwTf7Ly3qD9n2DGAuRHCNsA2UNAGEgo7gNMAPGe4yblzxj28xODAk9eIGnDG+wnYeeq3KxTGtPs+5PAmh5Vyw0rm/NAtrMjpUTOoQ5d8NNtb+t6b+i899BPG6tkpgZ26sKj1tAWrEKb6z0qqqmojWa4n7EqZvsrlDC+vvzfs/OfrpwteXsvTqz0m73jArqphq6yiSpdbziolxhVLonptmFDuu59OwShN3Dtm2MVXSZNn8GoBxL+f85NtIG4b8OKxWQMudpjZQdMAudAWhPYIwVTALt5KazJYFdMOPIQpCnVQF/xeRXpdXyNucUnD/UOwN9flx/fOmy4RYl2NPQRpN1jF0A/nrU9OXUjS1ktUOm1BnTdYIhc6tV/sNMTKFaKRSsBoa6x2Ruzyc/n7eO9/4ADnXXLyLpn12Hn5L128rSy06iElV0eJ3gsrPNXAOODE9rVhuTLjdISSvFZSkBamYngl08AVTSp1Cb2o8ygtgIg63/h+aawX9U8MMIULzWtayvdZqHgM/YV2ngFuwcGmCFTlmbU1jZBS9brEbUd0OGFKhV6jYtCmRdTzfkeQxgyfa/OoFws71t0ewyhL3X+zKX2JaoBYhC3tpxFEEKq0Aram4UsJ8oYVVBRNDQgHijH38xScg+NhUmyC1+JMZdlyeVCqyzVbd9WGbBMFShklMgHTHpbGeXYNr60XkjYuMO28qLTtmpn1z74r+H3AtTUtPTs1xm/R2nVqTZpaXXkeiYLvk2KgYfz2WK7pVN4qv1NgG7HkD6ebosr3pNT9vHRaAMoaOiGDxg2Q/DzdIMJz/h8oEC0UhCcekwAAAABJRU5ErkJggg==;" vertex="1" parent="1">
          <mxGeometry x="180" y="40" width="443" height="595" as="geometry" />
        </mxCell>
        <mxCell id="6ULDxKy6Y6hXR02FpAX_-3" value="" style="endArrow=none;html=1;edgeStyle=orthogonalEdgeStyle;curved=1;" edge="1" parent="1">
          <mxGeometry width="50" height="50" relative="1" as="geometry">
            <mxPoint x="430" y="460" as="sourcePoint" />
            <mxPoint x="750" y="390" as="targetPoint" />
            <Array as="points">
              <mxPoint x="430" y="430" />
              <mxPoint x="750" y="430" />
            </Array>
          </mxGeometry>
        </mxCell>
        <mxCell id="6ULDxKy6Y6hXR02FpAX_-4" value="" style="endArrow=none;html=1;edgeStyle=orthogonalEdgeStyle;curved=1;" edge="1" parent="1">
          <mxGeometry width="50" height="50" relative="1" as="geometry">
            <mxPoint x="440" y="350" as="sourcePoint" />
            <mxPoint x="760" y="280" as="targetPoint" />
            <Array as="points">
              <mxPoint x="440" y="320" />
              <mxPoint x="760" y="320" />
            </Array>
          </mxGeometry>
        </mxCell>
        <mxCell id="6ULDxKy6Y6hXR02FpAX_-5" value="" style="endArrow=none;html=1;edgeStyle=orthogonalEdgeStyle;curved=1;" edge="1" parent="1">
          <mxGeometry width="50" height="50" relative="1" as="geometry">
            <mxPoint x="90" y="310" as="sourcePoint" />
            <mxPoint x="380" y="310" as="targetPoint" />
            <Array as="points">
              <mxPoint x="150" y="310" />
              <mxPoint x="150" y="330" />
              <mxPoint x="380" y="330" />
            </Array>
          </mxGeometry>
        </mxCell>
        <mxCell id="6ULDxKy6Y6hXR02FpAX_-6" value="" style="endArrow=none;html=1;edgeStyle=orthogonalEdgeStyle;curved=1;" edge="1" parent="1">
          <mxGeometry width="50" height="50" relative="1" as="geometry">
            <mxPoint x="480" y="180" as="sourcePoint" />
            <mxPoint x="800" y="110" as="targetPoint" />
            <Array as="points">
              <mxPoint x="480" y="150" />
              <mxPoint x="800" y="150" />
            </Array>
          </mxGeometry>
        </mxCell>
        <mxCell id="6ULDxKy6Y6hXR02FpAX_-7" value="" style="endArrow=none;html=1;edgeStyle=orthogonalEdgeStyle;curved=1;" edge="1" parent="1">
          <mxGeometry width="50" height="50" relative="1" as="geometry">
            <mxPoint x="500" y="210" as="sourcePoint" />
            <mxPoint x="820" y="140" as="targetPoint" />
            <Array as="points">
              <mxPoint x="500" y="180" />
              <mxPoint x="820" y="180" />
            </Array>
          </mxGeometry>
        </mxCell>
        <mxCell id="6ULDxKy6Y6hXR02FpAX_-10" value="" style="endArrow=none;html=1;edgeStyle=orthogonalEdgeStyle;curved=1;" edge="1" parent="1">
          <mxGeometry width="50" height="50" relative="1" as="geometry">
            <mxPoint x="60" y="250" as="sourcePoint" />
            <mxPoint x="350" y="250" as="targetPoint" />
            <Array as="points">
              <mxPoint x="120" y="250" />
              <mxPoint x="120" y="270" />
              <mxPoint x="350" y="270" />
            </Array>
          </mxGeometry>
        </mxCell>
        <mxCell id="6ULDxKy6Y6hXR02FpAX_-11" value="" style="endArrow=none;html=1;edgeStyle=orthogonalEdgeStyle;curved=1;" edge="1" parent="1" source="6ULDxKy6Y6hXR02FpAX_-15">
          <mxGeometry width="50" height="50" relative="1" as="geometry">
            <mxPoint x="50" y="190" as="sourcePoint" />
            <mxPoint x="340" y="190" as="targetPoint" />
            <Array as="points">
              <mxPoint x="110" y="190" />
              <mxPoint x="110" y="210" />
              <mxPoint x="340" y="210" />
            </Array>
          </mxGeometry>
        </mxCell>
        <mxCell id="6ULDxKy6Y6hXR02FpAX_-12" value="" style="endArrow=none;html=1;edgeStyle=orthogonalEdgeStyle;curved=1;" edge="1" parent="1">
          <mxGeometry width="50" height="50" relative="1" as="geometry">
            <mxPoint x="410" y="90" as="sourcePoint" />
            <mxPoint x="700" y="90" as="targetPoint" />
            <Array as="points">
              <mxPoint x="470" y="90" />
              <mxPoint x="470" y="110" />
              <mxPoint x="700" y="110" />
            </Array>
          </mxGeometry>
        </mxCell>
        <mxCell id="6ULDxKy6Y6hXR02FpAX_-13" value="" style="endArrow=none;html=1;edgeStyle=orthogonalEdgeStyle;curved=1;" edge="1" parent="1">
          <mxGeometry width="50" height="50" relative="1" as="geometry">
            <mxPoint x="90" y="120" as="sourcePoint" />
            <mxPoint x="380" y="120" as="targetPoint" />
            <Array as="points">
              <mxPoint x="150" y="120" />
              <mxPoint x="150" y="140" />
              <mxPoint x="380" y="140" />
            </Array>
          </mxGeometry>
        </mxCell>
        <mxCell id="6ULDxKy6Y6hXR02FpAX_-14" value="1" style="text;html=1;strokeColor=none;fillColor=none;align=center;verticalAlign=middle;whiteSpace=wrap;rounded=0;" vertex="1" parent="1">
          <mxGeometry x="50" y="110" width="40" height="20" as="geometry" />
        </mxCell>
        <mxCell id="6ULDxKy6Y6hXR02FpAX_-15" value="2" style="text;html=1;strokeColor=none;fillColor=none;align=center;verticalAlign=middle;whiteSpace=wrap;rounded=0;" vertex="1" parent="1">
          <mxGeometry x="20" y="170" width="40" height="20" as="geometry" />
        </mxCell>
        <mxCell id="6ULDxKy6Y6hXR02FpAX_-18" value="3" style="text;html=1;strokeColor=none;fillColor=none;align=center;verticalAlign=middle;whiteSpace=wrap;rounded=0;" vertex="1" parent="1">
          <mxGeometry x="20" y="230" width="40" height="20" as="geometry" />
        </mxCell>
        <mxCell id="6ULDxKy6Y6hXR02FpAX_-19" value="4" style="text;html=1;strokeColor=none;fillColor=none;align=center;verticalAlign=middle;whiteSpace=wrap;rounded=0;" vertex="1" parent="1">
          <mxGeometry x="40" y="300" width="40" height="20" as="geometry" />
        </mxCell>
        <mxCell id="6ULDxKy6Y6hXR02FpAX_-20" value="5" style="text;html=1;strokeColor=none;fillColor=none;align=center;verticalAlign=middle;whiteSpace=wrap;rounded=0;" vertex="1" parent="1">
          <mxGeometry x="700" y="70" width="40" height="20" as="geometry" />
        </mxCell>
        <mxCell id="6ULDxKy6Y6hXR02FpAX_-21" value="" style="endArrow=none;html=1;edgeStyle=orthogonalEdgeStyle;curved=1;" edge="1" parent="1">
          <mxGeometry width="50" height="50" relative="1" as="geometry">
            <mxPoint x="530" y="210" as="sourcePoint" />
            <mxPoint x="810" y="210" as="targetPoint" />
            <Array as="points">
              <mxPoint x="530" y="200" />
              <mxPoint x="760" y="200" />
              <mxPoint x="760" y="210" />
            </Array>
          </mxGeometry>
        </mxCell>
        <mxCell id="6ULDxKy6Y6hXR02FpAX_-22" value="" style="endArrow=none;html=1;edgeStyle=orthogonalEdgeStyle;curved=1;" edge="1" parent="1">
          <mxGeometry width="50" height="50" relative="1" as="geometry">
            <mxPoint x="445" y="260" as="sourcePoint" />
            <mxPoint x="725" y="260" as="targetPoint" />
            <Array as="points">
              <mxPoint x="445" y="250" />
              <mxPoint x="675" y="250" />
              <mxPoint x="675" y="260" />
            </Array>
          </mxGeometry>
        </mxCell>
        <mxCell id="6ULDxKy6Y6hXR02FpAX_-23" value="6" style="text;html=1;strokeColor=none;fillColor=none;align=center;verticalAlign=middle;whiteSpace=wrap;rounded=0;" vertex="1" parent="1">
          <mxGeometry x="780" y="90" width="40" height="20" as="geometry" />
        </mxCell>
        <mxCell id="6ULDxKy6Y6hXR02FpAX_-24" value="7" style="text;html=1;strokeColor=none;fillColor=none;align=center;verticalAlign=middle;whiteSpace=wrap;rounded=0;" vertex="1" parent="1">
          <mxGeometry x="820" y="130" width="40" height="20" as="geometry" />
        </mxCell>
        <mxCell id="6ULDxKy6Y6hXR02FpAX_-25" value="8" style="text;html=1;strokeColor=none;fillColor=none;align=center;verticalAlign=middle;whiteSpace=wrap;rounded=0;" vertex="1" parent="1">
          <mxGeometry x="810" y="190" width="40" height="20" as="geometry" />
        </mxCell>
        <mxCell id="6ULDxKy6Y6hXR02FpAX_-26" value="9" style="text;html=1;strokeColor=none;fillColor=none;align=center;verticalAlign=middle;whiteSpace=wrap;rounded=0;" vertex="1" parent="1">
          <mxGeometry x="720" y="240" width="40" height="20" as="geometry" />
        </mxCell>
        <mxCell id="6ULDxKy6Y6hXR02FpAX_-27" value="10" style="text;html=1;strokeColor=none;fillColor=none;align=center;verticalAlign=middle;whiteSpace=wrap;rounded=0;" vertex="1" parent="1">
          <mxGeometry x="760" y="260" width="40" height="20" as="geometry" />
        </mxCell>
        <mxCell id="6ULDxKy6Y6hXR02FpAX_-28" value="11" style="text;html=1;strokeColor=none;fillColor=none;align=center;verticalAlign=middle;whiteSpace=wrap;rounded=0;" vertex="1" parent="1">
          <mxGeometry x="740" y="370" width="40" height="20" as="geometry" />
        </mxCell>
      </root>
    </mxGraphModel>
  </diagram>
</mxfile>
